<svg xmlns="http://www.w3.org/2000/svg" xmlns:xlink="http://www.w3.org/1999/xlink" width="20" height="20" viewBox="0 0 20 20" fill="none">
<path d="M5.83333 3.75008C5.83333 4.21032 6.20642 4.58341 6.66667 4.58341L13.3333 4.58341C13.7936 4.58341 14.1667 4.21032 14.1667 3.75008C14.1667 3.28984 13.7936 2.91675 13.3333 2.91675L6.66667 2.91675C6.20642 2.91675 5.83333 3.28984 5.83333 3.75008ZM4.58333 5.41675L15.4167 5.41675C17.2576 5.41675 18.75 6.90913 18.75 8.75008L18.75 13.7501C18.75 15.591 17.2576 17.0834 15.4167 17.0834L4.58333 17.0834C2.74238 17.0834 1.25 15.591 1.25 13.7501L1.25 8.75008C1.25 6.90913 2.74238 5.41675 4.58333 5.41675ZM4.58333 7.08341C3.66286 7.08341 2.91667 7.82962 2.91667 8.75008L2.91667 13.7501C2.91667 14.6705 3.66286 15.4167 4.58333 15.4167L15.4167 15.4167C16.3371 15.4167 17.0833 14.6705 17.0833 13.7501L17.0833 8.75008C17.0833 7.82962 16.3371 7.08341 15.4167 7.08341L4.58333 7.08341ZM8.33333 10.4167L8.33333 12.0834C8.33333 12.5437 7.96025 12.9167 7.5 12.9167C7.03975 12.9167 6.66667 12.5437 6.66667 12.0834L6.66667 10.4167C6.66667 9.9565 7.03975 9.58341 7.5 9.58341C7.96025 9.58341 8.33333 9.9565 8.33333 10.4167ZM13.3333 10.4167L13.3333 12.0834C13.3333 12.5437 12.9602 12.9167 12.5 12.9167C12.0398 12.9167 11.6667 12.5437 11.6667 12.0834L11.6667 10.4167C11.6667 9.9565 12.0398 9.58341 12.5 9.58341C12.9602 9.58341 13.3333 9.9565 13.3333 10.4167Z" fill-rule="evenodd"  fill="#000000" >
</path>
</svg>
