<svg xmlns="http://www.w3.org/2000/svg" xmlns:xlink="http://www.w3.org/1999/xlink" width="44" height="44" viewBox="0 0 44 44" fill="none">
<path     fill="#0D9E64"  d="M9.5 3L27 3L27.5 3.5L27.5 8L32.25 12.5L37 12.5L37.5 13L37.5 38.5C37.5 40.1569 36.1569 41.5 34.5 41.5L9.5 41.5C7.84315 41.5 6.5 40.1569 6.5 38.5L6.5 6C6.5 4.34315 7.84315 3 9.5 3Z">
</path>
<path     fill="#FFFFFF"  d="M22 25.5C13.3583 25.5 11.2829 32.1142 10.6734 36.1081C10.5606 36.8469 11.1485 37.5 11.8958 37.5L32.1042 37.5C32.8515 37.5 33.441 36.866 33.3222 36.1281C32.6854 32.1727 30.4769 25.5 22 25.5Z">
</path>
<path     fill="#FFFFFF"  d="M14.1236 24.9688L18.3662 29.2114C18.5615 29.4067 18.5615 29.7233 18.3662 29.9185L17.3056 30.9792C17.1103 31.1745 16.7937 31.1745 16.5985 30.9792L12.3558 26.7365C12.1605 26.5413 12.1605 26.2247 12.3558 26.0294L13.4165 24.9688C13.6117 24.7735 13.9283 24.7735 14.1236 24.9688Z">
</path>
<path     fill="#FFFFFF"  d="M30.0964 24.9688L25.8538 29.2114C25.6585 29.4067 25.6585 29.7233 25.8538 29.9185L26.9144 30.9792C27.1097 31.1745 27.4263 31.1745 27.6215 30.9792L31.8642 26.7365C32.0594 26.5413 32.0594 26.2247 31.8642 26.0294L30.8035 24.9688C30.6082 24.7735 30.2917 24.7735 30.0964 24.9688Z">
</path>
<path d="M20.25 30.5C20.25 31.1904 19.6904 31.75 19 31.75C18.3096 31.75 17.75 31.1904 17.75 30.5C17.75 29.8096 18.3096 29.25 19 29.25C19.6904 29.25 20.25 29.8096 20.25 30.5Z"   fill="#0D9E64" >
</path>
<path d="M26.25 30.5C26.25 31.1904 25.6904 31.75 25 31.75C24.3096 31.75 23.75 31.1904 23.75 30.5C23.75 29.8096 24.3096 29.25 25 29.25C25.6904 29.25 26.25 29.8096 26.25 30.5Z"   fill="#0D9E64" >
</path>
<path     fill="#51C58F"  d="M27.2031 3L27 3L27 3C27.1601 3.16007 27.25 3.37718 27.25 3.60355L27.25 9.75C27.25 11.4069 28.5931 12.75 30.25 12.75L36.8964 12.75C37.1228 12.75 37.3399 12.8399 37.5 13L37.5 13L37.5 12.8603C37.5 12.3111 37.2742 11.7861 36.8755 11.4084L28.5785 3.54809C28.2071 3.19615 27.7148 3 27.2031 3Z">
</path>
</svg>
