<svg xmlns="http://www.w3.org/2000/svg" xmlns:xlink="http://www.w3.org/1999/xlink" width="44" height="44" viewBox="0 0 44 44" fill="none">
<path     fill="#1ABD5B" fill-opacity="0.1" d="M28 0C33.6 0 36.4 0 38.54 1.09Q39.2412 1.44729 39.8779 1.90988Q40.5146 2.37246 41.0711 2.92894Q41.6275 3.48543 42.0901 4.12211Q42.5527 4.75879 42.91 5.46C44 7.6 44 10.4 44 16L44 28C44 33.6 44 36.4 42.91 38.54Q42.5527 39.2412 42.0901 39.8779Q41.6275 40.5146 41.0711 41.0711Q40.5146 41.6275 39.8779 42.0901Q39.2412 42.5527 38.54 42.91C36.4 44 33.6 44 28 44L16 44C10.4 44 7.6 44 5.46 42.91Q4.75879 42.5527 4.12211 42.0901Q3.48543 41.6275 2.92894 41.0711Q2.37246 40.5146 1.90988 39.8779Q1.44729 39.2412 1.09 38.54C0 36.4 0 33.6 0 28L0 16C0 10.4 0 7.6 1.09 5.46Q1.44729 4.75879 1.90988 4.12211Q2.37246 3.48543 2.92894 2.92894Q3.48543 2.37246 4.12211 1.90988Q4.75879 1.44729 5.46 1.09C7.6 0 10.4 0 16 0L28 0Z">
</path>
<path d="M15.446 12.6295C17.2423 11.1926 19.5208 10.3334 22 10.3334C24.4792 10.3334 26.7577 11.1926 28.554 12.6295L30.2496 10.9339L31.8995 12.5838L30.2039 14.2794C31.6408 16.0757 32.5 18.3542 32.5 20.8334L32.5 22L11.5 22L11.5 20.8334C11.5 18.3542 12.3592 16.0757 13.7961 14.2794L12.1005 12.5838L13.7504 10.9339L15.446 12.6295ZM11.5 24.3334L32.5 24.3334L32.5 32.5C32.5 33.1444 31.9777 33.6667 31.3333 33.6667L12.6667 33.6667C12.0223 33.6667 11.5 33.1444 11.5 32.5L11.5 24.3334ZM18.5 18.5C19.1443 18.5 19.6667 17.9777 19.6667 17.3334C19.6667 16.689 19.1443 16.1667 18.5 16.1667C17.8557 16.1667 17.3333 16.689 17.3333 17.3334C17.3333 17.9777 17.8557 18.5 18.5 18.5ZM25.5 18.5C26.1444 18.5 26.6667 17.9777 26.6667 17.3334C26.6667 16.689 26.1444 16.1667 25.5 16.1667C24.8556 16.1667 24.3333 16.689 24.3333 17.3334C24.3333 17.9777 24.8556 18.5 25.5 18.5Z"   fill="#1ABD5B" >
</path>
</svg>
