<svg xmlns="http://www.w3.org/2000/svg" xmlns:xlink="http://www.w3.org/1999/xlink" width="14" height="14" viewBox="0 0 14 14" fill="none">
<path d="M5.14357 3.5658C5.13627 3.57673 5.12952 3.58799 5.12332 3.59959C5.11713 3.61118 5.11151 3.62305 5.10648 3.6352C5.10145 3.64734 5.09703 3.6597 5.09321 3.67228C5.0894 3.68486 5.08621 3.6976 5.08364 3.7105C5.08108 3.72339 5.07915 3.73638 5.07786 3.74946C5.07657 3.76254 5.07593 3.77566 5.07593 3.7888C5.07593 3.80195 5.07657 3.81507 5.07786 3.82815C5.07915 3.84123 5.08108 3.85422 5.08364 3.86711C5.08621 3.88001 5.0894 3.89274 5.09321 3.90532C5.09703 3.91791 5.10145 3.93027 5.10648 3.94241C5.11151 3.95456 5.11713 3.96643 5.12332 3.97802C5.12952 3.98962 5.13627 4.00088 5.14357 4.01181C5.15088 4.02274 5.1587 4.03329 5.16704 4.04345C5.17538 4.05361 5.1842 4.06334 5.19349 4.07264L8.12074 7L5.19349 9.92737C5.1842 9.93666 5.17538 9.94639 5.16704 9.95655C5.1587 9.96672 5.15088 9.97727 5.14357 9.9882C5.13627 9.99913 5.12952 10.0104 5.12332 10.022C5.11713 10.0336 5.11151 10.0454 5.10648 10.0576C5.10145 10.0697 5.09703 10.0821 5.09321 10.0947C5.0894 10.1073 5.08621 10.12 5.08364 10.1329C5.08108 10.1458 5.07915 10.1588 5.07786 10.1719C5.07657 10.1849 5.07593 10.198 5.07593 10.2112C5.07593 10.2243 5.07657 10.2375 5.07786 10.2505C5.07915 10.2636 5.08108 10.2766 5.08364 10.2895C5.08621 10.3024 5.0894 10.3151 5.09321 10.3277C5.09703 10.3403 5.10145 10.3527 5.10648 10.3648C5.11151 10.3769 5.11713 10.3888 5.12332 10.4004C5.12952 10.412 5.13627 10.4233 5.14357 10.4342C5.15088 10.4451 5.1587 10.4557 5.16704 10.4658C5.17538 10.476 5.1842 10.4857 5.19349 10.495C5.21213 10.5137 5.2324 10.5303 5.25431 10.5449C5.27623 10.5596 5.29936 10.572 5.32371 10.582C5.34806 10.5921 5.37316 10.5997 5.39901 10.6049C5.42485 10.61 5.45096 10.6126 5.47731 10.6126C5.50367 10.6126 5.52977 10.61 5.55562 10.6049C5.58147 10.5997 5.60656 10.5921 5.63091 10.582C5.65526 10.572 5.67839 10.5596 5.70031 10.5449C5.72222 10.5303 5.7425 10.5137 5.76113 10.495L8.68922 7.56682C8.76598 7.49006 8.82468 7.40165 8.86533 7.30161C8.90457 7.20499 8.92419 7.10446 8.92419 7C8.92419 6.89554 8.90457 6.79501 8.86533 6.69839C8.82468 6.59835 8.76598 6.50994 8.68922 6.43318L5.76113 3.50497C5.75184 3.49568 5.74211 3.48686 5.73195 3.47852C5.72179 3.47018 5.71124 3.46236 5.70031 3.45505C5.68938 3.44775 5.67812 3.441 5.66652 3.4348C5.65493 3.42861 5.64306 3.42299 5.63091 3.41796C5.61877 3.41293 5.60641 3.40851 5.59383 3.40469C5.58125 3.40087 5.56851 3.39768 5.55562 3.39512C5.54272 3.39255 5.52974 3.39063 5.51665 3.38934C5.50357 3.38805 5.49046 3.38741 5.47731 3.38741C5.46417 3.38741 5.45105 3.38805 5.43797 3.38934C5.42489 3.39063 5.4119 3.39255 5.39901 3.39512C5.38611 3.39768 5.37338 3.40087 5.3608 3.40469C5.34822 3.40851 5.33585 3.41293 5.32371 3.41796C5.31156 3.42299 5.29969 3.42861 5.2881 3.4348C5.27651 3.441 5.26524 3.44775 5.25431 3.45505C5.24338 3.46236 5.23284 3.47018 5.22268 3.47852C5.21251 3.48686 5.20279 3.49568 5.19349 3.50497C5.1842 3.51427 5.17538 3.524 5.16704 3.53416C5.1587 3.54432 5.15088 3.55487 5.14357 3.5658Z"   fill="#3C3C43" fill-opacity="0.3">
</path>
</svg>
