<svg xmlns="http://www.w3.org/2000/svg" xmlns:xlink="http://www.w3.org/1999/xlink" width="20" height="20" viewBox="0 0 20 20" fill="none">
<path d="M13.0833 15.8949C12.4708 16.2824 11.7875 16.5907 11.0292 16.8241C10.775 16.9032 10.525 16.9657 10.2792 17.0199C10.175 17.0407 10.0833 17.0574 10 17.0741C9.91667 17.0574 9.825 17.0407 9.72083 17.0199C9.475 16.9657 9.225 16.9032 8.97083 16.8241C8.2125 16.5907 7.52917 16.2824 6.91667 15.8949C6.1 15.3782 5.46667 14.7532 5.00833 14.0199C4.44583 13.1157 4.16667 12.0532 4.16667 10.8282L4.16667 5.04491C4.16667 4.85324 4.225 4.68241 4.34167 4.53241C4.4625 4.38241 4.6125 4.28657 4.79583 4.23657L9.8 2.99074C9.93333 2.95741 10.0667 2.95741 10.2042 2.99074L15.2 4.23657C15.3875 4.28241 15.5375 4.38241 15.6583 4.53241C15.775 4.68241 15.8333 4.85324 15.8333 5.04491L15.8333 10.8282C15.8333 12.0532 15.5542 13.1157 14.9917 14.0199C14.5333 14.7532 13.9 15.3782 13.0833 15.8949ZM3.62917 2.95741C3.8625 2.80324 4.12083 2.69074 4.39583 2.61991L9.39167 1.37407C9.79583 1.27407 10.2 1.27407 10.6042 1.37407L15.6083 2.61991C15.8833 2.69074 16.1375 2.80324 16.3708 2.95741C16.6 3.10741 16.8 3.29074 16.9708 3.50741C17.1375 3.72407 17.2708 3.96157 17.3583 4.21991C17.4542 4.48657 17.5 4.76157 17.5 5.04491L17.5 10.8282C17.5 12.3699 17.1333 13.7282 16.4042 14.8991C15.8167 15.8491 15.0042 16.6491 13.975 17.3032C13.2375 17.7699 12.4167 18.1407 11.5167 18.4157C11.0208 18.5699 10.5708 18.6741 10.1625 18.7366C10.0542 18.7532 9.94583 18.7532 9.8375 18.7366C9.42917 18.6741 8.97917 18.5699 8.48333 18.4157C7.58333 18.1407 6.7625 17.7699 6.025 17.3032C4.99583 16.6491 4.18333 15.8491 3.59583 14.8991C2.86667 13.7282 2.5 12.3699 2.5 10.8282L2.5 5.04491C2.5 4.76157 2.54583 4.48657 2.64167 4.21991C2.72917 3.96157 2.8625 3.72407 3.02917 3.50741C3.2 3.29074 3.4 3.10741 3.62917 2.95741ZM10.0375 12.4792L13.9292 8.50003C13.95 8.4792 13.9667 8.45836 13.9833 8.43753C14 8.4167 14.0167 8.39586 14.0333 8.37086C14.0458 8.35003 14.0583 8.32503 14.0708 8.30003C14.0833 8.2792 14.0958 8.2542 14.1083 8.22503L14.1333 8.15003C14.1417 8.12503 14.1458 8.09586 14.1542 8.07086C14.1583 8.0417 14.1625 8.0167 14.1625 7.98753C14.1667 7.96253 14.1667 7.93336 14.1667 7.90836C14.1667 7.8792 14.1667 7.8542 14.1625 7.82503C14.1583 7.80003 14.1542 7.77086 14.15 7.74586C14.1417 7.7167 14.1375 7.6917 14.1292 7.6667C14.1208 7.6417 14.1083 7.61253 14.1 7.58753C14.0875 7.56253 14.075 7.5417 14.0625 7.5167C14.05 7.4917 14.0375 7.4667 14.0208 7.44586C14.0042 7.42503 13.9875 7.40003 13.9708 7.3792C13.9542 7.35836 13.9375 7.3417 13.9167 7.32086C13.8958 7.30003 13.875 7.28336 13.8542 7.2667C13.8333 7.25003 13.8125 7.23336 13.7875 7.2167C13.7667 7.2042 13.7417 7.1917 13.7167 7.1792C13.6958 7.1667 13.6708 7.1542 13.6417 7.1417L13.5667 7.1167C13.5417 7.10836 13.5125 7.1042 13.4875 7.09586C13.4583 7.0917 13.4333 7.08753 13.4042 7.08753C13.3792 7.08336 13.35 7.08336 13.325 7.08336C13.2958 7.08336 13.2708 7.08336 13.2417 7.08753C13.2167 7.0917 13.1875 7.09586 13.1625 7.10003C13.1333 7.10836 13.1083 7.11253 13.0833 7.12086C13.0583 7.1292 13.0292 7.1417 13.0042 7.15003C12.9792 7.16253 12.9583 7.17503 12.9333 7.18753C12.9083 7.20003 12.8833 7.21253 12.8625 7.2292C12.8417 7.24586 12.8167 7.26253 12.7958 7.2792C12.775 7.29586 12.7583 7.31253 12.7375 7.33336L8.84583 11.3125L7.25833 9.7167C7.2375 9.69586 7.21667 9.6792 7.19583 9.66253C7.175 9.64586 7.15417 9.6292 7.12917 9.61253C7.10833 9.60003 7.08333 9.58336 7.0625 9.57086C7.0375 9.55836 7.0125 9.54586 6.9875 9.53753C6.9625 9.52503 6.9375 9.5167 6.90833 9.50836C6.88333 9.50003 6.85833 9.4917 6.82917 9.48753C6.80417 9.48336 6.77917 9.4792 6.75 9.47503C6.72083 9.47503 6.69583 9.47086 6.66667 9.47086C6.64167 9.47086 6.6125 9.47503 6.5875 9.47503C6.55833 9.4792 6.53333 9.48336 6.50417 9.48753C6.47917 9.4917 6.45417 9.50003 6.425 9.50836L6.35 9.53336L6.275 9.57086C6.25 9.58336 6.22917 9.59586 6.20417 9.61253C6.18333 9.62503 6.1625 9.6417 6.14167 9.65836C6.11667 9.67503 6.1 9.69586 6.07917 9.71253C6.04167 9.7542 6.00417 9.79586 5.975 9.8417C5.94583 9.88753 5.91667 9.93336 5.89583 9.98336C5.875 10.0334 5.8625 10.0875 5.85 10.1417C5.8375 10.1959 5.83333 10.25 5.83333 10.3042C5.83333 10.3584 5.8375 10.4125 5.85 10.4667C5.85833 10.5209 5.875 10.5709 5.89583 10.6209C5.91667 10.6709 5.94167 10.7209 5.97083 10.7667C6.00417 10.8125 6.0375 10.8542 6.075 10.8917L7.6625 12.4875C7.82083 12.6459 8.00417 12.7667 8.20833 12.8542C8.4125 12.9375 8.62917 12.9792 8.85 12.9792C9.075 12.9792 9.2875 12.9334 9.49583 12.8459C9.70417 12.7584 9.88333 12.6375 10.0375 12.4792Z" fill-rule="evenodd"  fill="#000000" >
</path>
</svg>
