<svg xmlns="http://www.w3.org/2000/svg" xmlns:xlink="http://www.w3.org/1999/xlink" width="20" height="20" viewBox="0 0 20 20" fill="none">
<path d="M17.4833 9.01675C17.4792 9.04175 17.4708 9.07091 17.4625 9.09591C17.4542 9.12091 17.4458 9.14591 17.4375 9.17508C17.425 9.20008 17.4125 9.22508 17.4 9.24591C17.3875 9.27091 17.375 9.29591 17.3583 9.31675C17.3458 9.34175 17.3292 9.36258 17.3125 9.38341C17.2917 9.40425 17.275 9.42508 17.2542 9.44175C17.2375 9.46258 17.2167 9.47925 17.1958 9.50008C17.175 9.51675 17.1542 9.53341 17.1292 9.54591C17.1083 9.56258 17.0833 9.57508 17.0583 9.58758C17.0375 9.60008 17.0125 9.61258 16.9875 9.62508C16.9583 9.63341 16.9333 9.64175 16.9083 9.65008C16.8833 9.65841 16.8542 9.66675 16.8292 9.67091C16.8042 9.67508 16.775 9.67925 16.75 9.68341C16.7208 9.68758 16.6958 9.68758 16.6667 9.68758C16.6375 9.68758 16.6125 9.68758 16.5833 9.68341C16.5583 9.67925 16.5292 9.67508 16.5042 9.67091C16.4792 9.66675 16.45 9.65841 16.425 9.65008C16.4 9.64175 16.375 9.63341 16.3458 9.62508C16.3208 9.61258 16.2958 9.60008 16.275 9.58758C16.25 9.57508 16.225 9.56258 16.2042 9.54591C16.1792 9.53341 16.1583 9.51675 16.1375 9.50008C16.1167 9.47925 16.0958 9.46258 16.0792 9.44175L10.8333 4.19951L10.8333 17.5001C10.8333 17.5542 10.8292 17.6084 10.8167 17.6626C10.8083 17.7167 10.7917 17.7667 10.7708 17.8209C10.75 17.8709 10.725 17.9167 10.6917 17.9626C10.6625 18.0084 10.6292 18.0501 10.5917 18.0876C10.55 18.1292 10.5083 18.1626 10.4625 18.1917C10.4167 18.2251 10.3708 18.2501 10.3208 18.2709C10.2708 18.2917 10.2167 18.3084 10.1625 18.3167C10.1083 18.3292 10.0542 18.3334 10 18.3334C9.975 18.3334 9.94583 18.3334 9.92083 18.3292C9.89167 18.3251 9.86667 18.3209 9.8375 18.3167C9.8125 18.3126 9.78333 18.3042 9.75833 18.2959L9.68333 18.2709L9.60833 18.2334C9.58333 18.2209 9.55833 18.2084 9.5375 18.1917C9.51667 18.1792 9.49167 18.1626 9.47083 18.1459C9.45 18.1251 9.42917 18.1084 9.4125 18.0876C9.39167 18.0709 9.375 18.0501 9.35833 18.0292C9.3375 18.0084 9.32083 17.9876 9.30833 17.9626C9.29167 17.9417 9.27917 17.9167 9.26667 17.8917C9.25417 17.8709 9.24167 17.8459 9.22917 17.8209C9.22083 17.7917 9.2125 17.7667 9.20417 17.7417C9.19583 17.7167 9.1875 17.6876 9.18333 17.6626C9.17917 17.6376 9.175 17.6084 9.17083 17.5834C9.16667 17.5542 9.16667 17.5292 9.16667 17.5001L9.16667 4.19951L3.92083 9.44175C3.90417 9.46258 3.88333 9.47925 3.8625 9.50008C3.84167 9.51675 3.82083 9.53341 3.79583 9.54591C3.775 9.56258 3.75 9.57508 3.725 9.58758C3.70417 9.60008 3.67917 9.61258 3.65417 9.62508C3.625 9.63341 3.6 9.64175 3.575 9.65008C3.55 9.65841 3.52083 9.66675 3.49583 9.67091C3.47083 9.67508 3.44167 9.67925 3.41667 9.68341C3.3875 9.68758 3.3625 9.68758 3.33333 9.68758C3.30417 9.68758 3.27917 9.68758 3.25 9.68341C3.225 9.67925 3.19583 9.67508 3.17083 9.67091C3.14583 9.66675 3.11667 9.65841 3.09167 9.65008C3.06667 9.64175 3.04167 9.63341 3.0125 9.62508C2.9875 9.61258 2.9625 9.60008 2.94167 9.58758C2.91667 9.57508 2.89167 9.56258 2.87083 9.54591C2.84583 9.53341 2.825 9.51675 2.80417 9.50008C2.78333 9.47925 2.7625 9.46258 2.74583 9.44175C2.725 9.42508 2.70833 9.40425 2.6875 9.38341C2.67083 9.36258 2.65417 9.34175 2.64167 9.31675C2.625 9.29591 2.6125 9.27091 2.6 9.24591C2.5875 9.22508 2.575 9.20008 2.5625 9.17508C2.55417 9.14591 2.54583 9.12091 2.5375 9.09591C2.52917 9.07091 2.52083 9.04175 2.51667 9.01675C2.5125 8.99175 2.50833 8.96258 2.50417 8.93758C2.5 8.90841 2.5 8.88341 2.5 8.85425C2.5 8.82508 2.5 8.80008 2.50417 8.77091C2.50833 8.74591 2.5125 8.71675 2.51667 8.69175C2.52083 8.66675 2.52917 8.63758 2.5375 8.61258C2.54583 8.58758 2.55417 8.56258 2.5625 8.53341C2.575 8.50841 2.5875 8.48341 2.6 8.46258C2.6125 8.43758 2.625 8.41258 2.64167 8.39175C2.65417 8.36675 2.67083 8.34591 2.6875 8.32508C2.70833 8.30425 2.725 8.28341 2.74583 8.26675L8.825 2.18758C8.98333 2.02508 9.16667 1.90425 9.375 1.82091C9.575 1.73758 9.78333 1.69591 10 1.69591C10.2167 1.69591 10.425 1.73758 10.625 1.82091C10.8333 1.90425 11.0167 2.02508 11.175 2.18758L17.2542 8.26675C17.275 8.28341 17.2917 8.30425 17.3125 8.32508C17.3292 8.34591 17.3458 8.36675 17.3583 8.39175C17.375 8.41258 17.3875 8.43758 17.4 8.46258C17.4125 8.48341 17.425 8.50841 17.4375 8.53341C17.4458 8.56258 17.4542 8.58758 17.4625 8.61258C17.4708 8.63758 17.4792 8.66675 17.4833 8.69175C17.4875 8.71675 17.4917 8.74591 17.4958 8.77091C17.5 8.80008 17.5 8.82508 17.5 8.85425C17.5 8.88341 17.5 8.90841 17.4958 8.93758C17.4917 8.96258 17.4875 8.99175 17.4833 9.01675Z"   fill="#000000" >
</path>
</svg>
