<svg xmlns="http://www.w3.org/2000/svg" xmlns:xlink="http://www.w3.org/1999/xlink" width="20" height="20" viewBox="0 0 20 20" fill="none"><g opacity="1"  transform="translate(0 0)"><path id="圆形 1" fill-rule="evenodd" style="fill:#007AFF" opacity="1" d="M10 0C4.48 0 0 4.48 0 10C0 15.52 4.48 20 10 20C15.52 20 20 15.52 20 10C20 4.48 15.52 0 10 0Z"></path><g opacity="1"  transform="translate(3.5 4)"><mask id="bg-mask-0" fill="white"><use transform="translate(0 0)" xlink:href="#path_0"></use></mask><g mask="url(#bg-mask-0)" ><path  id="路径 1" style="fill:#FFFFFF; opacity:1;" d="M3.23864 5.97142L5.94864 8.68142L5.41831 9.21175L4.88798 8.68142L10.308 3.26142Q10.3602 3.20918 10.4216 3.16815Q10.4831 3.12711 10.5513 3.09884Q10.6195 3.07057 10.692 3.05616Q10.7644 3.04175 10.8383 3.04175Q10.9122 3.04175 10.9846 3.05616Q11.0571 3.07057 11.1253 3.09884Q11.1936 3.12711 11.255 3.16815Q11.3164 3.20918 11.3686 3.26142Q11.4209 3.31365 11.4619 3.37507Q11.503 3.43649 11.5312 3.50474Q11.5595 3.57298 11.5739 3.64543Q11.5883 3.71788 11.5883 3.79175Q11.5883 3.86562 11.5739 3.93807Q11.5595 4.01051 11.5312 4.07876Q11.503 4.14701 11.4619 4.20843Q11.4209 4.26985 11.3686 4.32208L5.94864 9.74208C5.65575 10.035 5.18088 10.035 4.88798 9.74208L2.17798 7.03208Q2.12575 6.97985 2.08471 6.91843Q2.04367 6.85701 2.0154 6.78876Q1.98713 6.72051 1.97272 6.64807Q1.95831 6.57562 1.95831 6.50175Q1.95831 6.42788 1.97272 6.35543Q1.98713 6.28298 2.0154 6.21474Q2.04367 6.14649 2.08471 6.08507Q2.12575 6.02365 2.17798 5.97142Q2.23022 5.91919 2.29164 5.87815Q2.35305 5.83711 2.4213 5.80884Q2.48955 5.78057 2.562 5.76616Q2.63444 5.75175 2.70831 5.75175Q2.78218 5.75175 2.85463 5.76616Q2.92708 5.78057 2.99533 5.80884Q3.06357 5.83711 3.12499 5.87815Q3.18641 5.91919 3.23864 5.97142Z"></path></g></g></g><defs><rect id="path_0" x="0" y="0" width="13" height="13" rx="0" ry="0"/></defs></svg>