<svg xmlns="http://www.w3.org/2000/svg" xmlns:xlink="http://www.w3.org/1999/xlink" width="14" height="14" viewBox="0 0 14 14" fill="none">
<path d="M6.99996 2.28337L10.9622 6.2456L10.9625 6.24589C11.068 6.35144 11.2139 6.41675 11.375 6.41675C11.6971 6.41675 11.9583 6.15559 11.9583 5.83342C11.9583 5.67233 11.893 5.52649 11.7874 5.42094L11.7872 5.42071L7.82491 1.45841C7.3693 1.0028 6.63062 1.0028 6.17501 1.45841L2.21283 5.42059L2.21248 5.42094C2.10693 5.52649 2.04163 5.67233 2.04163 5.83342C2.04163 6.15559 2.30278 6.41675 2.62496 6.41675C2.78605 6.41675 2.93188 6.35144 3.03743 6.24589L3.03784 6.24548L6.99996 2.28337ZM6.99996 11.7168L10.9622 7.75454L10.9625 7.75424C11.068 7.64869 11.2139 7.58339 11.375 7.58339C11.6971 7.58339 11.9583 7.84454 11.9583 8.16672C11.9583 8.32781 11.893 8.47364 11.7874 8.5792L11.7872 8.57943L7.82491 12.5417C7.3693 12.9973 6.63062 12.9973 6.17501 12.5417L2.21283 8.57954L2.21248 8.5792C2.10693 8.47364 2.04163 8.32781 2.04163 8.16672C2.04163 7.84454 2.30278 7.58339 2.62496 7.58339C2.78605 7.58339 2.93188 7.64869 3.03743 7.75424L3.03784 7.75465L6.99996 11.7168Z" fill-rule="evenodd"  fill="#000000" >
</path>
</svg>
