<svg xmlns="http://www.w3.org/2000/svg" xmlns:xlink="http://www.w3.org/1999/xlink" width="24" height="24" viewBox="0 0 24 24" fill="none">
<path d="M10.61 3.58C10.49 3.63 10.385 3.7 10.295 3.795C10.2 3.885 10.13 3.99 10.08 4.11C10.025 4.235 10 4.365 10 4.5L14 4.5C14 4.365 13.975 4.235 13.92 4.11C13.87 3.99 13.8 3.885 13.705 3.795C13.615 3.7 13.51 3.63 13.39 3.58C13.265 3.525 13.135 3.5 13 3.5L11 3.5C10.865 3.5 10.735 3.525 10.61 3.58ZM9.83 1.735C10.205 1.58 10.595 1.5 11 1.5L13 1.5C13.405 1.5 13.795 1.58 14.17 1.735C14.525 1.89 14.845 2.1 15.12 2.38C15.4 2.655 15.61 2.975 15.765 3.33C15.92 3.705 16 4.095 16 4.5L21.5 4.5C21.565 4.5 21.63 4.505 21.695 4.52C21.76 4.535 21.82 4.55 21.885 4.575C21.945 4.6 22 4.635 22.055 4.67C22.11 4.705 22.16 4.745 22.205 4.795C22.255 4.84 22.295 4.89 22.33 4.945C22.37 5 22.4 5.055 22.425 5.12C22.45 5.18 22.47 5.24 22.48 5.305C22.495 5.37 22.5 5.435 22.5 5.5C22.5 5.535 22.5 5.565 22.495 5.6C22.49 5.63 22.485 5.665 22.48 5.695C22.475 5.73 22.465 5.76 22.455 5.79C22.445 5.82 22.435 5.855 22.425 5.885C22.41 5.915 22.395 5.945 22.38 5.97C22.365 6 22.35 6.03 22.33 6.055C22.315 6.085 22.295 6.11 22.275 6.135C22.25 6.16 22.23 6.185 22.205 6.21C22.185 6.23 22.16 6.255 22.135 6.275C22.11 6.295 22.085 6.315 22.055 6.33C22.03 6.35 22 6.365 21.97 6.38C21.94 6.4 21.915 6.41 21.885 6.425C21.85 6.435 21.82 6.45 21.79 6.455C21.76 6.465 21.725 6.475 21.695 6.48C21.665 6.49 21.63 6.49 21.6 6.495C21.565 6.5 21.535 6.5 21.5 6.5L20 6.5L20 18.5C20 19.04 19.895 19.56 19.685 20.055C19.48 20.535 19.195 20.96 18.83 21.33C18.46 21.695 18.035 21.98 17.555 22.185C17.06 22.395 16.54 22.5 16 22.5L8 22.5C7.46 22.5 6.94 22.395 6.445 22.185C5.965 21.98 5.54 21.695 5.17 21.33C4.805 20.96 4.52 20.535 4.315 20.055C4.105 19.56 4 19.04 4 18.5L4 6.5L2.5 6.5C2.465 6.5 2.435 6.5 2.4 6.495C2.37 6.49 2.335 6.485 2.305 6.48C2.275 6.475 2.24 6.465 2.21 6.455C2.18 6.445 2.15 6.435 2.115 6.425C2.085 6.41 2.055 6.395 2.03 6.38C2 6.365 1.97 6.35 1.945 6.33C1.915 6.315 1.89 6.295 1.865 6.275C1.84 6.25 1.815 6.23 1.795 6.205C1.77 6.185 1.75 6.16 1.725 6.135C1.705 6.11 1.685 6.085 1.67 6.055C1.65 6.03 1.635 6 1.62 5.97C1.605 5.94 1.59 5.915 1.575 5.885C1.565 5.85 1.555 5.82 1.545 5.79C1.535 5.76 1.525 5.725 1.52 5.695C1.515 5.665 1.51 5.63 1.505 5.6C1.5 5.565 1.5 5.535 1.5 5.5C1.5 5.465 1.5 5.435 1.505 5.4C1.51 5.37 1.515 5.335 1.52 5.305C1.525 5.275 1.535 5.24 1.545 5.21C1.555 5.18 1.565 5.15 1.575 5.115C1.59 5.085 1.605 5.055 1.62 5.03C1.635 5 1.65 4.97 1.67 4.945C1.685 4.915 1.705 4.89 1.725 4.865C1.75 4.84 1.77 4.815 1.795 4.795C1.815 4.77 1.84 4.75 1.865 4.725C1.89 4.705 1.915 4.685 1.945 4.67C1.97 4.65 2 4.635 2.03 4.62C2.055 4.605 2.085 4.59 2.115 4.575C2.15 4.565 2.18 4.555 2.21 4.545C2.24 4.535 2.275 4.525 2.305 4.52C2.335 4.515 2.37 4.51 2.4 4.505C2.435 4.5 2.465 4.5 2.5 4.5L8 4.5C8 4.095 8.08 3.705 8.235 3.33C8.39 2.975 8.6 2.655 8.88 2.38C9.155 2.1 9.475 1.89 9.83 1.735ZM6.585 19.915C6.4 19.73 6.26 19.515 6.155 19.275C6.05 19.03 6 18.77 6 18.5L6 6.5L18 6.5L18 18.5C18 18.77 17.95 19.03 17.845 19.275C17.74 19.515 17.6 19.73 17.415 19.915C17.23 20.1 17.015 20.24 16.775 20.345C16.53 20.45 16.27 20.5 16 20.5L8 20.5C7.73 20.5 7.47 20.45 7.225 20.345C6.985 20.24 6.77 20.1 6.585 19.915Z" fill-rule="evenodd"  fill="#FF3B30" >
</path>
</svg>
