<svg xmlns="http://www.w3.org/2000/svg" xmlns:xlink="http://www.w3.org/1999/xlink" width="12" height="16" viewBox="0 0 12 16" fill="none">
<path d="M3.42857 0L8.57143 0C10.465 0 12 1.36446 12 3.04762L12 12.9524C12 14.6355 10.465 16 8.57143 16L3.42857 16C1.53502 16 0 14.6355 0 12.9524L0 3.04762C0 1.36446 1.53502 0 3.42857 0ZM3.42857 1.52381C2.4818 1.52381 1.71429 2.20604 1.71429 3.04762L1.71429 12.9524C1.71429 13.7939 2.4818 14.4762 3.42857 14.4762L8.57143 14.4762C9.51819 14.4762 10.2857 13.7939 10.2857 12.9524L10.2857 3.04762C10.2857 2.20604 9.51819 1.52381 8.57143 1.52381L3.42857 1.52381ZM3.85723 13.3333C3.38384 13.3334 3.00005 12.9923 3 12.5715C2.99995 12.1507 3.38367 11.8096 3.85706 11.8095L8.14277 11.8091C8.61617 11.8091 8.99996 12.1502 9 12.571C9.00004 12.9918 8.61634 13.3329 8.14294 13.333L3.85723 13.3333Z" fill-rule="evenodd"  fill="#000000" >
</path>
</svg>
