<svg xmlns="http://www.w3.org/2000/svg" xmlns:xlink="http://www.w3.org/1999/xlink" width="20" height="20" viewBox="0 0 20 20" fill="none">
<path d="M7.42857 2L12.5714 2C14.465 2 16 3.36446 16 5.04762L16 14.9524C16 16.6355 14.465 18 12.5714 18L7.42857 18C5.53502 18 4 16.6355 4 14.9524L4 5.04762C4 3.36446 5.53502 2 7.42857 2ZM7.42857 3.52381C6.4818 3.52381 5.71429 4.20604 5.71429 5.04762L5.71429 14.9524C5.71429 15.7939 6.4818 16.4762 7.42857 16.4762L12.5714 16.4762C13.5182 16.4762 14.2857 15.7939 14.2857 14.9524L14.2857 5.04762C14.2857 4.20604 13.5182 3.52381 12.5714 3.52381L7.42857 3.52381ZM7.85723 15.3333C7.38384 15.3334 7.00005 14.9923 7 14.5715C6.99995 14.1507 7.38367 13.8096 7.85706 13.8095L12.1428 13.8091C12.6162 13.8091 13 14.1502 13 14.571C13 14.9918 12.6163 15.3329 12.1429 15.333L7.85723 15.3333Z" fill-rule="evenodd"  fill="#000000" >
</path>
</svg>
