<svg xmlns="http://www.w3.org/2000/svg" xmlns:xlink="http://www.w3.org/1999/xlink" width="20" height="20" viewBox="0 0 20 20" fill="none">
<path d="M3.72322 4.32218C4.51834 3.663 5.371 3.33341 6.28121 3.33341C7.40446 3.33341 8.36503 3.83836 9.16292 4.84826C9.37636 5.11844 9.65781 5.25218 10.0073 5.24947C10.351 5.2468 10.628 5.11248 10.8384 4.84651C11.6363 3.83778 12.5964 3.33341 13.7187 3.33341C14.6289 3.33341 15.4816 3.663 16.2767 4.32218C17.37 5.22855 17.9166 6.58343 17.9166 8.38683C17.9167 11.6871 15.2778 14.6913 9.99996 17.3994C4.72213 14.6917 2.08324 11.6876 2.08329 8.38683C2.08329 6.58343 2.62994 5.22855 3.72322 4.32218ZM10 3.27634C8.95896 2.20328 7.71935 1.66675 6.28121 1.66675C4.97033 1.66675 3.76309 2.1242 2.65951 3.0391C1.16425 4.27871 0.416626 6.06129 0.416626 8.38683C0.416565 12.4083 3.42081 15.9391 9.42938 18.9792C9.8096 19.1716 10.1849 19.1742 10.5554 18.9869C16.574 15.9445 19.5833 12.4111 19.5833 8.38679C19.5833 6.06127 18.8357 4.27871 17.3404 3.0391C16.2368 2.1242 15.0296 1.66675 13.7187 1.66675C12.2809 1.66675 11.0413 2.20328 10 3.27634Z" fill-rule="evenodd"  fill="#000000" >
</path>
</svg>
