<svg xmlns="http://www.w3.org/2000/svg" xmlns:xlink="http://www.w3.org/1999/xlink" width="40" height="40" viewBox="0 0 40 40" fill="none">
<path d="M34.9966 4.99992L34.9966 8.33325C34.9966 14.7766 29.7734 19.9999 23.3301 19.9999L21.6634 19.9999L21.6634 21.6666L29.9966 21.6666L29.9966 33.3333C29.9966 35.1743 28.5044 36.6666 26.6634 36.6666L13.3301 36.6666C11.4891 36.6666 9.99674 35.1743 9.99674 33.3333L9.99674 21.6666L18.33 21.6666L18.33 16.6666C18.33 10.2233 23.5536 4.99992 29.9966 4.99992L34.9966 4.99992ZM9.16341 3.33325C13.3778 3.33325 17.105 5.41885 19.3693 8.61425C17.671 10.8513 16.6634 13.6413 16.6634 16.6666L16.6634 18.3333L15.8301 18.3333C8.92651 18.3333 3.33008 12.7368 3.33008 5.83325L3.33008 3.33325L9.16341 3.33325Z"   fill="url(#linear_fill_364_388)" >
</path>
<defs>
<linearGradient id="linear_fill_364_388" x1="3.330078125" y1="19.9998779296875" x2="34.9970703125" y2="19.9998779296875" gradientUnits="userSpaceOnUse">
<stop offset="0" stop-color="#12A0FF"  />
<stop offset="1" stop-color="#0790FF"  />
</linearGradient>
</defs>
</svg>
