<svg xmlns="http://www.w3.org/2000/svg" xmlns:xlink="http://www.w3.org/1999/xlink" width="18" height="18" viewBox="0 0 18 18" fill="none">
<path d="M1.5 9C1.5 4.85625 4.85625 1.5 9 1.5C13.1438 1.5 16.5 4.85625 16.5 9C16.5 13.1438 13.1438 16.5 9 16.5C4.85625 16.5 1.5 13.1438 1.5 9ZM9.6525 14.6775C9.42375 14.8912 9.20625 15 9 15C8.79375 15 8.57625 14.8912 8.3475 14.6775C8.0625 14.4038 7.8 13.9987 7.56375 13.47C7.3125 12.9 7.11375 12.24 6.97125 11.49C6.8676 10.9292 6.79973 10.3497 6.76901 9.74989L11.231 9.74989C11.2003 10.3497 11.1324 10.9292 11.0288 11.49C10.8862 12.24 10.6875 12.9 10.4362 13.47C10.2 13.9987 9.9375 14.4038 9.6525 14.6775ZM11.231 8.25019L6.76901 8.25019C6.79973 7.65041 6.8676 7.07078 6.97125 6.51C7.11375 5.76 7.3125 5.1 7.56375 4.53C7.8 4.00125 8.0625 3.59625 8.3475 3.3225C8.57625 3.10875 8.79375 3 9 3C9.20625 3 9.42375 3.10875 9.6525 3.3225C9.9375 3.59625 10.2 4.00125 10.4362 4.53C10.6875 5.1 10.8862 5.76 11.0288 6.51C11.1324 7.07078 11.2003 7.65041 11.231 8.25019ZM12.7329 9.74989C12.701 10.4438 12.6242 11.1148 12.5025 11.7675C12.3375 12.63 12.1088 13.4025 11.8088 14.0775C11.7628 14.1803 11.7156 14.28 11.6673 14.3765C13.4301 13.5008 14.7003 11.7838 14.9537 9.74989L12.7329 9.74989ZM14.9537 8.25019L12.7329 8.25019C12.701 7.55625 12.6242 6.88519 12.5025 6.2325C12.3375 5.37 12.1088 4.5975 11.8088 3.9225C11.7628 3.81969 11.7156 3.72001 11.6673 3.62346C13.4301 4.49921 14.7004 6.2163 14.9537 8.25019ZM5.26706 8.25019C5.29901 7.55625 5.37581 6.88519 5.4975 6.2325C5.6625 5.37 5.89125 4.5975 6.19125 3.9225C6.23723 3.81969 6.2844 3.72001 6.33274 3.62346C4.56993 4.49921 3.29963 6.2163 3.04635 8.25019L5.26706 8.25019ZM3.04635 9.74989C3.29966 11.7838 4.56995 13.5008 6.33274 14.3765C6.2844 14.28 6.23723 14.1803 6.19125 14.0775C5.89125 13.4025 5.6625 12.63 5.4975 11.7675C5.37581 11.1148 5.29901 10.4438 5.26706 9.74989L3.04635 9.74989Z" fill-rule="evenodd"  fill="#007AFF" >
</path>
</svg>
