<svg xmlns="http://www.w3.org/2000/svg" xmlns:xlink="http://www.w3.org/1999/xlink" width="24" height="24" viewBox="0 0 24 24" fill="none">
<path d="M11 3.00005L11 15.585L5.71 10.295L5.705 10.295C5.525 10.11 5.275 10 5 10C4.45 10 4 10.45 4 11C4 11.275 4.11 11.525 4.295 11.705L4.295 11.71L10.59 18C11.37 18.78 12.63 18.78 13.41 18L19.705 11.705C19.89 11.525 20 11.275 20 11C20 10.45 19.55 10 19 10C18.725 10 18.475 10.11 18.295 10.295L13 15.5858L13 3.00005C13 2.45005 12.55 2.00005 12 2.00005C11.45 2.00005 11 2.45005 11 3.00005ZM20 21C20 21.55 19.55 22 19 22L5 22C4.45 22 4 21.55 4 21C4 20.45 4.45 20 5 20L19 20C19.55 20 20 20.45 20 21Z" fill-rule="evenodd"  fill="#000000" >
</path>
</svg>
