<svg xmlns="http://www.w3.org/2000/svg" xmlns:xlink="http://www.w3.org/1999/xlink" width="14" height="14" viewBox="0 0 14 14" fill="none">
<path d="M4.47331 2.00925C4.46269 2.02514 4.45288 2.0415 4.44388 2.05835C4.43487 2.0752 4.42671 2.09245 4.4194 2.1101C4.41209 2.12775 4.40566 2.14572 4.40012 2.164C4.39457 2.18228 4.38994 2.20079 4.38621 2.21953C4.38248 2.23827 4.37968 2.25714 4.37781 2.27616C4.37594 2.29517 4.375 2.31423 4.375 2.33333C4.375 2.35244 4.37594 2.3715 4.37781 2.39051C4.37968 2.40952 4.38248 2.4284 4.38621 2.44714C4.38994 2.46587 4.39457 2.48438 4.40012 2.50267C4.40566 2.52095 4.41209 2.53891 4.4194 2.55657C4.42671 2.57422 4.43487 2.59147 4.44388 2.60831C4.45288 2.62516 4.46269 2.64153 4.47331 2.65742C4.48392 2.6733 4.49529 2.68863 4.50741 2.7034C4.51953 2.71817 4.53235 2.7323 4.54586 2.74581L8.80005 7L4.54586 11.2542C4.53235 11.2677 4.51953 11.2818 4.50741 11.2966C4.49529 11.3114 4.48392 11.3267 4.47331 11.3426C4.46269 11.3585 4.45288 11.3748 4.44388 11.3917C4.43487 11.4085 4.42671 11.4258 4.4194 11.4434C4.41209 11.4611 4.40566 11.479 4.40012 11.4973C4.39457 11.5156 4.38994 11.5341 4.38621 11.5529C4.38248 11.5716 4.37968 11.5905 4.37781 11.6095C4.37594 11.6285 4.375 11.6476 4.375 11.6667C4.375 11.6858 4.37594 11.7048 4.37781 11.7238C4.37968 11.7429 4.38248 11.7617 4.38621 11.7805C4.38994 11.7992 4.39457 11.8177 4.40012 11.836C4.40566 11.8543 4.41209 11.8723 4.4194 11.8899C4.42671 11.9075 4.43487 11.9248 4.44388 11.9417C4.45288 11.9585 4.46269 11.9749 4.47331 11.9907C4.48392 12.0066 4.49529 12.022 4.50741 12.0367C4.51953 12.0515 4.53235 12.0656 4.54586 12.0791C4.57294 12.1062 4.6024 12.1304 4.63425 12.1517C4.6661 12.173 4.69971 12.1909 4.7351 12.2056C4.77049 12.2203 4.80696 12.2313 4.84453 12.2388C4.8821 12.2463 4.92003 12.25 4.95833 12.25C4.99664 12.25 5.03457 12.2463 5.07214 12.2388C5.1097 12.2313 5.14618 12.2203 5.18157 12.2056C5.21695 12.1909 5.25057 12.173 5.28242 12.1517C5.31426 12.1304 5.34373 12.1062 5.37081 12.0791L9.62622 7.82373C9.73778 7.71217 9.82309 7.5837 9.88216 7.43832C9.93919 7.29791 9.96771 7.1518 9.96771 7C9.96771 6.8482 9.93919 6.70209 9.88216 6.56168C9.82309 6.4163 9.73778 6.28783 9.62622 6.17627L5.37081 1.92086C5.3573 1.90735 5.34316 1.89453 5.3284 1.88241C5.31363 1.87029 5.2983 1.85892 5.28242 1.84831C5.26653 1.83769 5.25016 1.82788 5.23331 1.81888C5.21647 1.80987 5.19922 1.80171 5.18157 1.7944C5.16391 1.78709 5.14595 1.78066 5.12767 1.77512C5.10938 1.76957 5.09087 1.76494 5.07214 1.76121C5.0534 1.75748 5.03452 1.75468 5.01551 1.75281C4.9965 1.75094 4.97744 1.75 4.95833 1.75C4.93923 1.75 4.92017 1.75094 4.90116 1.75281C4.88214 1.75468 4.86327 1.75748 4.84453 1.76121C4.82579 1.76494 4.80728 1.76957 4.789 1.77512C4.77072 1.78066 4.75275 1.78709 4.7351 1.7944C4.71745 1.80171 4.7002 1.80987 4.68335 1.81888C4.6665 1.82788 4.65014 1.83769 4.63425 1.84831C4.61836 1.85892 4.60304 1.87029 4.58827 1.88241C4.5735 1.89453 4.55936 1.90735 4.54586 1.92086C4.53235 1.93436 4.51953 1.9485 4.50741 1.96327C4.49529 1.97804 4.48392 1.99336 4.47331 2.00925Z"   fill="#3C3C43" fill-opacity="0.6">
</path>
</svg>
