<svg xmlns="http://www.w3.org/2000/svg" xmlns:xlink="http://www.w3.org/1999/xlink" width="20" height="20" viewBox="0 0 20 20" fill="none">
<path d="M8.85008 2.40008C8.62091 2.16675 8.35425 1.99175 8.05841 1.86258C7.74591 1.73341 7.42091 1.66675 7.08341 1.66675L5.00008 1.66675C4.55008 1.66675 4.11675 1.75425 3.70425 1.92925C3.30425 2.10008 2.95008 2.33758 2.64175 2.64175C2.33758 2.95008 2.10008 3.30425 1.92925 3.70425C1.75425 4.11675 1.66675 4.55008 1.66675 5.00008L1.66675 7.08341C1.66675 7.42091 1.73341 7.74591 1.86258 8.05841C1.99175 8.35425 2.16675 8.62091 2.40008 8.85008C2.62925 9.08341 2.89591 9.25841 3.19175 9.38758C3.50425 9.51675 3.82925 9.58341 4.16675 9.58341L7.08341 9.58341C7.42091 9.58341 7.74591 9.51675 8.05841 9.38758C8.35425 9.25841 8.62091 9.08341 8.85008 8.85008C9.08341 8.62091 9.25841 8.35425 9.38758 8.05841C9.51675 7.74591 9.58341 7.42091 9.58341 7.08341L9.58341 4.16675C9.58341 3.82925 9.51675 3.50425 9.38758 3.19175C9.25841 2.89591 9.08341 2.62925 8.85008 2.40008ZM12.1501 7.40841C12.1917 7.50841 12.2501 7.59591 12.3292 7.67091C12.4042 7.75008 12.4917 7.80841 12.5917 7.85008C12.6959 7.89591 12.8042 7.91675 12.9167 7.91675L15.8334 7.91675C15.9459 7.91675 16.0542 7.89591 16.1584 7.85008C16.2584 7.80841 16.3459 7.75008 16.4209 7.67091C16.5001 7.59591 16.5584 7.50841 16.6001 7.40841C16.6459 7.30425 16.6667 7.19591 16.6667 7.08341L16.6667 5.00008C16.6667 4.77508 16.6251 4.55841 16.5376 4.35425C16.4501 4.15425 16.3334 3.97508 16.1792 3.82091C16.0251 3.66675 15.8459 3.55008 15.6459 3.46258C15.4417 3.37508 15.2251 3.33341 15.0001 3.33341L12.9167 3.33341C12.8042 3.33341 12.6959 3.35425 12.5917 3.40008C12.4917 3.44175 12.4042 3.50008 12.3292 3.57925C12.2501 3.65425 12.1917 3.74175 12.1501 3.84175C12.1042 3.94591 12.0834 4.05425 12.0834 4.16675L12.0834 7.08341C12.0834 7.19591 12.1042 7.30425 12.1501 7.40841ZM7.40841 7.85008C7.50841 7.80841 7.59591 7.75008 7.67091 7.67091C7.75008 7.59591 7.80841 7.50841 7.85008 7.40841C7.89591 7.30425 7.91675 7.19591 7.91675 7.08341L7.91675 4.16675C7.91675 4.05425 7.89591 3.94591 7.85008 3.84175C7.80841 3.74175 7.75008 3.65425 7.67091 3.57925C7.59591 3.50008 7.50841 3.44175 7.40841 3.40008C7.30425 3.35425 7.19591 3.33341 7.08341 3.33341L5.00008 3.33341C4.77508 3.33341 4.55841 3.37508 4.35425 3.46258C4.15425 3.55008 3.97508 3.66675 3.82091 3.82091C3.66675 3.97508 3.55008 4.15425 3.46258 4.35425C3.37508 4.55841 3.33341 4.77508 3.33341 5.00008L3.33341 7.08341C3.33341 7.19591 3.35425 7.30425 3.40008 7.40841C3.44175 7.50841 3.50008 7.59591 3.57925 7.67091C3.65425 7.75008 3.74175 7.80841 3.84175 7.85008C3.94591 7.89591 4.05425 7.91675 4.16675 7.91675L7.08341 7.91675C7.19591 7.91675 7.30425 7.89591 7.40841 7.85008ZM16.6667 12.9167C16.6667 12.8042 16.6459 12.6959 16.6001 12.5917C16.5584 12.4917 16.5001 12.4042 16.4209 12.3292C16.3459 12.2501 16.2584 12.1917 16.1584 12.1501C16.0542 12.1042 15.9459 12.0834 15.8334 12.0834L12.9167 12.0834C12.8042 12.0834 12.6959 12.1042 12.5917 12.1501C12.4917 12.1917 12.4042 12.2501 12.3292 12.3292C12.2501 12.4042 12.1917 12.4917 12.1501 12.5917C12.1042 12.6959 12.0834 12.8042 12.0834 12.9167L12.0834 15.8334C12.0834 15.9459 12.1042 16.0542 12.1501 16.1584C12.1917 16.2584 12.2501 16.3459 12.3292 16.4209C12.4042 16.5001 12.4917 16.5584 12.5917 16.6001C12.6959 16.6459 12.8042 16.6667 12.9167 16.6667L15.0001 16.6667C15.2251 16.6667 15.4417 16.6251 15.6459 16.5376C15.8459 16.4501 16.0251 16.3334 16.1792 16.1792C16.3334 16.0251 16.4501 15.8459 16.5376 15.6459C16.6251 15.4417 16.6667 15.2251 16.6667 15.0001L16.6667 12.9167ZM7.08341 12.0834L4.16675 12.0834C4.05425 12.0834 3.94591 12.1042 3.84175 12.1501C3.74175 12.1917 3.65425 12.2501 3.57925 12.3292C3.50008 12.4042 3.44175 12.4917 3.40008 12.5917C3.35425 12.6959 3.33341 12.8042 3.33341 12.9167L3.33341 15.0001C3.33341 15.2251 3.37508 15.4417 3.46258 15.6459C3.55008 15.8459 3.66675 16.0251 3.82091 16.1792C3.97508 16.3334 4.15425 16.4501 4.35425 16.5376C4.55841 16.6251 4.77508 16.6667 5.00008 16.6667L7.08341 16.6667C7.19591 16.6667 7.30425 16.6459 7.40841 16.6001C7.50841 16.5584 7.59591 16.5001 7.67091 16.4209C7.75008 16.3459 7.80841 16.2584 7.85008 16.1584C7.89591 16.0542 7.91675 15.9459 7.91675 15.8334L7.91675 12.9167C7.91675 12.8042 7.89591 12.6959 7.85008 12.5917C7.80841 12.4917 7.75008 12.4042 7.67091 12.3292C7.59591 12.2501 7.50841 12.1917 7.40841 12.1501C7.30425 12.1042 7.19591 12.0834 7.08341 12.0834ZM16.8084 9.38758C17.1042 9.25841 17.3709 9.08341 17.6001 8.85008C17.8334 8.62091 18.0084 8.35425 18.1376 8.05841C18.2667 7.74591 18.3334 7.42091 18.3334 7.08341L18.3334 5.00008C18.3334 4.55008 18.2459 4.11675 18.0709 3.70425C17.9001 3.30425 17.6626 2.95008 17.3584 2.64175C17.0501 2.33758 16.6959 2.10008 16.2959 1.92925C15.8834 1.75425 15.4501 1.66675 15.0001 1.66675L12.9167 1.66675C12.5792 1.66675 12.2542 1.73341 11.9417 1.86258C11.6459 1.99175 11.3792 2.16675 11.1501 2.40008C10.9167 2.62925 10.7417 2.89591 10.6126 3.19175C10.4834 3.50425 10.4167 3.82925 10.4167 4.16675L10.4167 7.08341C10.4167 7.42091 10.4834 7.74591 10.6126 8.05841C10.7417 8.35425 10.9167 8.62091 11.1501 8.85008C11.3792 9.08341 11.6459 9.25841 11.9417 9.38758C12.2542 9.51675 12.5792 9.58341 12.9167 9.58341L15.8334 9.58341C16.1709 9.58341 16.4959 9.51675 16.8084 9.38758ZM8.85008 11.1501C8.62091 10.9167 8.35425 10.7417 8.05841 10.6126C7.74591 10.4834 7.42091 10.4167 7.08341 10.4167L4.16675 10.4167C3.82925 10.4167 3.50425 10.4834 3.19175 10.6126C2.89591 10.7417 2.62925 10.9167 2.40008 11.1501C2.16675 11.3792 1.99175 11.6459 1.86258 11.9417C1.73341 12.2542 1.66675 12.5792 1.66675 12.9167L1.66675 15.0001C1.66675 15.4501 1.75425 15.8834 1.92925 16.2959C2.10008 16.6959 2.33758 17.0501 2.64175 17.3584C2.95008 17.6626 3.30425 17.9001 3.70425 18.0709C4.11675 18.2459 4.55008 18.3334 5.00008 18.3334L7.08341 18.3334C7.42091 18.3334 7.74591 18.2667 8.05841 18.1376C8.35425 18.0084 8.62091 17.8334 8.85008 17.6001C9.08341 17.3709 9.25841 17.1042 9.38758 16.8084C9.51675 16.4959 9.58341 16.1709 9.58341 15.8334L9.58341 12.9167C9.58341 12.5792 9.51675 12.2542 9.38758 11.9417C9.25841 11.6459 9.08341 11.3792 8.85008 11.1501ZM12.9167 10.4167C12.5792 10.4167 12.2542 10.4834 11.9417 10.6126C11.6459 10.7417 11.3792 10.9167 11.1501 11.1501C10.9167 11.3792 10.7417 11.6459 10.6126 11.9417C10.4834 12.2542 10.4167 12.5792 10.4167 12.9167L10.4167 15.8334C10.4167 16.1709 10.4834 16.4959 10.6126 16.8084C10.7417 17.1042 10.9167 17.3709 11.1501 17.6001C11.3792 17.8334 11.6459 18.0084 11.9417 18.1376C12.2542 18.2667 12.5792 18.3334 12.9167 18.3334L15.0001 18.3334C15.4501 18.3334 15.8834 18.2459 16.2959 18.0709C16.6959 17.9001 17.0501 17.6626 17.3584 17.3584C17.6626 17.0501 17.9001 16.6959 18.0709 16.2959C18.2459 15.8834 18.3334 15.4501 18.3334 15.0001L18.3334 12.9167C18.3334 12.5792 18.2667 12.2542 18.1376 11.9417C18.0084 11.6459 17.8334 11.3792 17.6001 11.1501C17.3709 10.9167 17.1042 10.7417 16.8084 10.6126C16.4959 10.4834 16.1709 10.4167 15.8334 10.4167L12.9167 10.4167Z" fill-rule="evenodd"  fill="#000000" >
</path>
</svg>
