<svg xmlns="http://www.w3.org/2000/svg" xmlns:xlink="http://www.w3.org/1999/xlink" width="20" height="20" viewBox="0 0 20 20" fill="none">
<path d="M6.24591 2.41675C6.24175 2.39175 6.23758 2.36258 6.23341 2.33758C6.22925 2.31258 6.22091 2.28341 6.21258 2.25841C6.20425 2.23341 6.19591 2.20841 6.18758 2.17925C6.17508 2.15425 6.16258 2.12925 6.15008 2.10841C6.13758 2.08341 6.12508 2.05841 6.10841 2.03758C6.09591 2.01258 6.07925 1.99175 6.06258 1.97091C6.04175 1.95008 6.02508 1.92925 6.00425 1.91258C5.98758 1.89175 5.96675 1.87508 5.94591 1.85425C5.92508 1.83758 5.90425 1.82091 5.87925 1.80841C5.85841 1.79175 5.83341 1.77925 5.80841 1.76675C5.78758 1.75425 5.76258 1.74175 5.73758 1.72925C5.70841 1.72091 5.68341 1.71258 5.65841 1.70425C5.63341 1.69591 5.60425 1.68758 5.57925 1.68341C5.55425 1.67925 5.52508 1.67508 5.50008 1.67091C5.47091 1.66675 5.44591 1.66675 5.41675 1.66675C5.38758 1.66675 5.36258 1.66675 5.33341 1.67091C5.30841 1.67508 5.27925 1.67925 5.25425 1.68341C5.22925 1.68758 5.20008 1.69591 5.17508 1.70425C5.15008 1.71258 5.12508 1.72091 5.09591 1.72925C5.07091 1.74175 5.04591 1.75425 5.02508 1.76675C5.00008 1.77925 4.97508 1.79175 4.95425 1.80841C4.92925 1.82091 4.90841 1.83758 4.88758 1.85425C4.86675 1.87508 4.84591 1.89175 4.82925 1.91258C4.80841 1.92925 4.79175 1.95008 4.77091 1.97091C4.75425 1.99175 4.73758 2.01258 4.72508 2.03758C4.70841 2.05841 4.69591 2.08341 4.68341 2.10841C4.67091 2.12925 4.65841 2.15425 4.64591 2.17925C4.63758 2.20841 4.62925 2.23341 4.62091 2.25841C4.61258 2.28341 4.60425 2.31258 4.60008 2.33758C4.59591 2.36258 4.59175 2.39175 4.58758 2.41675C4.58341 2.44591 4.58341 2.47091 4.58341 2.50008L4.58341 8.42671C4.37047 8.47541 4.16202 8.54304 3.95841 8.62925C3.50841 8.81675 3.10841 9.08341 2.76258 9.42925C2.41675 9.77508 2.15008 10.1751 1.96258 10.6251C1.76675 11.0876 1.66675 11.5751 1.66675 12.0834C1.66675 12.5917 1.76675 13.0792 1.96258 13.5417C2.15008 13.9917 2.41675 14.3917 2.76258 14.7376C3.10841 15.0834 3.50841 15.3501 3.95841 15.5376C4.16202 15.6238 4.37047 15.6914 4.58341 15.7401L4.58341 17.5001C4.58341 17.5292 4.58341 17.5542 4.58758 17.5834C4.59175 17.6084 4.59591 17.6376 4.60008 17.6626C4.60425 17.6876 4.61258 17.7167 4.62091 17.7417C4.62925 17.7667 4.63758 17.7917 4.64591 17.8209C4.65841 17.8459 4.67091 17.8709 4.68341 17.8917C4.69591 17.9167 4.70841 17.9417 4.72508 17.9626C4.73758 17.9876 4.75425 18.0084 4.77091 18.0292C4.79175 18.0501 4.80841 18.0709 4.82925 18.0876C4.84591 18.1084 4.86675 18.1251 4.88758 18.1459C4.90841 18.1626 4.92925 18.1792 4.95425 18.1917C4.97508 18.2084 5.00008 18.2209 5.02508 18.2334C5.04591 18.2459 5.07091 18.2584 5.09591 18.2709C5.12508 18.2792 5.15008 18.2876 5.17508 18.2959C5.20008 18.3042 5.22925 18.3126 5.25425 18.3167C5.27925 18.3209 5.30841 18.3251 5.33341 18.3292C5.36258 18.3334 5.38758 18.3334 5.41675 18.3334C5.44591 18.3334 5.47091 18.3334 5.50008 18.3292C5.52508 18.3251 5.55425 18.3209 5.57925 18.3167C5.60425 18.3126 5.63341 18.3042 5.65841 18.2959C5.68341 18.2876 5.70841 18.2792 5.73758 18.2709C5.76258 18.2584 5.78758 18.2459 5.80841 18.2334C5.83341 18.2209 5.85841 18.2084 5.87925 18.1917C5.90425 18.1792 5.92508 18.1626 5.94591 18.1459C5.96675 18.1251 5.98758 18.1084 6.00425 18.0876C6.02508 18.0709 6.04175 18.0501 6.06258 18.0292C6.07925 18.0084 6.09591 17.9876 6.10841 17.9626C6.12508 17.9417 6.13758 17.9167 6.15008 17.8917C6.16258 17.8709 6.17508 17.8459 6.18758 17.8209C6.19591 17.7917 6.20425 17.7667 6.21258 17.7417C6.22091 17.7167 6.22925 17.6876 6.23341 17.6626C6.23758 17.6376 6.24175 17.6084 6.24591 17.5834C6.25008 17.5542 6.25008 17.5292 6.25008 17.5001L6.25008 15.7401C6.46304 15.6914 6.67146 15.6238 6.87508 15.5376C7.32508 15.3501 7.72508 15.0834 8.07091 14.7376C8.41675 14.3917 8.68341 13.9917 8.87091 13.5417C9.06675 13.0792 9.16675 12.5917 9.16675 12.0834C9.16675 11.5751 9.06675 11.0876 8.87091 10.6251C8.68341 10.1751 8.41675 9.77508 8.07091 9.42925C7.72508 9.08341 7.32508 8.81675 6.87508 8.62925C6.67146 8.54304 6.46304 8.47541 6.25008 8.42671L6.25008 2.50008C6.25008 2.47091 6.25008 2.44591 6.24591 2.41675ZM15.4167 4.26002C15.6297 4.30873 15.8381 4.37637 16.0417 4.46258C16.4917 4.65008 16.8917 4.91675 17.2376 5.26258C17.5834 5.60841 17.8501 6.00841 18.0376 6.45841C18.2334 6.92091 18.3334 7.40841 18.3334 7.91675C18.3334 8.42508 18.2334 8.91258 18.0376 9.37508C17.8501 9.82508 17.5834 10.2251 17.2376 10.5709C16.8917 10.9167 16.4917 11.1834 16.0417 11.3709C15.8381 11.4571 15.6297 11.5247 15.4167 11.5735L15.4167 17.5001C15.4167 17.5292 15.4167 17.5542 15.4126 17.5834C15.4084 17.6084 15.4042 17.6376 15.4001 17.6626C15.3959 17.6876 15.3876 17.7167 15.3792 17.7417C15.3709 17.7667 15.3626 17.7917 15.3542 17.8209C15.3417 17.8459 15.3292 17.8709 15.3167 17.8917C15.3042 17.9167 15.2917 17.9417 15.2751 17.9626C15.2626 17.9876 15.2459 18.0084 15.2292 18.0292C15.2084 18.0501 15.1917 18.0709 15.1709 18.0876C15.1542 18.1084 15.1334 18.1251 15.1126 18.1459C15.0917 18.1626 15.0709 18.1792 15.0459 18.1917C15.0251 18.2084 15.0001 18.2209 14.9751 18.2334C14.9542 18.2459 14.9292 18.2584 14.9042 18.2709C14.8751 18.2792 14.8501 18.2876 14.8251 18.2959C14.8001 18.3042 14.7709 18.3126 14.7459 18.3167C14.7209 18.3209 14.6917 18.3251 14.6667 18.3292C14.6376 18.3334 14.6126 18.3334 14.5834 18.3334C14.5542 18.3334 14.5292 18.3334 14.5001 18.3292C14.4751 18.3251 14.4459 18.3209 14.4209 18.3167C14.3959 18.3126 14.3667 18.3042 14.3417 18.2959C14.3167 18.2876 14.2917 18.2792 14.2626 18.2709C14.2376 18.2584 14.2126 18.2459 14.1917 18.2334C14.1667 18.2209 14.1417 18.2084 14.1209 18.1917C14.0959 18.1792 14.0751 18.1626 14.0542 18.1459C14.0334 18.1251 14.0126 18.1084 13.9959 18.0876C13.9751 18.0709 13.9584 18.0501 13.9376 18.0292C13.9209 18.0084 13.9042 17.9876 13.8917 17.9626C13.8751 17.9417 13.8626 17.9167 13.8501 17.8917C13.8376 17.8709 13.8251 17.8459 13.8126 17.8209C13.8042 17.7917 13.7959 17.7667 13.7876 17.7417C13.7792 17.7167 13.7709 17.6876 13.7667 17.6626C13.7626 17.6376 13.7584 17.6084 13.7542 17.5834C13.7501 17.5542 13.7501 17.5292 13.7501 17.5001L13.7501 11.5735C13.5371 11.5247 13.3287 11.4571 13.1251 11.3709C12.6751 11.1834 12.2751 10.9167 11.9292 10.5709C11.5834 10.2251 11.3167 9.82508 11.1292 9.37508C10.9334 8.91258 10.8334 8.42508 10.8334 7.91675C10.8334 7.40841 10.9334 6.92091 11.1292 6.45841C11.3167 6.00841 11.5834 5.60841 11.9292 5.26258C12.2751 4.91675 12.6751 4.65008 13.1251 4.46258C13.3287 4.37637 13.5371 4.30873 13.7501 4.26002L13.7501 2.50008C13.7501 2.47091 13.7501 2.44591 13.7542 2.41675C13.7584 2.39175 13.7626 2.36258 13.7667 2.33758C13.7709 2.31258 13.7792 2.28341 13.7876 2.25841C13.7959 2.23341 13.8042 2.20841 13.8126 2.17925C13.8251 2.15425 13.8376 2.12925 13.8501 2.10841C13.8626 2.08341 13.8751 2.05841 13.8917 2.03758C13.9042 2.01258 13.9209 1.99175 13.9376 1.97091C13.9584 1.95008 13.9751 1.92925 13.9959 1.91258C14.0126 1.89175 14.0334 1.87508 14.0542 1.85425C14.0751 1.83758 14.0959 1.82091 14.1209 1.80841C14.1417 1.79175 14.1667 1.77925 14.1917 1.76675C14.2126 1.75425 14.2376 1.74175 14.2626 1.72925C14.2917 1.72091 14.3167 1.71258 14.3417 1.70425C14.3667 1.69591 14.3959 1.68758 14.4209 1.68341C14.4459 1.67925 14.4751 1.67508 14.5001 1.67091C14.5292 1.66675 14.5542 1.66675 14.5834 1.66675C14.6126 1.66675 14.6376 1.66675 14.6667 1.67091C14.6917 1.67508 14.7209 1.67925 14.7459 1.68341C14.7709 1.68758 14.8001 1.69591 14.8251 1.70425C14.8501 1.71258 14.8751 1.72091 14.9042 1.72925C14.9292 1.74175 14.9542 1.75425 14.9751 1.76675C15.0001 1.77925 15.0251 1.79175 15.0459 1.80841C15.0709 1.82091 15.0917 1.83758 15.1126 1.85425C15.1334 1.87508 15.1542 1.89175 15.1709 1.91258C15.1917 1.92925 15.2084 1.95008 15.2292 1.97091C15.2459 1.99175 15.2626 2.01258 15.2751 2.03758C15.2917 2.05841 15.3042 2.08341 15.3167 2.10841C15.3292 2.12925 15.3417 2.15425 15.3542 2.17925C15.3626 2.20841 15.3709 2.23341 15.3792 2.25841C15.3876 2.28341 15.3959 2.31258 15.4001 2.33758C15.4042 2.36258 15.4084 2.39175 15.4126 2.41675C15.4167 2.44591 15.4167 2.47091 15.4167 2.50008L15.4167 4.26002ZM14.5834 10.0001C14.8667 10.0001 15.1376 9.94591 15.3959 9.83758C15.6459 9.73341 15.8667 9.58341 16.0584 9.39175C16.2501 9.20008 16.4001 8.97925 16.5042 8.72925C16.6126 8.47091 16.6667 8.20008 16.6667 7.91675C16.6667 7.63341 16.6126 7.36258 16.5042 7.10425C16.4001 6.85425 16.2501 6.63341 16.0584 6.44175C15.8667 6.25008 15.6459 6.10008 15.3959 5.99591C15.1376 5.88758 14.8667 5.83341 14.5834 5.83341C14.3001 5.83341 14.0292 5.88758 13.7709 5.99591C13.5209 6.10008 13.3001 6.25008 13.1084 6.44175C12.9167 6.63341 12.7667 6.85425 12.6626 7.10425C12.5542 7.36258 12.5001 7.63341 12.5001 7.91675C12.5001 8.20008 12.5542 8.47091 12.6626 8.72925C12.7667 8.97925 12.9167 9.20008 13.1084 9.39175C13.3001 9.58341 13.5209 9.73341 13.7709 9.83758C14.0292 9.94591 14.3001 10.0001 14.5834 10.0001ZM6.22925 14.0042C5.97091 14.1126 5.70008 14.1667 5.41675 14.1667C5.13341 14.1667 4.86258 14.1126 4.60425 14.0042C4.35425 13.9001 4.13341 13.7501 3.94175 13.5584C3.75008 13.3667 3.60008 13.1459 3.49591 12.8959C3.38758 12.6376 3.33341 12.3667 3.33341 12.0834C3.33341 11.8001 3.38758 11.5292 3.49591 11.2709C3.60008 11.0209 3.75008 10.8001 3.94175 10.6084C4.13341 10.4167 4.35425 10.2667 4.60425 10.1626C4.86258 10.0542 5.13341 10.0001 5.41675 10.0001C5.70008 10.0001 5.97091 10.0542 6.22925 10.1626C6.47925 10.2667 6.70008 10.4167 6.89175 10.6084C7.08341 10.8001 7.23341 11.0209 7.33758 11.2709C7.44591 11.5292 7.50008 11.8001 7.50008 12.0834C7.50008 12.3667 7.44591 12.6376 7.33758 12.8959C7.23341 13.1459 7.08341 13.3667 6.89175 13.5584C6.70008 13.7501 6.47925 13.9001 6.22925 14.0042Z" fill-rule="evenodd"  fill="#000000" >
</path>
</svg>
