<svg xmlns="http://www.w3.org/2000/svg" xmlns:xlink="http://www.w3.org/1999/xlink" width="20" height="20" viewBox="0 0 20 20" fill="none"><g opacity="1"  transform="translate(0 0)"><mask id="bg-mask-0" fill="white"><use transform="translate(0 0)" xlink:href="#path_0"></use></mask><g mask="url(#bg-mask-0)" ><path id="路径 1" fill-rule="evenodd" style="fill:#3C3C43" opacity="0.3" d="M9.99999 1.66663C14.6023 1.66663 18.3333 5.39758 18.3333 9.99996C18.3333 14.6023 14.6023 18.3333 9.99999 18.3333C5.39761 18.3333 1.66666 14.6023 1.66666 9.99996L3.33332 9.99996C3.33332 13.6819 6.31809 16.6666 9.99999 16.6666C13.6819 16.6666 16.6667 13.6819 16.6667 9.99996C16.6667 6.31806 13.6819 3.33329 9.99999 3.33329C7.70851 3.33329 5.68705 4.48941 4.48708 6.25016L6.66666 6.24996L6.66666 7.91663L1.66666 7.91663L1.66666 2.91663L3.33332 2.91663L3.33323 4.99928C4.85361 2.97558 7.27393 1.66663 9.99999 1.66663ZM10.8333 5.83329L10.8332 9.65413L13.5355 12.357L12.357 13.5355L9.16649 10.3441L9.16666 5.83329L10.8333 5.83329Z"></path></g></g><defs><rect id="path_0" x="0" y="0" width="20" height="20" rx="0" ry="0"/></defs></svg>