<svg xmlns="http://www.w3.org/2000/svg" xmlns:xlink="http://www.w3.org/1999/xlink" width="20" height="20" viewBox="0 0 20 20" fill="none">
<path d="M4.16671 2.91699L15.8334 2.91699C17.6743 2.91699 19.1667 4.40938 19.1667 6.25033L19.1667 13.7503C19.1667 15.5913 17.6743 17.0837 15.8334 17.0837L4.16671 17.0837C2.32576 17.0837 0.833374 15.5913 0.833374 13.7503L0.833374 6.25033C0.833374 4.40938 2.32576 2.91699 4.16671 2.91699ZM4.16671 4.58366C3.24623 4.58366 2.50004 5.32985 2.50004 6.25033L2.50004 13.7503C2.50004 14.6708 3.24623 15.417 4.16671 15.417L15.8334 15.417C16.7538 15.417 17.5 14.6708 17.5 13.7503L17.5 6.25033C17.5 5.32985 16.7538 4.58366 15.8334 4.58366L4.16671 4.58366ZM5.00004 6.25033C4.42474 6.25033 3.95837 6.7167 3.95837 7.29199C3.95837 7.86728 4.42474 8.33366 5.00004 8.33366C5.57533 8.33366 6.04171 7.86728 6.04171 7.29199C6.04171 6.7167 5.57533 6.25033 5.00004 6.25033ZM8.33337 6.25033C7.75808 6.25033 7.29171 6.7167 7.29171 7.29199C7.29171 7.86728 7.75808 8.33366 8.33337 8.33366C8.90866 8.33366 9.37504 7.86728 9.37504 7.29199C9.37504 6.7167 8.90866 6.25033 8.33337 6.25033ZM11.6667 6.25033C11.0914 6.25033 10.625 6.7167 10.625 7.29199C10.625 7.86728 11.0914 8.33366 11.6667 8.33366C12.242 8.33366 12.7084 7.86728 12.7084 7.29199C12.7084 6.7167 12.242 6.25033 11.6667 6.25033ZM15 6.25033C14.4247 6.25033 13.9584 6.7167 13.9584 7.29199C13.9584 7.86728 14.4247 8.33366 15 8.33366C15.5753 8.33366 16.0417 7.86728 16.0417 7.29199C16.0417 6.7167 15.5753 6.25033 15 6.25033ZM5.00004 9.16699C4.42474 9.16699 3.95837 9.63337 3.95837 10.2087C3.95837 10.784 4.42474 11.2503 5.00004 11.2503C5.57533 11.2503 6.04171 10.784 6.04171 10.2087C6.04171 9.63337 5.57533 9.16699 5.00004 9.16699ZM8.33337 9.16699C7.75808 9.16699 7.29171 9.63337 7.29171 10.2087C7.29171 10.784 7.75808 11.2503 8.33337 11.2503C8.90866 11.2503 9.37504 10.784 9.37504 10.2087C9.37504 9.63337 8.90866 9.16699 8.33337 9.16699ZM11.6667 9.16699C11.0914 9.16699 10.625 9.63337 10.625 10.2087C10.625 10.784 11.0914 11.2503 11.6667 11.2503C12.242 11.2503 12.7084 10.784 12.7084 10.2087C12.7084 9.63337 12.242 9.16699 11.6667 9.16699ZM15 9.16699C14.4247 9.16699 13.9584 9.63337 13.9584 10.2087C13.9584 10.784 14.4247 11.2503 15 11.2503C15.5753 11.2503 16.0417 10.784 16.0417 10.2087C16.0417 9.63337 15.5753 9.16699 15 9.16699ZM7.08337 13.3337C7.08342 13.794 7.45654 14.167 7.91679 14.167L12.0835 14.1666C12.5437 14.1665 12.9167 13.7934 12.9167 13.3332C12.9167 12.8729 12.5435 12.4999 12.0833 12.4999L7.91662 12.5003C7.45637 12.5004 7.08333 12.8735 7.08337 13.3337Z" fill-rule="evenodd"  fill="#000000" >
</path>
</svg>
