<svg xmlns="http://www.w3.org/2000/svg" xmlns:xlink="http://www.w3.org/1999/xlink" width="20" height="20" viewBox="0 0 20 20" fill="none">
<path     fill="#FF3B30"  d="M0 10Q0 9.75451 0.0120454 9.50932Q0.0240909 9.26413 0.0481527 9.01983Q0.0722146 8.77552 0.108235 8.53269Q0.144255 8.28987 0.192147 8.0491Q0.240039 7.80833 0.299687 7.5702Q0.359336 7.33207 0.430597 7.09715Q0.501857 6.86224 0.584559 6.6311Q0.667261 6.39996 0.761205 6.17317Q0.855148 5.94637 0.960107 5.72445Q1.06507 5.50253 1.18079 5.28603Q1.29651 5.06953 1.42271 4.85897Q1.54892 4.64841 1.6853 4.4443Q1.82169 4.24018 1.96792 4.04301Q2.11416 3.84583 2.2699 3.65607Q2.42563 3.4663 2.59049 3.28441Q2.75535 3.10252 2.92893 2.92893Q3.10252 2.75535 3.28441 2.59049Q3.4663 2.42563 3.65607 2.2699Q3.84583 2.11416 4.04301 1.96792Q4.24018 1.82169 4.4443 1.6853Q4.64841 1.54892 4.85897 1.42271Q5.06953 1.29651 5.28603 1.18079Q5.50253 1.06507 5.72445 0.960107Q5.94637 0.855148 6.17316 0.761205Q6.39996 0.667261 6.6311 0.584559Q6.86224 0.501857 7.09715 0.430597Q7.33207 0.359336 7.5702 0.299687Q7.80833 0.240039 8.0491 0.192147Q8.28987 0.144255 8.53269 0.108235Q8.77552 0.0722146 9.01983 0.0481527Q9.26413 0.0240909 9.50932 0.0120454Q9.75451 0 10 0Q10.2455 0 10.4907 0.0120454Q10.7359 0.0240909 10.9802 0.0481527Q11.2245 0.0722146 11.4673 0.108235Q11.7101 0.144255 11.9509 0.192147Q12.1917 0.240039 12.4298 0.299687Q12.6679 0.359336 12.9028 0.430597Q13.1378 0.501857 13.3689 0.584559Q13.6 0.667261 13.8268 0.761205Q14.0536 0.855148 14.2755 0.960107Q14.4975 1.06507 14.714 1.18079Q14.9305 1.29651 15.141 1.42271Q15.3516 1.54892 15.5557 1.6853Q15.7598 1.82169 15.957 1.96792Q16.1542 2.11416 16.3439 2.2699Q16.5337 2.42563 16.7156 2.59049Q16.8975 2.75535 17.0711 2.92893Q17.2447 3.10252 17.4095 3.28441Q17.5744 3.4663 17.7301 3.65607Q17.8858 3.84583 18.0321 4.04301Q18.1783 4.24018 18.3147 4.4443Q18.4511 4.64841 18.5773 4.85897Q18.7035 5.06953 18.8192 5.28603Q18.9349 5.50253 19.0399 5.72445Q19.1449 5.94637 19.2388 6.17316Q19.3327 6.39996 19.4154 6.6311Q19.4981 6.86224 19.5694 7.09715Q19.6407 7.33207 19.7003 7.5702Q19.76 7.80833 19.8079 8.0491Q19.8557 8.28987 19.8918 8.53269Q19.9278 8.77552 19.9518 9.01983Q19.9759 9.26413 19.988 9.50932Q20 9.75451 20 10Q20 10.2455 19.988 10.4907Q19.9759 10.7359 19.9518 10.9802Q19.9278 11.2245 19.8918 11.4673Q19.8557 11.7101 19.8079 11.9509Q19.76 12.1917 19.7003 12.4298Q19.6407 12.6679 19.5694 12.9028Q19.4981 13.1378 19.4154 13.3689Q19.3327 13.6 19.2388 13.8268Q19.1449 14.0536 19.0399 14.2755Q18.9349 14.4975 18.8192 14.714Q18.7035 14.9305 18.5773 15.141Q18.4511 15.3516 18.3147 15.5557Q18.1783 15.7598 18.0321 15.957Q17.8858 16.1542 17.7301 16.3439Q17.5744 16.5337 17.4095 16.7156Q17.2447 16.8975 17.0711 17.0711Q16.8975 17.2447 16.7156 17.4095Q16.5337 17.5744 16.3439 17.7301Q16.1542 17.8858 15.957 18.0321Q15.7598 18.1783 15.5557 18.3147Q15.3516 18.4511 15.141 18.5773Q14.9305 18.7035 14.714 18.8192Q14.4975 18.9349 14.2755 19.0399Q14.0536 19.1449 13.8268 19.2388Q13.6 19.3327 13.3689 19.4154Q13.1378 19.4981 12.9028 19.5694Q12.6679 19.6407 12.4298 19.7003Q12.1917 19.76 11.9509 19.8079Q11.7101 19.8557 11.4673 19.8918Q11.2245 19.9278 10.9802 19.9518Q10.7359 19.9759 10.4907 19.988Q10.2455 20 10 20Q9.75451 20 9.50932 19.988Q9.26413 19.9759 9.01983 19.9518Q8.77552 19.9278 8.53269 19.8918Q8.28987 19.8557 8.0491 19.8079Q7.80833 19.76 7.5702 19.7003Q7.33207 19.6407 7.09715 19.5694Q6.86224 19.4981 6.6311 19.4154Q6.39996 19.3327 6.17317 19.2388Q5.94637 19.1449 5.72445 19.0399Q5.50253 18.9349 5.28603 18.8192Q5.06953 18.7035 4.85897 18.5773Q4.64841 18.4511 4.4443 18.3147Q4.24018 18.1783 4.04301 18.0321Q3.84583 17.8858 3.65607 17.7301Q3.4663 17.5744 3.28441 17.4095Q3.10252 17.2447 2.92893 17.0711Q2.75535 16.8975 2.59049 16.7156Q2.42563 16.5337 2.2699 16.3439Q2.11416 16.1542 1.96792 15.957Q1.82169 15.7598 1.6853 15.5557Q1.54892 15.3516 1.42271 15.141Q1.29651 14.9305 1.18079 14.714Q1.06507 14.4975 0.960107 14.2755Q0.855148 14.0536 0.761205 13.8268Q0.667261 13.6 0.584559 13.3689Q0.501857 13.1378 0.430597 12.9028Q0.359336 12.6679 0.299687 12.4298Q0.240039 12.1917 0.192147 11.9509Q0.144255 11.7101 0.108235 11.4673Q0.0722146 11.2245 0.0481527 10.9802Q0.0240909 10.7359 0.0120454 10.4907Q0 10.2455 0 10Z">
</path>
<path d="M10 15C10.5514 15 11 14.5868 11 14.0789C11 13.571 10.5514 13.1579 10 13.1579C9.44857 13.1579 9 13.571 9 14.0789C9 14.5868 9.44857 15 10 15ZM10.1117 5.01053C10.0946 5.00789 10.0746 5.00526 10.0574 5.00263C10.0374 5 10.0203 5 10.0003 5C9.98029 5 9.96314 5 9.94314 5.00263C9.926 5.00526 9.906 5.00789 9.88886 5.01053C9.87171 5.01316 9.85171 5.01842 9.83457 5.02368C9.81743 5.02895 9.80029 5.03421 9.78029 5.03947C9.76314 5.04737 9.746 5.05526 9.73171 5.06316C9.71457 5.07105 9.69743 5.07895 9.68314 5.08947C9.666 5.09737 9.65171 5.10789 9.63743 5.11842C9.62314 5.13158 9.60886 5.14211 9.59743 5.15526C9.58314 5.16579 9.57171 5.17895 9.55743 5.1921C9.546 5.20526 9.53457 5.21842 9.526 5.23421C9.51457 5.24737 9.506 5.26316 9.49743 5.27895C9.48886 5.29211 9.48029 5.3079 9.47171 5.32368C9.466 5.3421 9.46029 5.35789 9.45457 5.37368C9.44886 5.38947 9.44314 5.4079 9.44029 5.42368C9.43743 5.43947 9.43457 5.45789 9.43171 5.47368C9.42886 5.49211 9.42886 5.50789 9.42886 5.52632L9.42886 11.5789C9.42886 11.5974 9.42886 11.6132 9.43171 11.6316C9.43457 11.6474 9.43743 11.6658 9.44029 11.6816C9.44314 11.6974 9.44886 11.7158 9.45457 11.7316C9.46029 11.7474 9.466 11.7632 9.47171 11.7816C9.48029 11.7974 9.48886 11.8132 9.49743 11.8263C9.506 11.8421 9.51457 11.8579 9.526 11.871C9.53457 11.8868 9.546 11.9 9.55743 11.9132C9.57171 11.9263 9.58314 11.9395 9.59743 11.95C9.60886 11.9632 9.62314 11.9737 9.63743 11.9868C9.65171 11.9974 9.666 12.0079 9.68314 12.0158C9.69743 12.0263 9.71457 12.0342 9.73171 12.0421C9.746 12.05 9.76314 12.0579 9.78029 12.0658C9.80029 12.0711 9.81743 12.0763 9.83457 12.0816C9.85171 12.0868 9.87171 12.0921 9.88886 12.0947C9.906 12.0974 9.926 12.1 9.94314 12.1026C9.96314 12.1053 9.98029 12.1053 10.0003 12.1053C10.0203 12.1053 10.0374 12.1053 10.0574 12.1026C10.0746 12.1 10.0946 12.0974 10.1117 12.0947C10.1289 12.0921 10.1489 12.0868 10.166 12.0816C10.1831 12.0763 10.2003 12.0711 10.2203 12.0658C10.2374 12.0579 10.2546 12.05 10.2689 12.0421C10.286 12.0342 10.3031 12.0263 10.3174 12.0158C10.3346 12.0079 10.3489 11.9974 10.3631 11.9868C10.3774 11.9737 10.3917 11.9632 10.4031 11.95C10.4174 11.9395 10.4289 11.9263 10.4431 11.9132C10.4546 11.9 10.466 11.8868 10.4746 11.871C10.486 11.8579 10.4946 11.8421 10.5031 11.8263C10.5117 11.8132 10.5203 11.7974 10.5289 11.7816C10.5346 11.7632 10.5403 11.7474 10.546 11.7316C10.5517 11.7158 10.5574 11.6974 10.5603 11.6816C10.5631 11.6658 10.566 11.6474 10.5689 11.6316C10.5717 11.6132 10.5717 11.5974 10.5717 11.5789L10.5717 5.52632C10.5717 5.50789 10.5717 5.49211 10.5689 5.47368C10.566 5.45789 10.5631 5.43947 10.5603 5.42368C10.5574 5.4079 10.5517 5.38947 10.546 5.37368C10.5403 5.35789 10.5346 5.3421 10.5289 5.32368C10.5203 5.3079 10.5117 5.29211 10.5031 5.27895C10.4946 5.26316 10.486 5.24737 10.4746 5.23421C10.466 5.21842 10.4546 5.20526 10.4431 5.1921C10.4289 5.17895 10.4174 5.16579 10.4031 5.15526C10.3917 5.14211 10.3774 5.13158 10.3631 5.11842C10.3489 5.10789 10.3346 5.09737 10.3174 5.08947C10.3031 5.07895 10.286 5.07105 10.2689 5.06316C10.2546 5.05526 10.2374 5.04737 10.2203 5.03947C10.2003 5.03421 10.1831 5.02895 10.166 5.02368C10.1489 5.01842 10.1289 5.01316 10.1117 5.01053Z"   fill="#FFFFFF" >
</path>
<path d="M10.254 4.73685L10.254 4.73685C10.2191 4.72613 10.1868 4.7185 10.1572 4.71395L10.1548 4.71359L10.126 4.70941L10.1018 4.70588L10.0997 4.70557L10.0965 4.70515C10.0702 4.70168 10.0381 4.69995 10.0002 4.69995C9.96238 4.69995 9.93028 4.70168 9.90396 4.70515L9.90076 4.70557L9.89878 4.70587L9.87094 4.70991L9.84556 4.71361L9.84329 4.71395C9.81364 4.7185 9.78137 4.72613 9.74647 4.73685C9.7275 4.74267 9.7133 4.74683 9.70389 4.7493L9.67855 4.75597L9.65475 4.76693L9.65475 4.76693C9.63148 4.77765 9.61243 4.78688 9.5976 4.79462C9.57259 4.80645 9.55055 4.81829 9.53148 4.83014C9.50887 4.84254 9.48485 4.85811 9.45942 4.87686L9.44621 4.88659L9.43414 4.89771C9.43347 4.89832 9.43126 4.90024 9.4275 4.90347C9.41505 4.91416 9.40383 4.92441 9.39384 4.93423C9.38319 4.94341 9.37202 4.95378 9.36033 4.96534C9.35685 4.96877 9.35479 4.97079 9.35414 4.97139L9.34185 4.98271L9.33089 4.99533L9.33089 4.99533C9.31022 5.01913 9.29283 5.04187 9.27872 5.06356C9.26535 5.08185 9.25201 5.10292 9.23868 5.12677C9.22999 5.14094 9.21977 5.15885 9.20801 5.18051L9.1939 5.2065L9.18513 5.23475C9.1827 5.2426 9.17847 5.25486 9.17243 5.27154C9.15971 5.3067 9.15057 5.33959 9.14503 5.37022L9.14454 5.37302L9.14001 5.39948L9.13622 5.42154L9.13579 5.42393L9.13521 5.42765L9.13521 5.42765C9.13094 5.45517 9.12881 5.48804 9.12881 5.52627L9.12881 11.5789C9.12881 11.6171 9.13094 11.65 9.13521 11.6775L9.13579 11.6812L9.1362 11.6835L9.14055 11.7089L9.14457 11.7323L9.14503 11.735C9.15057 11.7656 9.15971 11.7985 9.17243 11.8336C9.17847 11.8503 9.1827 11.8626 9.18513 11.8704L9.1939 11.8987L9.20801 11.9247C9.21977 11.9463 9.22999 11.9642 9.23868 11.9784C9.25201 12.0022 9.26535 12.0233 9.27872 12.0416C9.29283 12.0633 9.31022 12.086 9.33089 12.1098L9.34185 12.1225L9.35414 12.1338C9.35478 12.1344 9.35685 12.1364 9.36033 12.1398C9.37202 12.1514 9.38319 12.1618 9.39384 12.1709C9.40383 12.1808 9.41505 12.191 9.4275 12.2017C9.43126 12.2049 9.43347 12.2068 9.43414 12.2075L9.44621 12.2186L9.45942 12.2283C9.48485 12.2471 9.50887 12.2626 9.53147 12.275C9.55054 12.2869 9.57259 12.2987 9.5976 12.3106C9.61242 12.3183 9.63147 12.3275 9.65472 12.3382L9.65474 12.3382L9.67855 12.3492L9.70389 12.3559C9.71329 12.3583 9.72748 12.3625 9.74645 12.3683L9.74648 12.3683C9.78137 12.379 9.81364 12.3867 9.84329 12.3912L9.8457 12.3916L9.87446 12.3958L9.89874 12.3993L9.90076 12.3996L9.90394 12.4L9.90396 12.4C9.93028 12.4035 9.96238 12.4052 10.0002 12.4052C10.0381 12.4052 10.0702 12.4035 10.0965 12.4L10.0965 12.4L10.0997 12.3996L10.1017 12.3993L10.1295 12.3953L10.1549 12.3916L10.1572 12.3912L10.1572 12.3912C10.1868 12.3867 10.2191 12.379 10.254 12.3683L10.254 12.3683L10.254 12.3683C10.273 12.3625 10.2872 12.3583 10.2966 12.3559L10.3219 12.3492L10.3457 12.3382L10.3458 12.3382C10.369 12.3275 10.388 12.3183 10.4029 12.3106C10.4279 12.2987 10.4499 12.2869 10.469 12.275C10.4916 12.2626 10.5156 12.2471 10.5411 12.2283L10.5543 12.2186L10.5663 12.2075C10.567 12.2068 10.5692 12.2049 10.573 12.2017C10.5854 12.191 10.5966 12.1808 10.6066 12.1709C10.6173 12.1618 10.6284 12.1514 10.6401 12.1398C10.6436 12.1364 10.6457 12.1344 10.6463 12.1338L10.6586 12.1225L10.6696 12.1098C10.6903 12.086 10.7076 12.0633 10.7218 12.0416C10.7351 12.0233 10.7485 12.0022 10.7618 11.9784C10.7705 11.9642 10.7807 11.9463 10.7925 11.9247L10.8066 11.8987L10.8153 11.8704C10.8178 11.8626 10.822 11.8503 10.828 11.8336C10.8408 11.7985 10.8499 11.7656 10.8554 11.735L10.8559 11.7321L10.8605 11.7057L10.8643 11.6836L10.8647 11.6812L10.8653 11.6775C10.8695 11.65 10.8717 11.6171 10.8717 11.5789L10.8717 5.52627C10.8717 5.48804 10.8695 5.45517 10.8653 5.42766L10.8653 5.42764L10.8647 5.42393L10.8643 5.42162L10.8599 5.39623L10.8559 5.37286L10.8554 5.37022L10.8554 5.37022C10.8499 5.33959 10.8408 5.3067 10.828 5.27154C10.822 5.25486 10.8178 5.2426 10.8153 5.23475L10.8066 5.2065L10.7925 5.18051C10.7807 5.15885 10.7705 5.14094 10.7618 5.12677C10.7485 5.10292 10.7351 5.08185 10.7218 5.06356C10.7076 5.04187 10.6903 5.01913 10.6696 4.99533L10.6696 4.99533L10.6696 4.99533L10.6586 4.98271L10.6463 4.97139L10.6463 4.97139L10.6463 4.97139C10.6457 4.97079 10.6436 4.96877 10.6402 4.96534C10.6285 4.95378 10.6173 4.94341 10.6066 4.93423C10.5966 4.92441 10.5854 4.91415 10.573 4.90347C10.5692 4.90025 10.567 4.89832 10.5663 4.89771L10.5543 4.88659L10.5411 4.87686C10.5156 4.85811 10.4916 4.84254 10.469 4.83014C10.4499 4.81829 10.4279 4.80645 10.4029 4.79462C10.388 4.78688 10.369 4.77765 10.3457 4.76693L10.3457 4.76693L10.3219 4.75597L10.2966 4.7493C10.2872 4.74683 10.273 4.74267 10.254 4.73685ZM10.1158 5.32176C10.1045 5.31848 10.0918 5.3147 10.0779 5.31042L10.0779 5.31042C10.0714 5.30842 10.0675 5.3073 10.0664 5.30705L10.0395 5.30315L10.018 5.3C10.0166 5.29997 10.0107 5.29995 10.0002 5.29995L9.98251 5.30001L9.95744 5.30365L9.93412 5.30704C9.93296 5.30729 9.92911 5.30841 9.92257 5.31042C9.90865 5.3147 9.89601 5.31848 9.88465 5.32176C9.88076 5.32362 9.87814 5.32493 9.87677 5.32568L9.86715 5.331L9.85715 5.3356C9.85459 5.33678 9.85242 5.33779 9.85063 5.33862L9.8364 5.34911L9.82155 5.35595C9.82047 5.35687 9.81938 5.35782 9.81825 5.35878L9.81698 5.35988L9.80209 5.37702L9.78342 5.39078L9.78213 5.39205L9.78097 5.39319L9.77396 5.40612L9.76253 5.41927C9.76207 5.42011 9.76158 5.42103 9.76104 5.42203L9.75531 5.43258L9.74875 5.44265L9.74772 5.44434C9.74442 5.45394 9.74072 5.4644 9.73662 5.47573C9.73587 5.47778 9.73525 5.47961 9.73475 5.48121L9.73135 5.50103L9.72884 5.51564L9.72881 5.52627L9.72881 11.5789L9.72884 11.5896L9.73189 11.6074L9.73474 11.6239C9.73524 11.6255 9.73587 11.6274 9.73662 11.6294C9.74072 11.6408 9.74442 11.6512 9.74772 11.6608C9.74816 11.6616 9.74851 11.6621 9.74875 11.6625L9.75531 11.6726L9.76104 11.6831C9.76158 11.6841 9.76207 11.6851 9.76253 11.6859L9.77396 11.699L9.78097 11.712L9.78213 11.7131L9.78342 11.7144L9.80209 11.7281L9.81698 11.7453L9.81825 11.7464C9.81938 11.7473 9.82047 11.7483 9.82155 11.7492L9.8364 11.7561L9.85063 11.7665C9.85242 11.7674 9.85459 11.7684 9.85715 11.7696L9.85716 11.7696L9.86715 11.7742L9.87677 11.7795C9.87814 11.7802 9.88077 11.7816 9.88465 11.7834C9.896 11.7867 9.90863 11.7905 9.92254 11.7947L9.92257 11.7947C9.92908 11.7967 9.93293 11.7979 9.9341 11.7981L9.96096 11.802L9.98252 11.8052C9.98389 11.8052 9.9898 11.8052 10.0002 11.8052L10.018 11.8052L10.043 11.8015L10.0664 11.7981C10.0675 11.7979 10.0713 11.7968 10.0779 11.7947L10.0779 11.7947L10.0779 11.7947C10.0918 11.7905 10.1045 11.7867 10.1158 11.7834C10.1197 11.7816 10.1223 11.7802 10.1237 11.7795L10.1333 11.7742L10.1433 11.7696L10.1433 11.7696C10.1459 11.7684 10.1481 11.7674 10.1498 11.7665L10.1641 11.7561L10.1789 11.7492C10.18 11.7483 10.1811 11.7473 10.1822 11.7464L10.1835 11.7453L10.1984 11.7281L10.2171 11.7144L10.2184 11.7131L10.2195 11.712L10.2265 11.699L10.2379 11.6859C10.2384 11.6851 10.2389 11.6841 10.2394 11.6831L10.2452 11.6726L10.2517 11.6625L10.2528 11.6608C10.2561 11.6512 10.2598 11.6408 10.2639 11.6294C10.2646 11.6274 10.2652 11.6256 10.2657 11.624L10.2691 11.6041L10.2716 11.5895L10.2717 11.5789L10.2717 5.52627L10.2716 5.5156L10.2686 5.49779L10.2657 5.48123C10.2652 5.47963 10.2646 5.47779 10.2639 5.47573C10.2598 5.4644 10.2561 5.45394 10.2528 5.44434C10.2523 5.44358 10.252 5.44302 10.2517 5.44265L10.2452 5.43258L10.2394 5.42203C10.2389 5.42103 10.2384 5.42011 10.2379 5.41927L10.2265 5.40612L10.2195 5.39319L10.2183 5.39205L10.2171 5.39078L10.1984 5.37702L10.1835 5.35988L10.1822 5.35878C10.1811 5.35782 10.18 5.35687 10.1789 5.35595L10.1641 5.34911L10.1498 5.33862C10.1481 5.33779 10.1459 5.33678 10.1433 5.3356L10.1333 5.331L10.1237 5.32568C10.1223 5.32493 10.1197 5.32362 10.1158 5.32176ZM9.08992 13.2073C8.82994 13.4467 8.69995 13.7373 8.69995 14.0789C8.69995 14.4205 8.82994 14.7111 9.08992 14.9506C9.34282 15.1835 9.64617 15.3 9.99995 15.3C10.3537 15.3 10.6571 15.1835 10.91 14.9506C11.17 14.7111 11.3 14.4205 11.3 14.0789C11.3 13.7373 11.17 13.4467 10.91 13.2073C10.6571 12.9743 10.3537 12.8578 9.99995 12.8578C9.64617 12.8578 9.34282 12.9743 9.08992 13.2073ZM9.49641 14.5092C9.36544 14.3886 9.29995 14.2452 9.29995 14.0789C9.29995 13.9126 9.36544 13.7692 9.49641 13.6486C9.63446 13.5214 9.80231 13.4579 9.99995 13.4579C10.1976 13.4579 10.3654 13.5214 10.5035 13.6486C10.6345 13.7692 10.7 13.9126 10.7 14.0789C10.7 14.2451 10.6345 14.3886 10.5035 14.5092C10.3654 14.6364 10.1976 14.7 9.99995 14.7C9.80231 14.7 9.63446 14.6364 9.49641 14.5092Z" fill-rule="evenodd"  fill="#FFFFFF" >
</path>
</svg>
