<svg xmlns="http://www.w3.org/2000/svg" xmlns:xlink="http://www.w3.org/1999/xlink" width="20" height="20" viewBox="0 0 20 20" fill="none"><g opacity="1"  transform="translate(0 0)"><mask id="bg-mask-0" fill="white"><use transform="translate(0 0)" xlink:href="#path_0"></use></mask><g mask="url(#bg-mask-0)" ><path id="路径 1" fill-rule="evenodd" style="fill:#000000" opacity="1" d="M5.62498 2.08337C7.58099 2.08337 9.16665 3.66903 9.16665 5.62504L9.16665 9.16671L5.62498 9.16671C3.66897 9.16671 2.08331 7.58105 2.08331 5.62504C2.08331 3.66903 3.66897 2.08337 5.62498 2.08337ZM7.49998 7.50004L7.49998 5.62504C7.49998 4.58951 6.66051 3.75004 5.62498 3.75004C4.58945 3.75004 3.74998 4.58951 3.74998 5.62504C3.74998 6.66057 4.58945 7.50004 5.62498 7.50004L7.49998 7.50004ZM5.62498 10.8334L9.16665 10.8334L9.16665 14.375C9.16665 16.331 7.58099 17.9167 5.62498 17.9167C3.66897 17.9167 2.08331 16.331 2.08331 14.375C2.08331 12.419 3.66897 10.8334 5.62498 10.8334ZM5.62498 12.5C4.58945 12.5 3.74998 13.3395 3.74998 14.375C3.74998 15.4105 4.58945 16.25 5.62498 16.25C6.66051 16.25 7.49998 15.4105 7.49998 14.375L7.49998 12.5L5.62498 12.5ZM14.375 2.08337C16.331 2.08337 17.9166 3.66903 17.9166 5.62504C17.9166 7.58105 16.331 9.16671 14.375 9.16671L10.8333 9.16671L10.8333 5.62504C10.8333 3.66903 12.419 2.08337 14.375 2.08337ZM14.375 7.50004C15.4105 7.50004 16.25 6.66057 16.25 5.62504C16.25 4.58951 15.4105 3.75004 14.375 3.75004C13.3395 3.75004 12.5 4.58951 12.5 5.62504L12.5 7.50004L14.375 7.50004ZM10.8333 10.8334L14.375 10.8334C16.331 10.8334 17.9166 12.419 17.9166 14.375C17.9166 16.331 16.331 17.9167 14.375 17.9167C12.419 17.9167 10.8333 16.331 10.8333 14.375L10.8333 10.8334ZM12.5 12.5L12.5 14.375C12.5 15.4105 13.3395 16.25 14.375 16.25C15.4105 16.25 16.25 15.4105 16.25 14.375C16.25 13.3395 15.4105 12.5 14.375 12.5L12.5 12.5Z"></path></g></g><defs><rect id="path_0" x="0" y="0" width="20" height="20" rx="0" ry="0"/></defs></svg>