<svg xmlns="http://www.w3.org/2000/svg" xmlns:xlink="http://www.w3.org/1999/xlink" width="18" height="18" viewBox="0 0 18 18" fill="none">
<path d="M9.79549 6.08317L10.8561 7.14382C12.9064 9.19414 12.9064 12.5182 10.8561 14.5685L10.591 14.8336C8.54071 16.8839 5.2166 16.8839 3.16635 14.8336C1.1161 12.7834 1.1161 9.45926 3.16635 7.40899L4.22701 8.46969C2.76255 9.93416 2.76255 12.3085 4.22701 13.773C5.69148 15.2374 8.06581 15.2374 9.53036 13.773L9.79549 13.5078C11.2599 12.0433 11.2599 9.66896 9.79549 8.20449L8.73481 7.14382L9.79549 6.08317ZM14.8336 10.591L13.773 9.53036C15.2374 8.06581 15.2374 5.69148 13.773 4.22701C12.3085 2.76255 9.93416 2.76255 8.46969 4.22701L8.20449 4.49218C6.74002 5.95664 6.74002 8.33101 8.20449 9.79549L9.26516 10.8561L8.20449 11.9168L7.14382 10.8561C5.09357 8.80591 5.09357 5.48177 7.14382 3.43152L7.40899 3.16635C9.45926 1.1161 12.7834 1.1161 14.8336 3.16635C16.8839 5.2166 16.8839 8.54071 14.8336 10.591Z"   fill="#3C3C43">
</path>
</svg>
