<svg xmlns="http://www.w3.org/2000/svg" xmlns:xlink="http://www.w3.org/1999/xlink" width="44" height="44" viewBox="0 0 44 44" fill="none">
<path     fill="#1ABD5B" opacity="0.1" d="M34.4 0C37.76 0 39.44 0 40.72 0.65Q41.1403 0.86431 41.522 1.14169Q41.9037 1.41907 42.2373 1.75269Q42.5709 2.08632 42.8483 2.46799Q43.1257 2.84966 43.34 3.27C44 4.56 44 6.24 44 9.6L44 34.4C44 37.76 44 39.44 43.35 40.72Q43.1357 41.1403 42.8583 41.522Q42.5809 41.9037 42.2473 42.2373Q41.9137 42.5709 41.532 42.8483Q41.1503 43.1257 40.73 43.34C39.44 44 37.76 44 34.4 44L9.6 44C6.24 44 4.56 44 3.28 43.35Q2.85966 43.1357 2.47799 42.8583Q2.09632 42.5809 1.76269 42.2473Q1.42907 41.9137 1.15169 41.532Q0.87431 41.1503 0.66 40.73C0 39.44 0 37.76 0 34.4L0 9.6C0 6.24 0 4.56 0.65 3.28Q0.86431 2.85966 1.14169 2.47799Q1.41906 2.09632 1.75269 1.76269Q2.08632 1.42906 2.46799 1.15169Q2.84966 0.87431 3.27 0.66C4.56 0 6.24 0 9.6 0L34.4 0Z">
</path>
<path d="M15.446 12.6295C17.2423 11.1926 19.5208 10.3333 22 10.3333C24.4792 10.3333 26.7577 11.1926 28.554 12.6295L30.2496 10.9338L31.8995 12.5838L30.2039 14.2794C31.6408 16.0757 32.5 18.3542 32.5 20.8333L32.5 22L11.5 22L11.5 20.8333C11.5 18.3542 12.3592 16.0757 13.7961 14.2794L12.1005 12.5838L13.7504 10.9338L15.446 12.6295ZM11.5 24.3333L32.5 24.3333L32.5 32.5C32.5 33.1444 31.9777 33.6667 31.3333 33.6667L12.6667 33.6667C12.0223 33.6667 11.5 33.1444 11.5 32.5L11.5 24.3333ZM18.5 18.5C19.1443 18.5 19.6667 17.9777 19.6667 17.3333C19.6667 16.689 19.1443 16.1667 18.5 16.1667C17.8557 16.1667 17.3333 16.689 17.3333 17.3333C17.3333 17.9777 17.8557 18.5 18.5 18.5ZM25.5 18.5C26.1444 18.5 26.6667 17.9777 26.6667 17.3333C26.6667 16.689 26.1444 16.1667 25.5 16.1667C24.8556 16.1667 24.3333 16.689 24.3333 17.3333C24.3333 17.9777 24.8556 18.5 25.5 18.5Z"   fill="#1ABD5B" >
</path>
</svg>
