<svg xmlns="http://www.w3.org/2000/svg" xmlns:xlink="http://www.w3.org/1999/xlink" width="20" height="20" viewBox="0 0 20 20" fill="none">
<path d="M14.1667 10.8333C14.1958 10.8333 14.2208 10.8333 14.25 10.8292C14.275 10.825 14.3042 10.8208 14.3292 10.8167C14.3542 10.8125 14.3833 10.8042 14.4083 10.7958C14.4333 10.7875 14.4583 10.7792 14.4875 10.7708C14.5125 10.7583 14.5375 10.7458 14.5583 10.7333C14.5833 10.7208 14.6083 10.7083 14.6292 10.6917C14.6542 10.6792 14.675 10.6625 14.6958 10.6458C14.7167 10.625 14.7375 10.6083 14.7542 10.5875C14.775 10.5708 14.7917 10.55 14.8125 10.5292C14.8292 10.5083 14.8458 10.4875 14.8583 10.4625C14.875 10.4417 14.8875 10.4167 14.9 10.3917C14.9125 10.3708 14.925 10.3458 14.9375 10.3208C14.9458 10.2917 14.9542 10.2667 14.9625 10.2417C14.9708 10.2167 14.9792 10.1875 14.9833 10.1625C14.9875 10.1375 14.9917 10.1083 14.9958 10.0833C15 10.0542 15 10.0292 15 10C15 9.97083 15 9.94583 14.9958 9.91667C14.9917 9.89167 14.9875 9.8625 14.9833 9.8375C14.9792 9.8125 14.9708 9.78333 14.9625 9.75833C14.9542 9.73333 14.9458 9.70833 14.9375 9.67917C14.925 9.65417 14.9125 9.62917 14.9 9.60833C14.8875 9.58333 14.875 9.55833 14.8583 9.5375C14.8458 9.5125 14.8292 9.49167 14.8125 9.47083C14.7917 9.45 14.775 9.42917 14.7542 9.4125C14.7375 9.39167 14.7167 9.375 14.6958 9.35417C14.675 9.3375 14.6542 9.32083 14.6292 9.30833C14.6083 9.29167 14.5833 9.27917 14.5583 9.26667C14.5375 9.25417 14.5125 9.24167 14.4875 9.22917C14.4583 9.22083 14.4333 9.2125 14.4083 9.20417C14.3833 9.19583 14.3542 9.1875 14.3292 9.18333C14.3042 9.17917 14.275 9.175 14.25 9.17083C14.2208 9.16667 14.1958 9.16667 14.1667 9.16667L10.8333 9.16667L10.8333 5.83333C10.8333 5.80417 10.8333 5.77917 10.8292 5.75C10.825 5.725 10.8208 5.69583 10.8167 5.67083C10.8125 5.64583 10.8042 5.61667 10.7958 5.59167C10.7875 5.56667 10.7792 5.54167 10.7708 5.5125C10.7583 5.4875 10.7458 5.4625 10.7333 5.44167C10.7208 5.41667 10.7083 5.39167 10.6917 5.37083C10.6792 5.34583 10.6625 5.325 10.6458 5.30417C10.625 5.28333 10.6083 5.2625 10.5875 5.24583C10.5708 5.225 10.55 5.20833 10.5292 5.1875C10.5083 5.17083 10.4875 5.15417 10.4625 5.14167C10.4417 5.125 10.4167 5.1125 10.3917 5.1C10.3708 5.0875 10.3458 5.075 10.3208 5.0625C10.2917 5.05417 10.2667 5.04583 10.2417 5.0375C10.2167 5.02917 10.1875 5.02083 10.1625 5.01667C10.1375 5.0125 10.1083 5.00833 10.0833 5.00417C10.0542 5 10.0292 5 10 5C9.97083 5 9.94583 5 9.91667 5.00417C9.89167 5.00833 9.8625 5.0125 9.8375 5.01667C9.8125 5.02083 9.78333 5.02917 9.75833 5.0375C9.73333 5.04583 9.70833 5.05417 9.67917 5.0625C9.65417 5.075 9.62917 5.0875 9.60833 5.1C9.58333 5.1125 9.55833 5.125 9.5375 5.14167C9.5125 5.15417 9.49167 5.17083 9.47083 5.1875C9.45 5.20833 9.42917 5.225 9.4125 5.24583C9.39167 5.2625 9.375 5.28333 9.35417 5.30417C9.3375 5.325 9.32083 5.34583 9.30833 5.37083C9.29167 5.39167 9.27917 5.41667 9.26667 5.44167C9.25417 5.4625 9.24167 5.4875 9.22917 5.5125C9.22083 5.54167 9.2125 5.56667 9.20417 5.59167C9.19583 5.61667 9.1875 5.64583 9.18333 5.67083C9.17917 5.69583 9.175 5.725 9.17083 5.75C9.16667 5.77917 9.16667 5.80417 9.16667 5.83333L9.16667 9.16667L5.83333 9.16667C5.80417 9.16667 5.77917 9.16667 5.75 9.17083C5.725 9.175 5.69583 9.17917 5.67083 9.18333C5.64583 9.1875 5.61667 9.19583 5.59167 9.20417C5.56667 9.2125 5.54167 9.22083 5.5125 9.22917C5.4875 9.24167 5.4625 9.25417 5.44167 9.26667C5.41667 9.27917 5.39167 9.29167 5.37083 9.30833C5.34583 9.32083 5.325 9.3375 5.30417 9.35417C5.28333 9.375 5.2625 9.39167 5.24583 9.4125C5.225 9.42917 5.20833 9.45 5.1875 9.47083C5.17083 9.49167 5.15417 9.5125 5.14167 9.5375C5.125 9.55833 5.1125 9.58333 5.1 9.60833C5.0875 9.62917 5.075 9.65417 5.0625 9.67917C5.05417 9.70833 5.04583 9.73333 5.0375 9.75833C5.02917 9.78333 5.02083 9.8125 5.01667 9.8375C5.0125 9.8625 5.00833 9.89167 5.00417 9.91667C5 9.94583 5 9.97083 5 10C5 10.0292 5 10.0542 5.00417 10.0833C5.00833 10.1083 5.0125 10.1375 5.01667 10.1625C5.02083 10.1875 5.02917 10.2167 5.0375 10.2417C5.04583 10.2667 5.05417 10.2917 5.0625 10.3208C5.075 10.3458 5.0875 10.3708 5.1 10.3917C5.1125 10.4167 5.125 10.4417 5.14167 10.4625C5.15417 10.4875 5.17083 10.5083 5.1875 10.5292C5.20833 10.55 5.225 10.5708 5.24583 10.5875C5.2625 10.6083 5.28333 10.625 5.30417 10.6458C5.325 10.6625 5.34583 10.6792 5.37083 10.6917C5.39167 10.7083 5.41667 10.7208 5.44167 10.7333C5.4625 10.7458 5.4875 10.7583 5.5125 10.7708C5.54167 10.7792 5.56667 10.7875 5.59167 10.7958C5.61667 10.8042 5.64583 10.8125 5.67083 10.8167C5.69583 10.8208 5.725 10.825 5.75 10.8292C5.77917 10.8333 5.80417 10.8333 5.83333 10.8333L9.16667 10.8333L9.16667 14.1667C9.16667 14.1958 9.16667 14.2208 9.17083 14.25C9.175 14.275 9.17917 14.3042 9.18333 14.3292C9.1875 14.3542 9.19583 14.3833 9.20417 14.4083C9.2125 14.4333 9.22083 14.4583 9.22917 14.4875C9.24167 14.5125 9.25417 14.5375 9.26667 14.5583C9.27917 14.5833 9.29167 14.6083 9.30833 14.6292C9.32083 14.6542 9.3375 14.675 9.35417 14.6958C9.375 14.7167 9.39167 14.7375 9.4125 14.7542C9.42917 14.775 9.45 14.7917 9.47083 14.8125C9.49167 14.8292 9.5125 14.8458 9.5375 14.8583C9.55833 14.875 9.58333 14.8875 9.60833 14.9C9.62917 14.9125 9.65417 14.925 9.67917 14.9375C9.70833 14.9458 9.73333 14.9542 9.75833 14.9625C9.78333 14.9708 9.8125 14.9792 9.8375 14.9833C9.8625 14.9875 9.89167 14.9917 9.91667 14.9958C9.94583 15 9.97083 15 10 15C10.0292 15 10.0542 15 10.0833 14.9958C10.1083 14.9917 10.1375 14.9875 10.1625 14.9833C10.1875 14.9792 10.2167 14.9708 10.2417 14.9625C10.2667 14.9542 10.2917 14.9458 10.3208 14.9375C10.3458 14.925 10.3708 14.9125 10.3917 14.9C10.4167 14.8875 10.4417 14.875 10.4625 14.8583C10.4875 14.8458 10.5083 14.8292 10.5292 14.8125C10.55 14.7917 10.5708 14.775 10.5875 14.7542C10.6083 14.7375 10.625 14.7167 10.6458 14.6958C10.6625 14.675 10.6792 14.6542 10.6917 14.6292C10.7083 14.6083 10.7208 14.5833 10.7333 14.5583C10.7458 14.5375 10.7583 14.5125 10.7708 14.4875C10.7792 14.4583 10.7875 14.4333 10.7958 14.4083C10.8042 14.3833 10.8125 14.3542 10.8167 14.3292C10.8208 14.3042 10.825 14.275 10.8292 14.25C10.8333 14.2208 10.8333 14.1958 10.8333 14.1667L10.8333 10.8333L14.1667 10.8333ZM16.1875 3.8125C15.3792 3.00417 14.4542 2.37917 13.4042 1.9375C12.3208 1.47917 11.1875 1.25 10 1.25C8.8125 1.25 7.67917 1.47917 6.59583 1.9375C5.54583 2.37917 4.62083 3.00417 3.8125 3.8125C3.00417 4.62083 2.37917 5.54583 1.9375 6.59583C1.47917 7.67917 1.25 8.8125 1.25 10C1.25 11.1875 1.47917 12.3208 1.9375 13.4042C2.37917 14.4542 3.00417 15.3792 3.8125 16.1875C4.62083 16.9958 5.54583 17.6208 6.59583 18.0625C7.67917 18.5208 8.8125 18.75 10 18.75C11.1875 18.75 12.3208 18.5208 13.4042 18.0625C14.4542 17.6208 15.3792 16.9958 16.1875 16.1875C16.9958 15.3792 17.6208 14.4542 18.0625 13.4042C18.5208 12.3208 18.75 11.1875 18.75 10C18.75 8.8125 18.5208 7.67917 18.0625 6.59583C17.6208 5.54583 16.9958 4.62083 16.1875 3.8125ZM16.525 12.7542C16.8958 11.8792 17.0833 10.9625 17.0833 10C17.0833 9.0375 16.8958 8.12083 16.525 7.24583C16.1667 6.39583 15.6625 5.64583 15.0083 4.99167C14.3542 4.3375 13.6042 3.83333 12.7542 3.475C11.8792 3.10417 10.9625 2.91667 10 2.91667C9.0375 2.91667 8.12083 3.10417 7.24583 3.475C6.39583 3.83333 5.64583 4.3375 4.99167 4.99167C4.3375 5.64583 3.83333 6.39583 3.475 7.24583C3.10417 8.12083 2.91667 9.0375 2.91667 10C2.91667 10.9625 3.10417 11.8792 3.475 12.7542C3.83333 13.6042 4.3375 14.3542 4.99167 15.0083C5.64583 15.6625 6.39583 16.1667 7.24583 16.525C8.12083 16.8958 9.0375 17.0833 10 17.0833C10.9625 17.0833 11.8792 16.8958 12.7542 16.525C13.6042 16.1667 14.3542 15.6625 15.0083 15.0083C15.6625 14.3542 16.1667 13.6042 16.525 12.7542Z" fill-rule="evenodd"  fill="#000000" >
</path>
</svg>
