<svg xmlns="http://www.w3.org/2000/svg" xmlns:xlink="http://www.w3.org/1999/xlink" width="44" height="44" viewBox="0 0 44 44" fill="none">
<path     fill="#FF5733" opacity="0.1" d="M34.4 0C37.76 0 39.44 0 40.72 0.65Q41.1403 0.86431 41.522 1.14169Q41.9037 1.41907 42.2373 1.75269Q42.5709 2.08632 42.8483 2.46799Q43.1257 2.84966 43.34 3.27C44 4.56 44 6.24 44 9.6L44 34.4C44 37.76 44 39.44 43.35 40.72Q43.1357 41.1403 42.8583 41.522Q42.5809 41.9037 42.2473 42.2373Q41.9137 42.5709 41.532 42.8483Q41.1503 43.1257 40.73 43.34C39.44 44 37.76 44 34.4 44L9.6 44C6.24 44 4.56 44 3.28 43.35Q2.85966 43.1357 2.47799 42.8583Q2.09632 42.5809 1.76269 42.2473Q1.42907 41.9137 1.15169 41.532Q0.87431 41.1503 0.66 40.73C0 39.44 0 37.76 0 34.4L0 9.6C0 6.24 0 4.56 0.65 3.28Q0.86431 2.85966 1.14169 2.47799Q1.41906 2.09632 1.75269 1.76269Q2.08632 1.42906 2.46799 1.15169Q2.84966 0.87431 3.27 0.66C4.56 0 6.24 0 9.6 0L34.4 0Z">
</path>
<path d="M22 23.791L22 11.5L31.3333 11.5L31.3333 15L24.3333 15L24.3333 27.8333C24.3333 30.4106 22.2439 32.5 19.6667 32.5C17.0893 32.5 15 30.4106 15 27.8333C15 25.2561 17.0893 23.1667 19.6667 23.1667C20.5167 23.1667 21.3137 23.3939 22 23.791Z"   fill="#FF5733" >
</path>
</svg>
