<svg xmlns="http://www.w3.org/2000/svg" xmlns:xlink="http://www.w3.org/1999/xlink" width="22" height="22" viewBox="0 0 22 22" fill="none">
<path d="M9.73492 2.64016C9.48283 2.3835 9.1895 2.191 8.86408 2.04891C8.52033 1.90683 8.16283 1.8335 7.79158 1.8335L5.49992 1.8335C5.00492 1.8335 4.52825 1.92975 4.0745 2.12225C3.6345 2.31016 3.24492 2.57141 2.90575 2.906C2.57117 3.24516 2.30992 3.63475 2.122 4.07475C1.9295 4.5285 1.83325 5.00516 1.83325 5.50016L1.83325 7.79183C1.83325 8.16308 1.90659 8.52058 2.04867 8.86433C2.19075 9.18975 2.38325 9.48308 2.63992 9.73516C2.892 9.99183 3.18534 10.1843 3.51075 10.3264C3.8545 10.4685 4.212 10.5418 4.58325 10.5418L7.79158 10.5418C8.16283 10.5418 8.52033 10.4685 8.86408 10.3264C9.1895 10.1843 9.48283 9.99183 9.73492 9.73516C9.99158 9.48308 10.1841 9.18975 10.3262 8.86433C10.4683 8.52058 10.5416 8.16308 10.5416 7.79183L10.5416 4.5835C10.5416 4.21225 10.4683 3.85475 10.3262 3.511C10.1841 3.18558 9.99158 2.89225 9.73492 2.64016ZM13.3649 8.14933C13.4108 8.25933 13.4749 8.35558 13.562 8.43808C13.6445 8.52516 13.7408 8.58933 13.8508 8.63516C13.9653 8.68558 14.0845 8.7085 14.2083 8.7085L17.4166 8.7085C17.5403 8.7085 17.6595 8.68558 17.7741 8.63516C17.8841 8.58933 17.9803 8.52516 18.0628 8.43808C18.1499 8.35558 18.2141 8.25933 18.2599 8.14933C18.3103 8.03475 18.3333 7.91558 18.3333 7.79183L18.3333 5.50016C18.3333 5.25266 18.2874 5.01433 18.1912 4.78975C18.0949 4.56975 17.9666 4.37266 17.797 4.20308C17.6274 4.0335 17.4303 3.90516 17.2103 3.80891C16.9858 3.71266 16.7474 3.66683 16.4999 3.66683L14.2083 3.66683C14.0845 3.66683 13.9653 3.68975 13.8508 3.74016C13.7408 3.786 13.6445 3.85016 13.562 3.93725C13.4749 4.01975 13.4108 4.116 13.3649 4.226C13.3145 4.34058 13.2916 4.45975 13.2916 4.5835L13.2916 7.79183C13.2916 7.91558 13.3145 8.03475 13.3649 8.14933ZM8.14908 8.63516C8.25908 8.58933 8.35534 8.52516 8.43783 8.43808C8.52492 8.35558 8.58908 8.25933 8.63492 8.14933C8.68534 8.03475 8.70825 7.91558 8.70825 7.79183L8.70825 4.5835C8.70825 4.45975 8.68534 4.34058 8.63492 4.226C8.58908 4.116 8.52492 4.01975 8.43783 3.93725C8.35534 3.85016 8.25908 3.786 8.14908 3.74016C8.0345 3.68975 7.91533 3.66683 7.79158 3.66683L5.49992 3.66683C5.25242 3.66683 5.01408 3.71266 4.7895 3.80891C4.5695 3.90516 4.37242 4.0335 4.20284 4.20308C4.03325 4.37266 3.90492 4.56975 3.80867 4.78975C3.71242 5.01433 3.66658 5.25266 3.66658 5.50016L3.66658 7.79183C3.66658 7.91558 3.6895 8.03475 3.73992 8.14933C3.78575 8.25933 3.84992 8.35558 3.937 8.43808C4.0195 8.52516 4.11575 8.58933 4.22575 8.63516C4.34033 8.68558 4.4595 8.7085 4.58325 8.7085L7.79158 8.7085C7.91533 8.7085 8.0345 8.68558 8.14908 8.63516ZM18.3333 14.2085C18.3333 14.0847 18.3103 13.9656 18.2599 13.851C18.2141 13.741 18.1499 13.6447 18.0628 13.5622C17.9803 13.4752 17.8841 13.411 17.7741 13.3652C17.6595 13.3147 17.5403 13.2918 17.4166 13.2918L14.2083 13.2918C14.0845 13.2918 13.9653 13.3147 13.8508 13.3652C13.7408 13.411 13.6445 13.4752 13.562 13.5622C13.4749 13.6447 13.4108 13.741 13.3649 13.851C13.3145 13.9656 13.2916 14.0847 13.2916 14.2085L13.2916 17.4168C13.2916 17.5406 13.3145 17.6597 13.3649 17.7743C13.4108 17.8843 13.4749 17.9806 13.562 18.0631C13.6445 18.1502 13.7408 18.2143 13.8508 18.2602C13.9653 18.3106 14.0845 18.3335 14.2083 18.3335L16.4999 18.3335C16.7474 18.3335 16.9858 18.2877 17.2103 18.1914C17.4303 18.0952 17.6274 17.9668 17.797 17.7972C17.9666 17.6277 18.0949 17.4306 18.1912 17.2106C18.2874 16.986 18.3333 16.7477 18.3333 16.5002L18.3333 14.2085ZM7.79158 13.2918L4.58325 13.2918C4.4595 13.2918 4.34033 13.3147 4.22575 13.3652C4.11575 13.411 4.0195 13.4752 3.937 13.5622C3.84992 13.6447 3.78575 13.741 3.73992 13.851C3.6895 13.9656 3.66658 14.0847 3.66658 14.2085L3.66658 16.5002C3.66658 16.7477 3.71242 16.986 3.80867 17.2106C3.90492 17.4306 4.03325 17.6277 4.20284 17.7972C4.37242 17.9668 4.5695 18.0952 4.7895 18.1914C5.01408 18.2877 5.25242 18.3335 5.49992 18.3335L7.79158 18.3335C7.91533 18.3335 8.0345 18.3106 8.14908 18.2602C8.25908 18.2143 8.35534 18.1502 8.43783 18.0631C8.52492 17.9806 8.58908 17.8843 8.63492 17.7743C8.68534 17.6597 8.70825 17.5406 8.70825 17.4168L8.70825 14.2085C8.70825 14.0847 8.68534 13.9656 8.63492 13.851C8.58908 13.741 8.52492 13.6447 8.43783 13.5622C8.35534 13.4752 8.25908 13.411 8.14908 13.3652C8.0345 13.3147 7.91533 13.2918 7.79158 13.2918ZM18.4891 10.3264C18.8145 10.1843 19.1078 9.99183 19.3599 9.73516C19.6166 9.48308 19.8091 9.18975 19.9512 8.86433C20.0933 8.52058 20.1666 8.16308 20.1666 7.79183L20.1666 5.50016C20.1666 5.00516 20.0703 4.5285 19.8778 4.07475C19.6899 3.63475 19.4287 3.24516 19.0941 2.906C18.7549 2.57141 18.3653 2.31016 17.9253 2.12225C17.4716 1.92975 16.9949 1.8335 16.4999 1.8335L14.2083 1.8335C13.837 1.8335 13.4795 1.90683 13.1358 2.04891C12.8103 2.191 12.517 2.3835 12.2649 2.64016C12.0083 2.89225 11.8158 3.18558 11.6737 3.511C11.5316 3.85475 11.4583 4.21225 11.4583 4.5835L11.4583 7.79183C11.4583 8.16308 11.5316 8.52058 11.6737 8.86433C11.8158 9.18975 12.0083 9.48308 12.2649 9.73516C12.517 9.99183 12.8103 10.1843 13.1358 10.3264C13.4795 10.4685 13.837 10.5418 14.2083 10.5418L17.4166 10.5418C17.7878 10.5418 18.1453 10.4685 18.4891 10.3264ZM9.73492 12.2652C9.48283 12.0085 9.1895 11.816 8.86408 11.6739C8.52033 11.5318 8.16283 11.4585 7.79158 11.4585L4.58325 11.4585C4.212 11.4585 3.8545 11.5318 3.51075 11.6739C3.18534 11.816 2.892 12.0085 2.63992 12.2652C2.38325 12.5172 2.19075 12.8106 2.04867 13.136C1.90659 13.4797 1.83325 13.8372 1.83325 14.2085L1.83325 16.5002C1.83325 16.9952 1.9295 17.4718 2.122 17.9256C2.30992 18.3656 2.57117 18.7552 2.90575 19.0943C3.24492 19.4289 3.6345 19.6902 4.0745 19.8781C4.52825 20.0706 5.00492 20.1668 5.49992 20.1668L7.79158 20.1668C8.16283 20.1668 8.52033 20.0935 8.86408 19.9514C9.1895 19.8093 9.48283 19.6168 9.73492 19.3602C9.99158 19.1081 10.1841 18.8147 10.3262 18.4893C10.4683 18.1456 10.5416 17.7881 10.5416 17.4168L10.5416 14.2085C10.5416 13.8372 10.4683 13.4797 10.3262 13.136C10.1841 12.8106 9.99158 12.5172 9.73492 12.2652ZM14.2083 11.4585C13.837 11.4585 13.4795 11.5318 13.1358 11.6739C12.8103 11.816 12.517 12.0085 12.2649 12.2652C12.0083 12.5172 11.8158 12.8106 11.6737 13.136C11.5316 13.4797 11.4583 13.8372 11.4583 14.2085L11.4583 17.4168C11.4583 17.7881 11.5316 18.1456 11.6737 18.4893C11.8158 18.8147 12.0083 19.1081 12.2649 19.3602C12.517 19.6168 12.8103 19.8093 13.1358 19.9514C13.4795 20.0935 13.837 20.1668 14.2083 20.1668L16.4999 20.1668C16.9949 20.1668 17.4716 20.0706 17.9253 19.8781C18.3653 19.6902 18.7549 19.4289 19.0941 19.0943C19.4287 18.7552 19.6899 18.3656 19.8778 17.9256C20.0703 17.4718 20.1666 16.9952 20.1666 16.5002L20.1666 14.2085C20.1666 13.8372 20.0933 13.4797 19.9512 13.136C19.8091 12.8106 19.6166 12.5172 19.3599 12.2652C19.1078 12.0085 18.8145 11.816 18.4891 11.6739C18.1453 11.5318 17.7878 11.4585 17.4166 11.4585L14.2083 11.4585Z" fill-rule="evenodd"  fill="#000000" >
</path>
</svg>
