<svg xmlns="http://www.w3.org/2000/svg" xmlns:xlink="http://www.w3.org/1999/xlink" width="100" height="100" viewBox="0 0 100 100" fill="none">
<path d="M35.4166 70.8333C34.266 70.8333 33.3333 69.9006 33.3333 68.75L33.3333 31.25C33.3333 30.0994 34.266 29.1667 35.4166 29.1667L64.5833 29.1667C65.7339 29.1667 66.6666 30.0994 66.6666 31.25L66.6666 37.5L62.4999 37.5L62.4999 33.3333L37.4999 33.3333L37.4999 66.6667L62.4999 66.6667L62.4999 62.5L66.6666 62.5L66.6666 68.75C66.6666 69.9006 65.7339 70.8333 64.5833 70.8333L35.4166 70.8333ZM62.4999 58.3333L62.4999 52.0833L47.9166 52.0833L47.9166 47.9167L62.4999 47.9167L62.4999 41.6667L72.9166 50L62.4999 58.3333Z"   fill="#FF3B30" >
</path>
</svg>
