<svg xmlns="http://www.w3.org/2000/svg" xmlns:xlink="http://www.w3.org/1999/xlink" width="24" height="24" viewBox="0 0 24 24" fill="none">
<path   fill-rule="evenodd"  fill="#000000"  d="M11.4975 19.9C11.4925 19.87 11.4875 19.835 11.4825 19.805C11.4725 19.775 11.4675 19.74 11.4575 19.71C11.4475 19.68 11.4375 19.65 11.4225 19.615C11.4125 19.585 11.3975 19.555 11.3825 19.53C11.3675 19.5 11.3475 19.47 11.3325 19.445C11.3125 19.415 11.2925 19.39 11.2725 19.365C11.2525 19.34 11.2325 19.315 11.2075 19.295L4.91248 13L21 13C21.035 13 21.065 13 21.1 12.995C21.13 12.99 21.165 12.985 21.195 12.98C21.225 12.975 21.26 12.965 21.29 12.955C21.32 12.945 21.35 12.935 21.385 12.925C21.415 12.91 21.445 12.895 21.47 12.88C21.5 12.865 21.53 12.85 21.555 12.83C21.585 12.815 21.61 12.795 21.635 12.775C21.66 12.75 21.685 12.73 21.705 12.705C21.73 12.685 21.75 12.66 21.775 12.635C21.795 12.61 21.815 12.585 21.83 12.555C21.85 12.53 21.865 12.5 21.88 12.47C21.895 12.445 21.91 12.415 21.925 12.385C21.935 12.35 21.945 12.32 21.955 12.29C21.965 12.26 21.975 12.225 21.98 12.195C21.985 12.165 21.99 12.13 21.995 12.1C22 12.065 22 12.035 22 12C22 11.965 22 11.935 21.995 11.9C21.99 11.87 21.985 11.835 21.98 11.805C21.975 11.775 21.965 11.74 21.955 11.71C21.945 11.68 21.935 11.65 21.925 11.615C21.91 11.585 21.895 11.555 21.88 11.53C21.865 11.5 21.85 11.47 21.83 11.445C21.815 11.415 21.795 11.39 21.775 11.365C21.75 11.34 21.73 11.315 21.705 11.295C21.685 11.27 21.66 11.25 21.635 11.225C21.61 11.205 21.585 11.185 21.555 11.17C21.53 11.15 21.5 11.135 21.47 11.12C21.445 11.105 21.415 11.09 21.385 11.075C21.35 11.065 21.32 11.055 21.29 11.045C21.26 11.035 21.225 11.025 21.195 11.02C21.165 11.015 21.13 11.01 21.1 11.005C21.065 11 21.035 11 21 11L4.91248 11L11.2075 4.705L9.79247 3.295L2.49748 10.59C2.30748 10.78 2.16248 11 2.05748 11.25C1.96248 11.49 1.91248 11.74 1.91248 12C1.91248 12.26 1.96248 12.51 2.05748 12.75C2.16248 13 2.30748 13.22 2.49748 13.41L9.79247 20.705C9.81748 20.73 9.84248 20.75 9.86748 20.775C9.89248 20.795 9.91748 20.815 9.94248 20.83C9.97248 20.85 9.99748 20.865 10.0275 20.88L10.1175 20.925L10.2075 20.955C10.2425 20.965 10.2725 20.975 10.3025 20.98C10.3375 20.985 10.3675 20.99 10.4025 20.995C10.4325 21 10.4675 21 10.5025 21C10.5325 21 10.5675 21 10.5975 20.995C10.6325 20.99 10.6625 20.985 10.6975 20.98C10.7275 20.975 10.7575 20.965 10.7925 20.955L10.8825 20.925L10.9725 20.88C11.0025 20.865 11.0275 20.85 11.0575 20.83C11.0825 20.815 11.1075 20.795 11.1325 20.775C11.1575 20.75 11.1825 20.73 11.2075 20.705C11.2325 20.685 11.2525 20.66 11.2725 20.635C11.2925 20.61 11.3125 20.585 11.3325 20.555C11.3475 20.53 11.3675 20.5 11.3825 20.47C11.3975 20.445 11.4125 20.415 11.4225 20.385C11.4375 20.35 11.4475 20.32 11.4575 20.29C11.4675 20.26 11.4725 20.225 11.4825 20.195C11.4875 20.165 11.4925 20.13 11.4975 20.1C11.4975 20.065 11.5025 20.035 11.5025 20C11.5025 19.965 11.4975 19.935 11.4975 19.9ZM11.2075 4.705C11.2325 4.685 11.2525 4.66 11.2725 4.635C11.2925 4.61 11.3125 4.585 11.3325 4.555C11.3475 4.53 11.3675 4.5 11.3825 4.47C11.3975 4.445 11.4125 4.415 11.4225 4.385C11.4375 4.35 11.4475 4.32 11.4575 4.29C11.4675 4.26 11.4725 4.225 11.4825 4.195C11.4875 4.165 11.4925 4.13 11.4975 4.1C11.4975 4.065 11.5025 4.035 11.5025 4C11.5025 3.965 11.4975 3.935 11.4975 3.9C11.4925 3.87 11.4875 3.835 11.4825 3.805C11.4725 3.775 11.4675 3.74 11.4575 3.71C11.4475 3.68 11.4375 3.65 11.4225 3.615C11.4125 3.585 11.3975 3.555 11.3825 3.53C11.3675 3.5 11.3475 3.47 11.3325 3.445C11.3125 3.415 11.2925 3.39 11.2725 3.365C11.2525 3.34 11.2325 3.315 11.2075 3.295C11.1825 3.27 11.1575 3.25 11.1325 3.225C11.1075 3.205 11.0825 3.185 11.0575 3.17C11.0275 3.15 11.0025 3.135 10.9725 3.12L10.8825 3.075L10.7925 3.045C10.7575 3.035 10.7275 3.025 10.6975 3.02C10.6625 3.015 10.6325 3.01 10.5975 3.005C10.5675 3 10.5325 3 10.5025 3C10.4675 3 10.4325 3 10.4025 3.005C10.3675 3.01 10.3375 3.015 10.3025 3.02C10.2725 3.025 10.2425 3.035 10.2075 3.045L10.1175 3.075L10.0275 3.12C9.99748 3.135 9.97248 3.15 9.94248 3.17C9.91748 3.185 9.89248 3.205 9.86748 3.225C9.84248 3.25 9.81748 3.27 9.79247 3.295L11.2075 4.705Z">
</path>
</svg>
