<svg xmlns="http://www.w3.org/2000/svg" xmlns:xlink="http://www.w3.org/1999/xlink" width="100" height="100" viewBox="0 0 100 100" fill="none">
<path d="M60.4166 37.5L70.8333 37.5L70.8333 41.6667L66.6666 41.6667L66.6666 68.75C66.6666 69.9006 65.7339 70.8333 64.5833 70.8333L35.4166 70.8333C34.266 70.8333 33.3333 69.9006 33.3333 68.75L33.3333 41.6667L29.1666 41.6667L29.1666 37.5L39.5833 37.5L39.5833 31.25C39.5833 30.0994 40.516 29.1667 41.6666 29.1667L58.3333 29.1667C59.4839 29.1667 60.4166 30.0994 60.4166 31.25L60.4166 37.5ZM62.5 41.6667L37.5 41.6667L37.5 66.6667L62.5 66.6667L62.5 41.6667ZM43.75 47.9167L47.9166 47.9167L47.9166 60.4167L43.75 60.4167L43.75 47.9167ZM52.0833 47.9167L56.25 47.9167L56.25 60.4167L52.0833 60.4167L52.0833 47.9167ZM43.75 33.3333L43.75 37.5L56.25 37.5L56.25 33.3333L43.75 33.3333Z"   fill="#FF3B30" >
</path>
</svg>
