<svg xmlns="http://www.w3.org/2000/svg" xmlns:xlink="http://www.w3.org/1999/xlink" width="50" height="50" viewBox="0 0 50 50" fill="none">
<path d="M32.2955 41.6766C30.9234 44.9668 28.2905 47.6 25 48.972C21.7096 47.6 19.0767 44.9668 17.7045 41.6766L22.4115 41.6766C23.0913 42.6945 23.969 43.5772 25 44.2666C26.0311 43.5772 26.9088 42.6945 27.5886 41.6766L32.2955 41.6766ZM37.5 30.8531L41.6667 35.5785L41.6667 39.5933L8.33337 39.5933L8.33337 35.5785L12.5 30.8531L12.5 18.7599C12.5 11.5032 17.7176 5.32961 25 3.04163C32.2825 5.32961 37.5 11.5032 37.5 18.7599L37.5 30.8531ZM35.9775 35.4266L33.3334 32.4277L33.3334 18.7599C33.3334 13.9311 30.0609 9.52979 25 7.46631C19.9392 9.52979 16.6667 13.9311 16.6667 18.7599L16.6667 32.4277L14.0225 35.4266L35.9775 35.4266ZM25 22.9266C22.6988 22.9266 20.8334 21.061 20.8334 18.7599C20.8334 16.4588 22.6988 14.5933 25 14.5933C27.3013 14.5933 29.1667 16.4588 29.1667 18.7599C29.1667 21.061 27.3013 22.9266 25 22.9266Z"   fill="#007AFF" >
</path>
</svg>
