<svg xmlns="http://www.w3.org/2000/svg" xmlns:xlink="http://www.w3.org/1999/xlink" width="20" height="20" viewBox="0 0 20 20" fill="none">
<path d="M15.3031 12.9462L14.1246 11.7677L15.3031 10.5892C16.9303 8.96207 16.9303 6.32387 15.3031 4.69669C13.6759 3.0695 11.0377 3.0695 9.41054 4.69669L8.23203 5.8752L7.05352 4.69669L8.23203 3.51817C10.5101 1.24012 14.2035 1.24012 16.4816 3.51817C18.7597 5.79623 18.7597 9.48966 16.4816 11.7677L15.3031 12.9462ZM12.946 15.3033L11.7675 16.4818C9.48954 18.7598 5.79605 18.7598 3.51799 16.4818C1.23993 14.2037 1.23993 10.5102 3.51799 8.23222L4.6965 7.05371L5.87501 8.23222L4.6965 9.41074C3.06931 11.0379 3.06931 13.676 4.6965 15.3033C6.32368 16.9305 8.96187 16.9305 10.589 15.3033L11.7675 14.1247L12.946 15.3033ZM12.3568 6.46446L13.5354 7.64296L7.64278 13.5355L6.46426 12.357L12.3568 6.46446Z"   fill="#FFFFFF" >
</path>
</svg>
