<svg xmlns="http://www.w3.org/2000/svg" xmlns:xlink="http://www.w3.org/1999/xlink" width="20" height="20" viewBox="0 0 20 20" fill="none">
<path     fill="#FF3B30"  d="M0 10Q0 9.75451 0.0120454 9.50932Q0.0240909 9.26413 0.0481527 9.01983Q0.0722146 8.77552 0.108235 8.53269Q0.144255 8.28987 0.192147 8.0491Q0.240039 7.80833 0.299687 7.5702Q0.359336 7.33207 0.430597 7.09715Q0.501857 6.86224 0.584559 6.6311Q0.667261 6.39996 0.761205 6.17317Q0.855148 5.94637 0.960107 5.72445Q1.06507 5.50253 1.18079 5.28603Q1.29651 5.06953 1.42271 4.85897Q1.54892 4.64841 1.6853 4.4443Q1.82169 4.24018 1.96792 4.04301Q2.11416 3.84583 2.2699 3.65607Q2.42563 3.4663 2.59049 3.28441Q2.75535 3.10252 2.92893 2.92893Q3.10252 2.75535 3.28441 2.59049Q3.4663 2.42563 3.65607 2.2699Q3.84583 2.11416 4.04301 1.96792Q4.24018 1.82169 4.4443 1.6853Q4.64841 1.54892 4.85897 1.42271Q5.06953 1.29651 5.28603 1.18079Q5.50253 1.06507 5.72445 0.960107Q5.94637 0.855148 6.17316 0.761205Q6.39996 0.667261 6.6311 0.584559Q6.86224 0.501857 7.09715 0.430597Q7.33207 0.359336 7.5702 0.299687Q7.80833 0.240039 8.0491 0.192147Q8.28987 0.144255 8.53269 0.108235Q8.77552 0.0722146 9.01983 0.0481527Q9.26413 0.0240909 9.50932 0.0120454Q9.75451 0 10 0Q10.2455 0 10.4907 0.0120454Q10.7359 0.0240909 10.9802 0.0481527Q11.2245 0.0722146 11.4673 0.108235Q11.7101 0.144255 11.9509 0.192147Q12.1917 0.240039 12.4298 0.299687Q12.6679 0.359336 12.9028 0.430597Q13.1378 0.501857 13.3689 0.584559Q13.6 0.667261 13.8268 0.761205Q14.0536 0.855148 14.2755 0.960107Q14.4975 1.06507 14.714 1.18079Q14.9305 1.29651 15.141 1.42271Q15.3516 1.54892 15.5557 1.6853Q15.7598 1.82169 15.957 1.96792Q16.1542 2.11416 16.3439 2.2699Q16.5337 2.42563 16.7156 2.59049Q16.8975 2.75535 17.0711 2.92893Q17.2447 3.10252 17.4095 3.28441Q17.5744 3.4663 17.7301 3.65607Q17.8858 3.84583 18.0321 4.04301Q18.1783 4.24018 18.3147 4.4443Q18.4511 4.64841 18.5773 4.85897Q18.7035 5.06953 18.8192 5.28603Q18.9349 5.50253 19.0399 5.72445Q19.1449 5.94637 19.2388 6.17316Q19.3327 6.39996 19.4154 6.6311Q19.4981 6.86224 19.5694 7.09715Q19.6407 7.33207 19.7003 7.5702Q19.76 7.80833 19.8079 8.0491Q19.8557 8.28987 19.8918 8.53269Q19.9278 8.77552 19.9518 9.01983Q19.9759 9.26413 19.988 9.50932Q20 9.75451 20 10Q20 10.2455 19.988 10.4907Q19.9759 10.7359 19.9518 10.9802Q19.9278 11.2245 19.8918 11.4673Q19.8557 11.7101 19.8079 11.9509Q19.76 12.1917 19.7003 12.4298Q19.6407 12.6679 19.5694 12.9028Q19.4981 13.1378 19.4154 13.3689Q19.3327 13.6 19.2388 13.8268Q19.1449 14.0536 19.0399 14.2755Q18.9349 14.4975 18.8192 14.714Q18.7035 14.9305 18.5773 15.141Q18.4511 15.3516 18.3147 15.5557Q18.1783 15.7598 18.0321 15.957Q17.8858 16.1542 17.7301 16.3439Q17.5744 16.5337 17.4095 16.7156Q17.2447 16.8975 17.0711 17.0711Q16.8975 17.2447 16.7156 17.4095Q16.5337 17.5744 16.3439 17.7301Q16.1542 17.8858 15.957 18.0321Q15.7598 18.1783 15.5557 18.3147Q15.3516 18.4511 15.141 18.5773Q14.9305 18.7035 14.714 18.8192Q14.4975 18.9349 14.2755 19.0399Q14.0536 19.1449 13.8268 19.2388Q13.6 19.3327 13.3689 19.4154Q13.1378 19.4981 12.9028 19.5694Q12.6679 19.6407 12.4298 19.7003Q12.1917 19.76 11.9509 19.8079Q11.7101 19.8557 11.4673 19.8918Q11.2245 19.9278 10.9802 19.9518Q10.7359 19.9759 10.4907 19.988Q10.2455 20 10 20Q9.75451 20 9.50932 19.988Q9.26413 19.9759 9.01983 19.9518Q8.77552 19.9278 8.53269 19.8918Q8.28987 19.8557 8.0491 19.8079Q7.80833 19.76 7.5702 19.7003Q7.33207 19.6407 7.09715 19.5694Q6.86224 19.4981 6.6311 19.4154Q6.39996 19.3327 6.17317 19.2388Q5.94637 19.1449 5.72445 19.0399Q5.50253 18.9349 5.28603 18.8192Q5.06953 18.7035 4.85897 18.5773Q4.64841 18.4511 4.4443 18.3147Q4.24018 18.1783 4.04301 18.0321Q3.84583 17.8858 3.65607 17.7301Q3.4663 17.5744 3.28441 17.4095Q3.10252 17.2447 2.92893 17.0711Q2.75535 16.8975 2.59049 16.7156Q2.42563 16.5337 2.2699 16.3439Q2.11416 16.1542 1.96792 15.957Q1.82169 15.7598 1.6853 15.5557Q1.54892 15.3516 1.42271 15.141Q1.29651 14.9305 1.18079 14.714Q1.06507 14.4975 0.960107 14.2755Q0.855148 14.0536 0.761205 13.8268Q0.667261 13.6 0.584559 13.3689Q0.501857 13.1378 0.430597 12.9028Q0.359336 12.6679 0.299687 12.4298Q0.240039 12.1917 0.192147 11.9509Q0.144255 11.7101 0.108235 11.4673Q0.0722146 11.2245 0.0481527 10.9802Q0.0240909 10.7359 0.0120454 10.4907Q0 10.2455 0 10Z">
</path>
<path d="M14.2417 13.6544C14.2467 13.6719 14.2492 13.6869 14.2492 13.7044C14.2517 13.7194 14.2517 13.7369 14.2517 13.7519C14.2517 13.7694 14.2517 13.7844 14.2492 13.8019C14.2492 13.8169 14.2467 13.8344 14.2417 13.8494C14.2392 13.8669 14.2367 13.8819 14.2317 13.8969C14.2267 13.9144 14.2217 13.9294 14.2142 13.9444C14.2092 13.9594 14.2017 13.9744 14.1942 13.9894C14.1867 14.0019 14.1767 14.0169 14.1692 14.0294C14.1592 14.0444 14.1492 14.0569 14.1392 14.0694C14.1292 14.0819 14.1167 14.0944 14.1067 14.1069C14.0942 14.1169 14.0817 14.1294 14.0692 14.1394C14.0567 14.1494 14.0442 14.1594 14.0292 14.1694C14.0167 14.1769 14.0017 14.1869 13.9892 14.1944C13.9742 14.2019 13.9592 14.2094 13.9442 14.2144C13.9292 14.2219 13.9142 14.2269 13.8967 14.2319C13.8817 14.2369 13.8667 14.2394 13.8492 14.2419C13.8342 14.2469 13.8167 14.2494 13.8017 14.2494C13.7842 14.2519 13.7692 14.2519 13.7517 14.2519C13.7367 14.2519 13.7192 14.2519 13.7042 14.2494C13.6867 14.2494 13.6717 14.2469 13.6542 14.2419C13.6392 14.2394 13.6217 14.2369 13.6067 14.2319C13.5917 14.2269 13.5767 14.2219 13.5617 14.2144C13.5467 14.2094 13.5317 14.2019 13.5167 14.1944C13.5017 14.1869 13.4892 14.1769 13.4742 14.1694C13.4617 14.1594 13.4467 14.1494 13.4342 14.1394C13.4217 14.1294 13.4092 14.1169 13.3992 14.1069L14.1067 13.3994C14.1167 13.4094 14.1292 13.4219 14.1392 13.4344C14.1492 13.4469 14.1592 13.4619 14.1692 13.4744C14.1767 13.4894 14.1867 13.5019 14.1942 13.5169C14.2017 13.5319 14.2092 13.5469 14.2142 13.5619C14.2217 13.5769 14.2267 13.5919 14.2317 13.6069C14.2367 13.6219 14.2392 13.6394 14.2417 13.6544ZM5.83756 14.0312C5.82756 14.0162 5.82006 14.0037 5.81256 13.9887L5.79006 13.9437L5.77506 13.8987C5.77006 13.8812 5.76506 13.8662 5.76256 13.8512C5.76006 13.8337 5.75756 13.8187 5.75506 13.8012C5.75256 13.7862 5.75256 13.7687 5.75256 13.7537C5.75256 13.7362 5.75256 13.7187 5.75506 13.7037C5.75756 13.6862 5.76006 13.6712 5.76256 13.6562C5.76506 13.6387 5.77006 13.6237 5.77506 13.6062L5.79006 13.5612L5.81256 13.5162C5.82006 13.5012 5.82756 13.4887 5.83756 13.4737C5.84506 13.4612 5.85506 13.4487 5.86506 13.4362C5.87756 13.4237 5.88756 13.4112 5.90006 13.3987L9.29681 10.002L5.89921 6.60437C5.88671 6.59437 5.87671 6.58187 5.86421 6.56937C5.85421 6.55687 5.84421 6.54437 5.83671 6.52937C5.82671 6.51687 5.81921 6.50187 5.81171 6.48687C5.80421 6.47437 5.79671 6.45937 5.78921 6.44437C5.78421 6.42687 5.77921 6.41187 5.77421 6.39687C5.76921 6.38187 5.76421 6.36437 5.76171 6.34937C5.75921 6.33437 5.75671 6.31687 5.75421 6.30187C5.75171 6.28437 5.75171 6.26937 5.75171 6.25187C5.75171 6.23437 5.75171 6.21937 5.75421 6.20187C5.75671 6.18687 5.75921 6.16937 5.76171 6.15437C5.76421 6.13937 5.76921 6.12187 5.77421 6.10687C5.77921 6.09187 5.78421 6.07687 5.78921 6.05937C5.79671 6.04437 5.80421 6.02937 5.81171 6.01687C5.81921 6.00187 5.82671 5.98687 5.83671 5.97437C5.84421 5.95937 5.85421 5.94687 5.86421 5.93437C5.87671 5.92187 5.88671 5.90937 5.89921 5.89937C5.90921 5.88687 5.92171 5.87687 5.93421 5.86437C5.94671 5.85437 5.95921 5.84437 5.97421 5.83687C5.98671 5.82687 6.00171 5.81937 6.01671 5.81187C6.02921 5.80437 6.04421 5.79687 6.05921 5.78937C6.07671 5.78437 6.09171 5.77937 6.10671 5.77437C6.12171 5.76937 6.13921 5.76437 6.15421 5.76187C6.16921 5.75937 6.18671 5.75687 6.20171 5.75437C6.21921 5.75187 6.23421 5.75187 6.25171 5.75187C6.26921 5.75187 6.28421 5.75187 6.30171 5.75437C6.31671 5.75687 6.33421 5.75937 6.34921 5.76187C6.36421 5.76437 6.38171 5.76937 6.39671 5.77437C6.41171 5.77937 6.42671 5.78437 6.44421 5.78937C6.45921 5.79687 6.47421 5.80437 6.48671 5.81187C6.50171 5.81937 6.51671 5.82687 6.52921 5.83687C6.54421 5.84437 6.55671 5.85437 6.56921 5.86437C6.58171 5.87687 6.59421 5.88687 6.60421 5.89937L10.0018 9.29697L13.4001 5.89872L13.3976 5.89872C13.4101 5.88622 13.4226 5.87622 13.4351 5.86372C13.4476 5.85372 13.4601 5.84372 13.4751 5.83622C13.4876 5.82622 13.5026 5.81872 13.5176 5.81122C13.5301 5.80372 13.5451 5.79622 13.5601 5.78872C13.5751 5.78372 13.5926 5.77872 13.6076 5.77372C13.6226 5.76872 13.6376 5.76372 13.6551 5.76122C13.6701 5.75872 13.6876 5.75622 13.7026 5.75372C13.7201 5.75122 13.7351 5.75122 13.7526 5.75122C13.7676 5.75122 13.7851 5.75122 13.8001 5.75372C13.8176 5.75622 13.8326 5.75872 13.8501 5.76122C13.8651 5.76372 13.8826 5.76872 13.8976 5.77372L13.9426 5.78872L13.9876 5.81122C14.0026 5.81872 14.0176 5.82622 14.0301 5.83622C14.0426 5.84372 14.0576 5.85372 14.0701 5.86372C14.0826 5.87622 14.0951 5.88622 14.1051 5.89872C14.1176 5.90872 14.1276 5.92122 14.1376 5.93372C14.1501 5.94622 14.1601 5.95872 14.1676 5.97372C14.1776 5.98622 14.1851 6.00122 14.1926 6.01622C14.2001 6.02872 14.2076 6.04372 14.2151 6.05872C14.2201 6.07372 14.2251 6.09122 14.2301 6.10622C14.2351 6.12122 14.2401 6.13872 14.2426 6.15372C14.2451 6.16872 14.2476 6.18622 14.2501 6.20122C14.2526 6.21872 14.2526 6.23372 14.2526 6.25122C14.2526 6.26622 14.2526 6.28372 14.2501 6.30122C14.2476 6.31622 14.2451 6.33372 14.2426 6.34872C14.2401 6.36372 14.2351 6.38122 14.2301 6.39622L14.2151 6.44122C14.2076 6.45872 14.2001 6.47122 14.1926 6.48622C14.1851 6.50122 14.1776 6.51622 14.1676 6.52872C14.1601 6.54122 14.1501 6.55622 14.1401 6.56872C14.1276 6.58122 14.1176 6.59372 14.1051 6.60372L10.7074 10.0025L14.1042 13.3994L13.3992 14.1044L10.0025 10.7076L6.60506 14.1062C6.59506 14.1187 6.58256 14.1287 6.57006 14.1387C6.55756 14.1487 6.54256 14.1587 6.53006 14.1687C6.51506 14.1787 6.50256 14.1862 6.48756 14.1937C6.47256 14.2012 6.45756 14.2087 6.44256 14.2137C6.42756 14.2212 6.41256 14.2262 6.39756 14.2312C6.38256 14.2362 6.36506 14.2387 6.35006 14.2437C6.33256 14.2462 6.31756 14.2487 6.30006 14.2512C6.28506 14.2512 6.26756 14.2537 6.25256 14.2537C6.23506 14.2537 6.22006 14.2512 6.20256 14.2512C6.18756 14.2487 6.17006 14.2462 6.15506 14.2437C6.13756 14.2387 6.12256 14.2362 6.10756 14.2312C6.09256 14.2262 6.07506 14.2212 6.06006 14.2137C6.04506 14.2087 6.03006 14.2012 6.01756 14.1937C6.00256 14.1862 5.98756 14.1762 5.97506 14.1687C5.96006 14.1587 5.94756 14.1487 5.93506 14.1387C5.92256 14.1287 5.91006 14.1187 5.90006 14.1062C5.88756 14.0937 5.87756 14.0812 5.86506 14.0687C5.85506 14.0562 5.84506 14.0437 5.83756 14.0312Z" fill-rule="evenodd"  fill="#FFFFFF" >
</path>
</svg>
