<svg xmlns="http://www.w3.org/2000/svg" xmlns:xlink="http://www.w3.org/1999/xlink" width="14" height="14" viewBox="0 0 14 14" fill="none">
<path d="M8.75 1.16675C9.39435 1.16675 9.91667 1.68908 9.91667 2.33341L9.91667 9.33342C9.91667 9.97777 9.39435 10.5001 8.75 10.5001L2.91667 10.5001C2.27233 10.5001 1.75 9.97777 1.75 9.33342L1.75 2.33341C1.75 1.68908 2.27233 1.16675 2.91667 1.16675L8.75 1.16675ZM2.91667 2.33341L8.75 2.33341L8.75 9.33342L2.91667 9.33342L2.91667 2.33341Z" fill-rule="evenodd"  fill="#007AFF" >
</path>
<path d="M11.0833 10.5L11.0833 4.08333C11.0833 3.76117 11.3444 3.5 11.6666 3.5C11.9888 3.5 12.2499 3.76117 12.2499 4.08333L12.2499 10.5C12.2499 11.7886 11.2052 12.8333 9.91659 12.8333L4.66659 12.8333C4.34442 12.8333 4.08325 12.5722 4.08325 12.25C4.08325 11.9278 4.34442 11.6667 4.66659 11.6667L9.91659 11.6667C10.5609 11.6667 11.0833 11.1444 11.0833 10.5Z"   fill="#007AFF" >
</path>
</svg>
