<svg xmlns="http://www.w3.org/2000/svg" xmlns:xlink="http://www.w3.org/1999/xlink" width="24" height="24" viewBox="0 0 24 24" fill="none">
<path d="M6.9998 6L6.9998 3C6.9998 2.44772 7.44752 2 7.9998 2L19.9998 2C20.5521 2 20.9998 2.44772 20.9998 3L20.9998 17C20.9998 17.5523 20.5521 18 19.9998 18L16.9998 18L16.9998 20.9991C16.9998 21.5519 16.5499 22 15.993 22L4.00666 22C3.45059 22 3 21.5554 3 20.9991L3.0026 7.00087C3.0027 6.44811 3.45264 6 4.00942 6L6.9998 6ZM5.00242 8L5.00019 20L14.9998 20L14.9998 8L5.00242 8ZM8.9998 6L16.9998 6L16.9998 16L18.9998 16L18.9998 4L8.9998 4L8.9998 6Z"   fill="#000000" >
</path>
</svg>
