<svg xmlns="http://www.w3.org/2000/svg" xmlns:xlink="http://www.w3.org/1999/xlink" width="24" height="24" viewBox="0 0 24 24" fill="none">
<path d="M6.5 15.5C6.5 17.7092 8.29086 19.5 10.5 19.5L16.5 19.5C18.7092 19.5 20.5 17.7092 20.5 15.5L20.5 5.5C20.5 3.29086 18.7092 1.5 16.5 1.5L10.5 1.5C8.29086 1.5 6.5 3.29086 6.5 5.5L6.5 15.5ZM16.5 17.5L10.5 17.5C9.39545 17.5 8.5 16.6045 8.5 15.5L8.5 5.5C8.5 4.39543 9.39545 3.5 10.5 3.5L16.5 3.5C17.6045 3.5 18.5 4.39543 18.5 5.5L18.5 15.5C18.5 16.6045 17.6045 17.5 16.5 17.5ZM3.5 7.5L3.5 16.5C3.5 19.8137 6.18629 22.5 9.5 22.5L15.5 22.5C16.0523 22.5 16.5 22.0523 16.5 21.5C16.5 20.9477 16.0523 20.5 15.5 20.5L9.5 20.5C7.29086 20.5 5.5 18.7092 5.5 16.5L5.5 7.5C5.5 6.9477 5.05229 6.5 4.5 6.5C3.94772 6.5 3.5 6.9477 3.5 7.5Z" fill-rule="evenodd"  fill="#000000" >
</path>
</svg>
