<svg xmlns="http://www.w3.org/2000/svg" xmlns:xlink="http://www.w3.org/1999/xlink" width="20" height="20" viewBox="0 0 20 20" fill="none">
<path     fill="#FF3B30"  d="M0 10Q0 9.75451 0.0120454 9.50932Q0.0240909 9.26413 0.0481527 9.01983Q0.0722146 8.77552 0.108235 8.53269Q0.144255 8.28987 0.192147 8.0491Q0.240039 7.80833 0.299687 7.5702Q0.359336 7.33207 0.430597 7.09715Q0.501857 6.86224 0.584559 6.6311Q0.667261 6.39996 0.761205 6.17317Q0.855148 5.94637 0.960107 5.72445Q1.06507 5.50253 1.18079 5.28603Q1.29651 5.06953 1.42271 4.85897Q1.54892 4.64841 1.6853 4.4443Q1.82169 4.24018 1.96792 4.04301Q2.11416 3.84583 2.2699 3.65607Q2.42563 3.4663 2.59049 3.28441Q2.75535 3.10252 2.92893 2.92893Q3.10252 2.75535 3.28441 2.59049Q3.4663 2.42563 3.65607 2.2699Q3.84583 2.11416 4.04301 1.96792Q4.24018 1.82169 4.4443 1.6853Q4.64841 1.54892 4.85897 1.42271Q5.06953 1.29651 5.28603 1.18079Q5.50253 1.06507 5.72445 0.960107Q5.94637 0.855148 6.17316 0.761205Q6.39996 0.667261 6.6311 0.584559Q6.86224 0.501857 7.09715 0.430597Q7.33207 0.359336 7.5702 0.299687Q7.80833 0.240039 8.0491 0.192147Q8.28987 0.144255 8.53269 0.108235Q8.77552 0.0722146 9.01983 0.0481527Q9.26413 0.0240909 9.50932 0.0120454Q9.75451 0 10 0Q10.2455 0 10.4907 0.0120454Q10.7359 0.0240909 10.9802 0.0481527Q11.2245 0.0722146 11.4673 0.108235Q11.7101 0.144255 11.9509 0.192147Q12.1917 0.240039 12.4298 0.299687Q12.6679 0.359336 12.9028 0.430597Q13.1378 0.501857 13.3689 0.584559Q13.6 0.667261 13.8268 0.761205Q14.0536 0.855148 14.2755 0.960107Q14.4975 1.06507 14.714 1.18079Q14.9305 1.29651 15.141 1.42271Q15.3516 1.54892 15.5557 1.6853Q15.7598 1.82169 15.957 1.96792Q16.1542 2.11416 16.3439 2.2699Q16.5337 2.42563 16.7156 2.59049Q16.8975 2.75535 17.0711 2.92893Q17.2447 3.10252 17.4095 3.28441Q17.5744 3.4663 17.7301 3.65607Q17.8858 3.84583 18.0321 4.04301Q18.1783 4.24018 18.3147 4.4443Q18.4511 4.64841 18.5773 4.85897Q18.7035 5.06953 18.8192 5.28603Q18.9349 5.50253 19.0399 5.72445Q19.1449 5.94637 19.2388 6.17316Q19.3327 6.39996 19.4154 6.6311Q19.4981 6.86224 19.5694 7.09715Q19.6407 7.33207 19.7003 7.5702Q19.76 7.80833 19.8079 8.0491Q19.8557 8.28987 19.8918 8.53269Q19.9278 8.77552 19.9518 9.01983Q19.9759 9.26413 19.988 9.50932Q20 9.75451 20 10Q20 10.2455 19.988 10.4907Q19.9759 10.7359 19.9518 10.9802Q19.9278 11.2245 19.8918 11.4673Q19.8557 11.7101 19.8079 11.9509Q19.76 12.1917 19.7003 12.4298Q19.6407 12.6679 19.5694 12.9028Q19.4981 13.1378 19.4154 13.3689Q19.3327 13.6 19.2388 13.8268Q19.1449 14.0536 19.0399 14.2755Q18.9349 14.4975 18.8192 14.714Q18.7035 14.9305 18.5773 15.141Q18.4511 15.3516 18.3147 15.5557Q18.1783 15.7598 18.0321 15.957Q17.8858 16.1542 17.7301 16.3439Q17.5744 16.5337 17.4095 16.7156Q17.2447 16.8975 17.0711 17.0711Q16.8975 17.2447 16.7156 17.4095Q16.5337 17.5744 16.3439 17.7301Q16.1542 17.8858 15.957 18.0321Q15.7598 18.1783 15.5557 18.3147Q15.3516 18.4511 15.141 18.5773Q14.9305 18.7035 14.714 18.8192Q14.4975 18.9349 14.2755 19.0399Q14.0536 19.1449 13.8268 19.2388Q13.6 19.3327 13.3689 19.4154Q13.1378 19.4981 12.9028 19.5694Q12.6679 19.6407 12.4298 19.7003Q12.1917 19.76 11.9509 19.8079Q11.7101 19.8557 11.4673 19.8918Q11.2245 19.9278 10.9802 19.9518Q10.7359 19.9759 10.4907 19.988Q10.2455 20 10 20Q9.75451 20 9.50932 19.988Q9.26413 19.9759 9.01983 19.9518Q8.77552 19.9278 8.53269 19.8918Q8.28987 19.8557 8.0491 19.8079Q7.80833 19.76 7.5702 19.7003Q7.33207 19.6407 7.09715 19.5694Q6.86224 19.4981 6.6311 19.4154Q6.39996 19.3327 6.17317 19.2388Q5.94637 19.1449 5.72445 19.0399Q5.50253 18.9349 5.28603 18.8192Q5.06953 18.7035 4.85897 18.5773Q4.64841 18.4511 4.4443 18.3147Q4.24018 18.1783 4.04301 18.0321Q3.84583 17.8858 3.65607 17.7301Q3.4663 17.5744 3.28441 17.4095Q3.10252 17.2447 2.92893 17.0711Q2.75535 16.8975 2.59049 16.7156Q2.42563 16.5337 2.2699 16.3439Q2.11416 16.1542 1.96792 15.957Q1.82169 15.7598 1.6853 15.5557Q1.54892 15.3516 1.42271 15.141Q1.29651 14.9305 1.18079 14.714Q1.06507 14.4975 0.960107 14.2755Q0.855148 14.0536 0.761205 13.8268Q0.667261 13.6 0.584559 13.3689Q0.501857 13.1378 0.430597 12.9028Q0.359336 12.6679 0.299687 12.4298Q0.240039 12.1917 0.192147 11.9509Q0.144255 11.7101 0.108235 11.4673Q0.0722146 11.2245 0.0481527 10.9802Q0.0240909 10.7359 0.0120454 10.4907Q0 10.2455 0 10Z">
</path>
<path d="M14.2317 13.6069C14.2267 13.5919 14.2217 13.5769 14.2142 13.5619C14.2092 13.5469 14.2017 13.5319 14.1942 13.5169C14.1867 13.5019 14.1767 13.4894 14.1692 13.4744C14.1592 13.4619 14.1492 13.4469 14.1392 13.4344C14.1292 13.4219 14.1167 13.4094 14.1067 13.3994L13.3992 14.1069C13.4092 14.1169 13.4217 14.1294 13.4342 14.1394C13.4467 14.1494 13.4617 14.1594 13.4742 14.1694C13.4892 14.1769 13.5017 14.1869 13.5167 14.1944C13.5317 14.2019 13.5467 14.2094 13.5617 14.2144C13.5767 14.2219 13.5917 14.2269 13.6067 14.2319C13.6217 14.2369 13.6392 14.2394 13.6542 14.2419C13.6717 14.2469 13.6867 14.2494 13.7042 14.2494C13.7192 14.2519 13.7367 14.2519 13.7517 14.2519C13.7692 14.2519 13.7842 14.2519 13.8017 14.2494C13.8167 14.2494 13.8342 14.2469 13.8492 14.2419C13.8667 14.2394 13.8817 14.2369 13.8967 14.2319C13.9142 14.2269 13.9292 14.2219 13.9442 14.2144C13.9592 14.2094 13.9742 14.2019 13.9892 14.1944C14.0017 14.1869 14.0167 14.1769 14.0292 14.1694C14.0442 14.1594 14.0567 14.1494 14.0692 14.1394C14.0817 14.1294 14.0942 14.1169 14.1067 14.1069C14.1167 14.0944 14.1292 14.0819 14.1392 14.0694C14.1492 14.0569 14.1592 14.0444 14.1692 14.0294C14.1767 14.0169 14.1867 14.0019 14.1942 13.9894C14.2017 13.9744 14.2092 13.9594 14.2142 13.9444C14.2217 13.9294 14.2267 13.9144 14.2317 13.8969C14.2367 13.8819 14.2392 13.8669 14.2417 13.8494C14.2467 13.8344 14.2492 13.8169 14.2492 13.8019C14.2517 13.7844 14.2517 13.7694 14.2517 13.7519C14.2517 13.7369 14.2517 13.7194 14.2492 13.7044C14.2492 13.6869 14.2467 13.6719 14.2417 13.6544C14.2392 13.6394 14.2367 13.6219 14.2317 13.6069ZM5.86506 14.0687C5.87756 14.0812 5.88756 14.0937 5.90006 14.1062C5.91006 14.1187 5.92256 14.1287 5.93506 14.1387C5.94756 14.1487 5.96006 14.1587 5.97506 14.1687C5.98756 14.1762 6.00256 14.1862 6.01756 14.1937C6.03006 14.2012 6.04506 14.2087 6.06006 14.2137C6.07506 14.2212 6.09256 14.2262 6.10756 14.2312C6.12256 14.2362 6.13756 14.2387 6.15506 14.2437C6.17006 14.2462 6.18756 14.2487 6.20256 14.2512C6.22006 14.2512 6.23506 14.2537 6.25256 14.2537C6.26756 14.2537 6.28506 14.2512 6.30006 14.2512C6.31756 14.2487 6.33256 14.2462 6.35006 14.2437C6.36506 14.2387 6.38256 14.2362 6.39756 14.2312C6.41256 14.2262 6.42756 14.2212 6.44256 14.2137C6.45756 14.2087 6.47256 14.2012 6.48756 14.1937C6.50256 14.1862 6.51506 14.1787 6.53006 14.1687C6.54256 14.1587 6.55756 14.1487 6.57006 14.1387C6.58256 14.1287 6.59506 14.1187 6.60506 14.1062L10.0025 10.7076L13.3992 14.1044L14.1042 13.3994L10.7074 10.0025L14.1051 6.60372C14.1176 6.59372 14.1276 6.58122 14.1401 6.56872C14.1501 6.55622 14.1601 6.54122 14.1676 6.52872C14.1776 6.51622 14.1851 6.50122 14.1926 6.48622C14.2001 6.47122 14.2076 6.45872 14.2151 6.44122L14.2301 6.39622C14.2351 6.38122 14.2401 6.36372 14.2426 6.34872C14.2451 6.33372 14.2476 6.31622 14.2501 6.30122C14.2526 6.28372 14.2526 6.26622 14.2526 6.25122C14.2526 6.23372 14.2526 6.21872 14.2501 6.20122C14.2476 6.18622 14.2451 6.16872 14.2426 6.15372C14.2401 6.13872 14.2351 6.12122 14.2301 6.10622C14.2251 6.09122 14.2201 6.07372 14.2151 6.05872C14.2076 6.04372 14.2001 6.02872 14.1926 6.01622C14.1851 6.00122 14.1776 5.98622 14.1676 5.97372C14.1601 5.95872 14.1501 5.94622 14.1376 5.93372C14.1276 5.92122 14.1176 5.90872 14.1051 5.89872C14.0951 5.88622 14.0826 5.87622 14.0701 5.86372C14.0576 5.85372 14.0426 5.84372 14.0301 5.83622C14.0176 5.82622 14.0026 5.81872 13.9876 5.81122L13.9426 5.78872L13.8976 5.77372C13.8826 5.76872 13.8651 5.76372 13.8501 5.76122C13.8326 5.75872 13.8176 5.75622 13.8001 5.75372C13.7851 5.75122 13.7676 5.75122 13.7526 5.75122C13.7351 5.75122 13.7201 5.75122 13.7026 5.75372C13.6876 5.75622 13.6701 5.75872 13.6551 5.76122C13.6376 5.76372 13.6226 5.76872 13.6076 5.77372C13.5926 5.77872 13.5751 5.78372 13.5601 5.78872C13.5451 5.79622 13.5301 5.80372 13.5176 5.81122C13.5026 5.81872 13.4876 5.82622 13.4751 5.83622C13.4601 5.84372 13.4476 5.85372 13.4351 5.86372C13.4226 5.87622 13.4101 5.88622 13.3976 5.89872L13.4001 5.89872L10.0018 9.29697L6.60421 5.89937C6.59421 5.88687 6.58171 5.87687 6.56921 5.86437C6.55671 5.85437 6.54421 5.84437 6.52921 5.83687C6.51671 5.82687 6.50171 5.81937 6.48671 5.81187C6.47421 5.80437 6.45921 5.79687 6.44421 5.78937C6.42671 5.78437 6.41171 5.77937 6.39671 5.77437C6.38171 5.76937 6.36421 5.76437 6.34921 5.76187C6.33421 5.75937 6.31671 5.75687 6.30171 5.75437C6.28421 5.75187 6.26921 5.75187 6.25171 5.75187C6.23421 5.75187 6.21921 5.75187 6.20171 5.75437C6.18671 5.75687 6.16921 5.75937 6.15421 5.76187C6.13921 5.76437 6.12171 5.76937 6.10671 5.77437C6.09171 5.77937 6.07671 5.78437 6.05921 5.78937C6.04421 5.79687 6.02921 5.80437 6.01671 5.81187C6.00171 5.81937 5.98671 5.82687 5.97421 5.83687C5.95921 5.84437 5.94671 5.85437 5.93421 5.86437C5.92171 5.87687 5.90921 5.88687 5.89921 5.89937C5.88671 5.90937 5.87671 5.92187 5.86421 5.93437C5.85421 5.94687 5.84421 5.95937 5.83671 5.97437C5.82671 5.98687 5.81921 6.00187 5.81171 6.01687C5.80421 6.02937 5.79671 6.04437 5.78921 6.05937C5.78421 6.07687 5.77921 6.09187 5.77421 6.10687C5.76921 6.12187 5.76421 6.13937 5.76171 6.15437C5.75921 6.16937 5.75671 6.18687 5.75421 6.20187C5.75171 6.21937 5.75171 6.23437 5.75171 6.25187C5.75171 6.26937 5.75171 6.28437 5.75421 6.30187C5.75671 6.31687 5.75921 6.33437 5.76171 6.34937C5.76421 6.36437 5.76921 6.38187 5.77421 6.39687C5.77921 6.41187 5.78421 6.42687 5.78921 6.44437C5.79671 6.45937 5.80421 6.47437 5.81171 6.48687C5.81921 6.50187 5.82671 6.51687 5.83671 6.52937C5.84421 6.54437 5.85421 6.55687 5.86421 6.56937C5.87671 6.58187 5.88671 6.59437 5.89921 6.60437L9.29681 10.002L5.90006 13.3987C5.88756 13.4112 5.87756 13.4237 5.86506 13.4362C5.85506 13.4487 5.84506 13.4612 5.83756 13.4737C5.82756 13.4887 5.82006 13.5012 5.81256 13.5162L5.79006 13.5612L5.77506 13.6062C5.77006 13.6237 5.76506 13.6387 5.76256 13.6562C5.76006 13.6712 5.75756 13.6862 5.75506 13.7037C5.75256 13.7187 5.75256 13.7362 5.75256 13.7537C5.75256 13.7687 5.75256 13.7862 5.75506 13.8012C5.75756 13.8187 5.76006 13.8337 5.76256 13.8512C5.76506 13.8662 5.77006 13.8812 5.77506 13.8987L5.79006 13.9437L5.81256 13.9887C5.82006 14.0037 5.82756 14.0162 5.83756 14.0312C5.84506 14.0437 5.85506 14.0562 5.86506 14.0687Z"   fill="#FFFFFF" >
</path>
<path d="M5.63075 14.2563C5.61183 14.2327 5.59662 14.2118 5.58514 14.1937C5.5694 14.1697 5.55574 14.1462 5.54418 14.1231L5.52168 14.0781L5.51215 14.059L5.5054 14.0388L5.4904 13.9938L5.4904 13.9938L5.48834 13.9876L5.48655 13.9813C5.48604 13.9795 5.48515 13.9765 5.4839 13.9723C5.47566 13.9444 5.46989 13.9205 5.46659 13.9007L5.46602 13.8973L5.46584 13.896L5.46552 13.8938L5.46171 13.8685L5.45851 13.8471L5.45831 13.8458C5.45444 13.8204 5.45251 13.7898 5.45251 13.7539C5.45251 13.7163 5.45446 13.6847 5.45836 13.6592C5.46027 13.646 5.46289 13.6294 5.46622 13.6093C5.46975 13.5866 5.4758 13.5607 5.48439 13.5314C5.48541 13.5279 5.48613 13.5255 5.48655 13.524L5.48834 13.5177L5.4904 13.5115L5.5054 13.4665L5.51215 13.4463L5.52168 13.4273L5.54418 13.3823C5.55574 13.3591 5.56939 13.3356 5.58513 13.3117C5.59661 13.2936 5.61182 13.2727 5.63074 13.249L5.63075 13.249L5.63075 13.249L5.64113 13.236L5.65288 13.2243C5.65332 13.2238 5.65554 13.2214 5.65952 13.217C5.67054 13.2047 5.67999 13.1947 5.68787 13.1868L5.68788 13.1868L8.8725 10.0022L5.69419 6.82387C5.68235 6.81319 5.66988 6.80082 5.65679 6.78678C5.65396 6.78374 5.65237 6.78204 5.65203 6.7817L5.64028 6.76995L5.6299 6.75698C5.61137 6.73381 5.59577 6.71168 5.58313 6.69058C5.57126 6.67292 5.55948 6.65272 5.54777 6.62998C5.54011 6.61641 5.53113 6.59932 5.52083 6.57873L5.50836 6.55379L5.5007 6.52698C5.49856 6.51949 5.49485 6.50781 5.48956 6.49193C5.47848 6.45871 5.47054 6.4277 5.46574 6.39889L5.46534 6.39644L5.46183 6.37423L5.45802 6.35009L5.45767 6.34795L5.45718 6.34449L5.45718 6.34449C5.4535 6.31875 5.45166 6.28795 5.45166 6.25207C5.45166 6.21619 5.4535 6.18538 5.45718 6.15964L5.45767 6.15619L5.45804 6.15397L5.46136 6.13299L5.46532 6.10785L5.46574 6.10525C5.47054 6.07643 5.47848 6.04542 5.48956 6.0122C5.49485 5.99632 5.49856 5.98464 5.5007 5.97715L5.50836 5.95034L5.52083 5.9254C5.53113 5.90481 5.54011 5.88772 5.54777 5.87415C5.55948 5.85142 5.57126 5.83121 5.58313 5.81355C5.59577 5.79245 5.61137 5.77032 5.6299 5.74716L5.64028 5.73418L5.65203 5.72243C5.65237 5.72209 5.65396 5.7204 5.65679 5.71736C5.66716 5.70623 5.67714 5.69616 5.68673 5.68714C5.69575 5.67755 5.70582 5.66757 5.71696 5.6572C5.71999 5.65437 5.72168 5.65278 5.72203 5.65243L5.73378 5.64069L5.74675 5.63031C5.76992 5.61177 5.79205 5.59618 5.81314 5.58353C5.83081 5.57167 5.85101 5.55989 5.87374 5.54818C5.88732 5.54051 5.9044 5.53153 5.925 5.52124L5.94993 5.50877L5.97674 5.50111C5.98423 5.49897 5.99591 5.49525 6.01179 5.48996L6.01179 5.48996L6.01179 5.48996C6.04501 5.47889 6.07603 5.47095 6.10484 5.46615L6.10729 5.46575L6.1295 5.46224L6.15364 5.45843L6.15578 5.45808L6.15923 5.45758L6.15923 5.45758C6.18497 5.4539 6.21578 5.45207 6.25166 5.45207C6.28754 5.45207 6.31835 5.4539 6.34409 5.45758L6.34409 5.45758L6.34754 5.45808L6.34975 5.45844L6.37074 5.46176L6.39588 5.46573L6.39848 5.46615C6.42729 5.47095 6.45831 5.47889 6.49153 5.48996L6.49153 5.48996C6.50741 5.49525 6.51909 5.49897 6.52658 5.50111L6.55339 5.50877L6.57832 5.52124C6.59892 5.53153 6.616 5.54051 6.62958 5.54818C6.65231 5.55989 6.67251 5.57167 6.69018 5.58353C6.71127 5.59618 6.7334 5.61177 6.75657 5.6303L6.76954 5.64069L6.78129 5.65243C6.78164 5.65278 6.78333 5.65437 6.78637 5.6572C6.80042 5.67029 6.81278 5.68275 6.82346 5.6946L10.0018 8.87291L12.6758 6.19892L12.6733 6.19892L13.1854 5.68678C13.1933 5.6789 13.2033 5.66945 13.2156 5.65843C13.22 5.65445 13.2224 5.65223 13.2229 5.65179L13.2346 5.64004L13.2476 5.62965L13.2476 5.62965L13.2476 5.62965C13.2708 5.61112 13.2929 5.59553 13.314 5.58288C13.3317 5.57102 13.3519 5.55924 13.3746 5.54753C13.3882 5.53986 13.4053 5.53088 13.4258 5.52059L13.4449 5.51105L13.4651 5.50431C13.4723 5.50191 13.4825 5.4987 13.4955 5.49468C13.5041 5.49203 13.5098 5.49024 13.5126 5.48931C13.5485 5.47736 13.5808 5.46922 13.6096 5.46488L13.6304 5.46159L13.6545 5.45778L13.6566 5.45742L13.6601 5.45693L13.6601 5.45693C13.6858 5.45325 13.7166 5.45142 13.7525 5.45142C13.7885 5.45142 13.8192 5.45336 13.8446 5.45724L13.8459 5.45744L13.8721 5.46139L13.8924 5.46443L13.8944 5.46472L13.8959 5.46492L13.8993 5.4655C13.9281 5.4703 13.9592 5.47824 13.9924 5.48931L14.0374 5.50431L14.0576 5.51105L14.0767 5.52059L14.1217 5.54309C14.1504 5.55747 14.1754 5.57197 14.1965 5.58659C14.2183 5.60029 14.2387 5.61465 14.2574 5.62966L14.2704 5.64004L14.2821 5.65178C14.2825 5.65213 14.2842 5.65372 14.2872 5.65655C14.2986 5.66719 14.3089 5.67742 14.3181 5.68724C14.3326 5.70104 14.3473 5.7169 14.3622 5.73481C14.3856 5.75993 14.4056 5.78646 14.422 5.81438C14.4336 5.83169 14.445 5.8514 14.4564 5.8735C14.4641 5.88708 14.473 5.90416 14.4833 5.92475L14.4833 5.92476L14.4929 5.94382L14.4996 5.96405C14.502 5.97129 14.5052 5.98142 14.5092 5.99444C14.5119 6.00308 14.5137 6.00878 14.5146 6.01155C14.5257 6.04476 14.5336 6.07578 14.5384 6.10459L14.5384 6.1046L14.5388 6.10704L14.5423 6.12925L14.5459 6.15209L14.5464 6.1547L14.5465 6.15554L14.547 6.15899C14.5507 6.18473 14.5525 6.21554 14.5525 6.25142C14.5525 6.28729 14.5507 6.3181 14.547 6.34383L14.5465 6.34729L14.5463 6.3483L14.5459 6.3507L14.5459 6.35075L14.5428 6.3705L14.5388 6.39564L14.5384 6.39823C14.5336 6.42704 14.5257 6.45806 14.5146 6.49129L14.4996 6.53629L14.4957 6.54812L14.4908 6.55959C14.4842 6.57492 14.4756 6.5925 14.4651 6.61235C14.4629 6.61658 14.4615 6.61932 14.4608 6.62058L14.4608 6.62059C14.4465 6.64935 14.432 6.67427 14.4173 6.69536C14.4036 6.71724 14.3893 6.73757 14.3743 6.75633L14.3639 6.7693L14.3521 6.78105C14.3518 6.78139 14.3502 6.78308 14.3474 6.78612C14.3343 6.80016 14.3218 6.81252 14.31 6.8232L11.1316 10.0027L14.1054 12.9766L14.1067 12.9753L14.3188 13.1874C14.3348 13.2034 14.3485 13.218 14.36 13.2311L14.5284 13.3996L14.4885 13.4395C14.4894 13.4419 14.4903 13.4442 14.4912 13.4465C14.4996 13.4654 14.508 13.4873 14.5163 13.5122C14.5236 13.5342 14.53 13.5607 14.5354 13.592C14.5427 13.6222 14.5472 13.6524 14.5486 13.6824C14.5506 13.7029 14.5517 13.7261 14.5517 13.7521C14.5517 13.7783 14.5507 13.8019 14.5487 13.8227C14.5473 13.8539 14.5428 13.8845 14.5351 13.9144C14.5307 13.9402 14.5252 13.9635 14.5187 13.9843C14.5105 14.0122 14.5013 14.0377 14.491 14.0608C14.4837 14.0794 14.4742 14.1004 14.4625 14.1237L14.4573 14.134L14.4514 14.1439C14.4475 14.1504 14.442 14.1593 14.4348 14.1706C14.4303 14.1776 14.4275 14.182 14.4264 14.1839L14.4227 14.19L14.4188 14.196C14.4073 14.2132 14.3922 14.2335 14.3734 14.257C14.3665 14.2657 14.3573 14.2764 14.3459 14.289C14.3431 14.2921 14.3412 14.2942 14.3403 14.2952L14.3201 14.3205L14.2948 14.3407C14.2938 14.3416 14.2917 14.3435 14.2886 14.3463C14.2759 14.3577 14.2653 14.3669 14.2566 14.3738L14.2565 14.3738C14.2331 14.3926 14.2128 14.4077 14.1956 14.4192L14.1896 14.4231L14.1835 14.4268C14.1816 14.428 14.1772 14.4307 14.1702 14.4352C14.1588 14.4424 14.1499 14.448 14.1435 14.4518L14.1336 14.4577L14.1233 14.4629L14.1233 14.4629C14.1 14.4746 14.079 14.4841 14.0604 14.4914C14.0373 14.5017 14.0118 14.5109 13.9839 14.5191C13.9631 14.5256 13.9398 14.5311 13.914 14.5355C13.8841 14.5432 13.8535 14.5477 13.8223 14.5491C13.8014 14.5511 13.7779 14.5521 13.7517 14.5521C13.7257 14.5521 13.7025 14.5511 13.682 14.549C13.652 14.5476 13.6218 14.5431 13.5915 14.5358C13.5604 14.5304 13.5338 14.524 13.5118 14.5167L13.5118 14.5167C13.4869 14.5084 13.465 14.5 13.4461 14.4916C13.4438 14.4907 13.4415 14.4898 13.4391 14.4889L13.3992 14.5288L13.2307 14.3604C13.2176 14.3489 13.203 14.3352 13.1871 14.3192L12.9749 14.1071L12.9762 14.1058L10.0025 11.1321L6.82407 14.3116C6.80585 14.3317 6.78363 14.3522 6.75742 14.3732C6.74966 14.3794 6.73934 14.3872 6.72646 14.3965C6.72101 14.4005 6.718 14.4027 6.71742 14.4032L6.70725 14.4113L6.69642 14.4185C6.67106 14.4354 6.64615 14.45 6.62168 14.4622L6.62167 14.4622C6.59809 14.474 6.5769 14.4836 6.55812 14.491C6.53918 14.4994 6.51727 14.5077 6.49238 14.516C6.47836 14.5207 6.46131 14.5253 6.44121 14.53L6.43884 14.5305L6.41921 14.5371L6.39461 14.5406L6.39244 14.5409L6.3671 14.5447L6.34439 14.5481L6.34241 14.5483L6.34243 14.5484L6.32133 14.5514L6.30414 14.5514L6.29926 14.5518C6.28077 14.5532 6.26519 14.5539 6.25251 14.5539C6.23899 14.5539 6.22299 14.5532 6.2045 14.5518C6.20232 14.5516 6.20068 14.5515 6.1996 14.5514L6.17768 14.5514L6.15563 14.5477L6.15319 14.5473L6.15318 14.5473L6.13342 14.5442L6.10829 14.5403L6.10571 14.5397L6.10569 14.5398L6.08893 14.537L6.07259 14.5324C6.07177 14.5321 6.06886 14.5314 6.06386 14.5302C6.04369 14.5254 6.02662 14.5207 6.01264 14.516C6.01165 14.5157 6.00953 14.515 6.00627 14.5139C5.98422 14.5068 5.96464 14.4996 5.94753 14.4923C5.922 14.4826 5.8968 14.4706 5.87192 14.4563C5.85896 14.4494 5.84419 14.4407 5.8276 14.4304C5.82396 14.4282 5.82165 14.4268 5.82066 14.4262L5.82066 14.4262L5.81454 14.4225L5.80862 14.4185L5.8086 14.4185L5.8086 14.4185C5.79137 14.407 5.77104 14.3919 5.7476 14.3732C5.72037 14.3514 5.69745 14.3301 5.67885 14.3093C5.67305 14.3032 5.66661 14.2962 5.65952 14.2884C5.65555 14.2839 5.65334 14.2815 5.65288 14.281L5.65287 14.281L5.64113 14.2693L5.63075 14.2563L5.63075 14.2563ZM6.13871 13.9174C6.14037 13.9184 6.14216 13.9195 6.14408 13.9207C6.14893 13.9237 6.15215 13.9257 6.15375 13.9266L6.16198 13.9307L6.16549 13.9328L6.1751 13.9361L6.18583 13.9414C6.18714 13.9418 6.18872 13.9424 6.19058 13.943C6.19347 13.9439 6.196 13.9447 6.19818 13.9454C6.19935 13.9457 6.20101 13.9461 6.20317 13.9466C6.20794 13.9478 6.21244 13.9489 6.21667 13.9499L6.22718 13.9516L6.23167 13.9523C6.23762 13.9526 6.2439 13.953 6.25051 13.9535L6.25131 13.9537L6.25325 13.9535C6.25978 13.953 6.26594 13.9526 6.27172 13.9523L6.27789 13.9514L6.28727 13.95C6.29327 13.9484 6.29961 13.9469 6.3063 13.9453L6.30857 13.9448C6.31026 13.9443 6.31164 13.9438 6.3127 13.9434L6.32741 13.9361L6.34202 13.9312C6.3444 13.93 6.34817 13.9282 6.35333 13.9256L6.35335 13.9256C6.35432 13.9251 6.35553 13.9244 6.35697 13.9235C6.36193 13.9198 6.36746 13.9157 6.37356 13.9113C6.37822 13.9079 6.3811 13.9058 6.3822 13.905L6.39284 13.8943L9.79027 10.4957L10.0024 10.2835L10.2146 10.4957L13.3992 13.6803L13.6799 13.3996L10.4952 10.2149L10.2831 10.0028L10.4952 9.79065L13.8928 6.39182L13.9046 6.38005L13.9087 6.37677L13.9093 6.3761L13.9103 6.37457L13.9206 6.35726L13.9234 6.35383L13.9242 6.35226L13.9242 6.35224C13.9269 6.34684 13.9305 6.33996 13.9349 6.33161C13.9354 6.33065 13.9358 6.32978 13.9363 6.32899L13.9454 6.30155C13.9461 6.29946 13.9467 6.2976 13.9472 6.29597L13.9502 6.27675L13.9524 6.2624L13.9525 6.25142L13.9525 6.24052L13.9497 6.223L13.9472 6.20689C13.9467 6.20526 13.9461 6.20339 13.9454 6.20129C13.9431 6.19442 13.9401 6.18489 13.9363 6.17271C13.9359 6.1718 13.9355 6.17115 13.9353 6.17077L13.9353 6.17076L13.9293 6.16088L13.9242 6.15059L13.9242 6.15058L13.9234 6.149L13.9134 6.13651L13.9101 6.12984L13.9041 6.12235L13.8916 6.11235L13.8779 6.09521L13.8772 6.09459L13.8757 6.09366L13.8584 6.08328L13.8549 6.08053L13.8533 6.07974L13.8274 6.06678L13.8026 6.05852C13.8007 6.05788 13.799 6.05734 13.7975 6.0569L13.7829 6.05472L13.7611 6.05144L13.7525 6.05142L13.7416 6.05146L13.7241 6.05422L13.7074 6.05687C13.706 6.0573 13.7044 6.05786 13.7024 6.05852C13.6955 6.06081 13.686 6.06383 13.6738 6.06759C13.6729 6.06808 13.6722 6.06844 13.6719 6.06867L13.662 6.07459L13.6517 6.07974L13.6501 6.08053L13.6376 6.09053L13.6277 6.09547L13.6121 6.11105L10.2139 9.5093L10.0018 9.72143L6.39203 6.1117L6.38028 6.09995L6.37773 6.09676L6.36657 6.09118L6.35407 6.08118L6.3525 6.0804L6.34219 6.07524L6.33231 6.06931L6.33149 6.06885C6.32241 6.06597 6.31251 6.06274 6.30179 6.05917L6.30179 6.05917C6.2997 6.05847 6.29784 6.05789 6.29621 6.05742L6.277 6.0544L6.26253 6.05211L6.25166 6.05207L6.24077 6.05211L6.22324 6.05487L6.20713 6.05742C6.2055 6.05788 6.20363 6.05847 6.20153 6.05917L6.20153 6.05917C6.19081 6.06274 6.18091 6.06597 6.17183 6.06885L6.17101 6.06931L6.16113 6.07524L6.15082 6.08039L6.14925 6.08118L6.13675 6.09118L6.12559 6.09676L6.1126 6.113L6.09635 6.126L6.09078 6.13716L6.08078 6.14966L6.07999 6.15123L6.07999 6.15123L6.07484 6.16154L6.06891 6.17141L6.06891 6.17141L6.06844 6.17224C6.06556 6.18132 6.06234 6.19122 6.05877 6.20193C6.05807 6.20403 6.05748 6.20589 6.05702 6.20751L6.05399 6.22673L6.0517 6.2412L6.05166 6.25207L6.0517 6.26296L6.05446 6.28049L6.05701 6.2966C6.05748 6.29822 6.05806 6.30009 6.05877 6.3022C6.06234 6.31291 6.06556 6.32281 6.06844 6.3319L6.06891 6.33272L6.07484 6.3426L6.07999 6.3529L6.08078 6.35448L6.09078 6.36697L6.09635 6.37813L6.09954 6.38068L6.11129 6.39243L9.50889 9.79004L9.72102 10.0022L9.50889 10.2143L6.11214 13.611C6.1117 13.6115 6.10948 13.6139 6.1055 13.6184C6.10054 13.6239 6.09591 13.6289 6.09159 13.6335L6.09108 13.6344L6.08712 13.6403C6.08403 13.645 6.08193 13.6484 6.08084 13.6506L6.06787 13.6765L6.06151 13.6956C6.06108 13.6971 6.06062 13.6987 6.06011 13.7004C6.05932 13.7031 6.05871 13.7052 6.05827 13.7067C6.05577 13.7217 6.05387 13.7336 6.05255 13.7425L6.05251 13.7539L6.05254 13.7626L6.05504 13.7793L6.05763 13.7965C6.05808 13.7981 6.05865 13.8 6.05933 13.8023C6.06013 13.805 6.06085 13.8075 6.0615 13.8097L6.06787 13.8288L6.08084 13.8548C6.08194 13.8569 6.08403 13.8604 6.08713 13.865L6.09108 13.8709L6.09159 13.8718C6.09591 13.8764 6.10054 13.8815 6.10549 13.887C6.10948 13.8914 6.1117 13.8938 6.11214 13.8943L6.12289 13.905C6.1301 13.9108 6.13537 13.9149 6.13871 13.9174Z" fill-rule="evenodd"  fill="#FFFFFF" >
</path>
</svg>
