<svg xmlns="http://www.w3.org/2000/svg" xmlns:xlink="http://www.w3.org/1999/xlink" width="40" height="40" viewBox="0 0 40 40" fill="none">
<path d="M11.6667 35.8333C7.52453 35.8333 4.16667 32.4755 4.16667 28.3333C4.16667 24.1912 7.52453 20.8333 11.6667 20.8333C15.8088 20.8333 19.1667 24.1912 19.1667 28.3333C19.1667 32.4755 15.8088 35.8333 11.6667 35.8333ZM28.3333 19.1667C24.1912 19.1667 20.8333 15.8088 20.8333 11.6667C20.8333 7.52452 24.1912 4.16666 28.3333 4.16666C32.4755 4.16666 35.8333 7.52452 35.8333 11.6667C35.8333 15.8088 32.4755 19.1667 28.3333 19.1667ZM11.6667 32.5C13.9678 32.5 15.8333 30.6345 15.8333 28.3333C15.8333 26.0322 13.9678 24.1667 11.6667 24.1667C9.36548 24.1667 7.5 26.0322 7.5 28.3333C7.5 30.6345 9.36548 32.5 11.6667 32.5ZM28.3333 15.8333C30.6345 15.8333 32.5 13.9678 32.5 11.6667C32.5 9.36547 30.6345 7.49999 28.3333 7.49999C26.0322 7.49999 24.1667 9.36547 24.1667 11.6667C24.1667 13.9678 26.0322 15.8333 28.3333 15.8333ZM5 13.3333C5 8.73096 8.73097 4.99999 13.3333 4.99999L18.3333 4.99999L18.3333 8.33332L13.3333 8.33332C10.5719 8.33332 8.33333 10.5719 8.33333 13.3333L8.33333 18.3333L5 18.3333L5 13.3333ZM35 21.6667L31.6667 21.6667L31.6667 26.6667C31.6667 29.4282 29.4282 31.6667 26.6667 31.6667L21.6667 31.6667L21.6667 35L26.6667 35C31.269 35 35 31.269 35 26.6667L35 21.6667Z"   fill="#000000" >
</path>
</svg>
