<svg xmlns="http://www.w3.org/2000/svg" xmlns:xlink="http://www.w3.org/1999/xlink" width="20" height="20" viewBox="0 0 20 20" fill="none">
<path     fill="#1ABD5B"  d="M0 10Q0 9.75451 0.0120454 9.50932Q0.0240909 9.26413 0.0481527 9.01983Q0.0722146 8.77552 0.108235 8.53269Q0.144255 8.28987 0.192147 8.0491Q0.240039 7.80833 0.299687 7.5702Q0.359336 7.33207 0.430597 7.09715Q0.501857 6.86224 0.584559 6.6311Q0.667261 6.39996 0.761205 6.17317Q0.855148 5.94637 0.960107 5.72445Q1.06507 5.50253 1.18079 5.28603Q1.29651 5.06953 1.42271 4.85897Q1.54892 4.64841 1.6853 4.4443Q1.82169 4.24018 1.96792 4.04301Q2.11416 3.84583 2.2699 3.65607Q2.42563 3.4663 2.59049 3.28441Q2.75535 3.10252 2.92893 2.92893Q3.10252 2.75535 3.28441 2.59049Q3.4663 2.42563 3.65607 2.2699Q3.84583 2.11416 4.04301 1.96792Q4.24018 1.82169 4.4443 1.6853Q4.64841 1.54892 4.85897 1.42271Q5.06953 1.29651 5.28603 1.18079Q5.50253 1.06507 5.72445 0.960107Q5.94637 0.855148 6.17316 0.761205Q6.39996 0.667261 6.6311 0.584559Q6.86224 0.501857 7.09715 0.430597Q7.33207 0.359336 7.5702 0.299687Q7.80833 0.240039 8.0491 0.192147Q8.28987 0.144255 8.53269 0.108235Q8.77552 0.0722146 9.01983 0.0481527Q9.26413 0.0240909 9.50932 0.0120454Q9.75451 0 10 0Q10.2455 0 10.4907 0.0120454Q10.7359 0.0240909 10.9802 0.0481527Q11.2245 0.0722146 11.4673 0.108235Q11.7101 0.144255 11.9509 0.192147Q12.1917 0.240039 12.4298 0.299687Q12.6679 0.359336 12.9028 0.430597Q13.1378 0.501857 13.3689 0.584559Q13.6 0.667261 13.8268 0.761205Q14.0536 0.855148 14.2755 0.960107Q14.4975 1.06507 14.714 1.18079Q14.9305 1.29651 15.141 1.42271Q15.3516 1.54892 15.5557 1.6853Q15.7598 1.82169 15.957 1.96792Q16.1542 2.11416 16.3439 2.2699Q16.5337 2.42563 16.7156 2.59049Q16.8975 2.75535 17.0711 2.92893Q17.2447 3.10252 17.4095 3.28441Q17.5744 3.4663 17.7301 3.65607Q17.8858 3.84583 18.0321 4.04301Q18.1783 4.24018 18.3147 4.4443Q18.4511 4.64841 18.5773 4.85897Q18.7035 5.06953 18.8192 5.28603Q18.9349 5.50253 19.0399 5.72445Q19.1449 5.94637 19.2388 6.17316Q19.3327 6.39996 19.4154 6.6311Q19.4981 6.86224 19.5694 7.09715Q19.6407 7.33207 19.7003 7.5702Q19.76 7.80833 19.8079 8.0491Q19.8557 8.28987 19.8918 8.53269Q19.9278 8.77552 19.9518 9.01983Q19.9759 9.26413 19.988 9.50932Q20 9.75451 20 10Q20 10.2455 19.988 10.4907Q19.9759 10.7359 19.9518 10.9802Q19.9278 11.2245 19.8918 11.4673Q19.8557 11.7101 19.8079 11.9509Q19.76 12.1917 19.7003 12.4298Q19.6407 12.6679 19.5694 12.9028Q19.4981 13.1378 19.4154 13.3689Q19.3327 13.6 19.2388 13.8268Q19.1449 14.0536 19.0399 14.2755Q18.9349 14.4975 18.8192 14.714Q18.7035 14.9305 18.5773 15.141Q18.4511 15.3516 18.3147 15.5557Q18.1783 15.7598 18.0321 15.957Q17.8858 16.1542 17.7301 16.3439Q17.5744 16.5337 17.4095 16.7156Q17.2447 16.8975 17.0711 17.0711Q16.8975 17.2447 16.7156 17.4095Q16.5337 17.5744 16.3439 17.7301Q16.1542 17.8858 15.957 18.0321Q15.7598 18.1783 15.5557 18.3147Q15.3516 18.4511 15.141 18.5773Q14.9305 18.7035 14.714 18.8192Q14.4975 18.9349 14.2755 19.0399Q14.0536 19.1449 13.8268 19.2388Q13.6 19.3327 13.3689 19.4154Q13.1378 19.4981 12.9028 19.5694Q12.6679 19.6407 12.4298 19.7003Q12.1917 19.76 11.9509 19.8079Q11.7101 19.8557 11.4673 19.8918Q11.2245 19.9278 10.9802 19.9518Q10.7359 19.9759 10.4907 19.988Q10.2455 20 10 20Q9.75451 20 9.50932 19.988Q9.26413 19.9759 9.01983 19.9518Q8.77552 19.9278 8.53269 19.8918Q8.28987 19.8557 8.0491 19.8079Q7.80833 19.76 7.5702 19.7003Q7.33207 19.6407 7.09715 19.5694Q6.86224 19.4981 6.6311 19.4154Q6.39996 19.3327 6.17317 19.2388Q5.94637 19.1449 5.72445 19.0399Q5.50253 18.9349 5.28603 18.8192Q5.06953 18.7035 4.85897 18.5773Q4.64841 18.4511 4.4443 18.3147Q4.24018 18.1783 4.04301 18.0321Q3.84583 17.8858 3.65607 17.7301Q3.4663 17.5744 3.28441 17.4095Q3.10252 17.2447 2.92893 17.0711Q2.75535 16.8975 2.59049 16.7156Q2.42563 16.5337 2.2699 16.3439Q2.11416 16.1542 1.96792 15.957Q1.82169 15.7598 1.6853 15.5557Q1.54892 15.3516 1.42271 15.141Q1.29651 14.9305 1.18079 14.714Q1.06507 14.4975 0.960107 14.2755Q0.855148 14.0536 0.761205 13.8268Q0.667261 13.6 0.584559 13.3689Q0.501857 13.1378 0.430597 12.9028Q0.359336 12.6679 0.299687 12.4298Q0.240039 12.1917 0.192147 11.9509Q0.144255 11.7101 0.108235 11.4673Q0.0722146 11.2245 0.0481527 10.9802Q0.0240909 10.7359 0.0120454 10.4907Q0 10.2455 0 10Z">
</path>
<path d="M14.4775 10.145C14.4725 10.16 14.4675 10.175 14.4625 10.1925C14.455 10.2075 14.4475 10.2225 14.44 10.235C14.4325 10.25 14.425 10.265 14.415 10.2775C14.4075 10.2925 14.3975 10.305 14.3875 10.3175C14.375 10.33 14.365 10.3425 14.3525 10.3525C14.3425 10.365 14.33 10.375 14.3175 10.3875C14.305 10.3975 14.2925 10.4075 14.2775 10.415C14.265 10.425 14.25 10.4325 14.235 10.44C14.2225 10.4475 14.2075 10.455 14.1925 10.4625C14.175 10.4675 14.16 10.4725 14.145 10.4775C14.13 10.4825 14.1125 10.4875 14.0975 10.49C14.0825 10.4925 14.065 10.495 14.05 10.4975C14.0325 10.5 14.0175 10.5 14 10.5L10.5 10.5L10.5 14C10.5 14.0175 10.5 14.0325 10.4975 14.05C10.495 14.065 10.4925 14.0825 10.49 14.0975C10.4875 14.1125 10.4825 14.13 10.4775 14.145C10.4725 14.16 10.4675 14.175 10.4625 14.1925C10.455 14.2075 10.4475 14.2225 10.44 14.235C10.4325 14.25 10.425 14.265 10.415 14.2775C10.4075 14.2925 10.3975 14.305 10.3875 14.3175C10.375 14.33 10.365 14.3425 10.3525 14.3525C10.3425 14.365 10.33 14.375 10.3175 14.3875C10.305 14.3975 10.2925 14.4075 10.2775 14.415C10.265 14.425 10.25 14.4325 10.235 14.44C10.2225 14.4475 10.2075 14.455 10.1925 14.4625C10.175 14.4675 10.16 14.4725 10.145 14.4775C10.13 14.4825 10.1125 14.4875 10.0975 14.49C10.0825 14.4925 10.065 14.495 10.05 14.4975C10.0325 14.5 10.0175 14.5 10 14.5C9.9825 14.5 9.9675 14.5 9.95 14.4975C9.935 14.495 9.9175 14.4925 9.9025 14.49C9.8875 14.4875 9.87 14.4825 9.855 14.4775C9.84 14.4725 9.825 14.4675 9.8075 14.4625C9.7925 14.455 9.7775 14.4475 9.765 14.44C9.75 14.4325 9.735 14.425 9.7225 14.415C9.7075 14.4075 9.695 14.3975 9.6825 14.3875C9.67 14.375 9.6575 14.365 9.6475 14.3525C9.635 14.3425 9.625 14.33 9.6125 14.3175C9.6025 14.305 9.5925 14.2925 9.585 14.2775C9.575 14.265 9.5675 14.25 9.56 14.235C9.5525 14.2225 9.545 14.2075 9.5375 14.1925C9.5325 14.175 9.5275 14.16 9.5225 14.145C9.5175 14.13 9.5125 14.1125 9.51 14.0975C9.5075 14.0825 9.505 14.065 9.5025 14.05C9.5 14.0325 9.5 14.0175 9.5 14L9.5 10.5L6 10.5C5.9825 10.5 5.9675 10.5 5.95 10.4975C5.935 10.495 5.9175 10.4925 5.9025 10.49C5.8875 10.4875 5.87 10.4825 5.855 10.4775C5.84 10.4725 5.825 10.4675 5.8075 10.4625C5.7925 10.455 5.7775 10.4475 5.765 10.44C5.75 10.4325 5.735 10.425 5.7225 10.415C5.7075 10.4075 5.695 10.3975 5.6825 10.3875C5.67 10.375 5.6575 10.365 5.6475 10.3525C5.635 10.3425 5.625 10.33 5.6125 10.3175C5.6025 10.305 5.5925 10.2925 5.585 10.2775C5.575 10.265 5.5675 10.25 5.56 10.235C5.5525 10.2225 5.545 10.2075 5.5375 10.1925C5.5325 10.175 5.5275 10.16 5.5225 10.145C5.5175 10.13 5.5125 10.1125 5.51 10.0975C5.5075 10.0825 5.505 10.065 5.5025 10.05C5.5 10.0325 5.5 10.0175 5.5 10C5.5 9.9825 5.5 9.9675 5.5025 9.95C5.505 9.935 5.5075 9.9175 5.51 9.9025C5.5125 9.8875 5.5175 9.87 5.5225 9.855C5.5275 9.84 5.5325 9.825 5.5375 9.8075C5.545 9.7925 5.5525 9.7775 5.56 9.765C5.5675 9.75 5.575 9.735 5.585 9.7225C5.5925 9.7075 5.6025 9.695 5.6125 9.6825C5.625 9.67 5.635 9.6575 5.6475 9.6475C5.6575 9.635 5.67 9.625 5.6825 9.6125C5.695 9.6025 5.7075 9.5925 5.7225 9.585C5.735 9.575 5.75 9.5675 5.765 9.56C5.7775 9.5525 5.7925 9.545 5.8075 9.5375C5.825 9.5325 5.84 9.5275 5.855 9.5225C5.87 9.5175 5.8875 9.5125 5.9025 9.51C5.9175 9.5075 5.935 9.505 5.95 9.5025C5.9675 9.5 5.9825 9.5 6 9.5L9.5 9.5L9.5 6C9.5 5.9825 9.5 5.9675 9.5025 5.95C9.505 5.935 9.5075 5.9175 9.51 5.9025C9.5125 5.8875 9.5175 5.87 9.5225 5.855C9.5275 5.84 9.5325 5.825 9.5375 5.8075C9.545 5.7925 9.5525 5.7775 9.56 5.765C9.5675 5.75 9.575 5.735 9.585 5.7225C9.5925 5.7075 9.6025 5.695 9.6125 5.6825C9.625 5.67 9.635 5.6575 9.6475 5.6475C9.6575 5.635 9.67 5.625 9.6825 5.6125C9.695 5.6025 9.7075 5.5925 9.7225 5.585C9.735 5.575 9.75 5.5675 9.765 5.56C9.7775 5.5525 9.7925 5.545 9.8075 5.5375C9.825 5.5325 9.84 5.5275 9.855 5.5225C9.87 5.5175 9.8875 5.5125 9.9025 5.51C9.9175 5.5075 9.935 5.505 9.95 5.5025C9.9675 5.5 9.9825 5.5 10 5.5C10.0175 5.5 10.0325 5.5 10.05 5.5025C10.065 5.505 10.0825 5.5075 10.0975 5.51C10.1125 5.5125 10.13 5.5175 10.145 5.5225C10.16 5.5275 10.175 5.5325 10.1925 5.5375C10.2075 5.545 10.2225 5.5525 10.235 5.56C10.25 5.5675 10.265 5.575 10.2775 5.585C10.2925 5.5925 10.305 5.6025 10.3175 5.6125C10.33 5.625 10.3425 5.635 10.3525 5.6475C10.365 5.6575 10.375 5.67 10.3875 5.6825C10.3975 5.695 10.4075 5.7075 10.415 5.7225C10.425 5.735 10.4325 5.75 10.44 5.765C10.4475 5.7775 10.455 5.7925 10.4625 5.8075C10.4675 5.825 10.4725 5.84 10.4775 5.855C10.4825 5.87 10.4875 5.8875 10.49 5.9025C10.4925 5.9175 10.495 5.935 10.4975 5.95C10.5 5.9675 10.5 5.9825 10.5 6L10.5 9.5L14 9.5C14.0175 9.5 14.0325 9.5 14.05 9.5025C14.065 9.505 14.0825 9.5075 14.0975 9.51C14.1125 9.5125 14.13 9.5175 14.145 9.5225C14.16 9.5275 14.175 9.5325 14.1925 9.5375C14.2075 9.545 14.2225 9.5525 14.235 9.56C14.25 9.5675 14.265 9.575 14.2775 9.585C14.2925 9.5925 14.305 9.6025 14.3175 9.6125C14.33 9.625 14.3425 9.635 14.3525 9.6475C14.365 9.6575 14.375 9.67 14.3875 9.6825C14.3975 9.695 14.4075 9.7075 14.415 9.7225C14.425 9.735 14.4325 9.75 14.44 9.765C14.4475 9.7775 14.455 9.7925 14.4625 9.8075C14.4675 9.825 14.4725 9.84 14.4775 9.855C14.4825 9.87 14.4875 9.8875 14.49 9.9025C14.4925 9.9175 14.495 9.935 14.4975 9.95C14.5 9.9675 14.5 9.9825 14.5 10C14.5 10.0175 14.5 10.0325 14.4975 10.05C14.495 10.065 14.4925 10.0825 14.49 10.0975C14.4875 10.1125 14.4825 10.13 14.4775 10.145Z"   fill="#FFFFFF" >
</path>
</svg>
