<svg xmlns="http://www.w3.org/2000/svg" xmlns:xlink="http://www.w3.org/1999/xlink" width="20" height="20" viewBox="0 0 20 20" fill="none">
<path     fill="#1ABD5B"  d="M0 10Q0 9.75451 0.0120454 9.50932Q0.0240909 9.26413 0.0481527 9.01983Q0.0722146 8.77552 0.108235 8.53269Q0.144255 8.28987 0.192147 8.0491Q0.240039 7.80833 0.299687 7.5702Q0.359336 7.33207 0.430597 7.09715Q0.501857 6.86224 0.584559 6.6311Q0.667261 6.39996 0.761205 6.17317Q0.855148 5.94637 0.960107 5.72445Q1.06507 5.50253 1.18079 5.28603Q1.29651 5.06953 1.42271 4.85897Q1.54892 4.64841 1.6853 4.4443Q1.82169 4.24018 1.96792 4.04301Q2.11416 3.84583 2.2699 3.65607Q2.42563 3.4663 2.59049 3.28441Q2.75535 3.10252 2.92893 2.92893Q3.10252 2.75535 3.28441 2.59049Q3.4663 2.42563 3.65607 2.2699Q3.84583 2.11416 4.04301 1.96792Q4.24018 1.82169 4.4443 1.6853Q4.64841 1.54892 4.85897 1.42271Q5.06953 1.29651 5.28603 1.18079Q5.50253 1.06507 5.72445 0.960107Q5.94637 0.855148 6.17316 0.761205Q6.39996 0.667261 6.6311 0.584559Q6.86224 0.501857 7.09715 0.430597Q7.33207 0.359336 7.5702 0.299687Q7.80833 0.240039 8.0491 0.192147Q8.28987 0.144255 8.53269 0.108235Q8.77552 0.0722146 9.01983 0.0481527Q9.26413 0.0240909 9.50932 0.0120454Q9.75451 0 10 0Q10.2455 0 10.4907 0.0120454Q10.7359 0.0240909 10.9802 0.0481527Q11.2245 0.0722146 11.4673 0.108235Q11.7101 0.144255 11.9509 0.192147Q12.1917 0.240039 12.4298 0.299687Q12.6679 0.359336 12.9028 0.430597Q13.1378 0.501857 13.3689 0.584559Q13.6 0.667261 13.8268 0.761205Q14.0536 0.855148 14.2755 0.960107Q14.4975 1.06507 14.714 1.18079Q14.9305 1.29651 15.141 1.42271Q15.3516 1.54892 15.5557 1.6853Q15.7598 1.82169 15.957 1.96792Q16.1542 2.11416 16.3439 2.2699Q16.5337 2.42563 16.7156 2.59049Q16.8975 2.75535 17.0711 2.92893Q17.2447 3.10252 17.4095 3.28441Q17.5744 3.4663 17.7301 3.65607Q17.8858 3.84583 18.0321 4.04301Q18.1783 4.24018 18.3147 4.4443Q18.4511 4.64841 18.5773 4.85897Q18.7035 5.06953 18.8192 5.28603Q18.9349 5.50253 19.0399 5.72445Q19.1449 5.94637 19.2388 6.17316Q19.3327 6.39996 19.4154 6.6311Q19.4981 6.86224 19.5694 7.09715Q19.6407 7.33207 19.7003 7.5702Q19.76 7.80833 19.8079 8.0491Q19.8557 8.28987 19.8918 8.53269Q19.9278 8.77552 19.9518 9.01983Q19.9759 9.26413 19.988 9.50932Q20 9.75451 20 10Q20 10.2455 19.988 10.4907Q19.9759 10.7359 19.9518 10.9802Q19.9278 11.2245 19.8918 11.4673Q19.8557 11.7101 19.8079 11.9509Q19.76 12.1917 19.7003 12.4298Q19.6407 12.6679 19.5694 12.9028Q19.4981 13.1378 19.4154 13.3689Q19.3327 13.6 19.2388 13.8268Q19.1449 14.0536 19.0399 14.2755Q18.9349 14.4975 18.8192 14.714Q18.7035 14.9305 18.5773 15.141Q18.4511 15.3516 18.3147 15.5557Q18.1783 15.7598 18.0321 15.957Q17.8858 16.1542 17.7301 16.3439Q17.5744 16.5337 17.4095 16.7156Q17.2447 16.8975 17.0711 17.0711Q16.8975 17.2447 16.7156 17.4095Q16.5337 17.5744 16.3439 17.7301Q16.1542 17.8858 15.957 18.0321Q15.7598 18.1783 15.5557 18.3147Q15.3516 18.4511 15.141 18.5773Q14.9305 18.7035 14.714 18.8192Q14.4975 18.9349 14.2755 19.0399Q14.0536 19.1449 13.8268 19.2388Q13.6 19.3327 13.3689 19.4154Q13.1378 19.4981 12.9028 19.5694Q12.6679 19.6407 12.4298 19.7003Q12.1917 19.76 11.9509 19.8079Q11.7101 19.8557 11.4673 19.8918Q11.2245 19.9278 10.9802 19.9518Q10.7359 19.9759 10.4907 19.988Q10.2455 20 10 20Q9.75451 20 9.50932 19.988Q9.26413 19.9759 9.01983 19.9518Q8.77552 19.9278 8.53269 19.8918Q8.28987 19.8557 8.0491 19.8079Q7.80833 19.76 7.5702 19.7003Q7.33207 19.6407 7.09715 19.5694Q6.86224 19.4981 6.6311 19.4154Q6.39996 19.3327 6.17317 19.2388Q5.94637 19.1449 5.72445 19.0399Q5.50253 18.9349 5.28603 18.8192Q5.06953 18.7035 4.85897 18.5773Q4.64841 18.4511 4.4443 18.3147Q4.24018 18.1783 4.04301 18.0321Q3.84583 17.8858 3.65607 17.7301Q3.4663 17.5744 3.28441 17.4095Q3.10252 17.2447 2.92893 17.0711Q2.75535 16.8975 2.59049 16.7156Q2.42563 16.5337 2.2699 16.3439Q2.11416 16.1542 1.96792 15.957Q1.82169 15.7598 1.6853 15.5557Q1.54892 15.3516 1.42271 15.141Q1.29651 14.9305 1.18079 14.714Q1.06507 14.4975 0.960107 14.2755Q0.855148 14.0536 0.761205 13.8268Q0.667261 13.6 0.584559 13.3689Q0.501857 13.1378 0.430597 12.9028Q0.359336 12.6679 0.299687 12.4298Q0.240039 12.1917 0.192147 11.9509Q0.144255 11.7101 0.108235 11.4673Q0.0722146 11.2245 0.0481527 10.9802Q0.0240909 10.7359 0.0120454 10.4907Q0 10.2455 0 10Z">
</path>
<path d="M14.49 10.0975C14.4925 10.0825 14.495 10.065 14.4975 10.05C14.5 10.0325 14.5 10.0175 14.5 10C14.5 9.9825 14.5 9.9675 14.4975 9.95C14.495 9.935 14.4925 9.9175 14.49 9.9025C14.4875 9.8875 14.4825 9.87 14.4775 9.855C14.4725 9.84 14.4675 9.825 14.4625 9.8075C14.455 9.7925 14.4475 9.7775 14.44 9.765C14.4325 9.75 14.425 9.735 14.415 9.7225C14.4075 9.7075 14.3975 9.695 14.3875 9.6825C14.375 9.67 14.365 9.6575 14.3525 9.6475C14.3425 9.635 14.33 9.625 14.3175 9.6125C14.305 9.6025 14.2925 9.5925 14.2775 9.585C14.265 9.575 14.25 9.5675 14.235 9.56C14.2225 9.5525 14.2075 9.545 14.1925 9.5375C14.175 9.5325 14.16 9.5275 14.145 9.5225C14.13 9.5175 14.1125 9.5125 14.0975 9.51C14.0825 9.5075 14.065 9.505 14.05 9.5025C14.0325 9.5 14.0175 9.5 14 9.5L10.5 9.5L10.5 6C10.5 5.9825 10.5 5.9675 10.4975 5.95C10.495 5.935 10.4925 5.9175 10.49 5.9025C10.4875 5.8875 10.4825 5.87 10.4775 5.855C10.4725 5.84 10.4675 5.825 10.4625 5.8075C10.455 5.7925 10.4475 5.7775 10.44 5.765C10.4325 5.75 10.425 5.735 10.415 5.7225C10.4075 5.7075 10.3975 5.695 10.3875 5.6825C10.375 5.67 10.365 5.6575 10.3525 5.6475C10.3425 5.635 10.33 5.625 10.3175 5.6125C10.305 5.6025 10.2925 5.5925 10.2775 5.585C10.265 5.575 10.25 5.5675 10.235 5.56C10.2225 5.5525 10.2075 5.545 10.1925 5.5375C10.175 5.5325 10.16 5.5275 10.145 5.5225C10.13 5.5175 10.1125 5.5125 10.0975 5.51C10.0825 5.5075 10.065 5.505 10.05 5.5025C10.0325 5.5 10.0175 5.5 10 5.5C9.9825 5.5 9.9675 5.5 9.95 5.5025C9.935 5.505 9.9175 5.5075 9.9025 5.51C9.8875 5.5125 9.87 5.5175 9.855 5.5225C9.84 5.5275 9.825 5.5325 9.8075 5.5375C9.7925 5.545 9.7775 5.5525 9.765 5.56C9.75 5.5675 9.735 5.575 9.7225 5.585C9.7075 5.5925 9.695 5.6025 9.6825 5.6125C9.67 5.625 9.6575 5.635 9.6475 5.6475C9.635 5.6575 9.625 5.67 9.6125 5.6825C9.6025 5.695 9.5925 5.7075 9.585 5.7225C9.575 5.735 9.5675 5.75 9.56 5.765C9.5525 5.7775 9.545 5.7925 9.5375 5.8075C9.5325 5.825 9.5275 5.84 9.5225 5.855C9.5175 5.87 9.5125 5.8875 9.51 5.9025C9.5075 5.9175 9.505 5.935 9.5025 5.95C9.5 5.9675 9.5 5.9825 9.5 6L9.5 9.5L6 9.5C5.9825 9.5 5.9675 9.5 5.95 9.5025C5.935 9.505 5.9175 9.5075 5.9025 9.51C5.8875 9.5125 5.87 9.5175 5.855 9.5225C5.84 9.5275 5.825 9.5325 5.8075 9.5375C5.7925 9.545 5.7775 9.5525 5.765 9.56C5.75 9.5675 5.735 9.575 5.7225 9.585C5.7075 9.5925 5.695 9.6025 5.6825 9.6125C5.67 9.625 5.6575 9.635 5.6475 9.6475C5.635 9.6575 5.625 9.67 5.6125 9.6825C5.6025 9.695 5.5925 9.7075 5.585 9.7225C5.575 9.735 5.5675 9.75 5.56 9.765C5.5525 9.7775 5.545 9.7925 5.5375 9.8075C5.5325 9.825 5.5275 9.84 5.5225 9.855C5.5175 9.87 5.5125 9.8875 5.51 9.9025C5.5075 9.9175 5.505 9.935 5.5025 9.95C5.5 9.9675 5.5 9.9825 5.5 10C5.5 10.0175 5.5 10.0325 5.5025 10.05C5.505 10.065 5.5075 10.0825 5.51 10.0975C5.5125 10.1125 5.5175 10.13 5.5225 10.145C5.5275 10.16 5.5325 10.175 5.5375 10.1925C5.545 10.2075 5.5525 10.2225 5.56 10.235C5.5675 10.25 5.575 10.265 5.585 10.2775C5.5925 10.2925 5.6025 10.305 5.6125 10.3175C5.625 10.33 5.635 10.3425 5.6475 10.3525C5.6575 10.365 5.67 10.375 5.6825 10.3875C5.695 10.3975 5.7075 10.4075 5.7225 10.415C5.735 10.425 5.75 10.4325 5.765 10.44C5.7775 10.4475 5.7925 10.455 5.8075 10.4625C5.825 10.4675 5.84 10.4725 5.855 10.4775C5.87 10.4825 5.8875 10.4875 5.9025 10.49C5.9175 10.4925 5.935 10.495 5.95 10.4975C5.9675 10.5 5.9825 10.5 6 10.5L9.5 10.5L9.5 14C9.5 14.0175 9.5 14.0325 9.5025 14.05C9.505 14.065 9.5075 14.0825 9.51 14.0975C9.5125 14.1125 9.5175 14.13 9.5225 14.145C9.5275 14.16 9.5325 14.175 9.5375 14.1925C9.545 14.2075 9.5525 14.2225 9.56 14.235C9.5675 14.25 9.575 14.265 9.585 14.2775C9.5925 14.2925 9.6025 14.305 9.6125 14.3175C9.625 14.33 9.635 14.3425 9.6475 14.3525C9.6575 14.365 9.67 14.375 9.6825 14.3875C9.695 14.3975 9.7075 14.4075 9.7225 14.415C9.735 14.425 9.75 14.4325 9.765 14.44C9.7775 14.4475 9.7925 14.455 9.8075 14.4625C9.825 14.4675 9.84 14.4725 9.855 14.4775C9.87 14.4825 9.8875 14.4875 9.9025 14.49C9.9175 14.4925 9.935 14.495 9.95 14.4975C9.9675 14.5 9.9825 14.5 10 14.5C10.0175 14.5 10.0325 14.5 10.05 14.4975C10.065 14.495 10.0825 14.4925 10.0975 14.49C10.1125 14.4875 10.13 14.4825 10.145 14.4775C10.16 14.4725 10.175 14.4675 10.1925 14.4625C10.2075 14.455 10.2225 14.4475 10.235 14.44C10.25 14.4325 10.265 14.425 10.2775 14.415C10.2925 14.4075 10.305 14.3975 10.3175 14.3875C10.33 14.375 10.3425 14.365 10.3525 14.3525C10.365 14.3425 10.375 14.33 10.3875 14.3175C10.3975 14.305 10.4075 14.2925 10.415 14.2775C10.425 14.265 10.4325 14.25 10.44 14.235C10.4475 14.2225 10.455 14.2075 10.4625 14.1925C10.4675 14.175 10.4725 14.16 10.4775 14.145C10.4825 14.13 10.4875 14.1125 10.49 14.0975C10.4925 14.0825 10.495 14.065 10.4975 14.05C10.5 14.0325 10.5 14.0175 10.5 14L10.5 10.5L14 10.5C14.0175 10.5 14.0325 10.5 14.05 10.4975C14.065 10.495 14.0825 10.4925 14.0975 10.49C14.1125 10.4875 14.13 10.4825 14.145 10.4775C14.16 10.4725 14.175 10.4675 14.1925 10.4625C14.2075 10.455 14.2225 10.4475 14.235 10.44C14.25 10.4325 14.265 10.425 14.2775 10.415C14.2925 10.4075 14.305 10.3975 14.3175 10.3875C14.33 10.375 14.3425 10.365 14.3525 10.3525C14.365 10.3425 14.375 10.33 14.3875 10.3175C14.3975 10.305 14.4075 10.2925 14.415 10.2775C14.425 10.265 14.4325 10.25 14.44 10.235C14.4475 10.2225 14.455 10.2075 14.4625 10.1925C14.4675 10.175 14.4725 10.16 14.4775 10.145C14.4825 10.13 14.4875 10.1125 14.49 10.0975Z"   fill="#FFFFFF" >
</path>
<path d="M14.7509 10.2749C14.7531 10.2674 14.7568 10.2557 14.7621 10.2398C14.7731 10.2066 14.7811 10.1756 14.7859 10.1468L14.7863 10.1442L14.7903 10.119L14.7934 10.0993L14.7934 10.0992L14.7938 10.0968L14.7939 10.0958L14.7944 10.0924C14.7981 10.0666 14.8 10.0358 14.8 9.99995C14.8 9.96408 14.7981 9.93327 14.7944 9.90753L14.7939 9.90407L14.7938 9.90323L14.7934 9.90063L14.7898 9.87778L14.7863 9.85557L14.7859 9.85314L14.7859 9.85312C14.7811 9.82431 14.7731 9.7933 14.7621 9.76008C14.7568 9.74421 14.7531 9.73252 14.7509 9.72503L14.7433 9.69822L14.7308 9.67329C14.7205 9.6527 14.7115 9.63562 14.7038 9.62204C14.6921 9.5993 14.6804 9.5791 14.6685 9.56144C14.6558 9.54034 14.6402 9.51821 14.6217 9.49504L14.6113 9.48207L14.5996 9.47032C14.5992 9.46997 14.5976 9.46828 14.5948 9.46525C14.5844 9.45412 14.5745 9.44404 14.5649 9.43502C14.5559 9.42543 14.5458 9.41545 14.5347 9.40508C14.5316 9.40225 14.5299 9.40067 14.5296 9.40032L14.5178 9.38857L14.5049 9.37819C14.4817 9.35966 14.4596 9.34407 14.4385 9.33142C14.4208 9.31955 14.4006 9.30777 14.3779 9.29606C14.3643 9.2884 14.3472 9.27942 14.3266 9.26912L14.3017 9.25665L14.2749 9.24899C14.2674 9.24685 14.2557 9.24314 14.2398 9.23785C14.2066 9.22677 14.1756 9.21883 14.1468 9.21403L14.1442 9.21361L14.119 9.20965L14.0993 9.20652L14.0968 9.20612L14.0958 9.20596L14.0924 9.20547C14.0666 9.20179 14.0358 9.19995 14 9.19995L10.8 9.19995L10.8 5.99995C10.8 5.96407 10.7981 5.93326 10.7944 5.90752L10.7944 5.90751L10.7939 5.90407L10.7936 5.90192L10.7898 5.87779L10.7863 5.85558L10.7859 5.85314L10.7859 5.85313C10.7811 5.82432 10.7731 5.7933 10.7621 5.76008C10.7568 5.74421 10.7531 5.73253 10.7509 5.72503L10.7433 5.69823L10.7308 5.67329L10.7308 5.67327C10.7205 5.65268 10.7115 5.6356 10.7038 5.62203C10.6921 5.5993 10.6803 5.5791 10.6685 5.56143C10.6558 5.54034 10.6402 5.51821 10.6217 5.49504L10.6217 5.49504L10.6113 5.48207L10.5996 5.47032L10.5996 5.47032C10.5992 5.46997 10.5976 5.46827 10.5948 5.46525C10.5844 5.45412 10.5745 5.44404 10.5649 5.43503C10.5559 5.42544 10.5458 5.41545 10.5347 5.40508C10.5316 5.40225 10.5299 5.40066 10.5296 5.40032L10.5178 5.38857L10.5049 5.37819L10.5049 5.37819L10.5049 5.37819C10.4817 5.35966 10.4596 5.34407 10.4385 5.33142C10.4208 5.31956 10.4006 5.30777 10.3779 5.29606C10.3643 5.2884 10.3472 5.27942 10.3266 5.26912L10.3017 5.25665L10.2749 5.24899C10.2674 5.24685 10.2557 5.24314 10.2398 5.23785C10.2066 5.22677 10.1756 5.21884 10.1468 5.21403L10.1442 5.21361L10.119 5.20965L10.098 5.20633L10.0958 5.20596L10.0924 5.20547C10.0666 5.20179 10.0358 5.19995 9.99995 5.19995C9.96407 5.19995 9.93326 5.20179 9.90752 5.20547L9.90751 5.20547L9.90407 5.20596L9.90194 5.20631L9.87779 5.21012L9.85558 5.21363L9.85313 5.21403C9.82432 5.21884 9.7933 5.22677 9.76008 5.23785C9.74421 5.24314 9.73252 5.24685 9.72503 5.24899L9.69822 5.25665L9.67329 5.26912C9.6527 5.27942 9.63561 5.2884 9.62204 5.29606C9.5993 5.30777 9.5791 5.31956 9.56143 5.33142C9.54034 5.34407 9.51821 5.35966 9.49505 5.37819L9.49504 5.37819L9.49504 5.37819L9.48207 5.38857L9.47032 5.40032C9.46997 5.40066 9.46828 5.40225 9.46524 5.40508C9.45411 5.41545 9.44404 5.42543 9.43502 5.43503C9.42543 5.44404 9.41545 5.45412 9.40508 5.46525C9.40225 5.46828 9.40067 5.46997 9.40032 5.47032L9.40032 5.47032L9.38857 5.48207L9.37819 5.49504L9.37819 5.49504C9.35966 5.51821 9.34406 5.54034 9.33141 5.56144C9.31955 5.5791 9.30777 5.5993 9.29607 5.62203C9.2884 5.6356 9.27942 5.65268 9.26913 5.67327L9.26912 5.67329L9.25665 5.69823L9.24899 5.72504C9.24685 5.73253 9.24314 5.74421 9.23785 5.76008C9.22677 5.79331 9.21883 5.82432 9.21403 5.85314L9.21361 5.85573L9.20965 5.88087L9.20633 5.90187L9.20596 5.90407L9.20547 5.90753C9.20179 5.93326 9.19995 5.96407 9.19995 5.99995L9.19995 9.19995L5.99995 9.19995C5.96407 9.19995 5.93326 9.20179 5.90752 9.20547L5.90407 9.20596L5.90194 9.20631L5.87779 9.21012L5.85558 9.21363L5.85314 9.21403L5.85313 9.21403C5.82432 9.21883 5.7933 9.22677 5.76008 9.23785C5.74421 9.24314 5.73253 9.24685 5.72503 9.24899L5.69823 9.25665L5.67329 9.26912L5.67327 9.26913C5.65268 9.27942 5.6356 9.2884 5.62203 9.29606C5.5993 9.30777 5.5791 9.31955 5.56143 9.33142C5.54034 9.34407 5.51821 9.35966 5.49504 9.37819L5.49504 9.37819L5.48207 9.38857L5.47032 9.40032L5.47032 9.40032C5.46997 9.40067 5.46828 9.40225 5.46525 9.40508C5.45412 9.41545 5.44404 9.42543 5.43502 9.43502C5.42543 9.44404 5.41545 9.45411 5.40508 9.46524C5.40225 9.46828 5.40066 9.46997 5.40032 9.47032L5.38857 9.48207L5.37819 9.49504L5.37819 9.49504L5.37819 9.49505C5.35966 9.51821 5.34407 9.54034 5.33142 9.56143C5.31956 9.5791 5.30777 9.5993 5.29606 9.62204C5.2884 9.63561 5.27942 9.6527 5.26912 9.67329L5.25665 9.69822L5.24899 9.72503C5.24685 9.73252 5.24314 9.74421 5.23785 9.76008C5.22677 9.7933 5.21884 9.82432 5.21403 9.85313L5.21361 9.85573L5.20965 9.88087L5.20633 9.90187L5.20596 9.90407L5.20547 9.90752C5.20179 9.93326 5.19995 9.96407 5.19995 9.99995C5.19995 10.0358 5.20179 10.0666 5.20547 10.0924L5.20547 10.0924L5.20596 10.0958L5.20631 10.098L5.21012 10.1221L5.21363 10.1443L5.21403 10.1468C5.21884 10.1756 5.22677 10.2066 5.23785 10.2398C5.24314 10.2557 5.24685 10.2674 5.24899 10.2749L5.25665 10.3017L5.26912 10.3266C5.27942 10.3472 5.2884 10.3643 5.29606 10.3779C5.30777 10.4006 5.31956 10.4208 5.33142 10.4385C5.34407 10.4596 5.35966 10.4817 5.37819 10.5049L5.37819 10.5049L5.37819 10.5049L5.38857 10.5178L5.40032 10.5296C5.40066 10.5299 5.40225 10.5316 5.40508 10.5347C5.41545 10.5458 5.42544 10.5559 5.43503 10.5649C5.44404 10.5745 5.45412 10.5844 5.46525 10.5948C5.46827 10.5976 5.46997 10.5992 5.47032 10.5996L5.47032 10.5996L5.48207 10.6113L5.49504 10.6217L5.49504 10.6217C5.51821 10.6402 5.54034 10.6558 5.56143 10.6685C5.57909 10.6803 5.59929 10.6921 5.62203 10.7038C5.6356 10.7115 5.65268 10.7205 5.67327 10.7308L5.67329 10.7308L5.69823 10.7433L5.72504 10.7509C5.73253 10.7531 5.74421 10.7568 5.76008 10.7621C5.7933 10.7731 5.82432 10.7811 5.85314 10.7859L5.85573 10.7863L5.88087 10.7903L5.90185 10.7936L5.90407 10.7939L5.90751 10.7944L5.90752 10.7944C5.93326 10.7981 5.96407 10.8 5.99995 10.8L9.19995 10.8L9.19995 14C9.19995 14.0358 9.20179 14.0666 9.20547 14.0924L9.20596 14.0958L9.2061 14.0967L9.20653 14.0993L9.21012 14.1221L9.21363 14.1443L9.21403 14.1468C9.21883 14.1756 9.22677 14.2066 9.23785 14.2398C9.24314 14.2557 9.24685 14.2674 9.24899 14.2749L9.25665 14.3017L9.26912 14.3266C9.27942 14.3472 9.2884 14.3643 9.29606 14.3779C9.30777 14.4006 9.31955 14.4208 9.33142 14.4385C9.34407 14.4596 9.35966 14.4817 9.37819 14.5049L9.38857 14.5178L9.40032 14.5296C9.40067 14.5299 9.40225 14.5316 9.40508 14.5347C9.41545 14.5458 9.42543 14.5559 9.43502 14.5649C9.44404 14.5745 9.45412 14.5844 9.46525 14.5948C9.46828 14.5976 9.46997 14.5992 9.47032 14.5996L9.48207 14.6113L9.49504 14.6217C9.51821 14.6402 9.54034 14.6558 9.56143 14.6685C9.5791 14.6803 9.5993 14.6921 9.62203 14.7038C9.6356 14.7115 9.65269 14.7205 9.67329 14.7308L9.69822 14.7433L9.72503 14.7509C9.73252 14.7531 9.74421 14.7568 9.76008 14.7621C9.7933 14.7731 9.82432 14.7811 9.85314 14.7859L9.85573 14.7863L9.88086 14.7903L9.90062 14.7934L9.90068 14.7934L9.90307 14.7938L9.90407 14.7939L9.90752 14.7944C9.93327 14.7981 9.96408 14.8 9.99995 14.8C10.0358 14.8 10.0666 14.7981 10.0924 14.7944L10.0958 14.7939L10.0967 14.7938L10.0993 14.7934L10.1221 14.7898L10.1443 14.7863L10.1468 14.7859L10.1468 14.7859C10.1756 14.7811 10.2066 14.7731 10.2398 14.7621C10.2557 14.7568 10.2674 14.7531 10.2749 14.7509L10.3017 14.7433L10.3266 14.7308C10.3472 14.7205 10.3643 14.7115 10.3779 14.7038C10.4006 14.6921 10.4208 14.6804 10.4385 14.6685C10.4596 14.6558 10.4817 14.6402 10.5049 14.6217L10.5178 14.6113L10.5296 14.5996C10.5299 14.5992 10.5316 14.5976 10.5347 14.5948C10.5458 14.5844 10.5559 14.5745 10.5649 14.5649C10.5745 14.5559 10.5844 14.5458 10.5948 14.5347C10.5976 14.5316 10.5992 14.5299 10.5996 14.5296L10.6113 14.5178L10.6217 14.5049C10.6402 14.4817 10.6558 14.4596 10.6685 14.4385C10.6803 14.4208 10.6921 14.4006 10.7038 14.3779C10.7115 14.3643 10.7205 14.3472 10.7308 14.3266L10.7433 14.3017L10.7509 14.2749C10.7531 14.2674 10.7568 14.2557 10.7621 14.2398C10.7731 14.2066 10.7811 14.1756 10.7859 14.1468L10.7863 14.1442L10.7903 14.119L10.7934 14.0993L10.7938 14.0968L10.7939 14.0958L10.7944 14.0924L10.7944 14.0924C10.7981 14.0666 10.8 14.0358 10.8 14L10.8 10.8L14 10.8C14.0358 10.8 14.0666 10.7981 14.0924 10.7944L14.0924 10.7944L14.0958 10.7939L14.0967 10.7938L14.0993 10.7934L14.1221 10.7898L14.1443 10.7863L14.1468 10.7859C14.1756 10.7811 14.2066 10.7731 14.2398 10.7621C14.2557 10.7568 14.2674 10.7531 14.2749 10.7509L14.3017 10.7433L14.3266 10.7308C14.3472 10.7205 14.3643 10.7115 14.3779 10.7038C14.4006 10.6921 14.4208 10.6803 14.4385 10.6685C14.4596 10.6558 14.4817 10.6402 14.5049 10.6217L14.5178 10.6113L14.5296 10.5996C14.5299 10.5992 14.5316 10.5976 14.5347 10.5948C14.5458 10.5844 14.5559 10.5745 14.5649 10.5649C14.5745 10.5559 14.5844 10.5458 14.5948 10.5347C14.5976 10.5316 14.5992 10.5299 14.5996 10.5296L14.6113 10.5178L14.6217 10.5049C14.6402 10.4817 14.6558 10.4596 14.6685 10.4385C14.6804 10.4208 14.6921 10.4006 14.7038 10.3779C14.7115 10.3643 14.7205 10.3472 14.7308 10.3266L14.7433 10.3017L14.7509 10.2749L14.7509 10.2749ZM14.1832 10.0798C14.186 10.0707 14.1893 10.0608 14.1929 10.0501C14.1935 10.048 14.1941 10.0461 14.1946 10.0445L14.1976 10.0253L14.1999 10.0108L14.2 9.99995L14.1999 9.98905L14.1972 9.97154L14.1946 9.95542C14.1941 9.95379 14.1936 9.95193 14.1929 9.94982C14.1893 9.93911 14.1861 9.92921 14.1832 9.92011L14.1827 9.91931L14.1768 9.90942L14.1716 9.89911L14.1708 9.89754L14.1608 9.88504L14.1553 9.87388L14.139 9.86089L14.126 9.84464L14.1149 9.83906L14.1024 9.82907L14.1008 9.82828L14.0905 9.82313L14.0806 9.8172L14.0798 9.81673C14.0707 9.81385 14.0608 9.81063 14.0501 9.80705C14.048 9.80636 14.0461 9.80578 14.0445 9.80531L14.0253 9.80228L14.0108 9.79999L14 9.79995L10.2 9.79995L10.2 5.99995L10.1999 5.98906L10.1972 5.97153L10.1946 5.95542C10.1941 5.95379 10.1936 5.95193 10.1929 5.94982C10.1893 5.93911 10.1861 5.92921 10.1832 5.92012L10.1827 5.9193L10.1768 5.90942L10.1716 5.89912L10.1708 5.89754L10.1608 5.88504L10.1553 5.87388L10.139 5.86089L10.126 5.84465L10.1149 5.83907L10.1024 5.82907L10.1008 5.82828L10.0905 5.82313L10.0806 5.8172L10.0798 5.81673C10.0707 5.81386 10.0608 5.81063 10.0501 5.80706C10.048 5.80636 10.0461 5.80578 10.0445 5.80531L10.0253 5.80228L10.0108 5.79999L9.99995 5.79995L9.98906 5.79999L9.97153 5.80275L9.95542 5.8053C9.95379 5.80577 9.95193 5.80635 9.94982 5.80706C9.9391 5.81063 9.9292 5.81385 9.92012 5.81673L9.9193 5.8172L9.90942 5.82313L9.89911 5.82828L9.89754 5.82907L9.88504 5.83907L9.87388 5.84465L9.86089 5.86089L9.84464 5.87388L9.83906 5.88504L9.82907 5.89754L9.82828 5.89912L9.82313 5.90942L9.8172 5.9193L9.81673 5.92012C9.81385 5.9292 9.81063 5.9391 9.80705 5.94982C9.80636 5.95191 9.80578 5.95377 9.80531 5.95539L9.80228 5.97461L9.79999 5.98909L9.79995 5.99995L9.79995 9.79995L5.99995 9.79995L5.98906 9.79999L5.97153 9.80275L5.95542 9.8053C5.95379 9.80577 5.95193 9.80635 5.94982 9.80705C5.93911 9.81063 5.92921 9.81385 5.92012 9.81673L5.9193 9.8172L5.90942 9.82313L5.89912 9.82828L5.89754 9.82907L5.88504 9.83906L5.87388 9.84464L5.86089 9.86089L5.84465 9.87388L5.83907 9.88504L5.82907 9.89754L5.82828 9.89912L5.82313 9.90942L5.8172 9.9193L5.81673 9.92012C5.81385 9.9292 5.81063 9.9391 5.80706 9.94982C5.80636 9.95191 5.80578 9.95377 5.80531 9.9554L5.80228 9.97461L5.79999 9.98908L5.79995 9.99995L5.79999 10.0108L5.80275 10.0284L5.8053 10.0445C5.80577 10.0461 5.80635 10.048 5.80706 10.0501C5.81063 10.0608 5.81385 10.0707 5.81673 10.0798L5.8172 10.0806L5.82313 10.0905L5.82828 10.1008L5.82907 10.1024L5.83907 10.1149L5.84465 10.126L5.86089 10.139L5.87388 10.1553L5.88504 10.1608L5.89754 10.1708L5.89912 10.1716L5.90942 10.1768L5.9193 10.1827L5.92012 10.1832C5.92921 10.1861 5.93911 10.1893 5.94982 10.1929C5.95191 10.1935 5.95377 10.1941 5.95539 10.1946L5.97461 10.1976L5.98909 10.1999L5.99995 10.2L9.79995 10.2L9.79995 14L9.79999 14.0108L9.80275 14.0284L9.8053 14.0445C9.80577 14.0461 9.80635 14.048 9.80706 14.0501C9.81062 14.0608 9.81384 14.0707 9.81673 14.0798L9.8172 14.0806L9.82313 14.0905L9.82828 14.1008L9.82907 14.1024L9.83906 14.1149L9.84464 14.126L9.86089 14.139L9.87388 14.1553L9.88504 14.1608L9.89754 14.1708L9.89911 14.1716L9.90942 14.1768L9.9193 14.1827L9.92012 14.1832C9.9292 14.1861 9.9391 14.1893 9.94982 14.1929C9.95191 14.1935 9.95377 14.1941 9.95539 14.1946L9.97462 14.1976L9.98908 14.1999L9.99995 14.2L10.0109 14.1999L10.0284 14.1972L10.0445 14.1946C10.0461 14.1941 10.048 14.1936 10.0501 14.1929C10.0608 14.1893 10.0707 14.1861 10.0798 14.1832L10.0806 14.1827L10.0905 14.1768L10.1008 14.1716L10.1024 14.1708L10.1149 14.1608L10.126 14.1553L10.139 14.139L10.1553 14.126L10.1608 14.1149L10.1708 14.1024L10.1716 14.1008L10.1768 14.0905L10.1827 14.0806L10.1832 14.0798C10.1861 14.0707 10.1893 14.0608 10.1929 14.0501C10.1935 14.048 10.1941 14.0461 10.1946 14.0445L10.1976 14.0253L10.1999 14.0108L10.2 14L10.2 10.2L14 10.2L14.0108 10.1999L14.0284 10.1972L14.0445 10.1946C14.0461 10.1941 14.048 10.1935 14.0501 10.1928C14.0608 10.1893 14.0707 10.1861 14.0798 10.1832L14.0806 10.1827L14.0905 10.1768L14.1008 10.1716L14.1024 10.1708L14.1149 10.1608L14.126 10.1553L14.139 10.139L14.1553 10.126L14.1608 10.1149L14.1708 10.1024L14.1716 10.1008L14.1768 10.0905L14.1827 10.0806L14.1832 10.0798Z" fill-rule="evenodd"  fill="#FFFFFF" >
</path>
</svg>
