<svg xmlns="http://www.w3.org/2000/svg" xmlns:xlink="http://www.w3.org/1999/xlink" width="22" height="22" viewBox="0 0 22 22" fill="none">
<path d="M11.3728 4.88889L19.1 4.88889C19.5971 4.88889 20 5.31174 20 5.83333L20 19.0556C20 19.5772 19.5971 20 19.1 20L2.9 20C2.40295 20 2 19.5772 2 19.0556L2 3.94444C2 3.42285 2.40295 3 2.9 3L9.57278 3L11.3728 4.88889ZM18.2 10.5556L3.8 10.5556L3.8 18.1111L18.2 18.1111L18.2 10.5556ZM18.2 8.66667L18.2 6.77778L10.6272 6.77778L8.82721 4.88889L3.8 4.88889L3.8 8.66667L18.2 8.66667Z"   fill="#000000" >
</path>
</svg>
