<svg xmlns="http://www.w3.org/2000/svg" xmlns:xlink="http://www.w3.org/1999/xlink" width="22" height="22" viewBox="0 0 22 22" fill="none">
<path d="M0.916504 16.5002L0.916504 5.50016C0.916504 5.00356 1.01281 4.52784 1.20542 4.073C1.39114 3.63445 1.65302 3.24614 1.99108 2.90808C2.32915 2.57002 2.71745 2.30813 3.15601 2.12241C3.61085 1.9298 4.08657 1.8335 4.58317 1.8335L7.93359 1.8335C8.45639 1.8335 8.9563 1.94046 9.4333 2.15437C9.91061 2.36842 10.3233 2.67088 10.6714 3.06175L13.245 5.9585L16.4998 5.9585C16.9965 5.9585 17.4722 6.0548 17.927 6.24741C18.3656 6.43314 18.7539 6.69502 19.0919 7.03306C19.43 7.37112 19.6919 7.75944 19.8776 8.198C20.0702 8.65282 20.1665 9.12854 20.1665 9.62516L20.1665 9.74158C20.4052 9.93362 20.6189 10.1555 20.8083 10.4089C21.1475 10.8581 21.3675 11.3622 21.4729 11.9122C21.5875 12.4897 21.56 13.0672 21.3904 13.6356L20.2491 17.5314C20.1346 17.9164 19.965 18.2739 19.7358 18.6039C19.5112 18.9247 19.2408 19.2043 18.9246 19.4381C18.6129 19.6718 18.2691 19.8506 17.8979 19.9743C17.5221 20.1027 17.1325 20.1668 16.7291 20.1668L4.58317 20.1668C4.08656 20.1668 3.61084 20.0705 3.15601 19.8779C2.71745 19.6922 2.32914 19.4303 1.99108 19.0923C1.65302 18.7542 1.39113 18.3659 1.20542 17.9273C1.01281 17.4725 0.916504 16.9967 0.916504 16.5002ZM2.74984 10.5357C2.97153 10.2142 3.23301 9.93651 3.54289 9.6985C3.85914 9.45558 4.20747 9.26766 4.58331 9.13933C4.96831 9.00641 5.36706 8.93766 5.77497 8.93766L17.8704 8.93766C17.9834 8.93766 18.0951 8.94243 18.2054 8.95205C18.2002 8.93898 18.1949 8.92593 18.1894 8.91291C18.0965 8.69361 17.9653 8.49913 17.7955 8.32945C17.6259 8.15975 17.4314 8.02847 17.2121 7.93561C16.9857 7.83976 16.7483 7.79183 16.4998 7.79183L12.8332 7.79183C12.7684 7.79183 12.7044 7.78505 12.6411 7.77148C12.5778 7.75791 12.5166 7.73787 12.4575 7.71135C12.3985 7.68479 12.3429 7.65236 12.2907 7.61404C12.2385 7.57573 12.1909 7.53237 12.1479 7.48397L9.3024 4.28108C9.12823 4.08552 8.92181 3.93423 8.68315 3.8272C8.44472 3.72029 8.19487 3.66683 7.93359 3.66683L4.58317 3.66683C4.33469 3.66683 4.09727 3.71476 3.87092 3.81061C3.65162 3.90347 3.45713 4.03475 3.28744 4.20444C3.11776 4.37412 2.98648 4.56861 2.89362 4.78791C2.79777 5.01426 2.74984 5.25168 2.74984 5.50016L2.74984 6.87516L2.74984 10.5357ZM19.6762 12.2606C19.6212 11.9856 19.5112 11.7335 19.3416 11.5043C19.1675 11.2797 18.9612 11.101 18.7091 10.9727C18.4525 10.8397 18.1683 10.771 17.8704 10.771L5.77497 10.771C5.56872 10.771 5.37164 10.8031 5.17914 10.8718C4.99122 10.936 4.82164 11.0277 4.66122 11.1514C4.50081 11.2706 4.36789 11.4172 4.25789 11.5822C4.14331 11.7518 4.06081 11.9352 4.00581 12.1322L2.96081 16.0281C2.88747 16.3122 2.87831 16.5964 2.93789 16.876C2.99289 17.1464 3.10747 17.3939 3.27706 17.6185C3.44664 17.8385 3.65747 18.0127 3.90497 18.1364C4.16164 18.2693 4.43664 18.3335 4.72997 18.3335L16.7291 18.3335C16.9308 18.3335 17.1233 18.3014 17.3158 18.2372C17.4991 18.1731 17.6733 18.086 17.8291 17.9668C17.985 17.8522 18.1225 17.7102 18.2325 17.5543C18.3471 17.3893 18.4341 17.2106 18.4891 17.0181L19.6304 13.1222C19.7175 12.8335 19.7312 12.5447 19.6762 12.2606Z" fill-rule="evenodd"  fill="#000000" >
</path>
</svg>
