<svg xmlns="http://www.w3.org/2000/svg" xmlns:xlink="http://www.w3.org/1999/xlink" width="44" height="44" viewBox="0 0 44 44" fill="none">
<path     fill="#E6B927" fill-opacity="0.1" d="M28 0C33.6 0 36.4 0 38.54 1.09Q39.2412 1.44729 39.8779 1.90988Q40.5146 2.37246 41.0711 2.92894Q41.6275 3.48543 42.0901 4.12211Q42.5527 4.75879 42.91 5.46C44 7.6 44 10.4 44 16L44 28C44 33.6 44 36.4 42.91 38.54Q42.5527 39.2412 42.0901 39.8779Q41.6275 40.5146 41.0711 41.0711Q40.5146 41.6275 39.8779 42.0901Q39.2412 42.5527 38.54 42.91C36.4 44 33.6 44 28 44L16 44C10.4 44 7.6 44 5.46 42.91Q4.75879 42.5527 4.12211 42.0901Q3.48543 41.6275 2.92894 41.0711Q2.37246 40.5146 1.90988 39.8779Q1.44729 39.2412 1.09 38.54C0 36.4 0 33.6 0 28L0 16C0 10.4 0 7.6 1.09 5.46Q1.44729 4.75879 1.90988 4.12211Q2.37246 3.48543 2.92894 2.92894Q3.48543 2.37246 4.12211 1.90988Q4.75879 1.44729 5.46 1.09C7.6 0 10.4 0 16 0L28 0Z">
</path>
<path d="M33.6667 20.8333L33.6667 31.3333C33.6667 31.9777 33.1444 32.5 32.5 32.5L11.5 32.5C10.8557 32.5 10.3334 31.9777 10.3334 31.3333L10.3334 20.8333L33.6667 20.8333ZM33.6667 18.5L10.3334 18.5L10.3334 12.6667C10.3334 12.0223 10.8557 11.5 11.5 11.5L20.1499 11.5L22.4833 13.8333L32.5 13.8333C33.1444 13.8333 33.6667 14.3557 33.6667 15L33.6667 18.5Z"   fill="#E6B927" >
</path>
</svg>
