<svg xmlns="http://www.w3.org/2000/svg" xmlns:xlink="http://www.w3.org/1999/xlink" width="20" height="20" viewBox="0 0 20 20" fill="none">
<path d="M5.83366 3.33341L5.83366 16.6667L14.167 16.6667L14.167 3.33341L5.83366 3.33341ZM5.00033 1.66675L15.0003 1.66675C15.4606 1.66675 15.8337 2.03985 15.8337 2.50008L15.8337 17.5001C15.8337 17.9603 15.4606 18.3334 15.0003 18.3334L5.00033 18.3334C4.54009 18.3334 4.16699 17.9603 4.16699 17.5001L4.16699 2.50008C4.16699 2.03985 4.54009 1.66675 5.00033 1.66675ZM10.0003 14.1667C10.4606 14.1667 10.8337 14.5398 10.8337 15.0001C10.8337 15.4603 10.4606 15.8334 10.0003 15.8334C9.54008 15.8334 9.16699 15.4603 9.16699 15.0001C9.16699 14.5398 9.54008 14.1667 10.0003 14.1667Z"   fill="#007AFF" >
</path>
</svg>
