<svg xmlns="http://www.w3.org/2000/svg" xmlns:xlink="http://www.w3.org/1999/xlink" width="44" height="44" viewBox="0 0 44 44" fill="none">
<path     fill="#309EF2"  d="M5.17476 12.25L38.8252 12.25C40.0263 12.25 41 13.2237 41 14.4248L41 36.7379C41 38.5395 39.5395 40 37.7379 40L6.26214 40C4.46051 40 3 38.5395 3 36.7379L3 14.4248C3 13.2237 3.97367 12.25 5.17476 12.25Z">
</path>
<path     fill="#77C8F7"  d="M7.5 4L15.5777 4C16.9813 4 18.3405 4.4921 19.4188 5.39067L24.1891 9.36589C24.5483 9.66527 24.3366 10.25 23.869 10.25L5 10.25C4.72386 10.25 4.5 10.0261 4.5 9.75L4.5 7C4.5 5.34315 5.84315 4 7.5 4Z">
</path>
</svg>
