<svg xmlns="http://www.w3.org/2000/svg" xmlns:xlink="http://www.w3.org/1999/xlink" width="18" height="18" viewBox="0 0 18 18" fill="none">
<path d="M10.8 1.34961C11.4711 1.34961 11.9268 1.35951 12.1671 1.3793C12.5863 1.41385 12.9326 1.50106 13.206 1.64095C13.7145 1.90095 14.0987 2.28519 14.3587 2.79365C14.4986 3.067 14.5858 3.41327 14.6203 3.83248C14.6401 4.07274 14.65 4.52845 14.65 5.19961L14.65 12.7996C14.65 13.4707 14.6401 13.9264 14.6203 14.1667C14.5858 14.5859 14.4986 14.9322 14.3587 15.2057C14.0987 15.7141 13.7144 16.0983 13.2059 16.3583C12.9326 16.4982 12.5863 16.5854 12.1671 16.6199C11.9268 16.6397 11.4711 16.6496 10.8 16.6496L7.19998 16.6496C6.52882 16.6496 6.07311 16.6397 5.83285 16.6199C5.41365 16.5854 5.06734 16.4982 4.79392 16.3583C4.28552 16.0983 3.9013 15.7141 3.64126 15.2056C3.50141 14.9322 3.41421 14.5859 3.37967 14.1667C3.35987 13.9264 3.34998 13.4707 3.34998 12.7996L3.34998 5.19961C3.34998 4.52846 3.35987 4.07275 3.37967 3.83248C3.41421 3.41328 3.50143 3.06697 3.64131 2.79355C3.90132 2.28515 4.28555 1.90093 4.79402 1.6409C5.06737 1.50104 5.41365 1.41385 5.83285 1.3793C6.07311 1.35951 6.52882 1.34961 7.19998 1.34961L10.8 1.34961ZM10.8 2.64961L7.19998 2.64961C6.56446 2.64961 6.14434 2.65804 5.93961 2.67491C5.69131 2.69537 5.50675 2.73651 5.38594 2.79832C5.12691 2.93079 4.93114 3.12658 4.79864 3.38567C4.73686 3.50642 4.69574 3.69094 4.67528 3.93924C4.65841 4.14397 4.64998 4.5641 4.64998 5.19961L4.64998 12.7996C4.64998 13.4351 4.65841 13.8553 4.67528 14.06C4.69574 14.3083 4.73688 14.4928 4.79869 14.6136C4.93116 14.8727 5.12695 15.0684 5.38604 15.2009C5.50679 15.2627 5.69132 15.3038 5.93961 15.3243C6.14433 15.3412 6.56446 15.3496 7.19998 15.3496L10.8 15.3496C11.4355 15.3496 11.8556 15.3412 12.0603 15.3243C12.3086 15.3038 12.4932 15.2627 12.614 15.2009C12.873 15.0684 13.0688 14.8726 13.2013 14.6135C13.2631 14.4928 13.3042 14.3083 13.3247 14.06C13.3415 13.8553 13.35 13.4351 13.35 12.7996L13.35 5.19961C13.35 4.5641 13.3415 4.14398 13.3247 3.93924C13.3042 3.69094 13.2631 3.50638 13.2013 3.38557C13.0688 3.12654 12.873 2.93078 12.6139 2.79827C12.4932 2.73649 12.3086 2.69537 12.0603 2.67491C11.8556 2.65804 11.4355 2.64961 10.8 2.64961ZM7.99998 14.5994C7.66861 14.5994 7.39998 14.3308 7.39998 13.9994C7.39998 13.668 7.66861 13.3994 7.99998 13.3994L9.99998 13.3994C10.3313 13.3994 10.6 13.668 10.6 13.9994C10.6 14.3308 10.3313 14.5994 9.99998 14.5994L7.99998 14.5994Z" fill-rule="evenodd"  fill="#007AFF" >
</path>
</svg>
