<svg xmlns="http://www.w3.org/2000/svg" xmlns:xlink="http://www.w3.org/1999/xlink" width="44" height="44" viewBox="0 0 44 44" fill="none">
<path     fill="#0D9E86"  d="M9.5 3L27 3L27.5 3.5L27.5 8L32.25 12.5L37 12.5L37.5 13L37.5 38.5C37.5 40.1569 36.1569 41.5 34.5 41.5L9.5 41.5C7.84315 41.5 6.5 40.1569 6.5 38.5L6.5 6C6.5 4.34315 7.84315 3 9.5 3Z">
</path>
<path     fill="#51C5AA"  d="M27.2031 3L27 3L27 3C27.1601 3.16007 27.25 3.37718 27.25 3.60355L27.25 9.75C27.25 11.4069 28.5931 12.75 30.25 12.75L36.8964 12.75C37.1228 12.75 37.3399 12.8399 37.5 13L37.5 13L37.5 12.8603C37.5 12.3111 37.2742 11.7861 36.8755 11.4084L28.5785 3.54809C28.2071 3.19615 27.7148 3 27.2031 3Z">
</path>
<path d="M33.5 33L33.5 35.9546C33.5 36.532 33.032 37 32.4546 37L27.5 37L27.5 33L33.5 33ZM33.5 31L33.5 27L27.5 27L27.5 31L33.5 31ZM33.5 25L33.5 22.0455C33.5 21.4681 33.032 21 32.4546 21L27.5 21L27.5 25L33.5 25ZM25.5 21L18.5 21L18.5 25L25.5 25L25.5 21ZM16.5 21L11.5455 21C10.9681 21 10.5 21.4681 10.5 22.0455L10.5 25L16.5 25L16.5 21ZM10.5 27L10.5 31L16.5 31L16.5 27L10.5 27ZM10.5 33L16.5 33L16.5 37L11.5455 37C10.9681 37 10.5 36.532 10.5 35.9546L10.5 33ZM18.5 37L18.5 33L25.5 33L25.5 37L18.5 37ZM18.5 31L18.5 27L25.5 27L25.5 31L18.5 31Z" fill-rule="evenodd"  fill="#FFFFFF" >
</path>
</svg>
