<svg xmlns="http://www.w3.org/2000/svg" xmlns:xlink="http://www.w3.org/1999/xlink" width="44" height="44" viewBox="0 0 44 44" fill="none">
<path     fill="#43CF7C" opacity="0.1" d="M34.4 0C37.76 0 39.44 0 40.72 0.65Q41.1403 0.86431 41.522 1.14169Q41.9037 1.41907 42.2373 1.75269Q42.5709 2.08632 42.8483 2.46799Q43.1257 2.84966 43.34 3.27C44 4.56 44 6.24 44 9.6L44 34.4C44 37.76 44 39.44 43.35 40.72Q43.1357 41.1403 42.8583 41.522Q42.5809 41.9037 42.2473 42.2373Q41.9137 42.5709 41.532 42.8483Q41.1503 43.1257 40.73 43.34C39.44 44 37.76 44 34.4 44L9.6 44C6.24 44 4.56 44 3.28 43.35Q2.85966 43.1357 2.47799 42.8583Q2.09632 42.5809 1.76269 42.2473Q1.42907 41.9137 1.15169 41.532Q0.87431 41.1503 0.66 40.73C0 39.44 0 37.76 0 34.4L0 9.6C0 6.24 0 4.56 0.65 3.28Q0.86431 2.85966 1.14169 2.47799Q1.41906 2.09632 1.75269 1.76269Q2.08632 1.42906 2.46799 1.15169Q2.84966 0.87431 3.27 0.66C4.56 0 6.24 0 9.6 0L34.4 0Z">
</path>
<path d="M26.6667 10.3333L32.5 16.1667L32.5 32.5096C32.5 33.1487 31.9809 33.6667 31.341 33.6667L12.659 33.6667C12.0189 33.6667 11.5 33.1355 11.5 32.5096L11.5 11.4904C11.5 10.8514 12.0191 10.3333 12.659 10.3333L26.6667 10.3333ZM23.4 22L26.6667 17.3333L23.8667 17.3333L22 20L20.1333 17.3333L17.3333 17.3333L20.6 22L17.3333 26.6667L20.1333 26.6667L22 24L23.8667 26.6667L26.6667 26.6667L23.4 22Z"   fill="#43CF7C" >
</path>
</svg>
