<svg xmlns="http://www.w3.org/2000/svg" xmlns:xlink="http://www.w3.org/1999/xlink" width="22" height="22" viewBox="0 0 22 22" fill="none"><g opacity="1"  transform="translate(0 0)"><mask id="bg-mask-0" fill="white"><use transform="translate(0 0)" xlink:href="#path_0"></use></mask><g mask="url(#bg-mask-0)" ><path id="路径 1" fill-rule="evenodd" style="fill:#FFFFFF" opacity="1" d="M3.66683 4.58333L3.66683 17.4167L18.3335 17.4167L18.3335 6.41667L10.6205 6.41667L8.78714 4.58333L3.66683 4.58333ZM11.3798 4.58333L19.2502 4.58333C19.7564 4.58333 20.1668 4.99374 20.1668 5.5L20.1668 18.3333C20.1668 18.8396 19.7564 19.25 19.2502 19.25L2.75016 19.25C2.24391 19.25 1.8335 18.8396 1.8335 18.3333L1.8335 3.66667C1.8335 3.16041 2.24391 2.75 2.75016 2.75L9.54651 2.75L11.3798 4.58333Z"></path></g></g><defs><rect id="path_0" x="0" y="0" width="22" height="22" rx="0" ry="0"/></defs></svg>