<svg xmlns="http://www.w3.org/2000/svg" xmlns:xlink="http://www.w3.org/1999/xlink" width="22" height="22" viewBox="0 0 22 22" fill="none">
<path d="M8.25 1.83629L8.25 1.83337L18.3313 1.83337C18.8387 1.83337 19.25 2.25074 19.25 2.74252L19.25 19.2576C19.25 19.7597 18.8422 20.1667 18.3394 20.1667L3.66062 20.1667C3.1577 20.1667 2.75 19.7543 2.75 19.2438L2.75 7.33337L8.25 1.83629ZM5.34342 7.33337L8.25 7.33337L8.25 4.42833L5.34342 7.33337ZM10.0833 3.66671L10.0833 8.25004C10.0833 8.7563 9.67294 9.16671 9.16667 9.16671L4.58333 9.16671L4.58333 18.3334L17.4167 18.3334L17.4167 3.66671L10.0833 3.66671Z"   fill="#000000" >
</path>
</svg>
