<svg xmlns="http://www.w3.org/2000/svg" xmlns:xlink="http://www.w3.org/1999/xlink" width="24" height="24" viewBox="0 0 24 24" fill="none">
<path d="M8.305 1.52C8.335 1.515 8.37 1.51 8.4 1.505C8.435 1.5 8.465 1.5 8.5 1.5C8.535 1.5 8.565 1.5 8.6 1.505C8.63 1.51 8.665 1.515 8.695 1.52C8.725 1.525 8.76 1.535 8.79 1.545C8.82 1.555 8.85 1.565 8.885 1.575C8.915 1.59 8.945 1.605 8.97 1.62C9 1.635 9.03 1.65 9.055 1.67C9.085 1.685 9.11 1.705 9.135 1.725C9.16 1.75 9.185 1.77 9.205 1.795C9.23 1.815 9.25 1.84 9.275 1.865C9.295 1.89 9.315 1.915 9.33 1.945C9.35 1.97 9.365 2 9.38 2.03C9.395 2.055 9.41 2.085 9.425 2.115C9.435 2.15 9.445 2.18 9.455 2.21C9.465 2.24 9.475 2.275 9.48 2.305C9.485 2.335 9.49 2.37 9.495 2.4C9.5 2.435 9.5 2.465 9.5 2.5L9.5 6.5001L19.5 6.5001C19.905 6.5001 20.295 6.5801 20.67 6.7351C21.025 6.8901 21.345 7.1001 21.62 7.3801C21.9 7.6551 22.11 7.9751 22.265 8.3301C22.42 8.7051 22.5 9.0951 22.5 9.5001L22.5 14.5001C22.5 14.9051 22.42 15.2951 22.265 15.6701C22.11 16.0251 21.9 16.3451 21.62 16.6201C21.345 16.9001 21.025 17.1101 20.67 17.2651C20.295 17.4201 19.905 17.5001 19.5 17.5001L9.5 17.5001L9.5 21.5C9.5 21.535 9.5 21.565 9.495 21.6C9.49 21.63 9.485 21.665 9.48 21.695C9.475 21.725 9.465 21.76 9.455 21.79C9.445 21.82 9.435 21.85 9.425 21.885C9.41 21.915 9.395 21.945 9.38 21.97C9.365 22 9.35 22.03 9.33 22.055C9.315 22.085 9.295 22.11 9.275 22.135C9.25 22.16 9.23 22.185 9.205 22.205C9.185 22.23 9.16 22.25 9.135 22.275C9.11 22.295 9.085 22.315 9.055 22.33C9.03 22.35 9 22.365 8.97 22.38C8.945 22.395 8.915 22.41 8.885 22.425C8.85 22.435 8.82 22.445 8.79 22.455C8.76 22.465 8.725 22.475 8.695 22.48C8.665 22.485 8.63 22.49 8.6 22.495C8.565 22.5 8.535 22.5 8.5 22.5C8.465 22.5 8.435 22.5 8.4 22.495C8.37 22.49 8.335 22.485 8.305 22.48C8.275 22.475 8.24 22.465 8.21 22.455C8.18 22.445 8.15 22.435 8.115 22.425C8.085 22.41 8.055 22.395 8.03 22.38C8 22.365 7.97 22.35 7.945 22.33C7.915 22.315 7.89 22.295 7.865 22.275C7.84 22.25 7.815 22.23 7.795 22.205C7.77 22.185 7.75 22.16 7.725 22.135C7.705 22.11 7.685 22.085 7.67 22.055C7.65 22.03 7.635 22 7.62 21.97C7.605 21.945 7.59 21.915 7.575 21.885C7.565 21.85 7.555 21.82 7.545 21.79C7.535 21.76 7.525 21.725 7.52 21.695C7.515 21.665 7.51 21.63 7.505 21.6C7.5 21.565 7.5 21.535 7.5 21.5L7.5 2.5C7.5 2.465 7.5 2.435 7.505 2.4C7.51 2.37 7.515 2.335 7.52 2.305C7.525 2.275 7.535 2.24 7.545 2.21C7.555 2.18 7.565 2.15 7.575 2.115C7.59 2.085 7.605 2.055 7.62 2.03C7.635 2 7.65 1.97 7.67 1.945C7.685 1.915 7.705 1.89 7.725 1.865C7.75 1.84 7.77 1.815 7.795 1.795C7.815 1.77 7.84 1.75 7.865 1.725C7.89 1.705 7.915 1.685 7.945 1.67C7.97 1.65 8 1.635 8.03 1.62C8.055 1.605 8.085 1.59 8.115 1.575C8.15 1.565 8.18 1.555 8.21 1.545C8.24 1.535 8.275 1.525 8.305 1.52ZM6.5 8.5L6.5 6.5L4.5 6.5C4.095 6.5 3.705 6.58 3.33 6.735C2.975 6.89 2.655 7.1 2.38 7.38C2.1 7.655 1.89 7.975 1.735 8.33C1.58 8.705 1.5 9.095 1.5 9.5L1.5 14.5C1.5 14.905 1.58 15.295 1.735 15.67C1.89 16.025 2.1 16.345 2.38 16.62C2.655 16.9 2.975 17.11 3.33 17.265C3.705 17.42 4.095 17.5 4.5 17.5L6.5 17.5L6.5 15.5L4.5 15.5C4.365 15.5 4.235 15.475 4.11 15.42C3.99 15.37 3.885 15.3 3.795 15.205C3.7 15.115 3.63 15.01 3.58 14.89C3.525 14.765 3.5 14.635 3.5 14.5L3.5 9.5C3.5 9.365 3.525 9.235 3.58 9.11C3.63 8.99 3.7 8.885 3.795 8.795C3.885 8.7 3.99 8.63 4.11 8.58C4.235 8.525 4.365 8.5 4.5 8.5L6.5 8.5ZM9.5 15.5001L9.5 8.5001L19.5 8.5001C19.635 8.5001 19.765 8.5251 19.89 8.5801C20.01 8.6301 20.115 8.7001 20.205 8.7951C20.3 8.8851 20.37 8.9901 20.42 9.1101C20.475 9.2351 20.5 9.3651 20.5 9.5001L20.5 14.5001C20.5 14.6351 20.475 14.7651 20.42 14.8901C20.37 15.0101 20.3 15.1151 20.205 15.2051C20.115 15.3001 20.01 15.3701 19.89 15.4201C19.765 15.4751 19.635 15.5001 19.5 15.5001L9.5 15.5001Z" fill-rule="evenodd"  fill="#000000" >
</path>
</svg>
