<svg xmlns="http://www.w3.org/2000/svg" xmlns:xlink="http://www.w3.org/1999/xlink" width="22" height="22" viewBox="0 0 22 22" fill="none">
<path d="M18.778 7.79167L18.7916 7.79167L18.7916 16.9583C18.7916 17.455 18.6953 17.9307 18.5027 18.3855C18.3169 18.8241 18.0551 19.2124 17.717 19.5504C17.379 19.8885 16.9906 20.1504 16.5521 20.3361C16.0973 20.5287 15.6215 20.625 15.1249 20.625L6.87492 20.625C6.37831 20.625 5.90259 20.5287 5.44776 20.3361C5.0092 20.1504 4.62089 19.8885 4.28283 19.5504C3.94477 19.2124 3.68288 18.8241 3.49717 18.3855C3.30456 17.9307 3.20825 17.455 3.20825 16.9583L3.20825 5.04167C3.20825 4.54506 3.30456 4.06934 3.49717 3.61451C3.68288 3.17595 3.94477 2.78764 4.28283 2.44958C4.62089 2.11152 5.0092 1.84963 5.44776 1.66392C5.90259 1.47131 6.37831 1.375 6.87492 1.375L12.6041 1.375L12.6041 1.39402C12.8637 1.42472 13.1159 1.49258 13.3607 1.59761C13.7072 1.74619 14.009 1.956 14.2663 2.22703L18.0276 6.16703C18.2723 6.42204 18.4607 6.71368 18.5929 7.04192C18.6908 7.28496 18.7525 7.53488 18.778 7.79167ZM5.57919 3.74594C5.4095 3.91563 5.27823 4.11012 5.18536 4.32941C5.08951 4.55577 5.04158 4.79319 5.04158 5.04167L5.04158 16.9583C5.04158 17.2068 5.08951 17.4442 5.18537 17.6706C5.27823 17.8899 5.4095 18.0844 5.57919 18.254C5.74888 18.4237 5.94337 18.555 6.16266 18.6479C6.38902 18.7437 6.62643 18.7917 6.87492 18.7917L15.1249 18.7917C15.3734 18.7917 15.6108 18.7437 15.8372 18.6479C16.0565 18.555 16.2509 18.4237 16.4206 18.254C16.5903 18.0844 16.7216 17.8899 16.8145 17.6706C16.9103 17.4442 16.9583 17.2068 16.9583 16.9583L16.9583 9.625L14.4374 9.625C13.9408 9.625 13.4651 9.52869 13.0103 9.33607C12.6265 9.17357 12.2812 8.95276 11.9745 8.67364C11.9306 8.63376 11.8876 8.5927 11.8453 8.55044C11.5284 8.23348 11.2784 7.87238 11.0954 7.46712C11.0832 7.44011 11.0713 7.4129 11.0597 7.38549C10.8791 6.95909 10.7832 6.51432 10.7719 6.0512C10.7711 6.02032 10.7708 5.98937 10.7708 5.95833L10.7708 3.20833L6.87492 3.20833C6.62643 3.20833 6.38902 3.25626 6.16266 3.35212C5.94337 3.44498 5.74888 3.57625 5.57919 3.74594ZM13.1417 7.25404C13.3114 7.42375 13.5059 7.55503 13.7252 7.64789C13.9515 7.74374 14.1889 7.79167 14.4374 7.79167L16.9157 7.79167C16.9087 7.76985 16.9009 7.7482 16.8923 7.72672C16.8483 7.61764 16.7858 7.52084 16.7047 7.43632L12.9402 3.49297C12.8539 3.40202 12.7531 3.33186 12.638 3.28249C12.6268 3.27765 12.6155 3.27305 12.6041 3.26869L12.6041 5.95833C12.6041 6.20682 12.652 6.44424 12.7479 6.67059C12.8407 6.88988 12.972 7.08437 13.1417 7.25404Z" fill-rule="evenodd"  fill="#000000" >
</path>
</svg>
