<svg xmlns="http://www.w3.org/2000/svg" xmlns:xlink="http://www.w3.org/1999/xlink" width="20" height="20" viewBox="0 0 20 20" fill="none">
<path     fill="#007AFF"  d="M0 10Q0 9.75451 0.0120454 9.50932Q0.0240909 9.26413 0.0481527 9.01983Q0.0722146 8.77552 0.108235 8.53269Q0.144255 8.28987 0.192147 8.0491Q0.240039 7.80833 0.299687 7.5702Q0.359336 7.33207 0.430597 7.09715Q0.501857 6.86224 0.584559 6.6311Q0.667261 6.39996 0.761205 6.17317Q0.855148 5.94637 0.960107 5.72445Q1.06507 5.50253 1.18079 5.28603Q1.29651 5.06953 1.42271 4.85897Q1.54892 4.64841 1.6853 4.4443Q1.82169 4.24018 1.96792 4.04301Q2.11416 3.84583 2.2699 3.65607Q2.42563 3.4663 2.59049 3.28441Q2.75535 3.10252 2.92893 2.92893Q3.10252 2.75535 3.28441 2.59049Q3.4663 2.42563 3.65607 2.2699Q3.84583 2.11416 4.04301 1.96792Q4.24018 1.82169 4.4443 1.6853Q4.64841 1.54892 4.85897 1.42271Q5.06953 1.29651 5.28603 1.18079Q5.50253 1.06507 5.72445 0.960107Q5.94637 0.855148 6.17316 0.761205Q6.39996 0.667261 6.6311 0.584559Q6.86224 0.501857 7.09715 0.430597Q7.33207 0.359336 7.5702 0.299687Q7.80833 0.240039 8.0491 0.192147Q8.28987 0.144255 8.53269 0.108235Q8.77552 0.0722146 9.01983 0.0481527Q9.26413 0.0240909 9.50932 0.0120454Q9.75451 0 10 0Q10.2455 0 10.4907 0.0120454Q10.7359 0.0240909 10.9802 0.0481527Q11.2245 0.0722146 11.4673 0.108235Q11.7101 0.144255 11.9509 0.192147Q12.1917 0.240039 12.4298 0.299687Q12.6679 0.359336 12.9028 0.430597Q13.1378 0.501857 13.3689 0.584559Q13.6 0.667261 13.8268 0.761205Q14.0536 0.855148 14.2755 0.960107Q14.4975 1.06507 14.714 1.18079Q14.9305 1.29651 15.141 1.42271Q15.3516 1.54892 15.5557 1.6853Q15.7598 1.82169 15.957 1.96792Q16.1542 2.11416 16.3439 2.2699Q16.5337 2.42563 16.7156 2.59049Q16.8975 2.75535 17.0711 2.92893Q17.2447 3.10252 17.4095 3.28441Q17.5744 3.4663 17.7301 3.65607Q17.8858 3.84583 18.0321 4.04301Q18.1783 4.24018 18.3147 4.4443Q18.4511 4.64841 18.5773 4.85897Q18.7035 5.06953 18.8192 5.28603Q18.9349 5.50253 19.0399 5.72445Q19.1449 5.94637 19.2388 6.17316Q19.3327 6.39996 19.4154 6.6311Q19.4981 6.86224 19.5694 7.09715Q19.6407 7.33207 19.7003 7.5702Q19.76 7.80833 19.8079 8.0491Q19.8557 8.28987 19.8918 8.53269Q19.9278 8.77552 19.9518 9.01983Q19.9759 9.26413 19.988 9.50932Q20 9.75451 20 10Q20 10.2455 19.988 10.4907Q19.9759 10.7359 19.9518 10.9802Q19.9278 11.2245 19.8918 11.4673Q19.8557 11.7101 19.8079 11.9509Q19.76 12.1917 19.7003 12.4298Q19.6407 12.6679 19.5694 12.9028Q19.4981 13.1378 19.4154 13.3689Q19.3327 13.6 19.2388 13.8268Q19.1449 14.0536 19.0399 14.2755Q18.9349 14.4975 18.8192 14.714Q18.7035 14.9305 18.5773 15.141Q18.4511 15.3516 18.3147 15.5557Q18.1783 15.7598 18.0321 15.957Q17.8858 16.1542 17.7301 16.3439Q17.5744 16.5337 17.4095 16.7156Q17.2447 16.8975 17.0711 17.0711Q16.8975 17.2447 16.7156 17.4095Q16.5337 17.5744 16.3439 17.7301Q16.1542 17.8858 15.957 18.0321Q15.7598 18.1783 15.5557 18.3147Q15.3516 18.4511 15.141 18.5773Q14.9305 18.7035 14.714 18.8192Q14.4975 18.9349 14.2755 19.0399Q14.0536 19.1449 13.8268 19.2388Q13.6 19.3327 13.3689 19.4154Q13.1378 19.4981 12.9028 19.5694Q12.6679 19.6407 12.4298 19.7003Q12.1917 19.76 11.9509 19.8079Q11.7101 19.8557 11.4673 19.8918Q11.2245 19.9278 10.9802 19.9518Q10.7359 19.9759 10.4907 19.988Q10.2455 20 10 20Q9.75451 20 9.50932 19.988Q9.26413 19.9759 9.01983 19.9518Q8.77552 19.9278 8.53269 19.8918Q8.28987 19.8557 8.0491 19.8079Q7.80833 19.76 7.5702 19.7003Q7.33207 19.6407 7.09715 19.5694Q6.86224 19.4981 6.6311 19.4154Q6.39996 19.3327 6.17317 19.2388Q5.94637 19.1449 5.72445 19.0399Q5.50253 18.9349 5.28603 18.8192Q5.06953 18.7035 4.85897 18.5773Q4.64841 18.4511 4.4443 18.3147Q4.24018 18.1783 4.04301 18.0321Q3.84583 17.8858 3.65607 17.7301Q3.4663 17.5744 3.28441 17.4095Q3.10252 17.2447 2.92893 17.0711Q2.75535 16.8975 2.59049 16.7156Q2.42563 16.5337 2.2699 16.3439Q2.11416 16.1542 1.96792 15.957Q1.82169 15.7598 1.6853 15.5557Q1.54892 15.3516 1.42271 15.141Q1.29651 14.9305 1.18079 14.714Q1.06507 14.4975 0.960107 14.2755Q0.855148 14.0536 0.761205 13.8268Q0.667261 13.6 0.584559 13.3689Q0.501857 13.1378 0.430597 12.9028Q0.359336 12.6679 0.299687 12.4298Q0.240039 12.1917 0.192147 11.9509Q0.144255 11.7101 0.108235 11.4673Q0.0722146 11.2245 0.0481527 10.9802Q0.0240909 10.7359 0.0120454 10.4907Q0 10.2455 0 10Z">
</path>
<path d="M9 14.0789C9 13.5711 9.44857 13.1579 10 13.1579C10.5514 13.1579 11 13.5711 11 14.0789C11 14.5868 10.5514 15 10 15C9.44857 15 9 14.5868 9 14.0789ZM10.166 5.02368C10.1831 5.02895 10.2003 5.03421 10.2203 5.03947C10.2374 5.04737 10.2546 5.05526 10.2689 5.06316C10.286 5.07105 10.3031 5.07895 10.3174 5.08947C10.3346 5.09737 10.3489 5.10789 10.3631 5.11842C10.3774 5.13158 10.3917 5.14211 10.4031 5.15526C10.4174 5.16579 10.4289 5.17895 10.4431 5.19211C10.4546 5.20526 10.466 5.21842 10.4746 5.23421C10.486 5.24737 10.4946 5.26316 10.5031 5.27895C10.5117 5.29211 10.5203 5.30789 10.5289 5.32368C10.5346 5.34211 10.5403 5.35789 10.546 5.37368C10.5517 5.38947 10.5574 5.40789 10.5603 5.42368C10.5631 5.43947 10.566 5.45789 10.5689 5.47368C10.5717 5.49211 10.5717 5.50789 10.5717 5.52632L10.5717 11.5789C10.5717 11.5974 10.5717 11.6132 10.5689 11.6316C10.566 11.6474 10.5631 11.6658 10.5603 11.6816C10.5574 11.6974 10.5517 11.7158 10.546 11.7316C10.5403 11.7474 10.5346 11.7632 10.5289 11.7816C10.5203 11.7974 10.5117 11.8132 10.5031 11.8263C10.4946 11.8421 10.486 11.8579 10.4746 11.8711C10.466 11.8868 10.4546 11.9 10.4431 11.9132C10.4289 11.9263 10.4174 11.9395 10.4031 11.95C10.3917 11.9632 10.3774 11.9737 10.3631 11.9868C10.3489 11.9974 10.3346 12.0079 10.3174 12.0158C10.3031 12.0263 10.286 12.0342 10.2689 12.0421C10.2546 12.05 10.2374 12.0579 10.2203 12.0658C10.2003 12.0711 10.1831 12.0763 10.166 12.0816C10.1489 12.0868 10.1289 12.0921 10.1117 12.0947C10.0946 12.0974 10.0746 12.1 10.0574 12.1026C10.0374 12.1053 10.0203 12.1053 10.0003 12.1053C9.98029 12.1053 9.96314 12.1053 9.94314 12.1026C9.926 12.1 9.906 12.0974 9.88886 12.0947C9.87171 12.0921 9.85171 12.0868 9.83457 12.0816C9.81743 12.0763 9.80029 12.0711 9.78029 12.0658C9.76314 12.0579 9.746 12.05 9.73171 12.0421C9.71457 12.0342 9.69743 12.0263 9.68314 12.0158C9.666 12.0079 9.65171 11.9974 9.63743 11.9868C9.62314 11.9737 9.60886 11.9632 9.59743 11.95C9.58314 11.9395 9.57171 11.9263 9.55743 11.9132C9.546 11.9 9.53457 11.8868 9.526 11.8711C9.51457 11.8579 9.506 11.8421 9.49743 11.8263C9.48886 11.8132 9.48029 11.7974 9.47171 11.7816C9.466 11.7632 9.46029 11.7474 9.45457 11.7316C9.44886 11.7158 9.44314 11.6974 9.44029 11.6816C9.43743 11.6658 9.43457 11.6474 9.43171 11.6316C9.42886 11.6132 9.42886 11.5974 9.42886 11.5789L9.42886 5.52632C9.42886 5.50789 9.42886 5.49211 9.43171 5.47368C9.43457 5.45789 9.43743 5.43947 9.44029 5.42368C9.44314 5.40789 9.44886 5.38947 9.45457 5.37368C9.46029 5.35789 9.466 5.34211 9.47171 5.32368C9.48029 5.30789 9.48886 5.29211 9.49743 5.27895C9.506 5.26316 9.51457 5.24737 9.526 5.23421C9.53457 5.21842 9.546 5.20526 9.55743 5.19211C9.57171 5.17895 9.58314 5.16579 9.59743 5.15526C9.60886 5.14211 9.62314 5.13158 9.63743 5.11842C9.65171 5.10789 9.666 5.09737 9.68314 5.08947C9.69743 5.07895 9.71457 5.07105 9.73171 5.06316C9.746 5.05526 9.76314 5.04737 9.78029 5.03947C9.80029 5.03421 9.81743 5.02895 9.83457 5.02368C9.85171 5.01842 9.87171 5.01316 9.88886 5.01053C9.906 5.00789 9.926 5.00526 9.94314 5.00263C9.96314 5 9.98029 5 10.0003 5C10.0203 5 10.0374 5 10.0574 5.00263C10.0746 5.00526 10.0946 5.00789 10.1117 5.01053C10.1289 5.01316 10.1489 5.01842 10.166 5.02368Z" fill-rule="evenodd"  fill="#FFFFFF" >
</path>
</svg>
