<svg xmlns="http://www.w3.org/2000/svg" xmlns:xlink="http://www.w3.org/1999/xlink" width="22" height="22" viewBox="0 0 22 22" fill="none">
<path d="M16.4999 20.1667L5.49992 20.1667C5.00492 20.1667 4.52825 20.0705 4.0745 19.878C3.6345 19.69 3.24492 19.4288 2.90575 19.0942C2.57117 18.755 2.30992 18.3655 2.122 17.9255C1.9295 17.4717 1.83325 16.995 1.83325 16.5L1.83325 5.50004C1.83325 5.00504 1.9295 4.52837 2.122 4.07462C2.30992 3.63462 2.57117 3.24504 2.90575 2.90587C3.24492 2.57129 3.6345 2.31004 4.0745 2.12212C4.52825 1.92962 5.00492 1.83337 5.49992 1.83337L16.4999 1.83337C16.9949 1.83337 17.4716 1.92962 17.9253 2.12212C18.3653 2.31004 18.7549 2.57129 19.0941 2.90587C19.4287 3.24504 19.6899 3.63462 19.8778 4.07462C20.0703 4.52837 20.1666 5.00504 20.1666 5.50004L20.1666 16.5C20.1666 16.995 20.0703 17.4717 19.8778 17.9255C19.6899 18.3655 19.4287 18.755 19.0941 19.0942C18.7549 19.4288 18.3653 19.69 17.9253 19.878C17.4716 20.0705 16.9949 20.1667 16.4999 20.1667ZM17.797 17.7971C17.6274 17.9667 17.4303 18.095 17.2103 18.1913C16.9858 18.2875 16.7474 18.3334 16.4999 18.3334L5.49992 18.3334C5.25242 18.3334 5.01408 18.2875 4.7895 18.1913C4.5695 18.095 4.37242 17.9667 4.20284 17.7971C4.03325 17.6275 3.90492 17.4305 3.80867 17.2105C3.71242 16.9859 3.66658 16.7475 3.66658 16.5L3.66658 15.0985C3.8191 14.9865 3.98577 14.8831 4.1616 14.7859C4.86743 14.4009 5.61909 14.2084 6.41658 14.2084C6.81533 14.2084 7.20034 14.3138 7.57159 14.52C7.73659 14.6117 7.91533 14.7355 8.11242 14.8867C8.23617 14.983 8.42867 15.1434 8.68534 15.3634C8.96492 15.6017 9.17575 15.7805 9.327 15.895C9.59283 16.1013 9.8495 16.2755 10.0924 16.413C10.7433 16.775 11.4262 16.9584 12.1458 16.9584C12.8103 16.9584 13.4291 16.8759 14.002 16.7063C14.4787 16.5688 14.9095 16.3763 15.2991 16.1288C15.5878 15.9455 15.8399 15.7438 16.0599 15.5192C16.1791 15.3955 16.2753 15.2809 16.3441 15.1755C16.3945 15.1021 16.4358 15.0196 16.4587 14.9325C16.4862 14.8455 16.4999 14.7584 16.4999 14.6667C16.4999 14.6346 16.4999 14.6071 16.4953 14.575C16.4907 14.5475 16.4862 14.5155 16.4816 14.488C16.477 14.4605 16.4678 14.4284 16.4587 14.4009C16.4495 14.3734 16.4403 14.3459 16.4312 14.3138C16.4174 14.2863 16.4037 14.2588 16.3899 14.2359C16.3762 14.2084 16.3624 14.1809 16.3441 14.158C16.3303 14.1305 16.312 14.1075 16.2937 14.0846C16.2708 14.0617 16.2524 14.0388 16.2295 14.0205C16.2112 13.9975 16.1883 13.9792 16.1653 13.9563C16.1424 13.938 16.1195 13.9196 16.092 13.9059C16.0691 13.8875 16.0416 13.8738 16.0141 13.86C15.9866 13.8463 15.9637 13.8325 15.9362 13.8188C15.9041 13.8096 15.8766 13.8005 15.8491 13.7913C15.8216 13.7821 15.7895 13.773 15.762 13.7684C15.7345 13.7638 15.7024 13.7592 15.6749 13.7546C15.6428 13.75 15.6153 13.75 15.5833 13.75C15.5099 13.75 15.4366 13.7592 15.3633 13.7775C15.2945 13.7959 15.2258 13.8188 15.157 13.8555C15.0928 13.8875 15.0333 13.9288 14.9783 13.9792C14.9233 14.0296 14.8728 14.0846 14.8316 14.1442L14.8224 14.1534C14.7995 14.1809 14.7766 14.2084 14.7445 14.2405C14.6253 14.3642 14.4878 14.4742 14.3183 14.5796C14.0753 14.7355 13.8003 14.8546 13.4887 14.9463C13.0853 15.0655 12.6362 15.125 12.1458 15.125C11.747 15.125 11.362 15.0196 10.9908 14.8134C10.8258 14.7217 10.647 14.598 10.4499 14.4467C10.3262 14.3505 10.1337 14.19 9.877 13.97C9.59742 13.7317 9.38659 13.553 9.23533 13.4384C8.9695 13.2321 8.71283 13.058 8.46992 12.9205C7.81909 12.5584 7.13617 12.375 6.41658 12.375C5.80702 12.375 5.2066 12.4575 4.62452 12.6271C4.29431 12.721 3.97554 12.84 3.66658 12.9826L3.66658 5.50004C3.66658 5.25254 3.71242 5.01421 3.80867 4.78962C3.90492 4.56962 4.03325 4.37254 4.20284 4.20296C4.37242 4.03337 4.5695 3.90504 4.7895 3.80879C5.01408 3.71254 5.25242 3.66671 5.49992 3.66671L16.4999 3.66671C16.7474 3.66671 16.9858 3.71254 17.2103 3.80879C17.4303 3.90504 17.6274 4.03337 17.797 4.20296C17.9666 4.37254 18.0949 4.56962 18.1912 4.78962C18.2874 5.01421 18.3333 5.25254 18.3333 5.50004L18.3333 16.5C18.3333 16.7475 18.2874 16.9859 18.1912 17.2105C18.0949 17.4305 17.9666 17.6275 17.797 17.7971ZM8.70825 5.95837C8.337 5.95837 7.9795 6.03171 7.63575 6.17379C7.31034 6.31587 7.017 6.50837 6.76492 6.76504C6.50825 7.01712 6.31575 7.31046 6.17367 7.63587C6.03158 7.97962 5.95825 8.33712 5.95825 8.70837C5.95825 9.07962 6.03158 9.43712 6.17367 9.78087C6.31575 10.1063 6.50825 10.3996 6.76492 10.6517C7.017 10.9084 7.31034 11.1009 7.63575 11.243C7.9795 11.385 8.337 11.4584 8.70825 11.4584C9.0795 11.4584 9.437 11.385 9.78075 11.243C10.1062 11.1009 10.3995 10.9084 10.6516 10.6517C10.9083 10.3996 11.1008 10.1063 11.2428 9.78087C11.3849 9.43712 11.4583 9.07962 11.4583 8.70837C11.4583 8.33712 11.3849 7.97962 11.2428 7.63587C11.1008 7.31046 10.9083 7.01712 10.6516 6.76504C10.3995 6.50837 10.1062 6.31587 9.78075 6.17379C9.437 6.03171 9.0795 5.95837 8.70825 5.95837ZM8.062 8.06212C7.97492 8.14462 7.91075 8.24087 7.86492 8.35087C7.8145 8.46546 7.79158 8.58462 7.79158 8.70837C7.79158 8.83212 7.8145 8.95129 7.86492 9.06587C7.91075 9.17587 7.97492 9.27212 8.062 9.35462C8.1445 9.44171 8.24075 9.50587 8.35075 9.55171C8.46533 9.60212 8.5845 9.62504 8.70825 9.62504C8.832 9.62504 8.95117 9.60212 9.06575 9.55171C9.17575 9.50587 9.272 9.44171 9.3545 9.35462C9.44158 9.27212 9.50575 9.17587 9.55158 9.06587C9.602 8.95129 9.62492 8.83212 9.62492 8.70837C9.62492 8.58462 9.602 8.46546 9.55158 8.35087C9.50575 8.24087 9.44158 8.14462 9.3545 8.06212C9.272 7.97504 9.17575 7.91087 9.06575 7.86504C8.95117 7.81462 8.832 7.79171 8.70825 7.79171C8.5845 7.79171 8.46533 7.81462 8.35075 7.86504C8.24075 7.91087 8.1445 7.97504 8.062 8.06212Z" fill-rule="evenodd"  fill="#000000" >
</path>
</svg>
