<svg xmlns="http://www.w3.org/2000/svg" xmlns:xlink="http://www.w3.org/1999/xlink" width="20" height="20" viewBox="0 0 20 20" fill="none"><g opacity="1"  transform="translate(0 0)"><mask id="bg-mask-0" fill="white"><use transform="translate(0 0)" xlink:href="#path_0"></use></mask><g mask="url(#bg-mask-0)" ><path id="路径 1" fill-rule="evenodd" style="fill:#000000" opacity="1" d="M12.5 6.66663L12.5 3.33329L4.16667 3.33329L4.16667 16.6666L15.8333 16.6666L15.8333 6.66663L12.5 6.66663ZM2.5 2.49313C2.5 2.03667 2.87291 1.66663 3.33208 1.66663L13.3333 1.66663L17.4998 5.83329L17.5 17.4937C17.5 17.9574 17.1292 18.3333 16.6722 18.3333L3.32783 18.3333C2.87063 18.3333 2.5 17.9539 2.5 17.5068L2.5 2.49313ZM9.16667 7.91663C9.16667 8.60696 8.607 9.16663 7.91667 9.16663C7.22631 9.16663 6.66667 8.60696 6.66667 7.91663C6.66667 7.22627 7.22631 6.66663 7.91667 6.66663C8.607 6.66663 9.16667 7.22627 9.16667 7.91663ZM14.5833 14.1666L11.25 8.33329L6.66667 14.1666L14.5833 14.1666Z"></path></g></g><defs><rect id="path_0" x="0" y="0" width="20" height="20" rx="0" ry="0"/></defs></svg>