<svg xmlns="http://www.w3.org/2000/svg" xmlns:xlink="http://www.w3.org/1999/xlink" width="24" height="24" viewBox="0 0 24 24" fill="none">
<path d="M1 18L1 6C1 5.45825 1.10506 4.93928 1.31518 4.4431C1.51778 3.96467 1.80348 3.54106 2.17227 3.17227C2.54106 2.80348 2.96467 2.51778 3.4431 2.31518C3.93928 2.10506 4.45825 2 5 2L8.655 2C9.22533 2 9.77068 2.11668 10.291 2.35005C10.8118 2.58356 11.262 2.91351 11.6418 3.33991L14.4493 6.5L18 6.5C18.5418 6.5 19.0607 6.60506 19.5569 6.81518C20.0353 7.01779 20.459 7.30348 20.8277 7.67225C21.1965 8.04105 21.4822 8.46467 21.6848 8.9431C21.8949 9.43927 22 9.95823 22 10.5L22 10.627C22.2605 10.8365 22.4935 11.0786 22.7001 11.355C23.0702 11.845 23.3102 12.395 23.4251 12.995C23.5501 13.625 23.5201 14.255 23.3351 14.875L22.0902 19.125C21.9652 19.545 21.7801 19.935 21.5301 20.295C21.2852 20.645 20.9902 20.95 20.6451 21.205C20.3051 21.46 19.9301 21.655 19.5252 21.79C19.1152 21.93 18.6901 22 18.2502 22L5 22C4.45825 22 3.93928 21.8949 3.4431 21.6848C2.96467 21.4822 2.54106 21.1965 2.17227 20.8277C1.80348 20.459 1.51778 20.0353 1.31518 19.5569C1.10506 19.0607 1 18.5417 1 18ZM3 11.4933C3.24184 11.1426 3.5271 10.8397 3.86515 10.58C4.21015 10.315 4.59015 10.11 5.00015 9.97C5.42015 9.825 5.85515 9.75 6.30015 9.75L19.4951 9.75C19.6184 9.75 19.7402 9.7552 19.8606 9.7657C19.855 9.75143 19.8491 9.7372 19.8431 9.723C19.7418 9.48377 19.5986 9.2716 19.4135 9.0865C19.2284 8.90137 19.0162 8.75815 18.777 8.65685C18.5301 8.55228 18.2711 8.5 18 8.5L14 8.5C13.9294 8.5 13.8595 8.4926 13.7905 8.4778C13.7214 8.463 13.6546 8.44113 13.5902 8.4122C13.5258 8.38323 13.4651 8.34785 13.4082 8.30605C13.3513 8.26425 13.2993 8.21695 13.2524 8.16415L10.1482 4.67009C9.95825 4.45676 9.73307 4.29171 9.4727 4.17495C9.2126 4.05832 8.94003 4 8.655 4L5 4C4.72893 4 4.46993 4.05228 4.22299 4.15685C3.98376 4.25816 3.77159 4.40137 3.58648 4.58648C3.40137 4.77159 3.25816 4.98376 3.15686 5.22299C3.05228 5.46992 3 5.72893 3 6L3 7.5L3 11.4933ZM21.4652 13.375C21.4051 13.075 21.2852 12.8 21.1001 12.55C20.9102 12.305 20.6852 12.11 20.4102 11.97C20.1301 11.825 19.8202 11.75 19.4951 11.75L6.30015 11.75C6.07515 11.75 5.86015 11.785 5.65015 11.86C5.44515 11.93 5.26015 12.03 5.08515 12.165C4.91015 12.295 4.76515 12.455 4.64515 12.635C4.52015 12.82 4.43015 13.02 4.37015 13.235L3.23015 17.485C3.15015 17.795 3.14015 18.105 3.20515 18.41C3.26515 18.705 3.39015 18.975 3.57515 19.22C3.76015 19.46 3.99015 19.65 4.26015 19.785C4.54015 19.93 4.84015 20 5.16015 20L18.2502 20C18.4701 20 18.6801 19.965 18.8902 19.895C19.0902 19.825 19.2801 19.73 19.4501 19.6C19.6201 19.475 19.7701 19.32 19.8902 19.15C20.0152 18.97 20.1101 18.775 20.1702 18.565L21.4151 14.315C21.5102 14 21.5252 13.685 21.4652 13.375Z" fill-rule="evenodd"  fill="#000000" >
</path>
</svg>
