<svg xmlns="http://www.w3.org/2000/svg" xmlns:xlink="http://www.w3.org/1999/xlink" width="24" height="24" viewBox="0 0 24 24" fill="none">
<path d="M17.105 7.58C17.135 7.57 17.17 7.555 17.2 7.545C17.23 7.535 17.26 7.53 17.295 7.52C17.325 7.515 17.36 7.51 17.39 7.505C17.425 7.5 17.455 7.5 17.49 7.5C17.52 7.5 17.555 7.5 17.585 7.505C17.62 7.505 17.65 7.51 17.685 7.515C17.715 7.525 17.75 7.53 17.78 7.54L17.87 7.57C17.905 7.585 17.93 7.6 17.96 7.615C17.99 7.63 18.02 7.645 18.045 7.66C18.075 7.68 18.1 7.7 18.125 7.72C18.15 7.74 18.175 7.76 18.2 7.785C18.225 7.81 18.245 7.83 18.265 7.855C18.285 7.88 18.305 7.91 18.325 7.935C18.345 7.96 18.36 7.99 18.375 8.02C18.39 8.045 18.405 8.075 18.42 8.105C18.43 8.135 18.445 8.17 18.455 8.2C18.465 8.23 18.47 8.26 18.48 8.295C18.485 8.325 18.49 8.36 18.495 8.39C18.5 8.425 18.5 8.455 18.5 8.49C18.5 8.52 18.5 8.555 18.495 8.585C18.495 8.62 18.49 8.65 18.485 8.685C18.475 8.715 18.47 8.75 18.46 8.78L18.43 8.87C18.415 8.905 18.4 8.93 18.385 8.96C18.37 8.99 18.355 9.02 18.34 9.045C18.32 9.075 18.3 9.1 18.28 9.125C18.26 9.15 18.24 9.175 18.215 9.2L12.31 15.235C12.03 15.52 11.7 15.745 11.33 15.9C10.955 16.055 10.57 16.135 10.165 16.135C9.76 16.135 9.375 16.055 9 15.9C8.63 15.745 8.3 15.525 8.02 15.235L5.785 12.95C5.76 12.925 5.74 12.9 5.72 12.875C5.7 12.85 5.68 12.825 5.66 12.795C5.645 12.77 5.63 12.74 5.615 12.71C5.6 12.68 5.585 12.655 5.57 12.62L5.54 12.53C5.53 12.5 5.525 12.465 5.515 12.435C5.51 12.4 5.505 12.37 5.505 12.335C5.5 12.305 5.5 12.27 5.5 12.24C5.5 12.205 5.5 12.175 5.505 12.14C5.51 12.11 5.515 12.075 5.52 12.045C5.53 12.01 5.535 11.98 5.545 11.95C5.555 11.92 5.57 11.885 5.58 11.855C5.595 11.825 5.61 11.795 5.625 11.77C5.64 11.74 5.655 11.71 5.675 11.685C5.695 11.66 5.715 11.63 5.735 11.605C5.755 11.58 5.775 11.56 5.8 11.535C5.825 11.51 5.85 11.49 5.875 11.47C5.9 11.45 5.925 11.43 5.955 11.41C5.98 11.395 6.01 11.38 6.04 11.365C6.07 11.35 6.095 11.335 6.13 11.32L6.22 11.29C6.25 11.28 6.285 11.275 6.315 11.265C6.35 11.26 6.38 11.255 6.415 11.255C6.445 11.25 6.48 11.25 6.51 11.25C6.545 11.25 6.575 11.25 6.61 11.255C6.64 11.26 6.675 11.265 6.705 11.27C6.74 11.28 6.77 11.285 6.8 11.295C6.83 11.305 6.865 11.32 6.895 11.33C6.925 11.345 6.95 11.36 6.98 11.375C7.01 11.39 7.04 11.405 7.065 11.425C7.09 11.445 7.12 11.465 7.145 11.485C7.17 11.505 7.19 11.525 7.215 11.55L9.45 13.835C9.545 13.93 9.65 14.005 9.775 14.055C9.9 14.11 10.03 14.135 10.165 14.135C10.3 14.135 10.43 14.11 10.555 14.055C10.68 14.005 10.785 13.93 10.88 13.835L16.785 7.8C16.81 7.775 16.83 7.755 16.855 7.735C16.88 7.715 16.91 7.695 16.935 7.675C16.96 7.655 16.99 7.64 17.02 7.625C17.05 7.61 17.075 7.595 17.105 7.58ZM5.5 3.5L18.5 3.5C18.77 3.5 19.03 3.55 19.275 3.655C19.515 3.76 19.73 3.9 19.915 4.085C20.1 4.27 20.24 4.485 20.345 4.725C20.45 4.97 20.5 5.23 20.5 5.5L20.5 18.5C20.5 18.77 20.45 19.03 20.345 19.275C20.24 19.515 20.1 19.73 19.915 19.915C19.73 20.1 19.515 20.24 19.275 20.345C19.03 20.45 18.77 20.5 18.5 20.5L5.5 20.5C5.23 20.5 4.97 20.45 4.725 20.345C4.485 20.24 4.27 20.1 4.085 19.915C3.9 19.73 3.76 19.515 3.655 19.275C3.55 19.03 3.5 18.77 3.5 18.5L3.5 5.5C3.5 5.23 3.55 4.97 3.655 4.725C3.76 4.485 3.9 4.27 4.085 4.085C4.27 3.9 4.485 3.76 4.725 3.655C4.97 3.55 5.23 3.5 5.5 3.5ZM1.815 3.945C2.02 3.465 2.305 3.04 2.67 2.67C3.04 2.305 3.465 2.02 3.945 1.815C4.44 1.605 4.96 1.5 5.5 1.5L18.5 1.5C19.04 1.5 19.56 1.605 20.055 1.815C20.535 2.02 20.96 2.305 21.33 2.67C21.695 3.04 21.98 3.465 22.185 3.945C22.395 4.44 22.5 4.96 22.5 5.5L22.5 18.5C22.5 19.04 22.395 19.56 22.185 20.055C21.98 20.535 21.695 20.96 21.33 21.33C20.96 21.695 20.535 21.98 20.055 22.185C19.56 22.395 19.04 22.5 18.5 22.5L5.5 22.5C4.96 22.5 4.44 22.395 3.945 22.185C3.465 21.98 3.04 21.695 2.67 21.33C2.305 20.96 2.02 20.535 1.815 20.055C1.605 19.56 1.5 19.04 1.5 18.5L1.5 5.5C1.5 4.96 1.605 4.44 1.815 3.945Z" fill-rule="evenodd"  fill="#000000" >
</path>
</svg>
