<svg xmlns="http://www.w3.org/2000/svg" xmlns:xlink="http://www.w3.org/1999/xlink" width="44" height="44" viewBox="0 0 44 44" fill="none">
<path     fill="#0081FA" fill-opacity="0.1" d="M31.2 0C35.68 0 37.92 0 39.63 0.87Q40.1917 1.15597 40.7018 1.52638Q41.2118 1.89679 41.6575 2.3425Q42.1032 2.78822 42.4736 3.29824Q42.844 3.80826 43.13 4.37C44 6.08 44 8.32 44 12.8L44 31.2C44 35.68 44 37.92 43.13 39.63Q42.844 40.1917 42.4736 40.7018Q42.1032 41.2118 41.6575 41.6575Q41.2118 42.1032 40.7018 42.4736Q40.1917 42.844 39.63 43.13C37.92 44 35.68 44 31.2 44L12.8 44C8.32 44 6.08 44 4.37 43.13Q3.80826 42.844 3.29824 42.4736Q2.78822 42.1032 2.3425 41.6575Q1.89679 41.2118 1.52638 40.7018Q1.15597 40.1917 0.87 39.63C0 37.92 0 35.68 0 31.2L0 12.8C0 8.32 0 6.08 0.87 4.37Q1.15597 3.80826 1.52638 3.29824Q1.89679 2.78822 2.3425 2.3425Q2.78822 1.89679 3.29824 1.52638Q3.80826 1.15597 4.37 0.87C6.08 0 8.32 0 12.8 0L31.2 0Z">
</path>
<path d="M26.6667 32.5L21.1112 22.3148L25.5 15L34.8334 32.5L26.6667 32.5ZM17.3334 19.6667L24.3334 32.5L10.3334 32.5L17.3334 19.6667ZM14.4167 17.3333C12.8059 17.3333 11.5 16.0275 11.5 14.4167C11.5 12.8058 12.8059 11.5 14.4167 11.5C16.0275 11.5 17.3334 12.8058 17.3334 14.4167C17.3334 16.0275 16.0275 17.3333 14.4167 17.3333Z"   fill="#0081FA" >
</path>
</svg>
