<svg xmlns="http://www.w3.org/2000/svg" xmlns:xlink="http://www.w3.org/1999/xlink" width="20" height="20" viewBox="0 0 20 20" fill="none">
<path d="M11.8 1C14.32 1 15.58 1 16.54 1.49C16.7508 1.59726 16.9519 1.72038 17.1433 1.85936C17.3347 1.99833 17.514 2.15145 17.6813 2.31871C17.8486 2.48596 18.0017 2.66529 18.1406 2.85668C18.2796 3.04808 18.4027 3.24919 18.51 3.46C19 4.42 19 5.68 19 8.2L19 11.8C19 14.32 19 15.58 18.51 16.54C18.4027 16.7508 18.2796 16.9519 18.1406 17.1433C18.0017 17.3347 17.8486 17.514 17.6813 17.6813C17.514 17.8486 17.3347 18.0017 17.1433 18.1406C16.9519 18.2796 16.7508 18.4027 16.54 18.51C15.58 19 14.32 19 11.8 19L8.2 19C5.68 19 4.42 19 3.46 18.51C3.24919 18.4027 3.04808 18.2796 2.85668 18.1406C2.66529 18.0017 2.48596 17.8486 2.31871 17.6813C2.15146 17.514 1.99834 17.3347 1.85936 17.1433C1.72038 16.9519 1.59726 16.7508 1.49 16.54C1 15.58 1 14.32 1 11.8L1 8.2C1 5.68 1 4.42 1.49 3.46C1.59726 3.24919 1.72038 3.04808 1.85936 2.85668C1.99833 2.66529 2.15145 2.48596 2.31871 2.31871C2.48596 2.15145 2.66529 1.99833 2.85668 1.85936C3.04808 1.72038 3.24919 1.59726 3.46 1.49C4.42 1 5.68 1 8.2 1L11.8 1ZM11.8 2.7L8.2 2.7C6.7762 2.7 5.83732 2.71854 5.38337 2.75561C4.85674 2.79862 4.4726 2.8818 4.23093 3.00515C3.68932 3.28072 3.28039 3.68996 3.00416 4.23285C2.88147 4.47324 2.79862 4.85674 2.75561 5.38337C2.71854 5.83732 2.7 6.7762 2.7 8.2L2.7 11.8C2.7 13.2238 2.71854 14.1627 2.75561 14.6166C2.79862 15.1433 2.8818 15.5274 3.00515 15.7691C3.28072 16.3107 3.68996 16.7196 4.23285 16.9958C4.47324 17.1185 4.85674 17.2014 5.38337 17.2444C5.83732 17.2815 6.7762 17.3 8.2 17.3L11.8 17.3C13.2238 17.3 14.1627 17.2815 14.6166 17.2444C15.1433 17.2014 15.5274 17.1182 15.7691 16.9949C16.3107 16.7193 16.7196 16.31 16.9958 15.7671C17.1185 15.5268 17.2014 15.1433 17.2444 14.6166C17.2815 14.1627 17.3 13.2238 17.3 11.8L17.3 8.2C17.3 6.7762 17.2815 5.83732 17.2444 5.38337C17.2014 4.85674 17.1182 4.4726 16.9949 4.23093C16.7193 3.68932 16.31 3.28039 15.7671 3.00416C15.5268 2.88147 15.1433 2.79862 14.6166 2.75561C14.1627 2.71854 13.2238 2.7 11.8 2.7ZM9.15 6C9.15 5.53056 9.53056 5.15 10 5.15C10.4694 5.15 10.85 5.53056 10.85 6L10.85 9.15L14 9.15C14.4694 9.15 14.85 9.53056 14.85 10C14.85 10.4694 14.4694 10.85 14 10.85L10.85 10.85L10.85 14C10.85 14.4694 10.4694 14.85 10 14.85C9.53056 14.85 9.15 14.4694 9.15 14L9.15 10.85L6 10.85C5.53056 10.85 5.15 10.4694 5.15 10C5.15 9.53056 5.53056 9.15 6 9.15L9.15 9.15L9.15 6Z" fill-rule="evenodd"  fill="#000000" >
</path>
</svg>
