<svg xmlns="http://www.w3.org/2000/svg" xmlns:xlink="http://www.w3.org/1999/xlink" width="44" height="44" viewBox="0 0 44 44" fill="none">
<path     fill="#7948EA" fill-opacity="0.1" d="M31.2 0C35.68 0 37.92 0 39.63 0.87Q40.1917 1.15597 40.7018 1.52638Q41.2118 1.89679 41.6575 2.3425Q42.1032 2.78822 42.4736 3.29824Q42.844 3.80826 43.13 4.37C44 6.08 44 8.32 44 12.8L44 31.2C44 35.68 44 37.92 43.13 39.63Q42.844 40.1917 42.4736 40.7018Q42.1032 41.2118 41.6575 41.6575Q41.2118 42.1032 40.7018 42.4736Q40.1917 42.844 39.63 43.13C37.92 44 35.68 44 31.2 44L12.8 44C8.32 44 6.08 44 4.37 43.13Q3.80826 42.844 3.29824 42.4736Q2.78822 42.1032 2.3425 41.6575Q1.89679 41.2118 1.52638 40.7018Q1.15597 40.1917 0.87 39.63C0 37.92 0 35.68 0 31.2L0 12.8C0 8.32 0 6.08 0.87 4.37Q1.15597 3.80826 1.52638 3.29824Q1.89679 2.78822 2.3425 2.3425Q2.78822 1.89679 3.29824 1.52638Q3.80826 1.15597 4.37 0.87C6.08 0 8.32 0 12.8 0L31.2 0Z">
</path>
<path d="M11.5 12.659C11.5 12.0189 12.0191 11.5 12.659 11.5L31.341 11.5C31.9811 11.5 32.5 12.0191 32.5 12.659L32.5 31.341C32.5 31.9811 31.9809 32.5 31.341 32.5L12.659 32.5C12.0189 32.5 11.5 31.9809 11.5 31.341L11.5 12.659ZM20.3922 17.817C20.3156 17.7659 20.2255 17.7386 20.1333 17.7386C19.8756 17.7386 19.6667 17.9476 19.6667 18.2053L19.6667 25.7947C19.6667 25.8869 19.694 25.9769 19.7451 26.0536C19.888 26.268 20.1778 26.326 20.3922 26.183L26.0843 22.3883C26.1355 22.3541 26.1795 22.3101 26.2136 22.2589C26.3567 22.0444 26.2987 21.7547 26.0843 21.6117L20.3922 17.817Z"   fill="#7948EA" >
</path>
</svg>
