<svg xmlns="http://www.w3.org/2000/svg" xmlns:xlink="http://www.w3.org/1999/xlink" width="20" height="20" viewBox="0 0 20 20" fill="none">
<path d="M10.0001 15C10.5953 15 11.142 15.208 11.5713 15.5554L10.0001 17.5L8.42879 15.5554C8.85813 15.208 9.40475 15 10.0001 15ZM2.33976 1.16113L17.0711 15.8925L15.8926 17.071L11.5761 12.7535C11.0806 12.589 10.5508 12.5 10.0001 12.5C8.80996 12.5 7.71691 12.9158 6.85836 13.6101L5.8114 12.3132C6.87472 11.4535 8.20775 10.914 9.66367 10.8416L7.50025 8.67827C6.29398 9.01944 5.1888 9.60138 4.23988 10.3688L3.19253 9.07227C4.08293 8.35211 5.08974 7.77026 6.18032 7.35926L4.27644 5.45419C3.32403 5.90755 2.43386 6.47054 1.62226 7.12684L0.574585 5.83056C1.33636 5.2145 2.15968 4.67152 3.03386 4.21227L1.16125 2.33965L2.33976 1.16113ZM12.0837 8.57111L10.1804 6.66863L10 6.66661C12.5789 6.66661 14.9474 7.56778 16.8078 9.07236L15.7603 10.3688C14.7032 9.51388 13.4523 8.88927 12.0837 8.57111ZM10.0001 2.49997C13.5708 2.49997 16.85 3.7476 19.4258 5.8307L18.3778 7.12684C16.0884 5.27546 13.1738 4.16663 10.0001 4.16663C9.26834 4.16663 8.55038 4.22558 7.85067 4.33898L6.43717 2.92567C7.57919 2.64746 8.77238 2.49997 10.0001 2.49997Z"   fill="#FF3B30" >
</path>
</svg>
