<svg xmlns="http://www.w3.org/2000/svg" xmlns:xlink="http://www.w3.org/1999/xlink" width="18" height="18" viewBox="0 0 18 18" fill="none">
<path d="M12.9817 3.83712L15.1163 1.70254L15.12 1.69879C15.255 1.56004 15.4425 1.47754 15.6488 1.47754C16.0613 1.47754 16.3988 1.81504 16.3988 2.22754C16.3988 2.43379 16.3163 2.62129 16.1775 2.75629L14.3315 4.6029C14.3328 4.60385 14.3342 4.6048 14.3356 4.60575L13.2496 5.69179C13.2482 5.69093 13.2468 5.69006 13.2455 5.6892L11.9364 6.99866C11.9378 6.99934 11.9392 7.00001 11.9407 7.00069L10.7862 8.15516C10.7847 8.15464 10.7832 8.15415 10.7817 8.15366L9.18128 9.75458C9.18304 9.75465 9.18476 9.75473 9.18653 9.75484L6.6318 12.3096C6.63071 12.3091 6.62959 12.3086 6.6285 12.3081L3.07129 15.8663C2.93254 16.0125 2.73754 16.1025 2.52379 16.1025C2.11129 16.1025 1.77379 15.7688 1.77379 15.3525C1.77379 15.1463 1.85629 14.9588 1.99504 14.8238L8.94349 7.87534C7.48669 7.88805 6.24547 8.39426 5.21625 9.39758C4.9725 9.63008 4.75125 9.88883 4.56 10.1663C4.42875 10.3688 4.19625 10.5001 3.9375 10.5001C3.525 10.5001 3.1875 10.1626 3.1875 9.75008C3.1875 9.58883 3.24 9.43883 3.32625 9.31883C3.57375 8.95508 3.85875 8.62133 4.17375 8.31758C5.505 7.02383 7.11375 6.37508 9 6.37508C9.45925 6.37508 9.90205 6.41353 10.3284 6.49043L11.8299 4.98895C10.9509 4.66314 10.0074 4.50008 9 4.50008C6.72375 4.50008 4.77375 5.32883 3.1575 6.99008C2.7825 7.37633 2.44125 7.80758 2.13375 8.27633C2.0025 8.48633 1.76625 8.62508 1.5 8.62508C1.0875 8.62508 0.75 8.28758 0.75 7.87508C0.75 7.72133 0.79875 7.57508 0.8775 7.45508C1.2375 6.90383 1.63875 6.40133 2.085 5.94758C3.99375 3.98258 6.3 3.00008 9 3.00008C10.4393 3.00008 11.7668 3.27928 12.9817 3.83712ZM14.4467 6.60968C14.5808 6.73238 14.7127 6.86044 14.8425 6.99383C15.2175 7.38008 15.5588 7.80758 15.8663 8.27633C15.9975 8.48633 16.2337 8.62508 16.5 8.62508C16.9125 8.62508 17.25 8.28758 17.25 7.87508C17.25 7.72133 17.2013 7.57508 17.1225 7.45508C16.7625 6.90383 16.3612 6.40133 15.915 5.94383C15.7817 5.80684 15.6464 5.67461 15.5092 5.54715L14.4467 6.60968ZM12.1769 8.87951C12.3868 9.0333 12.5891 9.20471 12.7837 9.39383C13.0275 9.63008 13.2487 9.88883 13.44 10.1663C13.5712 10.3688 13.8038 10.5001 14.0625 10.5001C14.475 10.5001 14.8125 10.1626 14.8125 9.75008C14.8125 9.58883 14.76 9.43883 14.6737 9.31883C14.4263 8.95508 14.1412 8.62133 13.8263 8.32133C13.6383 8.13815 13.4448 7.9679 13.2458 7.81058L12.1769 8.87951ZM9.67245 11.3839C9.87045 11.4696 10.0513 11.5964 10.215 11.7638C10.2975 11.8501 10.3687 11.9363 10.4288 12.0263C10.56 12.2363 10.7963 12.3751 11.0625 12.3751C11.475 12.3751 11.8125 12.0376 11.8125 11.6251C11.8125 11.4713 11.7638 11.3251 11.685 11.2051C11.5763 11.0401 11.4412 10.8751 11.2875 10.7138C11.1259 10.5484 10.9551 10.4042 10.7752 10.2812L9.67245 11.3839ZM9 13.1251C8.4825 13.1251 8.0625 13.5451 8.0625 14.0626C8.0625 14.5801 8.4825 15.0001 9 15.0001C9.5175 15.0001 9.9375 14.5801 9.9375 14.0626C9.9375 13.5451 9.5175 13.1251 9 13.1251Z" fill-rule="evenodd"  fill="#FF3B30" >
</path>
</svg>
