<svg xmlns="http://www.w3.org/2000/svg" xmlns:xlink="http://www.w3.org/1999/xlink" width="100" height="100" viewBox="0 0 100 100" fill="none">
<path d="M39.0625 30.2083C43.9526 30.2083 47.9167 34.1725 47.9167 39.0625L47.9167 47.9167L39.0625 47.9167C34.1725 47.9167 30.2084 43.9525 30.2084 39.0625C30.2084 34.1725 34.1725 30.2083 39.0625 30.2083ZM43.75 43.75L43.75 39.0625C43.75 36.4737 41.6514 34.375 39.0625 34.375C36.4737 34.375 34.375 36.4737 34.375 39.0625C34.375 41.6513 36.4737 43.75 39.0625 43.75L43.75 43.75ZM39.0625 52.0833L47.9167 52.0833L47.9167 60.9375C47.9167 65.8275 43.9526 69.7917 39.0625 69.7917C34.1725 69.7917 30.2084 65.8275 30.2084 60.9375C30.2084 56.0475 34.1725 52.0833 39.0625 52.0833ZM39.0625 56.25C36.4737 56.25 34.375 58.3488 34.375 60.9375C34.375 63.5263 36.4737 65.625 39.0625 65.625C41.6514 65.625 43.75 63.5263 43.75 60.9375L43.75 56.25L39.0625 56.25ZM60.9375 30.2083C65.8275 30.2083 69.7917 34.1725 69.7917 39.0625C69.7917 43.9525 65.8275 47.9167 60.9375 47.9167L52.0834 47.9167L52.0834 39.0625C52.0834 34.1725 56.0475 30.2083 60.9375 30.2083ZM60.9375 43.75C63.5263 43.75 65.625 41.6513 65.625 39.0625C65.625 36.4737 63.5263 34.375 60.9375 34.375C58.3488 34.375 56.25 36.4737 56.25 39.0625L56.25 43.75L60.9375 43.75ZM52.0834 52.0833L60.9375 52.0833C65.8275 52.0833 69.7917 56.0475 69.7917 60.9375C69.7917 65.8275 65.8275 69.7917 60.9375 69.7917C56.0475 69.7917 52.0834 65.8275 52.0834 60.9375L52.0834 52.0833ZM56.25 56.25L56.25 60.9375C56.25 63.5263 58.3488 65.625 60.9375 65.625C63.5263 65.625 65.625 63.5263 65.625 60.9375C65.625 58.3488 63.5263 56.25 60.9375 56.25L56.25 56.25Z"   fill="#007AFF" >
</path>
</svg>
