<svg xmlns="http://www.w3.org/2000/svg" xmlns:xlink="http://www.w3.org/1999/xlink" width="30" height="30" viewBox="0 0 30 30" fill="none">
<path d="M3.75 17.5L8.75 20.625L12.5 16.25L16.25 21.25L18.75 18.125L22.5 18.75L18.75 15L16.25 18.125L12.5 11.875L8.125 16.5625L3.75 12.5L3.75 3.73975C3.75 3.06914 4.30867 2.5 4.99783 2.5L17.5 2.5L17.5 10C17.5 10.6903 18.0596 11.25 18.75 11.25L26.25 11.25L26.25 26.2406C26.25 26.9389 25.694 27.5 25.0082 27.5L4.99175 27.5C4.30619 27.5 3.75 26.945 3.75 26.2603L3.75 17.5ZM26.25 8.75L20 8.75L20 2.50398L26.25 8.75Z"   fill="#FF3B30" >
</path>
</svg>
