<svg xmlns="http://www.w3.org/2000/svg" xmlns:xlink="http://www.w3.org/1999/xlink" width="33.333251953125" height="33.3333740234375" viewBox="0 0 33.333251953125 33.3333740234375" fill="none"><path id="路径 1" fill-rule="evenodd" style="fill:#FFFFFF" opacity="0.8" d="M16.6667 33.3333C7.46192 33.3333 0 25.8713 0 16.6667C0 7.46192 7.46192 0 16.6667 0C25.8713 0 33.3333 7.46192 33.3333 16.6667C33.3333 25.8713 25.8713 33.3333 16.6667 33.3333ZM14.3698 10.691C14.2603 10.618 14.1317 10.579 14 10.579C13.6318 10.579 13.3333 10.8775 13.3333 11.2457L13.3333 22.0877C13.3333 22.2193 13.3723 22.348 13.4453 22.4575C13.6495 22.7638 14.0635 22.8467 14.3698 22.6423L22.5013 17.2213C22.5745 17.1725 22.6373 17.1097 22.6862 17.0365C22.8905 16.7302 22.8077 16.3162 22.5013 16.112L14.3698 10.691Z"></path></svg>