<svg xmlns="http://www.w3.org/2000/svg" xmlns:xlink="http://www.w3.org/1999/xlink" width="20" height="20" viewBox="0 0 20 20" fill="none">
<path d="M3.75 1.25L6.66667 1.25C8.04737 1.25 9.16667 2.36929 9.16667 3.75L9.16667 6.66667C9.16667 8.04737 8.04737 9.16667 6.66667 9.16667L3.75 9.16667C2.36929 9.16667 1.25 8.04737 1.25 6.66667L1.25 3.75C1.25 2.36929 2.36929 1.25 3.75 1.25ZM16.25 1.25L13.3333 1.25C11.9526 1.25 10.8333 2.36929 10.8333 3.75L10.8333 6.66667C10.8333 8.04737 11.9526 9.16667 13.3333 9.16667L16.25 9.16667C17.6307 9.16667 18.75 8.04737 18.75 6.66667L18.75 3.75C18.75 2.36929 17.6307 1.25 16.25 1.25ZM3.75 2.91667C3.28976 2.91667 2.91667 3.28976 2.91667 3.75L2.91667 6.66667C2.91667 7.12692 3.28976 7.5 3.75 7.5L6.66667 7.5C7.12692 7.5 7.5 7.12692 7.5 6.66667L7.5 3.75C7.5 3.28976 7.12692 2.91667 6.66667 2.91667L3.75 2.91667ZM12.5 3.75C12.5 3.28976 12.8731 2.91667 13.3333 2.91667L16.25 2.91667C16.7102 2.91667 17.0833 3.28976 17.0833 3.75L17.0833 6.66667C17.0833 7.12692 16.7102 7.5 16.25 7.5L13.3333 7.5C12.8731 7.5 12.5 7.12692 12.5 6.66667L12.5 3.75ZM6.66667 10.8333L3.75 10.8333C2.36929 10.8333 1.25 11.9526 1.25 13.3333L1.25 16.25C1.25 17.6307 2.36929 18.75 3.75 18.75L6.66667 18.75C8.04737 18.75 9.16667 17.6307 9.16667 16.25L9.16667 13.3333C9.16667 11.9526 8.04737 10.8333 6.66667 10.8333ZM12.0833 11.25C12.5436 11.25 12.9167 11.6231 12.9167 12.0834L12.9167 17.7084C12.9167 18.1686 12.5436 18.5417 12.0833 18.5417C11.6231 18.5417 11.25 18.1686 11.25 17.7084L11.25 12.0834C11.25 11.6231 11.6231 11.25 12.0833 11.25ZM14.7917 11.25C15.2519 11.25 15.625 11.6231 15.625 12.0834L15.625 17.7084C15.625 18.1686 15.2519 18.5417 14.7917 18.5417C14.3314 18.5417 13.9583 18.1686 13.9583 17.7084L13.9583 12.0834C13.9583 11.6231 14.3314 11.25 14.7917 11.25ZM17.9167 11.25C18.3769 11.25 18.75 11.6231 18.75 12.0834L18.75 17.7084C18.75 18.1686 18.3769 18.5417 17.9167 18.5417C17.4564 18.5417 17.0833 18.1686 17.0833 17.7084L17.0833 12.0834C17.0833 11.6231 17.4564 11.25 17.9167 11.25ZM2.91667 13.3333C2.91667 12.8731 3.28976 12.5 3.75 12.5L6.66667 12.5C7.12692 12.5 7.5 12.8731 7.5 13.3333L7.5 16.25C7.5 16.7103 7.12692 17.0833 6.66667 17.0833L3.75 17.0833C3.28976 17.0833 2.91667 16.7103 2.91667 16.25L2.91667 13.3333Z" fill-rule="evenodd"  fill="#000000" >
</path>
</svg>
