<svg xmlns="http://www.w3.org/2000/svg" xmlns:xlink="http://www.w3.org/1999/xlink" width="20" height="20" viewBox="0 0 20 20" fill="none">
<path     fill="#1ABD5B"  d="M0 10Q0 9.75451 0.0120454 9.50932Q0.0240909 9.26413 0.0481527 9.01983Q0.0722146 8.77552 0.108235 8.53269Q0.144255 8.28987 0.192147 8.0491Q0.240039 7.80833 0.299687 7.5702Q0.359336 7.33207 0.430597 7.09715Q0.501857 6.86224 0.584559 6.6311Q0.667261 6.39996 0.761205 6.17317Q0.855148 5.94637 0.960107 5.72445Q1.06507 5.50253 1.18079 5.28603Q1.29651 5.06953 1.42271 4.85897Q1.54892 4.64841 1.6853 4.4443Q1.82169 4.24018 1.96792 4.04301Q2.11416 3.84583 2.2699 3.65607Q2.42563 3.4663 2.59049 3.28441Q2.75535 3.10252 2.92893 2.92893Q3.10252 2.75535 3.28441 2.59049Q3.4663 2.42563 3.65607 2.2699Q3.84583 2.11416 4.04301 1.96792Q4.24018 1.82169 4.4443 1.6853Q4.64841 1.54892 4.85897 1.42271Q5.06953 1.29651 5.28603 1.18079Q5.50253 1.06507 5.72445 0.960107Q5.94637 0.855148 6.17316 0.761205Q6.39996 0.667261 6.6311 0.584559Q6.86224 0.501857 7.09715 0.430597Q7.33207 0.359336 7.5702 0.299687Q7.80833 0.240039 8.0491 0.192147Q8.28987 0.144255 8.53269 0.108235Q8.77552 0.0722146 9.01983 0.0481527Q9.26413 0.0240909 9.50932 0.0120454Q9.75451 0 10 0Q10.2455 0 10.4907 0.0120454Q10.7359 0.0240909 10.9802 0.0481527Q11.2245 0.0722146 11.4673 0.108235Q11.7101 0.144255 11.9509 0.192147Q12.1917 0.240039 12.4298 0.299687Q12.6679 0.359336 12.9028 0.430597Q13.1378 0.501857 13.3689 0.584559Q13.6 0.667261 13.8268 0.761205Q14.0536 0.855148 14.2755 0.960107Q14.4975 1.06507 14.714 1.18079Q14.9305 1.29651 15.141 1.42271Q15.3516 1.54892 15.5557 1.6853Q15.7598 1.82169 15.957 1.96792Q16.1542 2.11416 16.3439 2.2699Q16.5337 2.42563 16.7156 2.59049Q16.8975 2.75535 17.0711 2.92893Q17.2447 3.10252 17.4095 3.28441Q17.5744 3.4663 17.7301 3.65607Q17.8858 3.84583 18.0321 4.04301Q18.1783 4.24018 18.3147 4.4443Q18.4511 4.64841 18.5773 4.85897Q18.7035 5.06953 18.8192 5.28603Q18.9349 5.50253 19.0399 5.72445Q19.1449 5.94637 19.2388 6.17316Q19.3327 6.39996 19.4154 6.6311Q19.4981 6.86224 19.5694 7.09715Q19.6407 7.33207 19.7003 7.5702Q19.76 7.80833 19.8079 8.0491Q19.8557 8.28987 19.8918 8.53269Q19.9278 8.77552 19.9518 9.01983Q19.9759 9.26413 19.988 9.50932Q20 9.75451 20 10Q20 10.2455 19.988 10.4907Q19.9759 10.7359 19.9518 10.9802Q19.9278 11.2245 19.8918 11.4673Q19.8557 11.7101 19.8079 11.9509Q19.76 12.1917 19.7003 12.4298Q19.6407 12.6679 19.5694 12.9028Q19.4981 13.1378 19.4154 13.3689Q19.3327 13.6 19.2388 13.8268Q19.1449 14.0536 19.0399 14.2755Q18.9349 14.4975 18.8192 14.714Q18.7035 14.9305 18.5773 15.141Q18.4511 15.3516 18.3147 15.5557Q18.1783 15.7598 18.0321 15.957Q17.8858 16.1542 17.7301 16.3439Q17.5744 16.5337 17.4095 16.7156Q17.2447 16.8975 17.0711 17.0711Q16.8975 17.2447 16.7156 17.4095Q16.5337 17.5744 16.3439 17.7301Q16.1542 17.8858 15.957 18.0321Q15.7598 18.1783 15.5557 18.3147Q15.3516 18.4511 15.141 18.5773Q14.9305 18.7035 14.714 18.8192Q14.4975 18.9349 14.2755 19.0399Q14.0536 19.1449 13.8268 19.2388Q13.6 19.3327 13.3689 19.4154Q13.1378 19.4981 12.9028 19.5694Q12.6679 19.6407 12.4298 19.7003Q12.1917 19.76 11.9509 19.8079Q11.7101 19.8557 11.4673 19.8918Q11.2245 19.9278 10.9802 19.9518Q10.7359 19.9759 10.4907 19.988Q10.2455 20 10 20Q9.75451 20 9.50932 19.988Q9.26413 19.9759 9.01983 19.9518Q8.77552 19.9278 8.53269 19.8918Q8.28987 19.8557 8.0491 19.8079Q7.80833 19.76 7.5702 19.7003Q7.33207 19.6407 7.09715 19.5694Q6.86224 19.4981 6.6311 19.4154Q6.39996 19.3327 6.17317 19.2388Q5.94637 19.1449 5.72445 19.0399Q5.50253 18.9349 5.28603 18.8192Q5.06953 18.7035 4.85897 18.5773Q4.64841 18.4511 4.4443 18.3147Q4.24018 18.1783 4.04301 18.0321Q3.84583 17.8858 3.65607 17.7301Q3.4663 17.5744 3.28441 17.4095Q3.10252 17.2447 2.92893 17.0711Q2.75535 16.8975 2.59049 16.7156Q2.42563 16.5337 2.2699 16.3439Q2.11416 16.1542 1.96792 15.957Q1.82169 15.7598 1.6853 15.5557Q1.54892 15.3516 1.42271 15.141Q1.29651 14.9305 1.18079 14.714Q1.06507 14.4975 0.960107 14.2755Q0.855148 14.0536 0.761205 13.8268Q0.667261 13.6 0.584559 13.3689Q0.501857 13.1378 0.430597 12.9028Q0.359336 12.6679 0.299687 12.4298Q0.240039 12.1917 0.192147 11.9509Q0.144255 11.7101 0.108235 11.4673Q0.0722146 11.2245 0.0481527 10.9802Q0.0240909 10.7359 0.0120454 10.4907Q0 10.2455 0 10Z">
</path>
<path d="M5.585 11.0275C5.6025 11.055 5.6225 11.08 5.6475 11.1025L9.295 14.75C9.39 14.8475 9.5 14.92 9.625 14.97C9.745 15.02 9.87 15.045 10 15.045C10.13 15.045 10.255 15.02 10.375 14.97C10.5 14.92 10.61 14.8475 10.705 14.75L14.3525 11.1025C14.365 11.0925 14.375 11.08 14.3875 11.0675C14.3975 11.055 14.4075 11.0425 14.415 11.0275C14.425 11.015 14.4325 11 14.44 10.985C14.4475 10.9725 14.455 10.9575 14.4625 10.9425C14.4675 10.925 14.4725 10.91 14.4775 10.895C14.4825 10.88 14.4875 10.8625 14.49 10.8475C14.4925 10.8325 14.495 10.815 14.4975 10.8C14.5 10.7825 14.5 10.7675 14.5 10.75C14.5 10.7325 14.5 10.7175 14.4975 10.7C14.495 10.685 14.4925 10.6675 14.49 10.6525C14.4875 10.6375 14.4825 10.62 14.4775 10.605C14.4725 10.59 14.4675 10.575 14.4625 10.5575C14.455 10.5425 14.4475 10.5275 14.44 10.515C14.4325 10.5 14.425 10.485 14.415 10.4725C14.4075 10.4575 14.3975 10.445 14.3875 10.4325C14.375 10.42 14.365 10.4075 14.3525 10.3975C14.3425 10.385 14.33 10.375 14.3175 10.3625C14.305 10.3525 14.2925 10.3425 14.2775 10.335C14.265 10.325 14.25 10.3175 14.235 10.31C14.2225 10.3025 14.2075 10.295 14.1925 10.2875C14.175 10.2825 14.16 10.2775 14.145 10.2725C14.13 10.2675 14.1125 10.2625 14.0975 10.26C14.0825 10.2575 14.065 10.255 14.05 10.2525C14.0325 10.25 14.0175 10.25 14 10.25C13.9825 10.25 13.9675 10.25 13.95 10.2525C13.935 10.255 13.9175 10.2575 13.9025 10.26C13.8875 10.2625 13.87 10.2675 13.855 10.2725C13.84 10.2775 13.825 10.2825 13.8075 10.2875C13.7925 10.295 13.7775 10.3025 13.765 10.31C13.75 10.3175 13.735 10.325 13.7225 10.335C13.7075 10.3425 13.695 10.3525 13.6825 10.3625C13.67 10.375 13.6575 10.385 13.6475 10.3975L10.5 13.5428L10.5 5.5625C10.5 5.545 10.5 5.53 10.4975 5.5125C10.495 5.4975 10.495 5.48 10.49 5.465C10.4875 5.45 10.4825 5.4325 10.4775 5.4175C10.475 5.4025 10.4675 5.3875 10.4625 5.37C10.455 5.355 10.45 5.3425 10.44 5.3275C10.4325 5.3125 10.425 5.2975 10.415 5.285C10.4075 5.27 10.3975 5.2575 10.3875 5.245C10.3775 5.2325 10.365 5.22 10.355 5.21C10.3425 5.1975 10.33 5.1875 10.3175 5.175C10.305 5.165 10.2925 5.155 10.2775 5.1475C10.265 5.1375 10.25 5.13 10.235 5.1225C10.2225 5.115 10.2075 5.1075 10.1925 5.1C10.1775 5.095 10.16 5.09 10.145 5.085C10.13 5.08 10.115 5.075 10.0975 5.0725C10.0825 5.07 10.065 5.0675 10.05 5.065C10.0325 5.0625 10.0175 5.0625 10 5.0625C9.985 5.0625 9.9675 5.0625 9.9525 5.065C9.935 5.0675 9.92 5.07 9.9025 5.0725C9.8875 5.075 9.87 5.08 9.855 5.085L9.81 5.1L9.765 5.1225C9.75 5.13 9.735 5.1375 9.7225 5.1475C9.71 5.155 9.695 5.165 9.6825 5.175C9.67 5.1875 9.6575 5.1975 9.6475 5.21C9.635 5.22 9.625 5.2325 9.615 5.245C9.6025 5.2575 9.5925 5.27 9.585 5.285C9.575 5.2975 9.5675 5.3125 9.56 5.3275C9.5525 5.34 9.545 5.355 9.5375 5.37C9.5325 5.3875 9.5275 5.4025 9.5225 5.4175C9.5175 5.4325 9.5125 5.45 9.51 5.465C9.5075 5.48 9.505 5.4975 9.5025 5.5125C9.5 5.53 9.5 5.545 9.5 5.5625L9.5 13.5428L6.3525 10.3975C6.3425 10.385 6.33 10.375 6.3175 10.3625C6.305 10.3525 6.2925 10.3425 6.2775 10.335C6.265 10.325 6.25 10.3175 6.235 10.31C6.2225 10.3025 6.2075 10.295 6.1925 10.2875C6.175 10.2825 6.16 10.2775 6.145 10.2725C6.13 10.2675 6.1125 10.2625 6.0975 10.26C6.0825 10.2575 6.065 10.255 6.05 10.2525C6.0325 10.25 6.0175 10.25 6 10.25C5.9825 10.25 5.9675 10.25 5.95 10.2525C5.935 10.255 5.9175 10.2575 5.9025 10.26C5.8875 10.2625 5.87 10.2675 5.855 10.2725C5.84 10.2775 5.825 10.2825 5.8075 10.2875C5.7925 10.295 5.7775 10.3025 5.765 10.31C5.75 10.3175 5.735 10.325 5.7225 10.335C5.7075 10.3425 5.695 10.3525 5.6825 10.3625C5.67 10.375 5.6575 10.385 5.6475 10.3975C5.6225 10.42 5.6025 10.445 5.585 10.4725C5.565 10.5 5.55 10.5275 5.5375 10.5575C5.525 10.59 5.515 10.62 5.51 10.6525C5.5025 10.685 5.5 10.7175 5.5 10.75C5.5 10.7825 5.5025 10.815 5.51 10.8475C5.515 10.88 5.525 10.91 5.5375 10.9425C5.55 10.9725 5.565 11 5.585 11.0275Z"   fill="#FFFFFF" >
</path>
<path d="M5.21532 10.9045C5.22312 10.9488 5.23716 10.9974 5.25745 11.0502L5.25745 11.0502L5.25894 11.054L5.26052 11.0578L5.26053 11.0578C5.28115 11.1073 5.30659 11.1535 5.33687 11.1963C5.36718 11.2426 5.40155 11.2836 5.43998 11.3192L9.08157 14.9608C9.204 15.086 9.34731 15.1817 9.51149 15.2477C9.66782 15.3125 9.83064 15.345 9.99995 15.345C10.1693 15.345 10.3321 15.3125 10.4884 15.2477C10.6526 15.1817 10.7959 15.086 10.9184 14.9608L14.5574 11.3218C14.5693 11.3111 14.5817 11.2987 14.5948 11.2847C14.5976 11.2816 14.5992 11.2799 14.5996 11.2796L14.6113 11.2678L14.6217 11.2549C14.6402 11.2317 14.6558 11.2096 14.6685 11.1885C14.6803 11.1708 14.6921 11.1506 14.7038 11.1279C14.7115 11.1143 14.7205 11.0972 14.7308 11.0766L14.7433 11.0517L14.7509 11.0249C14.753 11.0174 14.7568 11.0057 14.7621 10.9898C14.7731 10.9566 14.7811 10.9256 14.7859 10.8968L14.7863 10.8942L14.7903 10.869L14.7934 10.8493L14.7934 10.8492L14.7938 10.8468L14.7939 10.8458L14.7944 10.8424C14.7981 10.8166 14.8 10.7858 14.8 10.75C14.8 10.7141 14.7981 10.6833 14.7944 10.6575L14.7939 10.6541L14.7938 10.6532L14.7934 10.6506L14.7898 10.6278L14.7863 10.6056L14.7859 10.6031L14.7859 10.6031C14.7811 10.5743 14.7731 10.5433 14.7621 10.5101C14.7568 10.4942 14.7531 10.4825 14.7509 10.475L14.7433 10.4482L14.7308 10.4233C14.7205 10.4027 14.7115 10.3856 14.7038 10.372C14.6921 10.3493 14.6803 10.3291 14.6685 10.3114C14.6558 10.2903 14.6402 10.2682 14.6217 10.245L14.6113 10.2321L14.5996 10.2203C14.5992 10.22 14.5976 10.2183 14.5948 10.2153C14.5845 10.2041 14.5745 10.194 14.5649 10.185C14.5559 10.1754 14.5458 10.1655 14.5347 10.1551C14.5316 10.1523 14.5299 10.1507 14.5296 10.1503L14.5178 10.1386L14.5049 10.1282C14.4817 10.1097 14.4596 10.0941 14.4385 10.0814C14.4208 10.0696 14.4006 10.0578 14.3779 10.0461C14.3643 10.0384 14.3472 10.0294 14.3266 10.0191L14.3017 10.0067L14.2749 9.99899C14.2674 9.99686 14.2557 9.99314 14.2398 9.98784C14.2066 9.97677 14.1756 9.96883 14.1468 9.96403L14.1442 9.96361L14.119 9.95965L14.0993 9.95652L14.0968 9.95612L14.0958 9.95596L14.0924 9.95546C14.0666 9.95179 14.0358 9.94995 14 9.94995C13.9641 9.94995 13.9333 9.95179 13.9075 9.95547L13.9041 9.95596L13.9032 9.9561L13.9006 9.95652L13.8778 9.96012L13.8556 9.96363L13.8531 9.96403C13.8243 9.96883 13.7933 9.97677 13.7601 9.98785C13.7442 9.99314 13.7325 9.99686 13.725 9.99899L13.6982 10.0067L13.6733 10.0191C13.6527 10.0294 13.6356 10.0384 13.622 10.0461C13.5993 10.0578 13.5791 10.0696 13.5614 10.0814C13.5403 10.0941 13.5182 10.1097 13.495 10.1282L13.4821 10.1386L13.4703 10.1503C13.47 10.1507 13.4683 10.1523 13.4652 10.1551C13.4512 10.1682 13.4389 10.1806 13.4282 10.1924L10.8 12.8189L10.8 5.56245C10.8 5.52657 10.7981 5.49576 10.7944 5.47002L10.7944 5.47001L10.7939 5.46657L10.7934 5.46313L10.7939 5.46543C10.7914 5.44129 10.7877 5.41911 10.7828 5.39888C10.7788 5.37918 10.7734 5.35852 10.7667 5.33688C10.7627 5.32131 10.7575 5.30481 10.7511 5.28737C10.7506 5.28607 10.7503 5.28504 10.75 5.28427L10.7433 5.26073L10.7308 5.23579C10.7303 5.23483 10.7293 5.23275 10.7278 5.22953C10.7191 5.21132 10.7103 5.19479 10.7015 5.17994C10.6905 5.15907 10.6795 5.1404 10.6685 5.12393C10.6558 5.10284 10.6402 5.08071 10.6217 5.05755L10.6217 5.05754C10.6081 5.04056 10.5899 5.02066 10.5671 4.99783L10.5671 4.99782C10.5592 4.98994 10.5491 4.98048 10.5369 4.96946C10.5325 4.96548 10.53 4.96327 10.5296 4.96282L10.5178 4.95107L10.5049 4.94069L10.5049 4.94069L10.5049 4.94069C10.4817 4.92216 10.4596 4.90657 10.4385 4.89392C10.4208 4.88206 10.4006 4.87027 10.3779 4.85856C10.3643 4.8509 10.3472 4.84192 10.3266 4.83162L10.3075 4.82209L10.2873 4.81535C10.2801 4.81294 10.27 4.80973 10.2569 4.80572C10.2483 4.80307 10.2426 4.80128 10.2398 4.80035C10.2045 4.78857 10.1726 4.78049 10.1442 4.7761L10.1428 4.7759L10.119 4.77215L10.098 4.76883L10.0958 4.76846L10.0924 4.76797C10.0666 4.76429 10.0358 4.76245 9.99995 4.76245C9.96409 4.76245 9.93346 4.76438 9.90807 4.76825L9.90674 4.76845L9.88536 4.77165L9.85894 4.77562L9.85657 4.77596L9.85313 4.77653C9.82432 4.78134 9.7933 4.78927 9.76008 4.80035L9.71508 4.81535L9.69486 4.82209L9.67579 4.83162L9.63079 4.85412C9.60202 4.86851 9.5771 4.883 9.556 4.89762C9.53412 4.91133 9.5138 4.92568 9.49504 4.94069L9.49504 4.94069L9.48207 4.95107L9.47032 4.96282C9.46997 4.96316 9.46828 4.96475 9.46524 4.96758C9.45382 4.97822 9.44351 4.98846 9.43432 4.99828C9.41986 5.01208 9.40517 5.02793 9.39024 5.04584C9.36682 5.07097 9.34688 5.09749 9.33042 5.12542C9.31889 5.14273 9.30744 5.16243 9.29607 5.18453C9.2884 5.1981 9.27942 5.21518 9.26913 5.23577L9.26912 5.23579L9.25665 5.26073L9.24899 5.28754C9.24685 5.29503 9.24314 5.30671 9.23785 5.32258C9.22677 5.35581 9.21883 5.38682 9.21403 5.41564L9.21361 5.41823L9.20965 5.44337L9.20633 5.46437L9.20596 5.46657L9.20547 5.47003C9.20179 5.49576 9.19995 5.52657 9.19995 5.56245L9.19995 12.8189L6.5717 10.1924C6.56103 10.1806 6.54869 10.1682 6.53466 10.1551C6.53163 10.1523 6.52993 10.1507 6.52958 10.1503L6.51783 10.1386L6.50486 10.1282C6.48169 10.1097 6.45956 10.0941 6.43847 10.0814C6.4208 10.0696 6.40061 10.0578 6.37787 10.0461C6.3643 10.0384 6.34722 10.0294 6.32664 10.0191L6.32662 10.0191L6.30168 10.0067L6.27487 9.99899C6.26738 9.99686 6.25571 9.99314 6.23984 9.98785L6.23982 9.98785L6.23981 9.98784C6.2066 9.97677 6.17558 9.96883 6.14677 9.96403L6.14417 9.96361L6.11903 9.95965L6.09806 9.95633L6.09583 9.95596L6.09238 9.95546C6.06664 9.95179 6.03583 9.94995 5.99995 9.94995C5.96407 9.94995 5.93326 9.95179 5.90752 9.95547L5.90407 9.95596L5.90193 9.95631L5.87779 9.96012L5.85558 9.96363L5.85313 9.96403C5.82432 9.96883 5.79331 9.97677 5.76009 9.98784L5.76008 9.98785L5.76006 9.98785C5.7442 9.99314 5.73252 9.99686 5.72503 9.99899L5.69823 10.0067L5.67329 10.0191L5.67327 10.0191C5.65268 10.0294 5.6356 10.0384 5.62203 10.0461C5.5993 10.0578 5.5791 10.0696 5.56143 10.0814C5.54034 10.0941 5.51821 10.1097 5.49504 10.1282L5.49504 10.1282L5.48207 10.1386L5.47032 10.1503L5.47032 10.1503C5.46997 10.1507 5.46828 10.1523 5.46524 10.1551C5.45313 10.1664 5.44226 10.1772 5.43265 10.1876C5.39716 10.2216 5.36523 10.2603 5.33686 10.3036C5.30659 10.3464 5.28114 10.3926 5.26053 10.4421L5.25894 10.4459L5.25745 10.4498C5.23716 10.5025 5.22312 10.5511 5.21532 10.5954C5.20508 10.6435 5.19995 10.695 5.19995 10.75C5.19995 10.8049 5.20508 10.8564 5.21532 10.9045ZM5.80646 10.8018C5.80714 10.8062 5.8102 10.8156 5.81567 10.8301C5.81914 10.8379 5.8231 10.8449 5.82757 10.851L5.82758 10.851L5.83305 10.8585L5.83805 10.8664C5.84201 10.8726 5.84538 10.877 5.84814 10.8795L5.85401 10.8847L5.85958 10.8903L9.50708 14.5378L9.50846 14.5392L9.50982 14.5406C9.57389 14.6064 9.64941 14.6566 9.73637 14.6914L9.73836 14.6922L9.74029 14.693L9.74033 14.693C9.82341 14.7276 9.90995 14.745 9.99995 14.745C10.09 14.745 10.1765 14.7276 10.2596 14.693L10.2596 14.693L10.2615 14.6922L10.2635 14.6914C10.3505 14.6566 10.426 14.6064 10.4901 14.5406L10.4914 14.5392L10.4928 14.5378L14.1521 10.8786L14.1553 10.876L14.1608 10.8649L14.1708 10.8524L14.1716 10.8508L14.1768 10.8405L14.1827 10.8306L14.1832 10.8298C14.1861 10.8207 14.1893 10.8108 14.1929 10.8001C14.1935 10.798 14.1941 10.7961 14.1946 10.7945L14.1976 10.7753L14.1999 10.7608L14.2 10.75L14.1999 10.7391L14.1972 10.7215L14.1946 10.7054C14.1941 10.7038 14.1935 10.7019 14.1928 10.6998C14.1893 10.6891 14.186 10.6792 14.1832 10.6701L14.1827 10.6693L14.1768 10.6594L14.1716 10.6491L14.1708 10.6475L14.1608 10.635L14.1553 10.6239L14.139 10.6109L14.126 10.5946L14.1149 10.5891L14.1024 10.5791L14.1008 10.5783L14.0905 10.5731L14.0806 10.5672L14.0798 10.5667C14.0707 10.5639 14.0608 10.5606 14.0501 10.5571C14.048 10.5564 14.0461 10.5558 14.0445 10.5553L14.0253 10.5523L14.0108 10.55L14 10.55L13.9891 10.55L13.9715 10.5528L13.9554 10.5553C13.9538 10.5558 13.9519 10.5564 13.9498 10.5571C13.9391 10.5606 13.9292 10.5639 13.9201 10.5667L13.9193 10.5672L13.9094 10.5731L13.8991 10.5783L13.8975 10.5791L13.885 10.5891L13.8739 10.5946L13.8713 10.5979L13.8595 10.6097L10.712 13.755L10.2 14.2667L10.2 5.56245L10.1999 5.55107C10.1994 5.54721 10.1988 5.54311 10.1983 5.53876L10.1979 5.53749L10.1947 5.51827C10.1942 5.51656 10.1936 5.51458 10.1929 5.51232L10.1854 5.48999L10.1846 5.48529L10.18 5.47832L10.1716 5.46162L10.1708 5.46004L10.1608 5.44754L10.1533 5.43254L10.1532 5.43236L10.1534 5.43284C10.1515 5.43085 10.148 5.42726 10.1428 5.42209L10.1428 5.42208C10.1424 5.42163 10.1399 5.41942 10.1355 5.41544C10.1325 5.41271 10.1296 5.41008 10.1268 5.40755L10.1149 5.40157L10.1024 5.39157L10.1008 5.39078L10.0905 5.38563L10.0806 5.3797L10.0787 5.37862C10.0665 5.37487 10.057 5.37185 10.0501 5.36956C10.0481 5.36889 10.0464 5.36834 10.0451 5.36791L10.0253 5.36478L10.0108 5.36249L9.99995 5.36245L9.99129 5.36248L9.97457 5.36498L9.95501 5.36792C9.95348 5.36837 9.95175 5.36891 9.94982 5.36956L9.92504 5.37781L9.89911 5.39078L9.89754 5.39157L9.8941 5.39432L9.8768 5.4047L9.87526 5.40563L9.8746 5.40625L9.86089 5.42339L9.84839 5.43339L9.8424 5.44088L9.83906 5.44754L9.82907 5.46004L9.82828 5.46162L9.82313 5.47192L9.8172 5.4818L9.81673 5.48262C9.81385 5.4917 9.81063 5.5016 9.80705 5.51232C9.80636 5.51441 9.80578 5.51627 9.80531 5.51789L9.80228 5.53711L9.79999 5.55159L9.79995 5.56245L9.79995 14.2667L9.28789 13.755L6.14039 10.6097L6.1286 10.5979L6.12602 10.5946L6.11486 10.5891L6.10236 10.5791L6.10078 10.5783L6.09048 10.5731L6.0806 10.5672L6.07978 10.5667C6.07071 10.5639 6.06082 10.5606 6.05012 10.5571L6.05009 10.5571L6.05008 10.5571C6.04798 10.5564 6.04613 10.5558 6.0445 10.5553L6.02529 10.5523L6.01082 10.55L5.99995 10.55L5.98906 10.55L5.97153 10.5528L5.95542 10.5553C5.9538 10.5558 5.95193 10.5564 5.94982 10.5571L5.94981 10.5571L5.94979 10.5571C5.93908 10.5606 5.92919 10.5639 5.92012 10.5667L5.9193 10.5672L5.90942 10.5731L5.89912 10.5783L5.88504 10.5891L5.87388 10.5946L5.86638 10.604L5.84814 10.6204L5.84814 10.6204C5.84538 10.6229 5.84201 10.6273 5.83805 10.6335L5.83305 10.6414L5.82757 10.6489C5.8231 10.655 5.81914 10.662 5.81567 10.6698C5.8102 10.6843 5.80714 10.6937 5.80646 10.6981L5.80477 10.7091L5.80227 10.7199C5.80072 10.7266 5.79995 10.7366 5.79995 10.75C5.79995 10.7633 5.80072 10.7733 5.80227 10.78L5.80477 10.7908L5.80646 10.8018L5.80646 10.8018Z" fill-rule="evenodd"  fill="#FFFFFF" >
</path>
</svg>
