<svg xmlns="http://www.w3.org/2000/svg" xmlns:xlink="http://www.w3.org/1999/xlink" width="20" height="20" viewBox="0 0 20 20" fill="none">
<path     fill="#1ABD5B"  d="M0 10Q0 9.75451 0.0120454 9.50932Q0.0240909 9.26413 0.0481527 9.01983Q0.0722146 8.77552 0.108235 8.53269Q0.144255 8.28987 0.192147 8.0491Q0.240039 7.80833 0.299687 7.5702Q0.359336 7.33207 0.430597 7.09715Q0.501857 6.86224 0.584559 6.6311Q0.667261 6.39996 0.761205 6.17317Q0.855148 5.94637 0.960107 5.72445Q1.06507 5.50253 1.18079 5.28603Q1.29651 5.06953 1.42271 4.85897Q1.54892 4.64841 1.6853 4.4443Q1.82169 4.24018 1.96792 4.04301Q2.11416 3.84583 2.2699 3.65607Q2.42563 3.4663 2.59049 3.28441Q2.75535 3.10252 2.92893 2.92893Q3.10252 2.75535 3.28441 2.59049Q3.4663 2.42563 3.65607 2.2699Q3.84583 2.11416 4.04301 1.96792Q4.24018 1.82169 4.4443 1.6853Q4.64841 1.54892 4.85897 1.42271Q5.06953 1.29651 5.28603 1.18079Q5.50253 1.06507 5.72445 0.960107Q5.94637 0.855148 6.17316 0.761205Q6.39996 0.667261 6.6311 0.584559Q6.86224 0.501857 7.09715 0.430597Q7.33207 0.359336 7.5702 0.299687Q7.80833 0.240039 8.0491 0.192147Q8.28987 0.144255 8.53269 0.108235Q8.77552 0.0722146 9.01983 0.0481527Q9.26413 0.0240909 9.50932 0.0120454Q9.75451 0 10 0Q10.2455 0 10.4907 0.0120454Q10.7359 0.0240909 10.9802 0.0481527Q11.2245 0.0722146 11.4673 0.108235Q11.7101 0.144255 11.9509 0.192147Q12.1917 0.240039 12.4298 0.299687Q12.6679 0.359336 12.9028 0.430597Q13.1378 0.501857 13.3689 0.584559Q13.6 0.667261 13.8268 0.761205Q14.0536 0.855148 14.2755 0.960107Q14.4975 1.06507 14.714 1.18079Q14.9305 1.29651 15.141 1.42271Q15.3516 1.54892 15.5557 1.6853Q15.7598 1.82169 15.957 1.96792Q16.1542 2.11416 16.3439 2.2699Q16.5337 2.42563 16.7156 2.59049Q16.8975 2.75535 17.0711 2.92893Q17.2447 3.10252 17.4095 3.28441Q17.5744 3.4663 17.7301 3.65607Q17.8858 3.84583 18.0321 4.04301Q18.1783 4.24018 18.3147 4.4443Q18.4511 4.64841 18.5773 4.85897Q18.7035 5.06953 18.8192 5.28603Q18.9349 5.50253 19.0399 5.72445Q19.1449 5.94637 19.2388 6.17316Q19.3327 6.39996 19.4154 6.6311Q19.4981 6.86224 19.5694 7.09715Q19.6407 7.33207 19.7003 7.5702Q19.76 7.80833 19.8079 8.0491Q19.8557 8.28987 19.8918 8.53269Q19.9278 8.77552 19.9518 9.01983Q19.9759 9.26413 19.988 9.50932Q20 9.75451 20 10Q20 10.2455 19.988 10.4907Q19.9759 10.7359 19.9518 10.9802Q19.9278 11.2245 19.8918 11.4673Q19.8557 11.7101 19.8079 11.9509Q19.76 12.1917 19.7003 12.4298Q19.6407 12.6679 19.5694 12.9028Q19.4981 13.1378 19.4154 13.3689Q19.3327 13.6 19.2388 13.8268Q19.1449 14.0536 19.0399 14.2755Q18.9349 14.4975 18.8192 14.714Q18.7035 14.9305 18.5773 15.141Q18.4511 15.3516 18.3147 15.5557Q18.1783 15.7598 18.0321 15.957Q17.8858 16.1542 17.7301 16.3439Q17.5744 16.5337 17.4095 16.7156Q17.2447 16.8975 17.0711 17.0711Q16.8975 17.2447 16.7156 17.4095Q16.5337 17.5744 16.3439 17.7301Q16.1542 17.8858 15.957 18.0321Q15.7598 18.1783 15.5557 18.3147Q15.3516 18.4511 15.141 18.5773Q14.9305 18.7035 14.714 18.8192Q14.4975 18.9349 14.2755 19.0399Q14.0536 19.1449 13.8268 19.2388Q13.6 19.3327 13.3689 19.4154Q13.1378 19.4981 12.9028 19.5694Q12.6679 19.6407 12.4298 19.7003Q12.1917 19.76 11.9509 19.8079Q11.7101 19.8557 11.4673 19.8918Q11.2245 19.9278 10.9802 19.9518Q10.7359 19.9759 10.4907 19.988Q10.2455 20 10 20Q9.75451 20 9.50932 19.988Q9.26413 19.9759 9.01983 19.9518Q8.77552 19.9278 8.53269 19.8918Q8.28987 19.8557 8.0491 19.8079Q7.80833 19.76 7.5702 19.7003Q7.33207 19.6407 7.09715 19.5694Q6.86224 19.4981 6.6311 19.4154Q6.39996 19.3327 6.17317 19.2388Q5.94637 19.1449 5.72445 19.0399Q5.50253 18.9349 5.28603 18.8192Q5.06953 18.7035 4.85897 18.5773Q4.64841 18.4511 4.4443 18.3147Q4.24018 18.1783 4.04301 18.0321Q3.84583 17.8858 3.65607 17.7301Q3.4663 17.5744 3.28441 17.4095Q3.10252 17.2447 2.92893 17.0711Q2.75535 16.8975 2.59049 16.7156Q2.42563 16.5337 2.2699 16.3439Q2.11416 16.1542 1.96792 15.957Q1.82169 15.7598 1.6853 15.5557Q1.54892 15.3516 1.42271 15.141Q1.29651 14.9305 1.18079 14.714Q1.06507 14.4975 0.960107 14.2755Q0.855148 14.0536 0.761205 13.8268Q0.667261 13.6 0.584559 13.3689Q0.501857 13.1378 0.430597 12.9028Q0.359336 12.6679 0.299687 12.4298Q0.240039 12.1917 0.192147 11.9509Q0.144255 11.7101 0.108235 11.4673Q0.0722146 11.2245 0.0481527 10.9802Q0.0240909 10.7359 0.0120454 10.4907Q0 10.2455 0 10Z">
</path>
<path d="M5.5375 10.9425C5.525 10.91 5.515 10.88 5.51 10.8475C5.5025 10.815 5.5 10.7825 5.5 10.75C5.5 10.7175 5.5025 10.685 5.51 10.6525C5.515 10.62 5.525 10.59 5.5375 10.5575C5.55 10.5275 5.565 10.5 5.585 10.4725C5.6025 10.445 5.6225 10.42 5.6475 10.3975C5.6575 10.385 5.67 10.375 5.6825 10.3625C5.695 10.3525 5.7075 10.3425 5.7225 10.335C5.735 10.325 5.75 10.3175 5.765 10.31C5.7775 10.3025 5.7925 10.295 5.8075 10.2875C5.825 10.2825 5.84 10.2775 5.855 10.2725C5.87 10.2675 5.8875 10.2625 5.9025 10.26C5.9175 10.2575 5.935 10.255 5.95 10.2525C5.9675 10.25 5.9825 10.25 6 10.25C6.0175 10.25 6.0325 10.25 6.05 10.2525C6.065 10.255 6.0825 10.2575 6.0975 10.26C6.1125 10.2625 6.13 10.2675 6.145 10.2725C6.16 10.2775 6.175 10.2825 6.1925 10.2875C6.2075 10.295 6.2225 10.3025 6.235 10.31C6.25 10.3175 6.265 10.325 6.2775 10.335C6.2925 10.3425 6.305 10.3525 6.3175 10.3625C6.33 10.375 6.3425 10.385 6.3525 10.3975L9.5 13.5428L9.5 5.5625C9.5 5.545 9.5 5.53 9.5025 5.5125C9.505 5.4975 9.5075 5.48 9.51 5.465C9.5125 5.45 9.5175 5.4325 9.5225 5.4175C9.5275 5.4025 9.5325 5.3875 9.5375 5.37C9.545 5.355 9.5525 5.34 9.56 5.3275C9.5675 5.3125 9.575 5.2975 9.585 5.285C9.5925 5.27 9.6025 5.2575 9.615 5.245C9.625 5.2325 9.635 5.22 9.6475 5.21C9.6575 5.1975 9.67 5.1875 9.6825 5.175C9.695 5.165 9.71 5.155 9.7225 5.1475C9.735 5.1375 9.75 5.13 9.765 5.1225L9.81 5.1L9.855 5.085C9.87 5.08 9.8875 5.075 9.9025 5.0725C9.92 5.07 9.935 5.0675 9.9525 5.065C9.9675 5.0625 9.985 5.0625 10 5.0625C10.0175 5.0625 10.0325 5.0625 10.05 5.065C10.065 5.0675 10.0825 5.07 10.0975 5.0725C10.115 5.075 10.13 5.08 10.145 5.085C10.16 5.09 10.1775 5.095 10.1925 5.1C10.2075 5.1075 10.2225 5.115 10.235 5.1225C10.25 5.13 10.265 5.1375 10.2775 5.1475C10.2925 5.155 10.305 5.165 10.3175 5.175C10.33 5.1875 10.3425 5.1975 10.355 5.21C10.365 5.22 10.3775 5.2325 10.3875 5.245C10.3975 5.2575 10.4075 5.27 10.415 5.285C10.425 5.2975 10.4325 5.3125 10.44 5.3275C10.45 5.3425 10.455 5.355 10.4625 5.37C10.4675 5.3875 10.475 5.4025 10.4775 5.4175C10.4825 5.4325 10.4875 5.45 10.49 5.465C10.495 5.48 10.495 5.4975 10.4975 5.5125C10.5 5.53 10.5 5.545 10.5 5.5625L10.5 13.5428L13.6475 10.3975C13.6575 10.385 13.67 10.375 13.6825 10.3625C13.695 10.3525 13.7075 10.3425 13.7225 10.335C13.735 10.325 13.75 10.3175 13.765 10.31C13.7775 10.3025 13.7925 10.295 13.8075 10.2875C13.825 10.2825 13.84 10.2775 13.855 10.2725C13.87 10.2675 13.8875 10.2625 13.9025 10.26C13.9175 10.2575 13.935 10.255 13.95 10.2525C13.9675 10.25 13.9825 10.25 14 10.25C14.0175 10.25 14.0325 10.25 14.05 10.2525C14.065 10.255 14.0825 10.2575 14.0975 10.26C14.1125 10.2625 14.13 10.2675 14.145 10.2725C14.16 10.2775 14.175 10.2825 14.1925 10.2875C14.2075 10.295 14.2225 10.3025 14.235 10.31C14.25 10.3175 14.265 10.325 14.2775 10.335C14.2925 10.3425 14.305 10.3525 14.3175 10.3625C14.33 10.375 14.3425 10.385 14.3525 10.3975C14.365 10.4075 14.375 10.42 14.3875 10.4325C14.3975 10.445 14.4075 10.4575 14.415 10.4725C14.425 10.485 14.4325 10.5 14.44 10.515C14.4475 10.5275 14.455 10.5425 14.4625 10.5575C14.4675 10.575 14.4725 10.59 14.4775 10.605C14.4825 10.62 14.4875 10.6375 14.49 10.6525C14.4925 10.6675 14.495 10.685 14.4975 10.7C14.5 10.7175 14.5 10.7325 14.5 10.75C14.5 10.7675 14.5 10.7825 14.4975 10.8C14.495 10.815 14.4925 10.8325 14.49 10.8475C14.4875 10.8625 14.4825 10.88 14.4775 10.895C14.4725 10.91 14.4675 10.925 14.4625 10.9425C14.455 10.9575 14.4475 10.9725 14.44 10.985C14.4325 11 14.425 11.015 14.415 11.0275C14.4075 11.0425 14.3975 11.055 14.3875 11.0675C14.375 11.08 14.365 11.0925 14.3525 11.1025L10.705 14.75C10.61 14.8475 10.5 14.92 10.375 14.97C10.255 15.02 10.13 15.045 10 15.045C9.87 15.045 9.745 15.02 9.625 14.97C9.5 14.92 9.39 14.8475 9.295 14.75L5.6475 11.1025C5.6225 11.08 5.6025 11.055 5.585 11.0275C5.565 11 5.55 10.9725 5.5375 10.9425Z"   fill="#FFFFFF" >
</path>
</svg>
