<svg xmlns="http://www.w3.org/2000/svg" xmlns:xlink="http://www.w3.org/1999/xlink" width="24" height="24" viewBox="0 0 24 24" fill="none">
<path d="M12 4.8C9.5263 4.8 7.34257 6.04763 6.04599 7.95L8.4 7.95L8.4 9.75L3 9.75L3 4.35L4.8 4.35L4.8 6.59942C6.44143 4.41449 9.05488 3 12 3C16.9705 3 21 7.02944 21 12L19.2 12C19.2 8.02355 15.9765 4.8 12 4.8ZM4.8 12C4.8 15.9765 8.02355 19.2 12 19.2C14.4737 19.2 16.6574 17.9523 17.954 16.05L15.6 16.05L15.6 14.25L21 14.25L21 19.65L19.2 19.65L19.2 17.4005C17.5586 19.5855 14.9452 21 12 21C7.02944 21 3 16.9705 3 12L4.8 12Z"   fill="#FF3B30" >
</path>
</svg>
