<svg xmlns="http://www.w3.org/2000/svg" xmlns:xlink="http://www.w3.org/1999/xlink" width="26" height="26" viewBox="0 0 26 26" fill="none">
<path d="M17.3334 17.3333C19.1283 17.3333 20.5834 18.7883 20.5834 20.5833C20.5834 22.3783 19.1283 23.8333 17.3334 23.8333C15.5384 23.8333 14.0834 22.3783 14.0834 20.5833C14.0834 18.7883 15.5384 17.3333 17.3334 17.3333ZM6.50002 13C8.89326 13 10.8334 14.9401 10.8334 17.3333C10.8334 19.7265 8.89326 21.6666 6.50002 21.6666C4.10679 21.6666 2.16669 19.7265 2.16669 17.3333C2.16669 14.9401 4.10679 13 6.50002 13ZM15.7084 2.16663C18.9991 2.16663 21.6667 4.83426 21.6667 8.12496C21.6667 11.4157 18.9991 14.0833 15.7084 14.0833C12.4176 14.0833 9.75002 11.4157 9.75002 8.12496C9.75002 4.83426 12.4176 2.16663 15.7084 2.16663Z"   fill="#000000" >
</path>
</svg>
