<svg xmlns="http://www.w3.org/2000/svg" xmlns:xlink="http://www.w3.org/1999/xlink" width="20" height="20" viewBox="0 0 20 20" fill="none">
<path d="M17.3583 2.64166C17.05 2.33749 16.6958 2.09999 16.2958 1.92916C15.8833 1.75416 15.45 1.66666 15 1.66666L12.5 1.66666C12.0417 1.66666 11.6667 2.04166 11.6667 2.49999C11.6667 2.95832 12.0417 3.33332 12.5 3.33332L15 3.33332C15.225 3.33332 15.4417 3.37499 15.6458 3.46249C15.8458 3.54999 16.025 3.66666 16.1792 3.82082C16.3333 3.97499 16.45 4.15416 16.5375 4.35416C16.625 4.55832 16.6667 4.77499 16.6667 4.99999L16.6667 7.08332C16.6667 7.54166 17.0417 7.91666 17.5 7.91666C17.9583 7.91666 18.3333 7.54166 18.3333 7.08332L18.3333 4.99999C18.3333 4.54999 18.2458 4.11666 18.0708 3.70416C17.9 3.30416 17.6625 2.94999 17.3583 2.64166ZM1.7625 9.22916C1.7375 9.24166 1.7125 9.25416 1.69167 9.26666C1.66667 9.27916 1.64167 9.29166 1.62083 9.30832C1.59583 9.32082 1.575 9.33749 1.55417 9.35416C1.53333 9.37499 1.5125 9.39166 1.49583 9.41249C1.475 9.42916 1.45833 9.44999 1.4375 9.47082C1.42083 9.49166 1.40417 9.51249 1.39167 9.53749C1.375 9.55832 1.3625 9.58332 1.35 9.60832C1.3375 9.62916 1.325 9.65416 1.3125 9.67916C1.30417 9.70832 1.29583 9.73332 1.2875 9.75832C1.27917 9.78332 1.27083 9.81249 1.26667 9.83749C1.2625 9.86249 1.25833 9.89166 1.25417 9.91666C1.25 9.94582 1.25 9.97082 1.25 9.99999C1.25 10.0292 1.25 10.0542 1.25417 10.0833C1.25833 10.1083 1.2625 10.1375 1.26667 10.1625C1.27083 10.1875 1.27917 10.2167 1.2875 10.2417C1.29583 10.2667 1.30417 10.2917 1.3125 10.3208C1.325 10.3458 1.3375 10.3667 1.35 10.3917C1.3625 10.4167 1.375 10.4417 1.39167 10.4625C1.40417 10.4875 1.42083 10.5083 1.4375 10.5292C1.45833 10.55 1.475 10.5708 1.49583 10.5875C1.5125 10.6083 1.53333 10.625 1.55417 10.6458C1.575 10.6625 1.59583 10.6792 1.62083 10.6917C1.64167 10.7083 1.66667 10.7208 1.69167 10.7333C1.7125 10.7458 1.7375 10.7583 1.7625 10.7708C1.79167 10.7792 1.81667 10.7875 1.84167 10.7958C1.86667 10.8042 1.89583 10.8125 1.92083 10.8167C1.94583 10.8208 1.975 10.825 2 10.8292C2.02917 10.8333 2.05417 10.8333 2.08333 10.8333L17.9167 10.8333C17.9458 10.8333 17.9708 10.8333 18 10.8292C18.025 10.8292 18.0542 10.825 18.0792 10.8167C18.1042 10.8125 18.1333 10.8042 18.1583 10.8C18.1833 10.7917 18.2083 10.7792 18.2375 10.7708C18.2625 10.7583 18.2833 10.75 18.3083 10.7375C18.3333 10.7208 18.3583 10.7083 18.3792 10.6917C18.4042 10.6792 18.425 10.6625 18.4458 10.6458C18.4667 10.6292 18.4875 10.6083 18.5042 10.5917C18.525 10.5708 18.5417 10.55 18.5625 10.5292C18.5792 10.5083 18.5958 10.4875 18.6083 10.4625C18.625 10.4417 18.6375 10.4167 18.65 10.3917C18.6625 10.3708 18.675 10.3458 18.6875 10.3208C18.6958 10.2958 18.7042 10.2667 18.7125 10.2417C18.7208 10.2167 18.7292 10.1917 18.7333 10.1625C18.7375 10.1375 18.7417 10.1083 18.7458 10.0833C18.75 10.0542 18.75 10.0292 18.75 9.99999C18.75 9.94582 18.7458 9.89166 18.7333 9.83749C18.725 9.78332 18.7083 9.73332 18.6875 9.68332C18.6667 9.62916 18.6417 9.58332 18.6083 9.53749C18.5792 9.49166 18.5458 9.44999 18.5042 9.41249C18.4667 9.37082 18.425 9.33749 18.3792 9.30832C18.3333 9.27916 18.2875 9.24999 18.2375 9.22916C18.1833 9.20832 18.1333 9.19582 18.0792 9.18332C18.025 9.17082 17.9708 9.16666 17.9167 9.16666L2.08333 9.16666C2.05417 9.16666 2.02917 9.16666 2 9.17082C1.975 9.17499 1.94583 9.17916 1.92083 9.18332C1.89583 9.18749 1.86667 9.19582 1.84167 9.20416C1.81667 9.21249 1.79167 9.22082 1.7625 9.22916ZM18.3333 12.9167C18.3333 12.4583 17.9583 12.0833 17.5 12.0833C17.0417 12.0833 16.6667 12.4583 16.6667 12.9167L16.6667 15C16.6667 15.225 16.625 15.4417 16.5375 15.6458C16.45 15.8458 16.3333 16.025 16.1792 16.1792C16.025 16.3333 15.8458 16.45 15.6458 16.5375C15.4417 16.625 15.225 16.6667 15 16.6667L12.5 16.6667C12.0417 16.6667 11.6667 17.0417 11.6667 17.5C11.6667 17.9583 12.0417 18.3333 12.5 18.3333L15 18.3333C15.45 18.3333 15.8833 18.2458 16.2958 18.0708C16.6958 17.9 17.05 17.6625 17.3583 17.3583C17.6625 17.05 17.9 16.6958 18.0708 16.2958C18.2458 15.8833 18.3333 15.45 18.3333 15L18.3333 12.9167ZM2.64167 17.3583C2.95 17.6625 3.30417 17.9 3.70417 18.0708C4.11667 18.2458 4.55 18.3333 5 18.3333L7.5 18.3333C7.95833 18.3333 8.33333 17.9583 8.33333 17.5C8.33333 17.0417 7.95833 16.6667 7.5 16.6667L5 16.6667C4.775 16.6667 4.55833 16.625 4.35417 16.5375C4.15417 16.45 3.975 16.3333 3.82083 16.1792C3.66667 16.025 3.55 15.8458 3.4625 15.6458C3.375 15.4417 3.33333 15.225 3.33333 15L3.33333 12.9167C3.33333 12.4583 2.95833 12.0833 2.5 12.0833C2.04167 12.0833 1.66667 12.4583 1.66667 12.9167L1.66667 15C1.66667 15.45 1.75417 15.8833 1.92917 16.2958C2.1 16.6958 2.3375 17.05 2.64167 17.3583ZM3.33333 7.08332L3.33333 4.99999C3.33333 4.77499 3.375 4.55832 3.4625 4.35416C3.55 4.15416 3.66667 3.97499 3.82083 3.82082C3.975 3.66666 4.15417 3.54999 4.35417 3.46249C4.55833 3.37499 4.775 3.33332 5 3.33332L7.5 3.33332C7.95833 3.33332 8.33333 2.95832 8.33333 2.49999C8.33333 2.04166 7.95833 1.66666 7.5 1.66666L5 1.66666C4.55 1.66666 4.11667 1.75416 3.70417 1.92916C3.30417 2.09999 2.95 2.33749 2.64167 2.64166C2.3375 2.94999 2.1 3.30416 1.92917 3.70416C1.75417 4.11666 1.66667 4.54999 1.66667 4.99999L1.66667 7.08332C1.66667 7.54166 2.04167 7.91666 2.5 7.91666C2.95833 7.91666 3.33333 7.54166 3.33333 7.08332Z" fill-rule="evenodd"  fill="#000000" >
</path>
</svg>
