<svg xmlns="http://www.w3.org/2000/svg" xmlns:xlink="http://www.w3.org/1999/xlink" width="13.52880859375" height="13.528564453125" viewBox="0 0 13.52880859375 13.528564453125" fill="none">
    <path d="M5.6667 0C2.53705 0 0 2.53705 0 5.66667C0 8.79627 2.53705 11.3333 5.6667 11.3333C6.991 11.3333 8.20993 10.8784 9.17447 10.1173L12.3905 13.3333C12.6509 13.5937 13.073 13.5937 13.3334 13.3333C13.5937 13.073 13.5937 12.6509 13.3334 12.3905L10.1173 9.17453C10.8784 8.20993 11.3334 6.991 11.3334 5.66667C11.3334 2.53705 8.79627 0 5.6667 0ZM1.33333 5.66667C1.33333 3.27343 3.27343 1.33333 5.6667 1.33333C8.05987 1.33333 10.0001 3.27343 10.0001 5.66667C10.0001 6.86347 9.51567 7.94587 8.73073 8.7308C7.94587 9.51573 6.86347 10 5.6667 10C3.27343 10 1.33333 8.05993 1.33333 5.66667Z" fill-rule="evenodd"  fill="#000000" >
    </path>
</svg>
