<svg xmlns="http://www.w3.org/2000/svg" xmlns:xlink="http://www.w3.org/1999/xlink" width="44" height="44" viewBox="0 0 44 44" fill="none">
<path     fill="#309EF2"  d="M9.5 3L27 3L27.5 3.5L27.5 8L32.25 12.5L37 12.5L37.5 13L37.5 38.5C37.5 40.1569 36.1569 41.5 34.5 41.5L9.5 41.5C7.84315 41.5 6.5 40.1569 6.5 38.5L6.5 6C6.5 4.34315 7.84315 3 9.5 3Z">
</path>
<path     fill="#77C8F7"  d="M27.2031 3L27 3L27 3C27.1601 3.16007 27.25 3.37718 27.25 3.60355L27.25 9.75C27.25 11.4069 28.5931 12.75 30.25 12.75L36.8964 12.75C37.1228 12.75 37.3399 12.8399 37.5 13L37.5 13L37.5 12.8603C37.5 12.3111 37.2742 11.7861 36.8755 11.4084L28.5785 3.54809C28.2071 3.19615 27.7148 3 27.2031 3Z">
</path>
<path     fill="#FFFFFF"  d="M11 25L21 25C21.2761 25 21.5 25.2239 21.5 25.5L21.5 27C21.5 27.2761 21.2761 27.5 21 27.5L11 27.5C10.7239 27.5 10.5 27.2761 10.5 27L10.5 25.5C10.5 25.2239 10.7239 25 11 25Z">
</path>
<path     fill="#FFFFFF"  d="M11 29.5L24.5 29.5C24.7761 29.5 25 29.7239 25 30L25 31.5C25 31.7761 24.7761 32 24.5 32L11 32C10.7239 32 10.5 31.7761 10.5 31.5L10.5 30C10.5 29.7239 10.7239 29.5 11 29.5Z">
</path>
<path     fill="#FFFFFF"  d="M11 34L29 34C29.2761 34 29.5 34.2239 29.5 34.5L29.5 36C29.5 36.2761 29.2761 36.5 29 36.5L11 36.5C10.7239 36.5 10.5 36.2761 10.5 36L10.5 34.5C10.5 34.2239 10.7239 34 11 34Z">
</path>
</svg>
