<svg xmlns="http://www.w3.org/2000/svg" xmlns:xlink="http://www.w3.org/1999/xlink" width="44" height="44" viewBox="0 0 44 44" fill="none">
<path     fill="#000000" opacity="0.06" d="M34.4 0C37.76 0 39.44 0 40.72 0.65Q41.1403 0.86431 41.522 1.14169Q41.9037 1.41907 42.2373 1.75269Q42.5709 2.08632 42.8483 2.46799Q43.1257 2.84966 43.34 3.27C44 4.56 44 6.24 44 9.6L44 34.4C44 37.76 44 39.44 43.35 40.72Q43.1357 41.1403 42.8583 41.522Q42.5809 41.9037 42.2473 42.2373Q41.9137 42.5709 41.532 42.8483Q41.1503 43.1257 40.73 43.34C39.44 44 37.76 44 34.4 44L9.6 44C6.24 44 4.56 44 3.28 43.35Q2.85966 43.1357 2.47799 42.8583Q2.09632 42.5809 1.76269 42.2473Q1.42907 41.9137 1.15169 41.532Q0.87431 41.1503 0.66 40.73C0 39.44 0 37.76 0 34.4L0 9.6C0 6.24 0 4.56 0.65 3.28Q0.86431 2.85966 1.14169 2.47799Q1.41906 2.09632 1.75269 1.76269Q2.08632 1.42906 2.46799 1.15169Q2.84966 0.87431 3.27 0.66C4.56 0 6.24 0 9.6 0L34.4 0Z">
</path>
<path d="M11.5 17.3333L18.5037 10.3333L31.3308 10.3333C31.9765 10.3333 32.5 10.8645 32.5 11.4904L32.5 32.5096C32.5 33.1487 31.9809 33.6667 31.341 33.6667L12.659 33.6667C12.0189 33.6667 11.5 33.1418 11.5 32.4921L11.5 17.3333ZM19.6667 12.0833L13.25 18.5L19.6667 18.5L19.6667 12.0833Z"   fill="#707070" >
</path>
</svg>
