<svg xmlns="http://www.w3.org/2000/svg" xmlns:xlink="http://www.w3.org/1999/xlink" width="22" height="22" viewBox="0 0 22 22" fill="none">
<path d="M2.75 3.66062C2.75 3.1577 3.15787 2.75 3.66062 2.75L18.3394 2.75C18.8423 2.75 19.25 3.15787 19.25 3.66062L19.25 18.3394C19.25 18.8423 18.8422 19.25 18.3394 19.25L3.66062 19.25C3.1577 19.25 2.75 18.8422 2.75 18.3394L2.75 3.66062ZM4.58333 4.58333L4.58333 17.4167L17.4167 17.4167L17.4167 4.58333L4.58333 4.58333ZM9.73674 7.71337L14.2091 10.6949C14.3776 10.8072 14.4231 11.0349 14.3107 11.2034C14.2839 11.2437 14.2493 11.2782 14.2091 11.3051L9.73674 14.2866C9.56826 14.399 9.34056 14.3534 9.22827 14.185C9.18812 14.1247 9.16667 14.054 9.16667 13.9816L9.16667 8.01846C9.16667 7.81595 9.33084 7.65179 9.53333 7.65179C9.60575 7.65179 9.67652 7.67321 9.73674 7.71337Z"   fill="#000000" >
</path>
</svg>
