<svg xmlns="http://www.w3.org/2000/svg" xmlns:xlink="http://www.w3.org/1999/xlink" width="22" height="22" viewBox="0 0 22 22" fill="none">
<path d="M8.23105 1.83325L13.7611 1.83325C14.8767 1.83325 15.7145 1.83325 16.3808 1.88761C16.3873 1.88814 16.3938 1.88868 16.4003 1.88922C17.0619 1.94454 17.5536 2.05454 17.9811 2.27325C17.9944 2.28001 18.0076 2.28685 18.0208 2.29376C18.1937 2.38417 18.3591 2.48673 18.517 2.60144C18.687 2.72491 18.8463 2.86093 18.9948 3.0095C19.1434 3.15807 19.2794 3.31736 19.4029 3.48737C19.5263 3.65738 19.6357 3.83601 19.7311 4.02325C19.9415 4.4392 20.049 4.9198 20.1038 5.56465C20.1057 5.58629 20.1075 5.60812 20.1092 5.63013C20.1611 6.29267 20.1611 7.12617 20.1611 8.23325L20.1646 13.7633L20.1646 13.7633C20.1646 14.8833 20.1646 15.7234 20.1104 16.3909C20.0576 17.0409 19.9535 17.5273 19.7479 17.9494C19.7424 17.9607 19.7368 17.972 19.7311 17.9833C19.6358 18.1706 19.5264 18.3492 19.4029 18.5192C19.2794 18.6892 19.1434 18.8485 18.9948 18.997C18.8463 19.1456 18.687 19.2816 18.517 19.4051C18.347 19.5286 18.1684 19.638 17.9811 19.7333L17.9811 19.7333C17.1211 20.1667 16.0011 20.1667 13.7611 20.1667L8.23105 20.1667C5.99105 20.1667 4.87105 20.1667 4.01105 19.7333C3.82381 19.6379 3.64518 19.5285 3.47517 19.4051C3.30516 19.2816 3.14587 19.1456 2.9973 18.997C2.84873 18.8485 2.71271 18.6892 2.58924 18.5192C2.46775 18.3519 2.35989 18.1763 2.26565 17.9923C2.26412 17.9893 2.26259 17.9863 2.26105 17.9833C2.04689 17.555 1.93939 17.0622 1.88544 16.3986C1.88522 16.396 1.88501 16.3934 1.8848 16.3908L1.88444 16.3863C1.83105 15.7195 1.83105 14.8808 1.83105 13.7633L1.83105 8.23325C1.83105 7.11544 1.83105 6.27653 1.88573 5.60966L1.88605 5.60575C1.88627 5.60315 1.88648 5.60054 1.8867 5.59794C1.94192 4.93438 2.05191 4.44157 2.27105 4.01325C2.27411 4.00725 2.27718 4.00126 2.28026 3.99528C2.3734 3.81457 2.47973 3.64193 2.59924 3.47737C2.72271 3.30737 2.85873 3.14808 3.0073 2.9995C3.15588 2.85093 3.31517 2.71491 3.48517 2.59144C3.64845 2.47285 3.81969 2.36725 3.99887 2.27463C4.00625 2.27081 4.01365 2.26702 4.02105 2.26325C4.44439 2.04909 4.9347 1.94159 5.597 1.88763C5.5996 1.88742 5.6022 1.88721 5.6048 1.887L5.60728 1.8868C6.27314 1.83325 7.11244 1.83325 8.23105 1.83325ZM17.1612 3.8757L17.1634 3.87684L17.1646 3.87741C17.5889 4.09425 17.909 4.41371 18.1249 4.83578L18.1254 4.83677L18.127 4.83986C18.2163 5.01644 18.2784 5.3204 18.3132 5.75175C18.3252 5.90029 18.3349 6.10948 18.3424 6.37931C18.3548 6.82889 18.3611 7.44687 18.3611 8.23325L18.3611 8.23439L18.3646 13.7633L18.3646 13.7644C18.3646 13.8425 18.3645 13.9191 18.3644 13.9941C18.3625 15.123 18.3465 15.8734 18.3163 16.2452L18.3163 16.2452C18.2815 16.674 18.2184 16.9812 18.127 17.1667L18.1269 17.1668C18.1259 17.1689 18.1248 17.171 18.1238 17.1731C17.923 17.5675 17.6296 17.8721 17.2438 18.087C17.2178 18.1015 17.1913 18.1155 17.1645 18.1292C17.0002 18.212 16.731 18.2716 16.3569 18.3082C16.3199 18.3118 16.282 18.3152 16.243 18.3184C16.1314 18.3274 15.9858 18.3352 15.8062 18.3418C15.347 18.3584 14.6653 18.3667 13.7611 18.3667L8.23105 18.3667C8.15253 18.3667 8.07558 18.3666 8.00021 18.3665C7.20721 18.3651 6.60102 18.3568 6.18164 18.3416C6.00396 18.3351 5.85979 18.3274 5.74916 18.3184C5.31948 18.2835 5.01192 18.2202 4.82648 18.1286C4.82467 18.1277 4.82288 18.1268 4.82108 18.1259C4.40026 17.9116 4.08162 17.5919 3.86516 17.1667C3.77611 16.9885 3.71405 16.6817 3.67899 16.2463L3.67899 16.2463C3.67101 16.1471 3.66402 16.0209 3.65802 15.8679C3.64004 15.4086 3.63105 14.7071 3.63105 13.7633L3.63105 8.23325C3.63105 7.29027 3.64023 6.58958 3.65857 6.13119C3.66468 5.97839 3.67182 5.85251 3.67997 5.75356C3.71547 5.32271 3.77998 5.01589 3.8735 4.83311L3.87354 4.83302C3.88552 4.80951 3.8978 4.78633 3.9104 4.76345C4.11438 4.39312 4.40074 4.10646 4.76946 3.90347C4.79138 3.89141 4.81358 3.87965 4.83607 3.86817L4.83766 3.86736C5.01425 3.77804 5.31821 3.71597 5.74955 3.68117L5.74955 3.68117C5.84855 3.67319 5.9745 3.6662 6.12739 3.66021C6.58608 3.64224 7.2873 3.63325 8.23105 3.63325L13.7611 3.63325C14.7041 3.63325 15.4048 3.64243 15.8632 3.66077C16.016 3.66688 16.1419 3.67402 16.2408 3.68217C16.2677 3.68439 16.2941 3.68672 16.3201 3.68916C16.6284 3.7182 16.8683 3.76323 17.0399 3.82423C17.0851 3.84028 17.1255 3.85744 17.1612 3.8757ZM14.6182 11.9534L14.6181 11.9535C14.4706 12.2079 14.2767 12.4157 14.0364 12.5769C13.999 12.6019 13.9605 12.6259 13.9209 12.6487L13.9204 12.649L13.9191 12.6497L10.0223 14.8988L9.97635 14.9253L9.97495 14.9261L9.97447 14.9263C9.68 15.0957 9.36295 15.1804 9.02331 15.1804C8.91998 15.1804 8.8188 15.1726 8.7198 15.1569C8.49315 15.1211 8.27783 15.0443 8.07384 14.9265L8.07355 14.9263L8.07274 14.9259C8.05923 14.9181 8.04585 14.9102 8.03259 14.9021C7.75671 14.7346 7.53759 14.5099 7.37523 14.2279L7.37496 14.2274C7.20564 13.9332 7.12098 13.6164 7.12098 13.277L7.12098 8.72282C7.12098 8.6632 7.12359 8.60428 7.12882 8.54605C7.15335 8.27265 7.23547 8.01461 7.37519 7.77194L7.37523 7.77187L7.37524 7.77186C7.54101 7.48396 7.76572 7.25586 8.04937 7.08757C8.05688 7.08312 8.0644 7.07871 8.07199 7.07435L8.0728 7.07388C8.07845 7.07062 8.08411 7.06739 8.08979 7.06417C8.37871 6.90096 8.68989 6.81935 9.02331 6.81935C9.36295 6.81935 9.68015 6.90414 9.97493 7.07371L9.97516 7.07385L9.97541 7.07399L13.806 9.28477L13.9199 9.35049L13.9199 9.35051L13.9204 9.35077L13.9213 9.35131C13.961 9.37414 13.9994 9.39809 14.0368 9.42317C14.2771 9.58442 14.4709 9.79217 14.6182 10.0464C14.789 10.3412 14.8744 10.6591 14.8744 10.9999C14.8744 11.0591 14.8718 11.1177 14.8667 11.1755C14.8421 11.4505 14.7593 11.7098 14.6182 11.9534ZM13.2757 11.1756C13.2442 11.23 13.2009 11.273 13.1458 11.3047L13.1454 11.3049L12.7552 11.5301L12.4304 11.7176L11.9288 12.0071L11.8735 12.0391L10.4725 12.8476L10.4176 12.8792L9.37227 13.4825L9.20082 13.5815L9.20033 13.5818L9.19939 13.5823C9.14481 13.6134 9.08612 13.6289 9.02331 13.6289C8.96059 13.6289 8.90216 13.6133 8.84801 13.582L8.8472 13.5815L8.84703 13.5814C8.81742 13.5644 8.79124 13.5437 8.76847 13.5196C8.74999 13.5 8.73377 13.478 8.7198 13.4537L8.71978 13.4537L8.71974 13.4536C8.68824 13.3989 8.67249 13.34 8.67249 13.277L8.67249 8.72282C8.67249 8.65974 8.68826 8.60082 8.71978 8.54606L8.71978 8.54604C8.75105 8.49176 8.79377 8.44903 8.84795 8.41786L8.84836 8.41763L8.84876 8.41739C8.90241 8.38637 8.96059 8.37085 9.02331 8.37085C9.08648 8.37085 9.14533 8.38648 9.19987 8.41775L9.20037 8.41803L9.42217 8.54604L10.4176 9.12055L10.454 9.14152L10.4725 9.15222L11.8735 9.96075L11.9288 9.99266L12.4288 10.2813L12.6174 10.3901L13.1458 10.6951L13.1461 10.6952L13.1463 10.6953C13.201 10.7268 13.2442 10.7698 13.2757 10.8242C13.3072 10.8785 13.3229 10.9371 13.3229 10.9999C13.3229 11.0627 13.3072 11.1212 13.2757 11.1755L13.2757 11.1756Z" fill-rule="evenodd"  fill="#000000" >
</path>
</svg>
