<svg xmlns="http://www.w3.org/2000/svg" xmlns:xlink="http://www.w3.org/1999/xlink" width="20" height="20" viewBox="0 0 20 20" fill="none">
<path d="M2 6.88643C4.18616 5.0812 6.96942 4 9.99995 4C13.0305 4 15.8137 5.0812 18 6.88643L17.111 8.01015C15.1678 6.40551 12.6938 5.44444 9.99995 5.44444C7.30615 5.44444 4.83214 6.40551 2.88889 8.01015L2 6.88643ZM4.22222 9.69573C5.80111 8.39197 7.81124 7.61111 9.99995 7.61111C12.1887 7.61111 14.1988 8.39197 15.7777 9.69573L14.8888 10.8195C13.5528 9.71632 11.852 9.05556 9.99995 9.05556C8.14797 9.05556 6.44709 9.71632 5.11111 10.8195L4.22222 9.69573ZM6.44444 12.5051C7.41606 11.7027 8.65306 11.2222 9.99995 11.2222C11.3469 11.2222 12.5839 11.7027 13.5555 12.5051L12.6666 13.6288C11.9379 13.0271 11.0101 12.6667 9.99995 12.6667C8.98981 12.6667 8.06204 13.0271 7.33332 13.6288L6.44444 12.5051ZM8.66664 15.3144C9.03104 15.0135 9.49486 14.8333 9.99995 14.8333C10.505 14.8333 10.9689 15.0135 11.3333 15.3144L9.99995 17L8.66664 15.3144Z"   fill="#007AFF" >
</path>
</svg>
