<svg xmlns="http://www.w3.org/2000/svg" xmlns:xlink="http://www.w3.org/1999/xlink" width="18" height="18" viewBox="0 0 18 18" fill="none">
<path d="M3.22259 4.89204C2.67601 5.28825 2.16938 5.73664 1.7027 6.2372C1.57698 6.37132 1.5 6.55167 1.5 6.75C1.5 7.16423 1.83579 7.5 2.25 7.5C2.46737 7.5 2.66313 7.40753 2.80011 7.25978C3.61243 6.38856 4.54381 5.7146 5.59425 5.23788C6.67815 4.74596 7.8134 4.5 9 4.5C10.1866 4.5 11.3218 4.74596 12.4058 5.23788C13.4562 5.71459 14.3876 6.38856 15.1999 7.25978C15.2004 7.2603 15.2008 7.26083 15.2013 7.26135C15.3383 7.40816 15.5334 7.5 15.75 7.5C16.1642 7.5 16.5 7.16423 16.5 6.75C16.5 6.55239 16.4236 6.37262 16.2987 6.23866C16.2982 6.23816 16.2977 6.23766 16.2973 6.23716C15.8306 5.73662 15.324 5.28825 14.7774 4.89204C14.2238 4.49076 13.6399 4.15073 13.0257 3.87196C11.7448 3.29065 10.4029 3 9 3C7.5971 3 6.25521 3.29065 4.97434 3.87196C4.36009 4.15073 3.77617 4.49076 3.22259 4.89204ZM11.1834 8.69355C11.8546 8.97925 12.4495 9.3827 12.9682 9.9039L12.9684 9.90405C13.1042 10.0405 13.2922 10.125 13.5 10.125C13.9142 10.125 14.25 9.78922 14.25 9.375C14.25 9.16856 14.1666 8.98159 14.0316 8.84595L14.031 8.84531C13.3748 8.18606 12.6214 7.67543 11.7709 7.3134C10.8886 6.9378 9.96492 6.75 9 6.75C8.03508 6.75 7.11144 6.9378 6.22909 7.3134C5.3786 7.67543 4.62525 8.18606 3.96904 8.84531C3.96882 8.8455 3.9686 8.84573 3.96838 8.84595C3.83342 8.98159 3.75 9.16856 3.75 9.375C3.75 9.78922 4.08579 10.125 4.5 10.125C4.70777 10.125 4.8958 10.0405 5.03162 9.90405C5.55036 9.38277 6.14534 8.97927 6.81656 8.69355C7.51126 8.39785 8.23907 8.25 9 8.25C9.76095 8.25 10.4888 8.39785 11.1834 8.69355ZM10.3535 12.1354L10.354 12.1359C10.4889 12.2662 10.6726 12.3464 10.875 12.3464C11.2892 12.3464 11.625 12.0106 11.625 11.5964C11.625 11.3846 11.5372 11.1933 11.396 11.0569C11.3957 11.0567 11.3954 11.0563 11.3951 11.0561C11.0814 10.7534 10.7217 10.5191 10.3157 10.3533C9.8964 10.1821 9.45784 10.0964 9 10.0964C8.54218 10.0964 8.1036 10.1821 7.68428 10.3533C7.27838 10.5191 6.9186 10.7533 6.60495 11.056C6.4632 11.1925 6.375 11.3841 6.375 11.5964C6.375 12.0106 6.71077 12.3464 7.125 12.3464C7.32769 12.3464 7.51159 12.266 7.64659 12.1354C7.82191 11.9662 8.02354 11.8351 8.25146 11.742C8.48903 11.6449 8.73851 11.5964 9 11.5964C9.26149 11.5964 9.51097 11.6449 9.74854 11.742C9.9765 11.8351 10.1781 11.9662 10.3535 12.1354ZM9 13.125C8.4825 13.125 8.0625 13.545 8.0625 14.0625C8.0625 14.58 8.4825 15 9 15C9.5175 15 9.9375 14.58 9.9375 14.0625C9.9375 13.545 9.5175 13.125 9 13.125Z" fill-rule="evenodd"  fill="#007AFF" >
</path>
</svg>
