<svg xmlns="http://www.w3.org/2000/svg" xmlns:xlink="http://www.w3.org/1999/xlink" width="270.36572265625" height="194.7172088623047" viewBox="0 0 270.36572265625 194.7172088623047" fill="none"><g opacity="1"  transform="translate(0 0)"><mask id="bg-mask-0" fill="white"><use transform="translate(0 0)" xlink:href="#path_0"></use></mask><g mask="url(#bg-mask-0)" ><path id="路径 1" fill-rule="evenodd" style="fill:#F2F2F2" opacity="1" d="M45.3689 186.91C45.3151 186.913 45.2615 186.911 45.208 186.906C45.1543 186.9 45.1014 186.89 45.0494 186.876C44.9972 186.863 44.9464 186.845 44.8972 186.823C44.8477 186.802 44.8003 186.776 44.7548 186.747C44.7091 186.719 44.666 186.686 44.6256 186.651C44.5849 186.615 44.5472 186.577 44.5126 186.536C44.4777 186.495 44.4461 186.451 44.418 186.405C44.3899 186.359 44.3654 186.311 44.3445 186.262C44.324 186.212 44.3071 186.161 44.294 186.109C44.281 186.057 44.2721 186.004 44.2673 185.95C44.2623 185.896 44.2614 185.842 44.2647 185.789C44.2682 185.735 44.2756 185.682 44.2869 185.629C44.2985 185.576 44.3139 185.525 44.3332 185.474C44.3526 185.424 44.3756 185.376 44.4022 185.329C44.4291 185.282 44.4593 185.237 44.493 185.195C44.5264 185.153 44.5629 185.114 44.6026 185.077L44.6749 184.789C44.6654 184.766 44.6559 184.743 44.6463 184.72C44.6192 184.656 44.5898 184.593 44.5581 184.531C44.5263 184.469 44.4922 184.409 44.456 184.35C44.4199 184.29 44.3816 184.232 44.3411 184.176C44.3007 184.119 44.2583 184.064 44.2138 184.01C44.1693 183.957 44.123 183.906 44.0748 183.856C44.0266 183.805 43.9766 183.757 43.9249 183.711C43.8731 183.665 43.8197 183.62 43.7647 183.578C43.7097 183.535 43.6532 183.495 43.5952 183.457C43.5372 183.419 43.4778 183.382 43.417 183.349C43.3565 183.314 43.2947 183.283 43.2317 183.253C43.1687 183.224 43.1046 183.197 43.0396 183.172C42.9748 183.148 42.9091 183.125 42.8425 183.106C42.7757 183.086 42.7084 183.068 42.6406 183.053C42.5728 183.038 42.5045 183.026 42.4357 183.016C42.3669 183.006 42.2978 182.999 42.2285 182.994C42.1591 182.989 42.0897 182.987 42.0201 182.987C41.9506 182.988 41.8813 182.99 41.8122 182.996C41.7429 183.001 41.6738 183.009 41.605 183.019C41.5362 183.03 41.468 183.043 41.4004 183.058C41.3326 183.073 41.2654 183.091 41.1989 183.112C41.1326 183.132 41.067 183.155 41.0022 183.18C40.9374 183.205 40.8736 183.232 40.8108 183.262C40.7481 183.292 40.6864 183.324 40.6259 183.359C40.5656 183.393 40.5066 183.43 40.4488 183.468C40.391 183.507 40.3348 183.548 40.28 183.591C40.2255 183.633 40.1725 183.678 40.121 183.725C40.0696 183.772 40.0199 183.82 39.9719 183.871C39.9242 183.921 39.8782 183.973 39.834 184.027C39.7901 184.081 39.7481 184.136 39.7082 184.193C39.668 184.25 39.6301 184.308 39.5944 184.368C39.5587 184.427 39.5252 184.488 39.4938 184.55C39.4627 184.612 39.4338 184.675 39.4071 184.739C38.5501 186.803 37.4593 188.871 37.1907 191.053C37.1316 191.535 37.1144 192.018 37.1391 192.504C37.1639 192.989 37.2303 193.469 37.3382 193.942C37.0876 193.395 36.8517 192.842 36.6307 192.283C36.4096 191.724 36.2037 191.158 36.013 190.588C35.8222 190.018 35.6468 189.442 35.4869 188.863C35.3269 188.283 35.1825 187.699 35.0538 187.111C34.9252 186.524 34.8123 185.933 34.7152 185.34C34.6182 184.746 34.5371 184.15 34.4719 183.552C34.4068 182.954 34.3577 182.355 34.3247 181.754C34.2916 181.154 34.2747 180.553 34.2739 179.951C34.2735 178.738 34.3407 177.529 34.4755 176.324C34.5869 175.336 34.7415 174.356 34.9391 173.383C35.0734 172.726 35.2269 172.073 35.3997 171.425C35.5725 170.777 35.7642 170.134 35.975 169.497C36.1857 168.861 36.4151 168.23 36.663 167.607C36.911 166.984 37.1771 166.368 37.4613 165.761C37.7457 165.153 38.0477 164.555 38.3674 163.965C38.6868 163.375 39.0235 162.795 39.3774 162.225C39.7315 161.656 40.102 161.097 40.4887 160.549C40.8755 160.001 41.2782 159.464 41.6969 158.94C41.8988 158.83 42.0964 158.712 42.2895 158.587C42.4824 158.462 42.6704 158.329 42.8534 158.19C43.0363 158.05 43.2136 157.904 43.3854 157.751C43.5574 157.598 43.7232 157.438 43.8827 157.273C44.0424 157.107 44.1956 156.936 44.3423 156.758C44.489 156.581 44.6286 156.398 44.7612 156.21C44.8941 156.022 45.0195 155.83 45.1375 155.632C45.2556 155.435 45.366 155.233 45.4687 155.027C45.6186 154.729 45.7462 154.421 45.8514 154.105C45.9569 153.788 46.039 153.465 46.0978 153.137C45.914 153.161 45.4054 150.364 45.544 150.193C45.2879 149.804 44.8301 149.612 44.5506 149.233C43.1605 147.348 41.2456 147.677 40.2461 150.238C38.1105 151.316 38.0897 153.103 39.4 154.822C40.2337 155.916 40.3482 157.396 41.0798 158.567C41.0045 158.663 40.9261 158.757 40.8511 158.853C40.1632 159.737 39.5203 160.653 38.9223 161.601C38.3243 162.548 37.774 163.523 37.2713 164.524C37.3322 163.965 37.3599 163.405 37.3545 162.842C37.3491 162.28 37.3105 161.72 37.2388 161.162C37.1672 160.605 37.0629 160.053 36.9259 159.508C36.789 158.963 36.6204 158.427 36.4201 157.902C35.6054 155.936 34.0782 154.281 32.7334 152.582C31.1181 150.541 27.8057 151.432 27.5211 154.019C27.5184 154.044 27.5157 154.069 27.5131 154.094C27.7128 154.207 27.9083 154.326 28.0997 154.453C28.1295 154.473 28.1585 154.494 28.1868 154.516C28.215 154.538 28.2424 154.561 28.269 154.585C28.2955 154.609 28.3211 154.635 28.3457 154.66C28.3703 154.687 28.394 154.714 28.4166 154.741C28.4392 154.769 28.4607 154.798 28.4812 154.827C28.5017 154.857 28.521 154.887 28.5391 154.918C28.5573 154.949 28.5744 154.98 28.5902 155.013C28.606 155.045 28.6206 155.078 28.634 155.111C28.6474 155.144 28.6595 155.178 28.6703 155.212C28.6811 155.247 28.6907 155.281 28.6989 155.316C28.7072 155.351 28.7141 155.386 28.7197 155.421C28.7253 155.457 28.7296 155.492 28.7325 155.528C28.7355 155.564 28.7371 155.6 28.7373 155.636C28.7376 155.671 28.7365 155.707 28.734 155.743C28.7316 155.779 28.7278 155.815 28.7227 155.85C28.7176 155.886 28.7111 155.921 28.7034 155.956C28.6956 155.991 28.6866 156.026 28.6762 156.06C28.6658 156.094 28.6542 156.128 28.6413 156.162C28.6284 156.195 28.6142 156.228 28.5989 156.26C28.5835 156.293 28.5669 156.325 28.5491 156.356C28.5314 156.387 28.5125 156.418 28.4924 156.447C28.4724 156.477 28.4512 156.506 28.429 156.534C28.4068 156.562 28.3836 156.59 28.3593 156.616C28.335 156.642 28.3098 156.668 28.2836 156.693C28.2574 156.717 28.2303 156.741 28.2024 156.763C28.1745 156.786 28.1457 156.807 28.1162 156.827C28.0866 156.848 28.0563 156.867 28.0253 156.885C27.9944 156.903 27.9627 156.92 27.9305 156.935C27.8982 156.951 27.8654 156.966 27.8321 156.979C27.7987 156.992 27.7649 157.004 27.7307 157.015C27.6964 157.026 27.6619 157.035 27.6269 157.043C27.5919 157.051 27.5567 157.058 27.5213 157.064L27.492 157.068C27.5633 157.789 27.6887 158.5 27.8683 159.202C26.143 165.874 29.8677 168.304 35.1859 168.413C35.3033 168.474 35.4177 168.534 35.5351 168.591C35.0303 170.022 34.6201 171.479 34.3047 172.963C33.9893 174.448 33.7713 175.946 33.6508 177.459C33.514 179.247 33.5221 181.033 33.6748 182.82L33.6658 182.757C33.6181 182.511 33.56 182.268 33.4914 182.027C33.4229 181.786 33.3442 181.549 33.2554 181.315C33.1666 181.081 33.0679 180.852 32.9594 180.626C32.8509 180.401 32.733 180.18 32.6057 179.965C32.4783 179.75 32.342 179.54 32.1968 179.336C32.0515 179.132 31.8978 178.935 31.7357 178.745C31.5735 178.554 31.4035 178.371 31.2257 178.195C31.0479 178.019 30.8629 177.851 30.6707 177.691C28.3658 175.797 25.1094 175.1 22.6228 173.578C22.59 173.557 22.5565 173.537 22.5222 173.518C22.488 173.5 22.4531 173.482 22.4177 173.466C22.3822 173.45 22.3462 173.435 22.3096 173.421C22.2731 173.408 22.2361 173.395 22.1987 173.384C22.1613 173.373 22.1235 173.363 22.0854 173.355C22.0473 173.347 22.009 173.34 21.9704 173.334C21.9318 173.329 21.893 173.324 21.8541 173.321C21.8152 173.318 21.7763 173.317 21.7372 173.317C21.6982 173.317 21.6593 173.318 21.6204 173.321C21.5814 173.324 21.5427 173.328 21.504 173.333C21.4654 173.338 21.427 173.345 21.3889 173.353C21.3508 173.362 21.313 173.371 21.2755 173.382C21.238 173.393 21.201 173.405 21.1643 173.418C21.1278 173.432 21.0917 173.446 21.0561 173.463C21.0205 173.479 20.9856 173.496 20.9513 173.514C20.917 173.533 20.8833 173.553 20.8504 173.574C20.8175 173.594 20.7853 173.617 20.754 173.64C20.7226 173.663 20.6921 173.687 20.6625 173.713C20.6329 173.738 20.6042 173.764 20.5764 173.792C20.5487 173.819 20.5219 173.848 20.4961 173.877C20.4704 173.906 20.4457 173.936 20.4222 173.967C20.3986 173.998 20.3761 174.03 20.3548 174.063C20.3334 174.096 20.3133 174.129 20.2943 174.163C20.2753 174.197 20.2576 174.232 20.2411 174.267C20.2246 174.303 20.2094 174.339 20.1955 174.375C20.1815 174.411 20.1689 174.448 20.1576 174.486C20.1463 174.523 20.1363 174.561 20.1276 174.599C20.119 174.637 20.1117 174.675 20.1058 174.714C20.0999 174.752 20.0953 174.791 20.0921 174.83C20.0889 174.869 20.0872 174.908 20.0868 174.946C20.0864 174.985 20.0873 175.024 20.0897 175.063C20.0921 175.102 20.0958 175.141 20.1009 175.18C20.1043 175.202 20.1077 175.224 20.1111 175.246C20.4821 175.397 20.8424 175.571 21.1917 175.767C21.3915 175.88 21.587 175.999 21.7783 176.126C21.8082 176.146 21.8372 176.167 21.8655 176.189C21.8937 176.211 21.9211 176.234 21.9476 176.258C21.9741 176.282 21.9997 176.307 22.0243 176.334C22.049 176.36 22.0726 176.387 22.0952 176.415C22.1178 176.442 22.1393 176.471 22.1598 176.5C22.1803 176.53 22.1996 176.56 22.2178 176.591C22.236 176.622 22.253 176.654 22.2688 176.686C22.2847 176.718 22.2993 176.751 22.3126 176.784C22.326 176.817 22.3381 176.851 22.3489 176.885C22.3598 176.92 22.3693 176.954 22.3776 176.989C22.3858 177.024 22.3927 177.059 22.3983 177.095C22.4039 177.13 22.4082 177.165 22.4111 177.201C22.4141 177.237 22.4157 177.273 22.4159 177.309C22.4162 177.345 22.4151 177.38 22.4126 177.416C22.4102 177.452 22.4064 177.488 22.4013 177.523C22.3962 177.559 22.3898 177.594 22.382 177.629C22.3742 177.664 22.3652 177.699 22.3548 177.733C22.3444 177.767 22.3328 177.801 22.3199 177.835C22.307 177.868 22.2929 177.901 22.2775 177.934C22.2621 177.966 22.2455 177.998 22.2278 178.029C22.21 178.06 22.1911 178.091 22.171 178.12C22.151 178.15 22.1299 178.179 22.1076 178.207C22.0854 178.235 22.0622 178.263 22.0379 178.289C22.0136 178.316 21.9884 178.341 21.9622 178.366C21.936 178.39 21.909 178.414 21.881 178.436C21.8531 178.459 21.8244 178.48 21.7948 178.5C21.7652 178.521 21.735 178.54 21.704 178.558C21.673 178.576 21.6414 178.593 21.6091 178.609C21.5768 178.624 21.544 178.639 21.5107 178.652C21.4774 178.665 21.4436 178.677 21.4093 178.688C21.3751 178.699 21.3405 178.708 21.3055 178.716C21.2706 178.724 21.2354 178.731 21.1999 178.737L21.1706 178.741C21.1496 178.744 21.1315 178.747 21.1105 178.75C21.2685 179.127 21.4425 179.497 21.6323 179.86C21.8221 180.222 22.0271 180.576 22.2473 180.921C22.4675 181.265 22.7021 181.6 22.9511 181.925C23.2 182.249 23.4624 182.563 23.7383 182.865C24.817 188.689 29.4503 189.242 34.4063 187.546C34.6812 188.727 35.0136 189.892 35.4065 191.038C35.7993 192.185 36.2506 193.309 36.7603 194.409L45.1586 194.409C45.1888 194.315 45.2159 194.219 45.243 194.126C44.4627 194.175 43.688 194.129 42.919 193.987C43.5421 193.223 44.1652 192.452 44.7883 191.688C44.8021 191.673 44.8152 191.658 44.8275 191.643C45.1436 191.251 45.4627 190.863 45.7787 190.472C45.7873 189.871 45.7573 189.274 45.6887 188.678C45.6201 188.082 45.5137 187.493 45.3692 186.91L45.3689 186.91Z"></path><path id="路径 2" fill-rule="evenodd" style="fill:#F2F2F2" opacity="1" d="M55.0286 194.221L68.5809 194.221C70.8986 186.416 68.5934 167.972 71.6482 160.433C77.5097 145.979 84.9979 130.727 98.9741 123.67C104.941 120.656 111.448 119.479 118.093 119.543C127.272 119.63 136.709 122.094 145.349 125.36C148.884 126.692 152.386 128.158 155.874 129.656C169.016 135.303 182.015 141.454 196.148 143.116C214.032 145.219 235.058 137.217 239.943 119.983C243.671 106.787 236.957 93.0889 229.916 81.3045C222.875 69.5201 215.004 56.911 216.29 43.2675C216.294 43.2215 216.299 43.1711 216.308 43.1255C216.792 38.2246 219.718 34.7028 223.806 32.4448L206.009 32.4448C205.774 45.1726 213.138 56.4074 219.764 67.5001C226.805 79.2799 233.519 92.9834 229.791 106.178C224.907 123.409 184.461 103.211 166.577 101.105C161.527 100.514 169.549 102.616 164.734 101.105C157.181 98.7368 156.344 120.454 148.994 117.267C144.418 115.279 139.838 113.305 135.198 111.551C133.276 110.823 131.313 110.14 129.327 109.508C129.323 109.508 129.32 109.506 129.318 109.504C115.982 105.281 101.398 103.636 89.076 109.742C88.9931 109.783 88.9053 109.824 88.8225 109.865C74.8463 116.919 67.3585 132.17 61.497 146.624C56.6538 158.574 57.4155 181.616 55.0286 194.221Z"></path><path id="路径 3" fill-rule="evenodd" style="fill:#FFFFFF" opacity="1" d="M135.363 193.821C69.2229 195.222 67.7725 166.25 67.7725 131.79C67.7725 97.3302 97.9328 70.3728 135.308 70.3728C172.682 70.3728 202.365 97.3204 202.365 131.779C202.365 166.238 172.737 193.821 135.363 193.821Z"></path><path id="路径 4" fill-rule="evenodd" style="fill:#3F3D56" opacity="1" d="M134.986 194.198C68.8462 195.599 67.3958 166.627 67.3958 132.167C67.3958 97.7068 97.8025 69.6726 135.177 69.6726C172.552 69.6726 202.958 97.7075 202.958 132.167C202.958 166.626 172.361 194.198 134.986 194.198ZM135.177 71.3924C98.8306 71.3924 69.8727 98.6603 69.2609 132.167C68.6917 163.332 104.6 202.222 135.177 192.942C151.575 176.292 197.935 158.358 201.093 132.167C205.109 98.8607 171.523 71.3924 135.177 71.3924Z"></path><path id="路径 5" fill-rule="evenodd" style="fill:#CCCCCC" opacity="1" d="M2.00299e-06 194.269C-4.19402e-05 194.284 0.000637162 194.298 0.00203931 194.313C0.00344146 194.328 0.00555985 194.342 0.00839445 194.356C0.0112291 194.371 0.0147662 194.385 0.0190058 194.399C0.0232454 194.413 0.0281669 194.427 0.0337704 194.44C0.0393736 194.454 0.0456318 194.468 0.0525447 194.48C0.0594577 194.493 0.0669918 194.506 0.0751468 194.518C0.0833022 194.53 0.0920393 194.542 0.101358 194.554C0.110676 194.565 0.120531 194.576 0.130922 194.586C0.141314 194.596 0.152191 194.606 0.163554 194.616C0.174917 194.625 0.186711 194.634 0.198936 194.642C0.211161 194.65 0.223758 194.658 0.236725 194.665C0.249693 194.672 0.26297 194.678 0.276555 194.683C0.29014 194.689 0.303968 194.694 0.318038 194.698C0.332109 194.702 0.346354 194.706 0.360773 194.709C0.375193 194.712 0.389716 194.714 0.404345 194.715C0.418973 194.717 0.433635 194.717 0.448331 194.717L269.917 194.717C269.932 194.717 269.947 194.717 269.961 194.715C269.976 194.714 269.99 194.711 270.005 194.709C270.019 194.706 270.033 194.702 270.047 194.698C270.061 194.693 270.075 194.689 270.089 194.683C270.102 194.677 270.115 194.671 270.129 194.664C270.141 194.657 270.154 194.65 270.166 194.642C270.179 194.633 270.19 194.625 270.202 194.615C270.213 194.606 270.224 194.596 270.234 194.586C270.245 194.576 270.254 194.565 270.264 194.553C270.273 194.542 270.282 194.53 270.29 194.518C270.298 194.506 270.306 194.493 270.312 194.48C270.32 194.467 270.326 194.454 270.331 194.44C270.337 194.427 270.342 194.413 270.346 194.399C270.35 194.385 270.354 194.371 270.357 194.356C270.36 194.342 270.362 194.327 270.363 194.313C270.365 194.298 270.366 194.284 270.366 194.269C270.366 194.254 270.365 194.239 270.363 194.225C270.362 194.21 270.36 194.196 270.357 194.181C270.354 194.167 270.35 194.153 270.346 194.139C270.342 194.125 270.337 194.111 270.331 194.097C270.326 194.084 270.32 194.07 270.312 194.058C270.306 194.045 270.298 194.032 270.29 194.02C270.282 194.008 270.273 193.996 270.264 193.985C270.254 193.973 270.245 193.962 270.234 193.952C270.224 193.941 270.213 193.932 270.202 193.922C270.19 193.913 270.179 193.904 270.166 193.896C270.154 193.888 270.141 193.88 270.129 193.873C270.115 193.867 270.102 193.86 270.089 193.855C270.075 193.849 270.061 193.844 270.047 193.84C270.033 193.836 270.019 193.832 270.005 193.829C269.99 193.826 269.976 193.824 269.961 193.823C269.947 193.821 269.932 193.821 269.917 193.821L0.448331 193.821C0.433635 193.82 0.418973 193.821 0.404348 193.823C0.38972 193.824 0.375196 193.826 0.360776 193.829C0.346357 193.832 0.332113 193.835 0.318043 193.84C0.303973 193.844 0.290145 193.849 0.27656 193.854C0.262976 193.86 0.2497 193.866 0.236732 193.873C0.223764 193.88 0.211169 193.888 0.198944 193.896C0.186719 193.904 0.174926 193.913 0.163562 193.922C0.1522 193.931 0.141322 193.941 0.130931 193.951C0.12054 193.962 0.110685 193.973 0.101367 193.984C0.0920483 193.995 0.0833113 194.007 0.0751559 194.02C0.0670005 194.032 0.0594663 194.044 0.0525534 194.057C0.0456405 194.07 0.0393819 194.084 0.033778 194.097C0.0281742 194.111 0.0232522 194.125 0.0190121 194.139C0.014772 194.153 0.0112343 194.167 0.00839905 194.181C0.0055638 194.196 0.00344473 194.21 0.0020418 194.225C0.000638887 194.239 -4.10459e-05 194.254 2.00299e-06 194.269Z"></path><path id="路径 6" fill-rule="evenodd" style="fill:#A0616A" opacity="1" d="M181.573 188.531L176.919 188.531L174.706 170.582L181.574 170.582L181.573 188.531Z"></path><path id="路径 7" fill-rule="evenodd" style="fill:#2F2E41" opacity="1" d="M181.736 193.386L167.427 193.385L167.427 193.204C167.427 193.113 167.429 193.022 167.434 192.931C167.438 192.84 167.445 192.749 167.454 192.658C167.463 192.568 167.474 192.477 167.487 192.387C167.5 192.297 167.516 192.207 167.534 192.118C167.552 192.028 167.572 191.939 167.594 191.851C167.616 191.763 167.64 191.675 167.667 191.588C167.693 191.5 167.722 191.414 167.752 191.328C167.783 191.242 167.816 191.157 167.851 191.073C167.886 190.989 167.923 190.905 167.962 190.823C168.001 190.741 168.042 190.659 168.085 190.579C168.128 190.499 168.173 190.419 168.22 190.341C168.266 190.263 168.315 190.186 168.366 190.11C168.416 190.034 168.469 189.96 168.523 189.886C168.577 189.813 168.633 189.742 168.691 189.671C168.749 189.601 168.808 189.532 168.87 189.464C168.931 189.397 168.994 189.331 169.058 189.266C169.123 189.202 169.189 189.139 169.256 189.078C169.324 189.016 169.393 188.957 169.463 188.899C169.534 188.841 169.605 188.785 169.679 188.731C169.752 188.677 169.827 188.624 169.902 188.574C169.978 188.523 170.055 188.474 170.133 188.427C170.211 188.38 170.291 188.335 170.371 188.293C170.451 188.25 170.533 188.209 170.615 188.17C170.697 188.131 170.781 188.094 170.865 188.059C170.949 188.024 171.034 187.991 171.12 187.96C171.206 187.93 171.292 187.901 171.38 187.875C171.467 187.848 171.555 187.824 171.643 187.802C171.732 187.78 171.821 187.76 171.91 187.742C171.999 187.724 172.089 187.708 172.179 187.695C172.269 187.682 172.36 187.671 172.451 187.661C172.541 187.653 172.632 187.646 172.723 187.642C172.814 187.637 172.905 187.635 172.996 187.635L175.611 185.652L180.488 187.635L181.737 187.635L181.736 193.386Z"></path><path id="路径 8" fill-rule="evenodd" style="fill:#007AFF" opacity="1" d="M174.502 146.925C173.176 145.638 171.8 144.405 170.375 143.227C168.95 142.049 167.48 140.93 165.965 139.87C164.451 138.81 162.896 137.812 161.302 136.876C159.708 135.94 158.078 135.069 156.414 134.264L153.014 138.103L155.179 133.68C154.624 133.426 154.065 133.18 153.503 132.941C152.941 132.702 152.375 132.47 151.807 132.247C151.238 132.022 150.667 131.806 150.093 131.597C149.519 131.388 148.942 131.187 148.363 130.993C147.784 130.8 147.202 130.614 146.618 130.435C146.034 130.257 145.447 130.087 144.858 129.924C144.269 129.761 143.678 129.606 143.085 129.459C142.492 129.312 141.898 129.172 141.301 129.041C140.705 128.909 140.107 128.786 139.506 128.67C138.907 128.555 138.305 128.447 137.703 128.348C137.1 128.248 136.496 128.156 135.891 128.072C135.286 127.989 134.68 127.913 134.073 127.845C133.466 127.777 132.858 127.718 132.249 127.666C131.64 127.615 131.031 127.571 130.421 127.535C129.811 127.5 129.201 127.473 128.59 127.453C127.98 127.434 127.369 127.423 126.758 127.419C126.148 127.416 125.537 127.421 124.926 127.434C124.315 127.447 123.705 127.468 123.095 127.497C122.484 127.526 121.875 127.563 121.265 127.608C120.657 127.653 120.048 127.706 119.44 127.768C118.832 127.829 118.226 127.898 117.619 127.976C117.014 128.053 116.409 128.138 115.805 128.232C115.201 128.325 114.599 128.426 113.998 128.536C113.397 128.645 112.797 128.762 112.2 128.887C111.602 129.012 111.005 129.145 110.411 129.286C109.816 129.427 109.224 129.576 108.633 129.732C108.043 129.889 107.455 130.053 106.868 130.225C106.282 130.397 105.699 130.577 105.117 130.765C104.536 130.952 103.957 131.147 103.381 131.35C102.805 131.553 102.231 131.763 101.661 131.981C101.09 132.199 100.522 132.425 99.9574 132.658C99.3928 132.891 98.8314 133.132 98.2731 133.379L100.04 137.217L97.3268 133.806C96.4532 134.213 95.5885 134.637 94.7326 135.08C93.877 135.522 93.0307 135.982 92.1938 136.46C91.3573 136.938 90.531 137.433 89.715 137.945C88.899 138.457 88.094 138.986 87.3002 139.532C86.5063 140.078 85.7241 140.64 84.9535 141.218C84.183 141.797 83.425 142.391 82.6796 143.001C81.9339 143.611 81.2013 144.237 80.4818 144.878C79.7622 145.518 79.0564 146.174 78.3642 146.844C78.2936 146.909 78.2262 146.978 78.1619 147.05C78.0976 147.122 78.0368 147.197 77.9796 147.274C77.9223 147.352 77.8687 147.432 77.8187 147.515C77.7687 147.597 77.7226 147.682 77.6804 147.768C77.6383 147.855 77.6001 147.944 77.5659 148.034C77.532 148.124 77.5023 148.215 77.4766 148.308C77.451 148.402 77.4298 148.496 77.413 148.591C77.3959 148.686 77.3833 148.781 77.3753 148.877C77.368 148.982 77.3665 149.088 77.3708 149.193C77.375 149.298 77.3848 149.403 77.4002 149.508C77.4155 149.612 77.4365 149.715 77.4631 149.817C77.4894 149.919 77.5212 150.02 77.5584 150.119C77.5956 150.217 77.638 150.314 77.6857 150.408C77.7332 150.502 77.7856 150.593 77.8428 150.682C77.9001 150.77 77.962 150.856 78.0285 150.938C78.0948 151.019 78.1654 151.098 78.2403 151.172C79.0954 151.577 80.3138 152.506 82.1243 155.056C82.1585 155.089 82.1935 155.122 82.2294 155.154C82.2653 155.186 82.302 155.218 82.3394 155.248C82.3768 155.278 82.4149 155.308 82.4536 155.336C82.4923 155.365 82.5317 155.392 82.5719 155.419C82.612 155.445 82.6529 155.471 82.6943 155.496C82.7355 155.521 82.7774 155.544 82.8201 155.567C82.8626 155.589 82.9055 155.611 82.949 155.631C82.9924 155.652 83.0365 155.671 83.0812 155.69C83.1257 155.708 83.1705 155.726 83.2157 155.742C83.2612 155.758 83.3069 155.773 83.3528 155.787C83.3988 155.801 83.4451 155.814 83.4918 155.826C83.5386 155.838 83.5855 155.848 83.6327 155.858C83.6799 155.867 83.7273 155.876 83.7748 155.883C83.8225 155.89 83.8702 155.896 83.9179 155.901C83.9659 155.906 84.0139 155.91 84.0618 155.913C84.11 155.915 84.1581 155.917 84.2061 155.917C84.2543 155.917 84.3026 155.917 84.3508 155.915C84.3987 155.912 84.4467 155.909 84.4947 155.905C84.5426 155.9 84.5905 155.895 84.6382 155.888C84.686 155.882 84.7334 155.874 84.7806 155.865C84.8278 155.856 84.8749 155.846 84.9219 155.835C84.9686 155.823 85.0151 155.811 85.0613 155.798C85.1075 155.784 85.1533 155.77 85.1988 155.754C85.2442 155.738 85.2893 155.721 85.334 155.704C85.3787 155.686 85.423 155.667 85.467 155.647C85.5107 155.627 85.554 155.606 85.597 155.584C85.6397 155.562 85.6819 155.539 85.7236 155.514C85.7652 155.49 85.8063 155.465 85.8468 155.439C85.8872 155.413 85.927 155.386 85.9662 155.358C86.0051 155.33 86.0435 155.301 86.0815 155.271C86.1191 155.241 86.1561 155.21 86.1922 155.179C86.2286 155.147 86.2642 155.115 86.2988 155.081C86.9626 154.439 87.6415 153.813 88.3354 153.202C89.0291 152.593 89.7372 152 90.4598 151.424C91.1821 150.848 91.9178 150.29 92.667 149.749C93.4164 149.209 94.1783 148.687 94.9526 148.183C95.7269 147.679 96.5129 147.194 97.3105 146.728C98.1082 146.262 98.9166 145.815 99.7359 145.388C100.555 144.961 101.384 144.554 102.223 144.166C103.061 143.779 103.909 143.412 104.765 143.066C105.622 142.719 106.486 142.393 107.358 142.088C108.23 141.783 109.109 141.499 109.995 141.236C110.88 140.973 111.772 140.732 112.669 140.512C113.566 140.292 114.468 140.094 115.375 139.918C116.282 139.741 117.193 139.586 118.107 139.453C119.021 139.321 119.938 139.21 120.857 139.121C121.777 139.033 122.698 138.966 123.621 138.922C124.544 138.877 125.467 138.855 126.391 138.855C127.314 138.855 128.238 138.877 129.161 138.922C130.084 138.966 131.005 139.033 131.924 139.121C132.844 139.21 133.761 139.321 134.675 139.453C135.589 139.586 136.5 139.741 137.407 139.918C138.313 140.094 139.215 140.292 140.113 140.512C141.01 140.732 141.902 140.973 142.787 141.236C143.673 141.499 144.552 141.783 145.424 142.088C146.296 142.393 147.16 142.719 148.016 143.066C148.873 143.412 149.72 143.779 150.559 144.166C151.398 144.554 152.227 144.961 153.046 145.388C153.865 145.815 154.673 146.262 155.471 146.728C156.269 147.194 157.055 147.679 157.829 148.183C158.604 148.687 159.365 149.209 160.114 149.749C160.863 150.29 161.599 150.848 162.322 151.424C163.044 152 163.752 152.593 164.446 153.202C165.14 153.813 165.819 154.439 166.483 155.081C166.517 155.115 166.553 155.147 166.589 155.179C166.626 155.21 166.662 155.241 166.7 155.271C166.738 155.301 166.776 155.33 166.815 155.358C166.855 155.386 166.895 155.413 166.935 155.439C166.975 155.465 167.017 155.49 167.058 155.514C167.1 155.539 167.142 155.562 167.185 155.584C167.228 155.606 167.271 155.627 167.315 155.647C167.358 155.667 167.403 155.686 167.447 155.704C167.492 155.721 167.537 155.738 167.583 155.754C167.628 155.77 167.674 155.784 167.72 155.798C167.767 155.811 167.813 155.823 167.86 155.835C167.907 155.846 167.954 155.856 168.001 155.865C168.048 155.874 168.096 155.882 168.143 155.888C168.191 155.895 168.239 155.9 168.287 155.905C168.335 155.909 168.383 155.913 168.431 155.915C168.479 155.917 168.527 155.917 168.575 155.917C168.623 155.917 168.672 155.915 168.719 155.913C168.768 155.91 168.816 155.906 168.863 155.901C168.911 155.896 168.959 155.89 169.007 155.883C169.054 155.876 169.102 155.867 169.149 155.858C169.196 155.848 169.243 155.838 169.29 155.826C169.336 155.814 169.383 155.801 169.429 155.787C169.475 155.773 169.521 155.758 169.566 155.742C169.611 155.726 169.656 155.708 169.7 155.69C169.745 155.671 169.789 155.652 169.833 155.631C169.876 155.611 169.919 155.589 169.961 155.567C170.004 155.544 170.046 155.521 170.087 155.496C170.129 155.471 170.169 155.445 170.209 155.419C170.25 155.392 170.289 155.365 170.328 155.336C170.367 155.308 170.405 155.278 170.442 155.248C170.48 155.218 170.516 155.186 170.552 155.154C170.588 155.122 170.623 155.089 170.657 155.056C172.479 153.417 172.905 151.101 174.47 151.243C174.538 151.177 174.603 151.108 174.665 151.036C174.727 150.964 174.785 150.89 174.84 150.813C174.895 150.735 174.947 150.656 174.994 150.574C175.042 150.492 175.086 150.408 175.126 150.322C175.166 150.236 175.202 150.148 175.234 150.059C175.266 149.97 175.294 149.879 175.317 149.787C175.341 149.696 175.361 149.603 175.376 149.509C175.391 149.416 175.402 149.322 175.409 149.227C175.415 149.121 175.415 149.014 175.409 148.908C175.403 148.802 175.392 148.696 175.375 148.591C175.358 148.486 175.335 148.382 175.307 148.28C175.279 148.177 175.245 148.076 175.206 147.977C175.167 147.878 175.123 147.782 175.074 147.688C175.025 147.593 174.97 147.502 174.911 147.414C174.852 147.325 174.788 147.24 174.719 147.159C174.651 147.077 174.579 146.999 174.502 146.925Z"></path><path id="路径 9" fill-rule="evenodd" style="fill:#A0616A" opacity="1" d="M139.024 152.511L134.371 152.511L132.157 134.562L139.025 134.562L139.024 152.511Z"></path><path id="路径 10" fill-rule="evenodd" style="fill:#2F2E41" opacity="1" d="M139.188 157.366L124.878 157.365L124.878 157.184C124.878 157.093 124.88 157.002 124.884 156.911C124.889 156.82 124.896 156.729 124.905 156.638C124.914 156.548 124.925 156.457 124.938 156.367C124.952 156.277 124.967 156.187 124.985 156.098C125.003 156.008 125.023 155.919 125.045 155.831C125.067 155.742 125.091 155.655 125.118 155.567C125.144 155.48 125.173 155.394 125.204 155.308C125.234 155.222 125.267 155.137 125.302 155.053C125.337 154.968 125.374 154.885 125.413 154.803C125.452 154.72 125.493 154.639 125.536 154.559C125.579 154.478 125.624 154.399 125.67 154.321C125.717 154.243 125.766 154.166 125.817 154.09C125.867 154.014 125.92 153.94 125.974 153.866C126.028 153.793 126.085 153.721 126.142 153.651C126.2 153.58 126.26 153.511 126.321 153.444C126.382 153.376 126.445 153.31 126.509 153.246C126.574 153.181 126.64 153.118 126.707 153.057C126.775 152.996 126.844 152.937 126.914 152.879C126.985 152.821 127.057 152.765 127.13 152.71C127.203 152.656 127.278 152.604 127.354 152.553C127.429 152.503 127.506 152.454 127.584 152.407C127.663 152.36 127.742 152.315 127.822 152.272C127.903 152.229 127.984 152.188 128.066 152.149C128.149 152.11 128.232 152.073 128.316 152.038C128.4 152.003 128.485 151.971 128.571 151.94C128.657 151.909 128.744 151.881 128.831 151.854C128.918 151.828 129.006 151.804 129.094 151.781C129.183 151.759 129.272 151.739 129.361 151.722C129.451 151.704 129.54 151.688 129.63 151.675C129.721 151.661 129.811 151.65 129.902 151.641C129.992 151.632 130.083 151.626 130.174 151.621C130.265 151.617 130.356 151.615 130.448 151.615L133.062 149.631L137.939 151.615L139.188 151.615L139.188 157.366Z"></path><path id="路径 11" fill-rule="evenodd" style="fill:#2F2E41" opacity="1" d="M186.893 86.4277L153.869 89.8782L145.755 97.8957L132.847 102.11C132.747 102.143 132.647 102.178 132.547 102.215C132.448 102.252 132.349 102.29 132.251 102.331C132.153 102.371 132.056 102.413 131.959 102.457C131.863 102.501 131.768 102.547 131.673 102.595C131.578 102.643 131.484 102.693 131.391 102.744C131.299 102.795 131.207 102.848 131.116 102.903C131.025 102.958 130.936 103.014 130.847 103.072C130.758 103.131 130.671 103.19 130.584 103.252C130.498 103.313 130.413 103.376 130.329 103.441C130.245 103.506 130.162 103.572 130.081 103.64C129.999 103.708 129.919 103.777 129.84 103.848C129.761 103.919 129.684 103.992 129.608 104.065C129.531 104.139 129.457 104.214 129.384 104.291C129.311 104.368 129.239 104.446 129.168 104.525C129.098 104.605 129.029 104.685 128.962 104.767C128.895 104.849 128.829 104.933 128.765 105.017C128.701 105.101 128.639 105.187 128.578 105.274C128.517 105.361 128.458 105.449 128.4 105.538C128.343 105.627 128.287 105.717 128.233 105.808C128.179 105.9 128.127 105.992 128.076 106.085C128.025 106.178 127.977 106.272 127.93 106.367C127.883 106.462 127.837 106.558 127.794 106.655C127.751 106.752 127.709 106.849 127.669 106.948C127.63 107.046 127.592 107.145 127.556 107.245C127.52 107.345 127.486 107.445 127.454 107.546C127.422 107.647 127.392 107.749 127.363 107.851C127.335 107.953 127.309 108.056 127.284 108.159C127.26 108.262 127.238 108.366 127.217 108.47C127.197 108.574 127.178 108.678 127.162 108.783C127.145 108.888 127.131 108.993 127.118 109.098C127.106 109.203 127.095 109.309 127.087 109.415C127.078 109.52 127.071 109.626 127.067 109.732C126.731 117.604 126.067 130.674 125.366 130.537C124.364 130.341 126.368 135.239 127.771 134.954C129.174 134.67 130.633 137.863 129.663 138.431C128.693 138.999 130.309 143.856 130.309 143.856L140.417 142.228C141.683 132.683 146.304 122.624 140.857 115.602C150.082 112.608 158.208 110.105 164.182 108.563L167.414 107.222L174.124 178.511L183.612 178.667C186.23 165.198 187.545 153.077 185.499 144.429C185.499 144.429 185.793 118.451 186.915 118.735C188.037 119.02 187.086 115.635 187.086 115.635C187.086 115.635 186.103 112.753 187.311 111.558C188.518 110.362 187.764 103.329 187.764 103.329C189.759 96.674 189.158 91.179 186.893 86.4277Z"></path><path id="路径 12" fill-rule="evenodd" style="fill:#3F3D56" opacity="1" d="M190.797 71.881C191.124 70.4144 191.451 68.9474 191.778 67.4804C192.697 63.3726 193.614 59.2662 194.53 55.1619C195.732 49.7845 196.94 44.2199 195.905 38.8082C195.75 37.9932 195.534 37.1948 195.256 36.4129C193.707 31.983 190.287 28.1014 185.752 27.2839L185.011 24.5228L174.891 23.2771L172.976 25.9186C168.853 25.589 166.406 29.694 163.562 33.0768L162.432 34.207C161.608 35.2371 161.439 39.1069 160.925 40.2345C158.638 45.2487 161.789 40.3757 161.678 45.8854C161.563 51.5951 160.441 57.1352 160.325 62.8441C160.313 63.4566 158.995 63.9238 158.768 64.9978C158.646 65.5772 159.667 66.6528 159.512 67.3007C159.38 67.8538 160.04 70.0768 159.898 70.6487C159.242 73.3009 157.754 74.3452 157.688 75.6528C157.658 76.1572 157.584 76.6549 157.464 77.1458C157.383 77.4931 156.242 77.0768 156.131 77.4298C155.944 78.0228 156.766 79.3888 156.54 79.9825C156.105 81.1315 156.398 83.161 156.131 84.2109C155.011 88.619 155.441 86.8698 153.014 90.7162C159.227 92.5946 161.911 98.8856 168.303 100.018C168.591 99.0867 168.878 98.1532 169.165 97.217C170.012 97.2717 170.864 97.3225 171.717 97.3692C171.764 98.1818 171.813 98.9948 171.861 99.8029C178.346 100.221 184.832 100.256 191.321 99.9087C191.104 99.2566 190.931 98.5928 190.802 97.9174C190.446 96.0413 191.211 94.0069 191.293 92.15C191.35 90.7746 190.696 89.6056 190.716 88.1243C190.721 87.8501 192.26 87.6195 192.255 87.3404C192.23 84.8773 190.831 81.5825 191.293 79.1635C191.773 76.6767 190.249 74.3538 190.797 71.8817L190.797 71.881Z"></path><path id="路径 13" fill-rule="evenodd" style="fill:#6C63FF" opacity="1" d="M143.459 12.3963C143.406 12.3964 143.353 12.3977 143.301 12.4004C143.248 12.403 143.195 12.407 143.143 12.4122C143.09 12.4175 143.037 12.424 142.985 12.4318C142.932 12.4397 142.88 12.4488 142.828 12.4591C142.776 12.4695 142.725 12.4812 142.673 12.4941C142.622 12.5069 142.571 12.5211 142.521 12.5365C142.47 12.5519 142.419 12.5686 142.369 12.5864C142.32 12.6043 142.27 12.6234 142.221 12.6437C142.173 12.664 142.124 12.6854 142.076 12.7081C142.028 12.7308 141.981 12.7546 141.935 12.7796C141.888 12.8045 141.842 12.8307 141.796 12.8579C141.751 12.8851 141.706 12.9135 141.662 12.9429C141.618 12.9723 141.575 13.0028 141.532 13.0344C141.49 13.0659 141.448 13.0985 141.407 13.1321C141.366 13.1657 141.326 13.2003 141.287 13.2358C141.248 13.2714 141.21 13.3079 141.172 13.3453C141.135 13.3828 141.098 13.4211 141.063 13.4603C141.027 13.4996 140.992 13.5396 140.959 13.5805C140.925 13.6215 140.893 13.6632 140.861 13.7057C140.83 13.7483 140.799 13.7915 140.77 13.8355C140.74 13.8796 140.712 13.9243 140.685 13.9697C140.657 14.0151 140.631 14.0611 140.606 14.1078C140.581 14.1545 140.557 14.2018 140.535 14.2496C140.512 14.2975 140.491 14.3458 140.47 14.3948C140.45 14.4437 140.431 14.493 140.413 14.5429C140.395 14.5927 140.379 14.643 140.363 14.6936C140.348 14.7443 140.334 14.7953 140.321 14.8466C140.308 14.898 140.296 14.9496 140.286 15.0016C140.276 15.0535 140.266 15.1056 140.259 15.158C140.251 15.2103 140.244 15.2629 140.239 15.3156C140.234 15.3683 140.23 15.421 140.227 15.4739C140.225 15.5268 140.223 15.5797 140.223 15.6326L140.223 35.1334C140.223 35.1864 140.225 35.2393 140.227 35.2922C140.23 35.345 140.234 35.3978 140.239 35.4505C140.244 35.5032 140.251 35.5557 140.259 35.6081C140.266 35.6605 140.276 35.7126 140.286 35.7646C140.296 35.8165 140.308 35.8681 140.321 35.9195C140.334 35.9708 140.348 36.0218 140.363 36.0725C140.379 36.1231 140.395 36.1734 140.413 36.2232C140.431 36.2731 140.45 36.3224 140.47 36.3714C140.491 36.4203 140.512 36.4686 140.535 36.5165C140.557 36.5644 140.581 36.6116 140.606 36.6583C140.631 36.705 140.657 36.751 140.685 36.7964C140.712 36.8418 140.74 36.8865 140.77 36.9306C140.799 36.9746 140.83 37.0178 140.861 37.0603C140.893 37.1029 140.925 37.1446 140.959 37.1855C140.992 37.2265 141.027 37.2666 141.063 37.3058C141.098 37.345 141.135 37.3834 141.172 37.4208C141.21 37.4582 141.248 37.4947 141.287 37.5303C141.326 37.5658 141.366 37.6004 141.407 37.634C141.448 37.6676 141.49 37.7002 141.532 37.7319C141.575 37.7632 141.618 37.7936 141.662 37.823C141.706 37.8527 141.751 37.8811 141.796 37.9082C141.842 37.9356 141.888 37.9617 141.935 37.9865C141.981 38.0114 142.028 38.0352 142.076 38.0581C142.124 38.0807 142.173 38.1022 142.221 38.1225C142.27 38.1426 142.32 38.1617 142.369 38.1798C142.419 38.1976 142.47 38.2142 142.521 38.2295C142.571 38.2449 142.622 38.259 142.673 38.2721C142.725 38.2849 142.776 38.2966 142.828 38.3071C142.88 38.3174 142.932 38.3265 142.985 38.3343C143.037 38.342 143.09 38.3486 143.143 38.3538C143.195 38.3591 143.248 38.363 143.301 38.3655C143.353 38.3683 143.406 38.3697 143.459 38.3697L149.493 38.3697C149.545 38.3697 149.598 38.3683 149.651 38.3655C149.704 38.363 149.757 38.3591 149.809 38.3538C149.862 38.3486 149.915 38.342 149.967 38.3343C150.02 38.3265 150.072 38.3174 150.124 38.3071C150.176 38.2966 150.227 38.2849 150.278 38.2721C150.33 38.259 150.381 38.2449 150.431 38.2295C150.482 38.2142 150.532 38.1976 150.582 38.1798C150.632 38.162 150.682 38.1429 150.731 38.1225C150.779 38.1022 150.828 38.0807 150.876 38.0581C150.923 38.0352 150.971 38.0114 151.017 37.9865C151.064 37.9617 151.11 37.9356 151.156 37.9082C151.201 37.8811 151.246 37.8527 151.29 37.823C151.334 37.7936 151.377 37.7632 151.42 37.7319C151.462 37.7002 151.504 37.6676 151.545 37.634C151.586 37.6004 151.626 37.5658 151.665 37.5303C151.704 37.4947 151.742 37.4582 151.78 37.4208C151.817 37.3834 151.854 37.345 151.889 37.3058C151.925 37.2666 151.96 37.2265 151.993 37.1855C152.027 37.1446 152.059 37.1029 152.091 37.0603C152.122 37.0178 152.153 36.9746 152.182 36.9306C152.212 36.8865 152.24 36.8418 152.267 36.7964C152.295 36.751 152.321 36.705 152.346 36.6583C152.37 36.6116 152.394 36.5644 152.417 36.5165C152.44 36.4686 152.461 36.4203 152.482 36.3714C152.502 36.3224 152.521 36.2731 152.539 36.2232C152.557 36.1734 152.573 36.1231 152.589 36.0725C152.604 36.0218 152.618 35.9708 152.631 35.9195C152.644 35.8681 152.656 35.8165 152.666 35.7646C152.676 35.7126 152.686 35.6605 152.693 35.6081C152.701 35.5557 152.708 35.5032 152.713 35.4505C152.718 35.3978 152.722 35.345 152.725 35.2922C152.727 35.2393 152.729 35.1864 152.729 35.1334C153.691 25.3348 153.337 20.0467 152.729 15.6327C152.729 15.5797 152.727 15.5268 152.725 15.4739C152.722 15.421 152.718 15.3683 152.713 15.3156C152.708 15.2629 152.701 15.2103 152.693 15.158C152.686 15.1056 152.676 15.0535 152.666 15.0016C152.656 14.9496 152.644 14.898 152.631 14.8466C152.618 14.7953 152.604 14.7443 152.589 14.6936C152.573 14.643 152.557 14.5927 152.539 14.5429C152.521 14.493 152.502 14.4437 152.482 14.3948C152.461 14.3458 152.44 14.2975 152.417 14.2496C152.394 14.2018 152.37 14.1545 152.346 14.1078C152.321 14.0611 152.295 14.0151 152.267 13.9697C152.24 13.9243 152.212 13.8796 152.182 13.8355C152.153 13.7915 152.122 13.7483 152.091 13.7057C152.059 13.6632 152.027 13.6215 151.993 13.5805C151.959 13.5396 151.925 13.4996 151.889 13.4603C151.854 13.4211 151.817 13.3828 151.78 13.3453C151.742 13.3079 151.704 13.2714 151.665 13.2358C151.626 13.2002 151.586 13.1657 151.545 13.1321C151.504 13.0985 151.462 13.0659 151.42 13.0344C151.377 13.0028 151.334 12.9723 151.29 12.9429C151.246 12.9135 151.201 12.8851 151.156 12.8579C151.11 12.8307 151.064 12.8045 151.017 12.7795C150.971 12.7546 150.923 12.7308 150.876 12.7081C150.828 12.6854 150.779 12.664 150.731 12.6437C150.682 12.6234 150.632 12.6043 150.582 12.5864C150.532 12.5686 150.482 12.5519 150.431 12.5365C150.381 12.5211 150.33 12.5069 150.278 12.494C150.227 12.4811 150.176 12.4695 150.124 12.4591C150.072 12.4487 150.02 12.4396 149.967 12.4318C149.915 12.424 149.862 12.4175 149.809 12.4122C149.757 12.407 149.704 12.403 149.651 12.4004C149.598 12.3977 149.545 12.3964 149.493 12.3963L143.459 12.3963L143.459 12.3963Z"></path><path id="路径 14" fill-rule="evenodd" style="fill:#3F3D56" opacity="1" d="M142.706 12.3963C142.653 12.3964 142.6 12.3977 142.547 12.4004C142.494 12.403 142.442 12.407 142.389 12.4122C142.336 12.4175 142.284 12.424 142.231 12.4318C142.179 12.4396 142.127 12.4487 142.075 12.4591C142.023 12.4695 141.971 12.4811 141.92 12.494C141.869 12.5069 141.818 12.5211 141.767 12.5365C141.716 12.5519 141.666 12.5685 141.616 12.5864C141.567 12.6043 141.517 12.6233 141.468 12.6436C141.419 12.6639 141.371 12.6854 141.323 12.7081C141.275 12.7308 141.228 12.7546 141.181 12.7796C141.135 12.8045 141.089 12.8306 141.043 12.8579C140.998 12.8851 140.953 12.9134 140.909 12.9429C140.865 12.9723 140.822 13.0028 140.779 13.0343C140.737 13.0659 140.695 13.0985 140.654 13.1321C140.613 13.1656 140.573 13.2002 140.534 13.2358C140.495 13.2713 140.456 13.3078 140.419 13.3453C140.381 13.3827 140.345 13.421 140.309 13.4603C140.274 13.4995 140.239 13.5396 140.206 13.5805C140.172 13.6214 140.139 13.6631 140.108 13.7057C140.076 13.7482 140.046 13.7915 140.017 13.8355C139.987 13.8795 139.959 13.9242 139.931 13.9696C139.904 14.015 139.878 14.0611 139.853 14.1077C139.828 14.1544 139.804 14.2017 139.781 14.2496C139.759 14.2974 139.737 14.3458 139.717 14.3947C139.697 14.4436 139.678 14.493 139.66 14.5428C139.642 14.5926 139.625 14.6429 139.61 14.6936C139.594 14.7442 139.58 14.7952 139.567 14.8465C139.555 14.8979 139.543 14.9495 139.532 15.0015C139.522 15.0534 139.513 15.1055 139.505 15.1579C139.498 15.2103 139.491 15.2628 139.486 15.3155C139.48 15.3682 139.476 15.4209 139.474 15.4738C139.471 15.5267 139.47 15.5796 139.47 15.6326C139.123 23.2981 138.882 30.6086 139.47 35.1333C139.47 35.1863 139.471 35.2392 139.474 35.2921C139.476 35.345 139.48 35.3978 139.486 35.4505C139.491 35.5032 139.498 35.5557 139.505 35.6081C139.513 35.6604 139.522 35.7126 139.532 35.7645C139.543 35.8164 139.555 35.8681 139.567 35.9194C139.58 35.9708 139.594 36.0217 139.61 36.0724C139.625 36.1231 139.642 36.1733 139.66 36.2232C139.678 36.273 139.697 36.3224 139.717 36.3713C139.737 36.4202 139.759 36.4686 139.781 36.5165C139.804 36.5643 139.828 36.6116 139.853 36.6583C139.878 36.7049 139.904 36.751 139.931 36.7964C139.959 36.8418 139.987 36.8865 140.016 36.9306C140.046 36.9746 140.076 37.0178 140.108 37.0603C140.139 37.1029 140.172 37.1446 140.206 37.1855C140.239 37.2265 140.274 37.2666 140.309 37.3058C140.345 37.345 140.381 37.3833 140.419 37.4208C140.456 37.4582 140.495 37.4947 140.534 37.5303C140.573 37.5658 140.613 37.6004 140.654 37.634C140.695 37.6676 140.737 37.7002 140.779 37.7319C140.822 37.7632 140.865 37.7936 140.909 37.823C140.953 37.8527 140.998 37.881 141.043 37.9082C141.089 37.9356 141.135 37.9617 141.181 37.9865C141.228 38.0117 141.275 38.0355 141.323 38.0581C141.371 38.0807 141.419 38.1022 141.468 38.1225C141.517 38.1429 141.566 38.162 141.616 38.1798C141.666 38.1976 141.716 38.2142 141.767 38.2295C141.818 38.2451 141.869 38.2593 141.92 38.2721C141.971 38.2849 142.023 38.2966 142.075 38.3071C142.127 38.3174 142.179 38.3264 142.231 38.3342C142.284 38.342 142.336 38.3486 142.389 38.3538C142.442 38.3591 142.494 38.3631 142.547 38.3659C142.6 38.3684 142.653 38.3697 142.706 38.3697L148.739 38.3697C148.792 38.3697 148.845 38.3683 148.898 38.3655C148.951 38.363 149.004 38.3591 149.056 38.3538C149.109 38.3486 149.161 38.342 149.214 38.3342C149.266 38.3264 149.318 38.3174 149.37 38.3071C149.422 38.2966 149.474 38.2849 149.525 38.2721C149.577 38.259 149.628 38.2449 149.678 38.2295C149.729 38.2142 149.779 38.1976 149.829 38.1798C149.879 38.1617 149.928 38.1426 149.977 38.1225C150.026 38.1022 150.074 38.0807 150.122 38.0581C150.17 38.0352 150.217 38.0114 150.264 37.9865C150.311 37.9617 150.357 37.9356 150.402 37.9082C150.448 37.881 150.492 37.8527 150.536 37.823C150.58 37.7936 150.624 37.7632 150.666 37.7319C150.709 37.7002 150.75 37.6676 150.791 37.634C150.832 37.6004 150.872 37.5658 150.911 37.5303C150.951 37.4947 150.989 37.4582 151.026 37.4208C151.064 37.3833 151.1 37.345 151.136 37.3058C151.172 37.2666 151.206 37.2265 151.24 37.1855C151.273 37.1446 151.306 37.1029 151.338 37.0603C151.369 37.0178 151.399 36.9746 151.429 36.9306C151.458 36.8865 151.487 36.8418 151.514 36.7964C151.541 36.751 151.567 36.705 151.592 36.6583C151.617 36.6116 151.641 36.5643 151.664 36.5165C151.686 36.4686 151.708 36.4202 151.728 36.3713C151.749 36.3224 151.768 36.2731 151.785 36.2232C151.803 36.1734 151.82 36.1231 151.835 36.0725C151.851 36.0218 151.865 35.9708 151.878 35.9195C151.891 35.8681 151.902 35.8165 151.913 35.7646C151.923 35.7126 151.932 35.6605 151.94 35.6081C151.948 35.5557 151.954 35.5032 151.96 35.4505C151.965 35.3978 151.969 35.345 151.972 35.2922C151.974 35.2393 151.975 35.1864 151.975 35.1334L151.975 15.6327C151.975 15.5797 151.974 15.5268 151.972 15.4739C151.969 15.421 151.965 15.3683 151.96 15.3156C151.954 15.2629 151.948 15.2104 151.94 15.158C151.932 15.1056 151.923 15.0535 151.913 15.0015C151.902 14.9496 151.891 14.898 151.878 14.8466C151.865 14.7953 151.851 14.7443 151.835 14.6936C151.82 14.643 151.803 14.5927 151.785 14.5429C151.768 14.493 151.749 14.4437 151.728 14.3947C151.708 14.3458 151.686 14.2975 151.664 14.2496C151.641 14.2018 151.617 14.1545 151.592 14.1078C151.567 14.0611 151.541 14.0151 151.514 13.9697C151.487 13.9243 151.458 13.8796 151.429 13.8355C151.399 13.7915 151.369 13.7483 151.338 13.7057C151.306 13.6632 151.273 13.6215 151.24 13.5806C151.206 13.5396 151.171 13.4995 151.136 13.4603C151.1 13.4211 151.064 13.3828 151.026 13.3453C150.989 13.3079 150.951 13.2714 150.911 13.2358C150.872 13.2003 150.832 13.1657 150.791 13.1321C150.75 13.0985 150.709 13.0659 150.666 13.0343C150.624 13.0028 150.58 12.9723 150.536 12.9429C150.492 12.9135 150.448 12.8851 150.402 12.8579C150.357 12.8307 150.311 12.8045 150.264 12.7796C150.217 12.7546 150.17 12.7308 150.122 12.7081C150.074 12.6854 150.026 12.664 149.977 12.6437C149.928 12.6234 149.879 12.6043 149.829 12.5864C149.779 12.5686 149.729 12.5519 149.678 12.5365C149.628 12.5211 149.577 12.5069 149.525 12.494C149.474 12.4811 149.422 12.4695 149.37 12.4591C149.318 12.4487 149.266 12.4397 149.214 12.4318C149.161 12.424 149.109 12.4175 149.056 12.4123C149.004 12.407 148.951 12.403 148.898 12.4004C148.845 12.3977 148.792 12.3964 148.739 12.3963L142.706 12.3963Z"></path><path id="路径 15" fill-rule="evenodd" style="fill:#A0616A" opacity="1" d="M158.237 40.7777C158.237 40.7777 163.944 40.5464 161.039 43.0102C159.149 44.6132 154.894 55.7748 150.472 57.125C150.407 57.1449 150.342 57.1629 150.276 57.1793C150.21 57.1956 150.144 57.2103 150.078 57.2233C150.011 57.2364 149.944 57.2476 149.877 57.2569C149.81 57.2664 149.742 57.2742 149.675 57.2802C149.607 57.2863 149.54 57.2905 149.472 57.293C149.404 57.2956 149.337 57.2963 149.269 57.2953C149.201 57.2943 149.133 57.2915 149.065 57.287C148.998 57.2827 148.93 57.2766 148.863 57.2685C148.796 57.2605 148.729 57.2507 148.662 57.2392C148.595 57.2279 148.528 57.2147 148.462 57.1996C148.396 57.1848 148.33 57.1682 148.265 57.1499C148.2 57.1315 148.135 57.1116 148.071 57.09C148.006 57.0684 147.943 57.0451 147.88 57.0203C147.817 56.9952 147.754 56.9686 147.693 56.9404C147.631 56.9123 147.57 56.8825 147.51 56.8511C147.45 56.8198 147.391 56.7868 147.332 56.7524C147.274 56.7183 147.216 56.6825 147.16 56.6451C147.103 56.6077 147.047 56.5689 146.993 56.5287C146.938 56.4882 146.885 56.4465 146.832 56.4036C146.78 56.3606 146.729 56.3163 146.679 56.2706C146.628 56.2249 146.58 56.1779 146.532 56.1297C146.484 56.0815 146.438 56.0321 146.393 55.9816C146.348 55.9309 146.304 55.8792 146.261 55.8264C146.219 55.7734 146.178 55.7194 146.138 55.6644C146.098 55.6094 146.06 55.5536 146.024 55.4968C145.987 55.4398 145.952 55.3819 145.918 55.3231C145.884 55.2644 145.852 55.2047 145.821 55.1442C145.79 55.0836 145.761 55.0224 145.734 54.9603C145.706 54.8986 145.68 54.8359 145.656 54.7724C145.632 54.7091 145.609 54.6453 145.588 54.581C145.567 54.5164 145.548 54.4514 145.53 54.3858C145.513 54.3203 145.497 54.2544 145.483 54.188L141.475 35.5066L146.71 34.7102L149.901 49.4959L158.237 40.7777Z"></path><path id="路径 16" fill-rule="evenodd" style="fill:#A0616A" opacity="1" d="M144.379 29.4651C142.339 29.4651 140.679 31.1251 140.679 33.1651C140.679 35.2151 142.339 36.8751 144.379 36.8751C146.429 36.8751 148.089 35.2151 148.089 33.1651C148.089 31.1251 146.429 29.4651 144.379 29.4651Z"></path><path id="路径 17" fill-rule="evenodd" style="fill:#3F3D56" opacity="1" d="M165.978 30.5692C169.37 33.1167 170.369 41.4701 168.237 45.138C164.162 52.1492 156.129 57.547 155.787 56.7977C155.318 55.7707 154.5 57.1495 154.528 57.6008C154.555 58.0518 153.008 57.9173 153.188 58.395C153.369 58.8727 152.147 58.9763 151.617 59.2532C151.617 59.2532 146.763 59.3353 145.231 57.1201C143.7 54.905 143.494 51.8437 143.494 51.8437L141.593 49.6067L151.673 43.7143L150.842 47.6914L155.871 41.8363L156.935 39.487L158.633 38.6202L159.196 36.85L160.761 36.1422L166.953 28.9328L165.978 30.5693L165.978 30.5692Z"></path><path id="路径 18" fill-rule="evenodd" style="fill:#A0616A" opacity="1" d="M193.83 99.1932C193.883 99.1586 193.934 99.1224 193.985 99.0847C194.036 99.0473 194.085 99.0083 194.134 98.9679C194.183 98.9277 194.23 98.8862 194.276 98.8432C194.323 98.8003 194.368 98.7562 194.412 98.711C194.456 98.6655 194.498 98.619 194.539 98.5712C194.581 98.5238 194.621 98.4751 194.66 98.4251C194.698 98.3753 194.736 98.3245 194.771 98.2725C194.807 98.2205 194.842 98.1676 194.875 98.1139C194.908 98.0601 194.94 98.0055 194.97 97.95C195 97.8945 195.028 97.8382 195.055 97.7812C195.082 97.7242 195.108 97.6665 195.132 97.6079C195.155 97.5494 195.177 97.4903 195.198 97.4305C195.219 97.371 195.237 97.3108 195.255 97.2501C195.272 97.1895 195.288 97.1284 195.302 97.0666C195.316 97.0051 195.328 96.9433 195.339 96.8812C195.349 96.819 195.358 96.7564 195.365 96.6936C195.372 96.6308 195.378 96.5681 195.382 96.5053C195.386 96.4422 195.388 96.3791 195.388 96.3158C195.388 96.2527 195.387 96.1897 195.384 96.1267C195.38 96.0636 195.375 96.0007 195.369 95.9379C195.362 95.8751 195.354 95.8126 195.344 95.7503C195.334 95.688 195.322 95.626 195.309 95.5642C195.296 95.5027 195.281 95.4414 195.264 95.3804C195.247 95.3196 195.229 95.2593 195.209 95.1995C195.189 95.1395 195.167 95.0802 195.144 95.0217C195.121 94.9629 195.096 94.9049 195.069 94.8477C195.043 94.7901 195.015 94.7335 194.985 94.6778C194.956 94.622 194.925 94.5671 194.892 94.5131C194.86 94.4589 194.826 94.4057 194.79 94.3534C194.755 94.3011 194.718 94.2499 194.68 94.1997C194.642 94.1495 194.602 94.1003 194.561 94.0524C194.52 94.0044 194.478 93.9575 194.435 93.9115L195.147 62.2348L188.888 63.2082L189.329 93.933C189.293 93.9719 189.258 94.0114 189.225 94.0516C189.191 94.0921 189.158 94.1333 189.125 94.1752C189.093 94.2169 189.062 94.2595 189.032 94.3029C189.002 94.3461 188.973 94.3901 188.945 94.4348C188.916 94.4792 188.889 94.5244 188.863 94.5704C188.837 94.6161 188.812 94.6624 188.788 94.7094C188.764 94.7564 188.741 94.804 188.719 94.8522C188.697 94.9001 188.676 94.9486 188.657 94.9976C188.637 95.0466 188.619 95.0959 188.601 95.1457C188.584 95.1954 188.568 95.2455 188.552 95.296C188.537 95.3467 188.523 95.3976 188.51 95.4485C188.497 95.4998 188.486 95.5513 188.476 95.603C188.465 95.6547 188.456 95.7066 188.448 95.7586C188.439 95.8108 188.432 95.8632 188.427 95.9157C188.421 95.9682 188.416 96.0207 188.413 96.0732C188.41 96.1259 188.407 96.1786 188.407 96.2314C188.406 96.2841 188.406 96.3369 188.407 96.3896C188.409 96.4424 188.411 96.495 188.415 96.5475C188.419 96.6002 188.424 96.6527 188.43 96.7049C188.436 96.7574 188.443 96.8097 188.452 96.8616C188.461 96.9139 188.47 96.9657 188.481 97.0172C188.492 97.069 188.504 97.1203 188.517 97.1713C188.531 97.2223 188.545 97.273 188.561 97.3235C188.576 97.374 188.593 97.424 188.611 97.4734C188.629 97.5232 188.648 97.5724 188.667 97.6211C188.687 97.6701 188.709 97.7184 188.731 97.7662C188.753 97.8141 188.777 97.8615 188.801 97.9082C188.825 97.9549 188.851 98.0011 188.877 98.0468C188.904 98.0923 188.931 98.1372 188.96 98.1817C188.988 98.2262 189.018 98.2699 189.049 98.3128C189.079 98.3557 189.11 98.3981 189.143 98.4398C189.175 98.4815 189.209 98.5223 189.243 98.5622C189.277 98.6024 189.313 98.6417 189.348 98.6801C189.385 98.7185 189.422 98.7562 189.459 98.7931C189.497 98.83 189.536 98.866 189.575 98.9009C189.615 98.936 189.655 98.9702 189.696 99.0033C189.737 99.0365 189.778 99.0688 189.821 99.1002C189.863 99.1315 189.907 99.1619 189.951 99.1913C189.994 99.2207 190.039 99.2491 190.084 99.2765C190.129 99.3039 190.175 99.3302 190.221 99.3556C190.267 99.3807 190.314 99.4048 190.362 99.4279C190.409 99.4513 190.457 99.4734 190.505 99.4942C190.554 99.5153 190.602 99.5352 190.652 99.5537C190.701 99.5726 190.751 99.5903 190.801 99.6069C190.851 99.6234 190.901 99.6388 190.952 99.6528C191.003 99.6671 191.054 99.6802 191.106 99.692C191.157 99.7041 191.208 99.7148 191.26 99.7244C191.312 99.7339 191.364 99.7422 191.417 99.7493C191.469 99.7565 191.521 99.7626 191.574 99.7673C191.626 99.7721 191.679 99.7757 191.732 99.7783C191.784 99.7808 191.837 99.782 191.89 99.782C191.943 99.782 191.995 99.7808 192.048 99.7783C192.101 99.776 192.153 99.7725 192.206 99.7677C192.258 99.7629 192.311 99.757 192.363 99.75C192.415 99.7428 192.467 99.7344 192.519 99.7252C192.571 99.7156 192.623 99.7049 192.674 99.6931C192.726 99.6811 192.777 99.668 192.828 99.654C192.878 99.6399 192.929 99.6246 192.979 99.608C193.029 99.5917 193.079 99.5741 193.128 99.5552C193.177 99.5367 193.226 99.5168 193.275 99.4957C193.323 99.4749 193.371 99.4529 193.419 99.4298C193.466 99.4067 193.513 99.3824 193.559 99.3571C193.606 99.332 193.651 99.3057 193.696 99.2784C193.742 99.251 193.786 99.2226 193.83 99.1932Z"></path><path id="路径 19" fill-rule="evenodd" style="fill:#3F3D56" opacity="1" d="M194.103 35.2333C194.103 35.2333 193.688 35.5471 195.816 38.7912C196.239 39.4347 196.525 42.0288 196.725 45.4141C196.791 46.5171 197.418 47.2921 197.467 48.5225C197.509 49.5671 196.973 51.0552 197.005 52.1383C197.022 52.7162 197.453 53.2187 197.467 53.7966C197.473 54.0377 197.064 54.3553 197.07 54.5957C197.076 54.8544 197.082 55.1124 197.088 55.3699C197.234 61.804 197.266 67.615 197.411 67.517C197.721 67.3076 196.952 68.3895 197.336 68.57C197.721 68.7508 197.008 69.6467 197.192 70.1112C197.415 70.677 197.137 71.3016 196.961 71.8694C196.453 73.5095 196.344 74.9181 195.902 75.6971C195.967 75.7348 196.03 75.7747 196.092 75.8169C196.154 75.8595 196.214 75.9043 196.272 75.9518C196.33 75.9993 196.385 76.0494 196.439 76.1014C196.493 76.1534 196.545 76.2076 196.594 76.2637C196.644 76.3202 196.691 76.3786 196.735 76.4385C196.78 76.4988 196.822 76.561 196.861 76.6246C196.901 76.6883 196.937 76.7535 196.972 76.8202C197.006 76.8868 197.037 76.9547 197.065 77.024C197.094 77.0933 197.12 77.1637 197.142 77.2353C197.165 77.3069 197.185 77.3788 197.201 77.4519C197.218 77.525 197.232 77.5985 197.242 77.6727C197.253 77.7469 197.26 77.8215 197.265 77.8961C197.27 77.9711 197.271 78.046 197.27 78.1206C197.268 78.1956 197.263 78.2702 197.255 78.3448C197.247 78.4194 197.237 78.4932 197.222 78.567C197.208 78.6409 197.191 78.7136 197.172 78.7855L188.35 77.1909C187.274 75.4677 187.43 73.6594 188.163 73.3441L187.944 67.7374L185.432 38.7302L192.795 35.4425L194.103 35.2333L194.103 35.2333Z"></path><path id="路径 20" fill-rule="evenodd" style="fill:#3F3D56" opacity="1" d="M139.351 17.3978C139.224 17.3978 139.121 17.4581 139.121 17.5323L139.121 18.6086C139.121 18.6828 139.224 18.7431 139.351 18.7431C139.477 18.7431 139.581 18.6828 139.581 18.6086L139.581 17.5323C139.581 17.4581 139.477 17.3978 139.351 17.3978Z"></path><path id="路径 21" fill-rule="evenodd" style="fill:#3F3D56" opacity="1" d="M139.351 20.2499C139.224 20.2499 139.121 20.3102 139.121 20.3844L139.121 22.4697C139.121 22.5439 139.224 22.6042 139.351 22.6042C139.477 22.6042 139.581 22.5439 139.581 22.4697L139.581 20.3844C139.581 20.3102 139.477 20.2499 139.351 20.2499Z"></path><path id="路径 22" fill-rule="evenodd" style="fill:#3F3D56" opacity="1" d="M152.159 20.6266C152.142 20.6285 152.126 20.632 152.11 20.6371C152.094 20.6422 152.079 20.6488 152.064 20.6569C152.049 20.6649 152.035 20.6744 152.022 20.6852C152.009 20.6959 151.998 20.7078 151.987 20.7209C151.976 20.7339 151.967 20.7479 151.959 20.7628C151.951 20.7776 151.945 20.7931 151.94 20.8092C151.935 20.8253 151.932 20.8417 151.93 20.8585C151.928 20.8752 151.928 20.892 151.929 20.9087L151.929 25.2818C151.928 25.2903 151.926 25.2989 151.926 25.3076C151.925 25.3162 151.925 25.3249 151.925 25.3336C151.925 25.3422 151.926 25.3508 151.927 25.3595C151.928 25.3681 151.929 25.3766 151.931 25.3851C151.933 25.3935 151.936 25.4018 151.939 25.4099C151.942 25.4181 151.945 25.426 151.949 25.4338C151.953 25.4416 151.957 25.4491 151.962 25.4564C151.967 25.4637 151.972 25.4707 151.977 25.4775C151.983 25.4842 151.989 25.4906 151.995 25.4967C152.001 25.5028 152.008 25.5085 152.015 25.5139C152.021 25.5192 152.028 25.5242 152.036 25.5288C152.043 25.5333 152.051 25.5375 152.059 25.5412C152.066 25.545 152.074 25.5483 152.083 25.5511C152.091 25.5539 152.099 25.5563 152.108 25.5582C152.116 25.5601 152.125 25.5615 152.133 25.5625C152.142 25.5635 152.15 25.564 152.159 25.564C152.168 25.564 152.177 25.5635 152.185 25.5625C152.194 25.5615 152.202 25.5601 152.211 25.5582C152.219 25.5563 152.228 25.5539 152.236 25.5511C152.244 25.5483 152.252 25.545 152.26 25.5412C152.268 25.5375 152.275 25.5333 152.283 25.5288C152.29 25.5242 152.297 25.5192 152.304 25.5139C152.311 25.5085 152.317 25.5028 152.323 25.4967C152.33 25.4906 152.336 25.4842 152.341 25.4775C152.347 25.4708 152.352 25.4637 152.356 25.4564C152.361 25.4491 152.365 25.4416 152.369 25.4338C152.373 25.426 152.377 25.4181 152.38 25.4099C152.383 25.4018 152.385 25.3935 152.387 25.3851C152.389 25.3766 152.391 25.3681 152.392 25.3595C152.393 25.3508 152.394 25.3422 152.394 25.3336C152.394 25.3249 152.394 25.3162 152.393 25.3076C152.392 25.2989 152.391 25.2903 152.389 25.2818L152.389 20.9087C152.391 20.892 152.39 20.8752 152.389 20.8585C152.387 20.8417 152.383 20.8253 152.378 20.8092C152.374 20.7931 152.367 20.7776 152.359 20.7628C152.351 20.7479 152.342 20.7339 152.331 20.7209C152.321 20.7078 152.309 20.6959 152.296 20.6852C152.283 20.6744 152.269 20.6649 152.255 20.6569C152.24 20.6488 152.224 20.6422 152.209 20.6371C152.192 20.632 152.176 20.6285 152.159 20.6266Z"></path><path id="路径 23" fill-rule="evenodd" style="fill:#3F3D56" opacity="1" d="M138.974 23.5863C138.847 23.5863 138.744 23.6466 138.744 23.7209L138.744 25.8061C138.744 25.8803 138.847 25.9407 138.974 25.9407C139.101 25.9407 139.204 25.8803 139.204 25.8061L139.204 23.7209C139.204 23.6466 139.101 23.5863 138.974 23.5863Z"></path><path id="路径 24" fill-rule="evenodd" style="fill:#A0616A" opacity="1" d="M179.245 3.38417C174.015 3.38417 169.785 7.61417 169.785 12.8442C169.785 18.0642 174.015 22.2942 179.245 22.2942C184.465 22.2942 188.695 18.0642 188.695 12.8442C188.695 7.61417 184.465 3.38417 179.245 3.38417Z"></path><path id="路径 25" fill-rule="evenodd" style="fill:#2F2E41" opacity="1" d="M189.802 17.187C189.064 18.6645 188.361 19.5887 187.084 20.4147C187.019 20.2262 186.967 20.0342 186.928 19.8388C186.792 20.1425 186.659 20.4455 186.52 20.7499C185.712 21.2008 186.584 20.5051 185.262 21.0093L184.15 19.101C183.846 18.1951 184.277 17.2085 184.826 16.4246C185.375 15.6438 186.059 14.928 186.357 14.0203C186.655 13.1126 186.391 11.9101 185.498 11.5723C184.618 11.2349 183.647 11.875 182.713 11.7638C181.634 11.6365 180.9 10.5078 180.841 9.42198C180.783 8.33611 181.226 7.29348 181.659 6.29982C180.353 7.23602 176.306 8.91337 174.103 8.99349C174.095 8.90854 174.084 8.82412 174.069 8.74022C174.054 8.65632 174.034 8.57333 174.011 8.49124C173.988 8.40915 173.961 8.32831 173.931 8.24874C173.9 8.16914 173.866 8.0912 173.828 8.01483C173.79 7.93847 173.748 7.86403 173.704 7.79158C173.659 7.7191 173.61 7.64888 173.559 7.58092C173.507 7.51299 173.453 7.44759 173.395 7.38476C173.338 7.32192 173.277 7.26191 173.214 7.20476C173.225 7.2821 173.232 7.35978 173.236 7.4378C173.24 7.51582 173.24 7.59388 173.236 7.6719C173.233 7.74992 173.226 7.82764 173.215 7.90498C173.203 7.98232 173.189 8.05895 173.171 8.13493C173.152 8.21092 173.131 8.28585 173.106 8.3598C173.08 8.43372 173.052 8.50627 173.019 8.57748C172.987 8.64871 172.952 8.71826 172.914 8.78611C172.875 8.85399 172.833 8.91988 172.788 8.98381C170.631 8.87321 170.226 12.0061 169.112 10.8716C169.46 10.6967 168.178 6.80332 168.526 6.6284C168.259 5.8954 167.992 5.16451 167.725 4.43581C168.22 4.5607 168.72 4.6881 169.219 4.81235C169.25 4.54348 169.33 4.28979 169.457 4.05121C169.814 3.84778 170.19 3.68919 170.585 3.57539C170.711 3.54154 170.841 3.50702 170.973 3.47889C171.167 3.43558 171.363 3.40358 171.561 3.38288C171.275 3.2166 170.985 3.05419 170.698 2.88473C170.663 2.86528 170.632 2.84514 170.598 2.8257C171.002 2.54785 171.423 2.29806 171.861 2.07634C173.704 1.11225 175.617 0.129897 177.694 0.0097285C177.861 -0.00091353 178.028 -0.00435954 178.196 -0.000609541C178.363 0.00314048 178.53 0.0140727 178.697 0.032187C178.863 0.0503012 179.029 0.075531 179.193 0.107876C179.357 0.140221 179.52 0.179562 179.681 0.225898C179.842 0.272235 180 0.325396 180.157 0.385381C180.313 0.445368 180.467 0.511958 180.618 0.585149C180.768 0.658343 180.915 0.73787 181.059 0.823726C181.203 0.909586 181.343 1.00146 181.479 1.09935C181.596 1.18358 181.717 1.26284 181.84 1.3371C181.964 1.41137 182.091 1.48039 182.221 1.54418C182.35 1.60796 182.482 1.6663 182.616 1.71917C182.751 1.77204 182.887 1.81927 183.025 1.86087C183.164 1.90247 183.303 1.93828 183.445 1.96832C183.586 1.99835 183.728 2.02251 183.871 2.04078C184.015 2.05905 184.158 2.07138 184.303 2.07776C184.447 2.08415 184.591 2.08456 184.736 2.07901C185.019 2.07685 185.298 2.10656 185.575 2.16812C185.851 2.22968 186.117 2.32153 186.372 2.44365C186.138 2.67991 185.883 2.8919 185.608 3.07961C186.207 3.0952 186.804 3.11147 187.404 3.13027C187.74 3.43607 188.049 3.76727 188.33 4.12392C188.612 4.48057 188.862 4.85782 189.081 5.25568C191.184 8.84729 191.664 13.4662 189.802 17.187Z"></path><path id="路径 26" fill-rule="evenodd" style="fill:#007AFF" opacity="1" d="M159.432 164.527C159.414 164.409 159.389 164.293 159.357 164.178C159.325 164.064 159.287 163.951 159.242 163.841C159.197 163.731 159.145 163.624 159.088 163.52C159.03 163.416 158.966 163.316 158.896 163.219C158.827 163.123 158.752 163.031 158.671 162.944C158.59 162.856 158.505 162.774 158.414 162.696C158.324 162.619 158.229 162.548 158.13 162.482C158.031 162.416 157.929 162.356 157.822 162.302C155.823 161.279 153.779 160.357 151.689 159.535C149.599 158.714 147.473 157.998 145.313 157.386L141.269 162.717L144.257 157.092C143.57 156.907 142.879 156.733 142.185 156.57C141.492 156.407 140.796 156.255 140.098 156.113C139.4 155.972 138.7 155.841 137.999 155.721C137.296 155.601 136.592 155.492 135.887 155.394C135.181 155.296 134.475 155.209 133.767 155.132C133.059 155.056 132.349 154.991 131.639 154.937C130.929 154.883 130.218 154.84 129.506 154.808C128.795 154.775 128.083 154.754 127.371 154.744C126.659 154.734 125.947 154.735 125.235 154.747C124.522 154.759 123.81 154.782 123.099 154.816C122.388 154.85 121.677 154.895 120.967 154.951C120.257 155.007 119.548 155.074 118.84 155.152C118.132 155.23 117.425 155.319 116.72 155.419C116.015 155.519 115.311 155.63 114.61 155.752C113.908 155.873 113.208 156.006 112.511 156.149C111.813 156.293 111.118 156.447 110.425 156.612L111.98 160.9L109.439 156.857C106.931 157.488 104.466 158.259 102.045 159.169C99.6236 160.079 97.2617 161.124 94.9589 162.302C94.9062 162.329 94.8542 162.358 94.8029 162.387C94.7519 162.418 94.7018 162.449 94.6526 162.482C94.6034 162.515 94.5552 162.55 94.5079 162.586C94.4607 162.622 94.4146 162.659 94.3697 162.697C94.3245 162.736 94.2805 162.776 94.2378 162.817C94.1954 162.858 94.1541 162.9 94.1139 162.944C94.0737 162.988 94.0348 163.032 93.9971 163.078C93.9597 163.124 93.9235 163.171 93.8886 163.219C93.8537 163.267 93.8203 163.316 93.7884 163.366C93.7565 163.416 93.7261 163.467 93.6972 163.519C93.6684 163.571 93.641 163.623 93.6151 163.676C93.5895 163.73 93.5653 163.784 93.5424 163.839C93.5198 163.893 93.4988 163.949 93.4795 164.005C93.4602 164.061 93.4424 164.118 93.4264 164.175C93.4103 164.232 93.396 164.289 93.3834 164.347C93.3706 164.405 93.3597 164.463 93.3507 164.522C93.3414 164.581 93.3338 164.639 93.328 164.698C93.3223 164.757 93.3182 164.816 93.316 164.876C93.3135 164.935 93.3129 164.994 93.3141 165.054C93.3154 165.113 93.3182 165.172 93.3228 165.231C93.3275 165.29 93.3339 165.349 93.342 165.408C93.3503 165.466 93.3602 165.525 93.3717 165.583C93.3833 165.641 93.3966 165.699 93.4117 165.756C93.4265 165.814 93.4431 165.871 93.4614 165.927C93.4797 165.983 93.4997 166.039 93.5213 166.094C93.5429 166.15 93.5661 166.204 93.591 166.258C93.6159 166.312 93.6422 166.365 93.6701 166.417C93.698 166.47 93.7274 166.521 93.7583 166.571C93.7894 166.622 93.8218 166.672 93.8555 166.72C93.8894 166.769 93.9247 166.817 93.9613 166.863C93.998 166.91 94.036 166.955 94.0755 167C94.1149 167.044 94.1556 167.087 94.1975 167.129C95.9459 167.237 97.1002 168.861 98.2526 171.184C98.3074 171.238 98.3641 171.29 98.4229 171.34C98.4817 171.39 98.5423 171.437 98.6049 171.482C98.6671 171.527 98.7312 171.57 98.797 171.61C98.8625 171.65 98.9296 171.688 98.9982 171.723C99.0667 171.758 99.1365 171.79 99.2076 171.82C99.2787 171.849 99.3508 171.876 99.4239 171.9C99.497 171.924 99.5709 171.946 99.6458 171.964C99.7204 171.983 99.7957 171.998 99.8718 172.011C99.9476 172.023 100.024 172.033 100.1 172.04C100.177 172.047 100.254 172.051 100.331 172.051C100.408 172.052 100.485 172.05 100.562 172.045C100.638 172.04 100.715 172.032 100.791 172.021C100.867 172.01 100.943 171.997 101.018 171.98C101.093 171.963 101.168 171.944 101.242 171.921C101.315 171.899 101.388 171.874 101.459 171.846C101.531 171.818 101.602 171.787 101.671 171.754C102.152 171.525 102.636 171.303 103.123 171.088C103.609 170.873 104.099 170.664 104.592 170.463C105.085 170.261 105.58 170.066 106.078 169.878C106.576 169.69 107.077 169.509 107.58 169.335C108.083 169.161 108.588 168.994 109.096 168.834C109.604 168.674 110.114 168.522 110.625 168.376C111.138 168.23 111.652 168.091 112.167 167.96C112.683 167.828 113.201 167.704 113.72 167.587C114.239 167.469 114.76 167.359 115.282 167.257C115.805 167.154 116.328 167.058 116.854 166.97C117.378 166.882 117.904 166.801 118.432 166.727C118.959 166.654 119.487 166.587 120.016 166.528C120.545 166.469 121.075 166.418 121.606 166.374C122.136 166.329 122.667 166.293 123.198 166.263C123.73 166.233 124.262 166.211 124.794 166.197C125.326 166.182 125.858 166.174 126.391 166.174C126.923 166.174 127.455 166.182 127.987 166.197C128.519 166.211 129.051 166.233 129.583 166.263C130.114 166.293 130.645 166.329 131.176 166.374C131.706 166.418 132.236 166.469 132.765 166.528C133.294 166.587 133.823 166.654 134.35 166.727C134.877 166.801 135.403 166.882 135.928 166.97C136.453 167.058 136.976 167.154 137.499 167.257C138.021 167.359 138.542 167.469 139.062 167.587C139.581 167.704 140.098 167.828 140.614 167.96C141.13 168.091 141.644 168.23 142.156 168.376C142.668 168.522 143.178 168.674 143.686 168.834C144.193 168.994 144.698 169.161 145.202 169.335C145.705 169.509 146.206 169.69 146.704 169.878C147.202 170.066 147.697 170.261 148.19 170.463C148.682 170.664 149.172 170.873 149.659 171.088C150.146 171.303 150.63 171.525 151.111 171.754C151.18 171.787 151.25 171.818 151.322 171.846C151.393 171.874 151.466 171.899 151.54 171.921C151.613 171.944 151.688 171.963 151.763 171.98C151.838 171.997 151.914 172.01 151.99 172.022C152.066 172.032 152.143 172.04 152.22 172.045C152.296 172.05 152.373 172.052 152.45 172.051C152.527 172.051 152.604 172.047 152.681 172.04C152.757 172.033 152.833 172.024 152.909 172.011C152.985 171.998 153.061 171.983 153.135 171.964C153.21 171.946 153.284 171.924 153.357 171.9C153.43 171.876 153.502 171.85 153.574 171.82C153.644 171.79 153.714 171.758 153.783 171.723C153.851 171.688 153.918 171.65 153.984 171.61C154.05 171.57 154.114 171.527 154.176 171.482C154.238 171.437 154.299 171.39 154.358 171.34C154.417 171.29 154.473 171.238 154.528 171.184C155.221 169.306 156.649 168.195 158.584 167.129C158.668 167.046 158.747 166.957 158.821 166.865C158.895 166.772 158.963 166.675 159.025 166.574C159.087 166.473 159.143 166.369 159.193 166.261C159.243 166.154 159.286 166.043 159.323 165.931C159.36 165.818 159.389 165.703 159.413 165.587C159.436 165.471 159.452 165.353 159.461 165.235C159.47 165.117 159.472 164.998 159.467 164.88C159.462 164.761 159.451 164.644 159.432 164.527Z"></path><path id="路径 27" fill-rule="evenodd" style="fill:#007AFF" opacity="1" d="M137.089 182.886C136.203 182.747 135.312 182.626 134.416 182.522L130.903 188.112L133.52 182.427C131.393 182.209 129.261 182.089 127.123 182.067C124.985 182.044 122.851 182.119 120.72 182.292L123.4 188.112L119.793 182.373C118.416 182.503 117.049 182.674 115.693 182.886C115.635 182.895 115.578 182.906 115.521 182.918C115.464 182.931 115.407 182.945 115.352 182.961C115.296 182.978 115.24 182.996 115.185 183.017C115.131 183.037 115.077 183.059 115.024 183.084C114.971 183.108 114.919 183.134 114.868 183.162C114.816 183.19 114.766 183.219 114.717 183.25C114.668 183.282 114.619 183.315 114.573 183.35C114.526 183.384 114.48 183.421 114.436 183.459C114.392 183.497 114.349 183.536 114.307 183.577C114.265 183.618 114.225 183.66 114.187 183.704C114.148 183.748 114.111 183.793 114.076 183.839C114.04 183.885 114.006 183.933 113.974 183.982C113.942 184.03 113.912 184.08 113.883 184.131C113.855 184.182 113.828 184.233 113.803 184.286C113.778 184.339 113.755 184.392 113.734 184.447C113.712 184.501 113.693 184.556 113.676 184.612C113.657 184.668 113.641 184.725 113.626 184.782C113.612 184.839 113.599 184.897 113.589 184.955C113.578 185.013 113.569 185.072 113.563 185.131C113.556 185.189 113.551 185.248 113.549 185.307C113.546 185.366 113.546 185.425 113.548 185.485C113.549 185.544 113.553 185.603 113.559 185.662C113.564 185.721 113.572 185.779 113.582 185.837C113.592 185.896 113.603 185.954 113.617 186.011C113.631 186.069 113.646 186.126 113.664 186.182C113.682 186.239 113.701 186.294 113.723 186.349C113.744 186.404 113.768 186.459 113.793 186.512C113.818 186.566 113.846 186.618 113.874 186.67C113.903 186.721 113.934 186.772 113.966 186.821C113.999 186.871 114.033 186.919 114.068 186.966C114.104 187.013 114.141 187.059 114.18 187.104C114.219 187.148 114.26 187.191 114.302 187.233C115.752 188.654 117.352 190.628 119.98 192.912C120.045 192.977 120.112 193.038 120.182 193.095C120.253 193.153 120.326 193.206 120.402 193.256C120.479 193.306 120.558 193.351 120.639 193.392C120.72 193.433 120.803 193.469 120.889 193.501C120.974 193.534 121.061 193.561 121.149 193.584C121.237 193.606 121.326 193.624 121.416 193.637C121.506 193.65 121.596 193.658 121.687 193.661C121.778 193.664 121.869 193.663 121.96 193.656C123.417 193.548 124.908 193.494 126.391 193.494C127.874 193.494 129.365 193.548 130.821 193.656C130.912 193.663 131.003 193.664 131.094 193.661C131.185 193.658 131.275 193.649 131.366 193.636C131.455 193.623 131.544 193.605 131.633 193.583C131.721 193.56 131.807 193.533 131.893 193.501C131.978 193.469 132.061 193.432 132.142 193.391C132.223 193.35 132.302 193.305 132.379 193.255C132.455 193.206 132.528 193.153 132.599 193.095C132.67 193.038 132.737 192.977 132.801 192.912C135.516 190.595 136.887 188.47 138.48 187.233C138.522 187.191 138.562 187.148 138.601 187.104C138.64 187.059 138.677 187.013 138.713 186.966C138.749 186.919 138.783 186.871 138.815 186.821C138.848 186.772 138.878 186.721 138.907 186.67C138.936 186.618 138.963 186.566 138.989 186.512C139.014 186.459 139.037 186.404 139.059 186.349C139.08 186.294 139.1 186.239 139.117 186.182C139.135 186.126 139.151 186.069 139.165 186.011C139.178 185.954 139.19 185.896 139.2 185.837C139.209 185.779 139.217 185.721 139.223 185.662C139.228 185.603 139.232 185.544 139.234 185.485C139.235 185.425 139.235 185.366 139.232 185.307C139.23 185.248 139.225 185.189 139.219 185.131C139.212 185.072 139.204 185.013 139.193 184.955C139.183 184.897 139.17 184.839 139.155 184.782C139.141 184.724 139.124 184.668 139.106 184.612C139.088 184.556 139.069 184.501 139.048 184.447C139.027 184.392 139.003 184.339 138.978 184.286C138.954 184.233 138.927 184.182 138.898 184.131C138.87 184.08 138.839 184.03 138.807 183.982C138.775 183.933 138.741 183.885 138.706 183.839C138.67 183.793 138.633 183.748 138.595 183.704C138.556 183.66 138.516 183.618 138.474 183.577C138.433 183.536 138.39 183.497 138.346 183.459C138.301 183.421 138.256 183.384 138.209 183.349C138.162 183.315 138.114 183.282 138.065 183.25C138.016 183.219 137.965 183.189 137.914 183.162C137.863 183.134 137.811 183.108 137.757 183.084C137.704 183.059 137.651 183.037 137.596 183.017C137.541 182.996 137.486 182.978 137.43 182.961C137.374 182.945 137.318 182.931 137.261 182.918C137.204 182.906 137.146 182.895 137.089 182.886Z"></path></g></g><defs><rect id="path_0" x="0" y="0" width="270.36566162109375" height="194.7172088623047" rx="0" ry="0"/></defs></svg>