<svg xmlns="http://www.w3.org/2000/svg" xmlns:xlink="http://www.w3.org/1999/xlink" width="390" height="175" viewBox="0 0 390 175" fill="none">
<path  transform="translate(144, 26.25)"   fill="#F7F7F7"  d="M0 50Q0 48.7726 0.0602272 47.5466Q0.120454 46.3207 0.240764 45.0991Q0.361073 43.8776 0.541174 42.6635Q0.721276 41.4493 0.960736 40.2455Q1.2002 39.0416 1.49844 37.851Q1.79668 36.6603 2.15298 35.4858Q2.50929 34.3112 2.9228 33.1555Q3.33631 31.9998 3.80602 30.8658Q4.27574 29.7318 4.80053 28.6222Q5.32533 27.5127 5.90394 26.4302Q6.48254 25.3477 7.11357 24.2949Q7.74459 23.2421 8.42652 22.2215Q9.10844 21.2009 9.83962 20.215Q10.5708 19.2292 11.3495 18.2803Q12.1282 17.3315 12.9524 16.4221Q13.7767 15.5126 14.6447 14.6447Q15.5126 13.7767 16.4221 12.9524Q17.3315 12.1282 18.2803 11.3495Q19.2292 10.5708 20.215 9.83962Q21.2009 9.10844 22.2215 8.42652Q23.2421 7.74459 24.2949 7.11357Q25.3477 6.48254 26.4302 5.90394Q27.5127 5.32533 28.6222 4.80054Q29.7318 4.27574 30.8658 3.80602Q31.9998 3.33631 33.1555 2.9228Q34.3112 2.50929 35.4858 2.15298Q36.6603 1.79668 37.851 1.49844Q39.0416 1.2002 40.2455 0.960736Q41.4493 0.721276 42.6635 0.541174Q43.8776 0.361073 45.0991 0.240764Q46.3207 0.120454 47.5466 0.0602272Q48.7726 0 50 0Q51.2274 0 52.4534 0.0602272Q53.6793 0.120454 54.9009 0.240764Q56.1224 0.361073 57.3365 0.541174Q58.5507 0.721276 59.7545 0.960736Q60.9584 1.2002 62.149 1.49844Q63.3397 1.79668 64.5142 2.15298Q65.6888 2.50929 66.8445 2.9228Q68.0002 3.33631 69.1342 3.80602Q70.2682 4.27574 71.3777 4.80053Q72.4873 5.32533 73.5698 5.90394Q74.6523 6.48254 75.7051 7.11357Q76.7579 7.74459 77.7785 8.42652Q78.7991 9.10844 79.785 9.83962Q80.7708 10.5708 81.7197 11.3495Q82.6685 12.1282 83.5779 12.9524Q84.4874 13.7767 85.3553 14.6447Q86.2233 15.5126 87.0476 16.4221Q87.8718 17.3315 88.6505 18.2803Q89.4292 19.2292 90.1604 20.215Q90.8915 21.2009 91.5735 22.2215Q92.2554 23.2421 92.8864 24.2949Q93.5174 25.3477 94.0961 26.4302Q94.6747 27.5127 95.1995 28.6222Q95.7242 29.7318 96.194 30.8658Q96.6637 31.9998 97.0772 33.1555Q97.4907 34.3112 97.847 35.4858Q98.2033 36.6603 98.5015 37.851Q98.7998 39.0416 99.0393 40.2455Q99.2787 41.4493 99.4588 42.6635Q99.6389 43.8776 99.7592 45.0991Q99.8795 46.3207 99.9398 47.5466Q100 48.7726 100 50Q100 51.2274 99.9398 52.4534Q99.8795 53.6793 99.7592 54.9009Q99.6389 56.1224 99.4588 57.3365Q99.2787 58.5507 99.0393 59.7545Q98.7998 60.9584 98.5015 62.149Q98.2033 63.3397 97.847 64.5142Q97.4907 65.6888 97.0772 66.8445Q96.6637 68.0002 96.194 69.1342Q95.7242 70.2682 95.1995 71.3777Q94.6747 72.4873 94.0961 73.5698Q93.5175 74.6523 92.8864 75.7051Q92.2554 76.7579 91.5735 77.7785Q90.8915 78.7991 90.1604 79.785Q89.4292 80.7708 88.6505 81.7197Q87.8718 82.6685 87.0475 83.5779Q86.2233 84.4874 85.3553 85.3553Q84.4874 86.2233 83.5779 87.0476Q82.6685 87.8718 81.7197 88.6505Q80.7708 89.4292 79.785 90.1604Q78.7991 90.8915 77.7785 91.5735Q76.7579 92.2554 75.7051 92.8864Q74.6523 93.5174 73.5698 94.0961Q72.4873 94.6747 71.3777 95.1995Q70.2682 95.7242 69.1342 96.194Q68.0002 96.6637 66.8445 97.0772Q65.6888 97.4907 64.5142 97.847Q63.3397 98.2033 62.149 98.5015Q60.9584 98.7998 59.7545 99.0393Q58.5507 99.2787 57.3365 99.4588Q56.1224 99.6389 54.9009 99.7592Q53.6793 99.8795 52.4534 99.9398Q51.2274 100 50 100Q48.7726 100 47.5466 99.9398Q46.3207 99.8795 45.0991 99.7592Q43.8776 99.6389 42.6635 99.4588Q41.4493 99.2787 40.2455 99.0393Q39.0416 98.7998 37.851 98.5015Q36.6603 98.2033 35.4858 97.847Q34.3112 97.4907 33.1555 97.0772Q31.9998 96.6637 30.8658 96.194Q29.7318 95.7242 28.6222 95.1995Q27.5127 94.6747 26.4302 94.0961Q25.3477 93.5175 24.2949 92.8864Q23.2421 92.2554 22.2215 91.5735Q21.2009 90.8915 20.215 90.1604Q19.2292 89.4292 18.2803 88.6505Q17.3315 87.8718 16.4221 87.0475Q15.5126 86.2233 14.6447 85.3553Q13.7767 84.4874 12.9524 83.5779Q12.1282 82.6685 11.3495 81.7197Q10.5708 80.7708 9.83962 79.785Q9.10844 78.7991 8.42652 77.7785Q7.74459 76.7579 7.11357 75.7051Q6.48254 74.6523 5.90394 73.5698Q5.32533 72.4873 4.80054 71.3777Q4.27574 70.2682 3.80602 69.1342Q3.33631 68.0002 2.9228 66.8445Q2.50929 65.6888 2.15298 64.5142Q1.79668 63.3397 1.49844 62.149Q1.2002 60.9584 0.960736 59.7545Q0.721276 58.5507 0.541174 57.3365Q0.361073 56.1224 0.240764 54.9009Q0.120454 53.6793 0.0602272 52.4534Q0 51.2274 0 50Z">
</path>
<path d="M177.952 64.8392C176.433 65.9398 175.026 67.1853 173.73 68.5757C173.38 68.9483 173.167 69.4492 173.167 70.0002C173.167 71.1508 174.099 72.0835 175.25 72.0835C175.854 72.0835 176.398 71.8266 176.778 71.4162C179.035 68.9962 181.622 67.124 184.54 65.7998C187.55 64.4334 190.704 63.7502 194 63.7502C197.296 63.7502 200.45 64.4334 203.46 65.7998C206.378 67.124 208.965 68.9962 211.222 71.4162C211.223 71.4177 211.225 71.4191 211.226 71.4206C211.606 71.8284 212.148 72.0835 212.75 72.0835C213.901 72.0835 214.833 71.1508 214.833 70.0002C214.833 69.4512 214.621 68.9519 214.274 68.5798C214.273 68.5784 214.271 68.577 214.27 68.5756C212.974 67.1852 211.567 65.9397 210.048 64.8392C208.511 63.7245 206.889 62.78 205.182 62.0056C201.624 60.3909 197.897 59.5835 194 59.5835C190.103 59.5835 186.376 60.3909 182.818 62.0056C181.111 62.78 179.489 63.7245 177.952 64.8392ZM200.065 75.3989C201.929 76.1925 203.582 77.3132 205.023 78.761L205.023 78.7614C205.4 79.1405 205.923 79.3752 206.5 79.3752C207.651 79.3752 208.583 78.4425 208.583 77.2918C208.583 76.7184 208.352 76.199 207.977 75.8222L207.975 75.8205C206.152 73.9892 204.059 72.5708 201.697 71.5652C199.246 70.5218 196.68 70.0002 194 70.0002C191.32 70.0002 188.754 70.5218 186.303 71.5652C183.941 72.5708 181.848 73.9892 180.025 75.8205C180.024 75.821 180.024 75.8216 180.023 75.8222C179.648 76.199 179.417 76.7184 179.417 77.2918C179.417 78.4425 180.349 79.3752 181.5 79.3752C182.077 79.3752 182.599 79.1405 182.977 78.7614C184.418 77.3134 186.07 76.1926 187.935 75.3989C189.865 74.5775 191.886 74.1668 194 74.1668C196.114 74.1668 198.135 74.5775 200.065 75.3989ZM197.76 84.9596L197.761 84.9611C198.136 85.3231 198.646 85.5458 199.208 85.5458C200.359 85.5458 201.292 84.6131 201.292 83.4625C201.292 82.8741 201.048 82.3427 200.655 81.9638C200.655 81.9631 200.654 81.9622 200.653 81.9615C199.782 81.1207 198.782 80.47 197.655 80.0094C196.49 79.5337 195.272 79.2958 194 79.2958C192.728 79.2958 191.51 79.5337 190.345 80.0094C189.218 80.47 188.218 81.1206 187.347 81.9613C186.953 82.3404 186.708 82.8728 186.708 83.4625C186.708 84.6131 187.641 85.5458 188.792 85.5458C189.355 85.5458 189.865 85.3224 190.24 84.9595C190.727 84.4896 191.288 84.1253 191.921 83.8667C192.581 83.5972 193.274 83.4625 194 83.4625C194.726 83.4625 195.419 83.5972 196.079 83.8667C196.712 84.1254 197.273 84.4896 197.76 84.9596ZM194 87.7085C192.562 87.7085 191.396 88.8752 191.396 90.3127C191.396 91.7502 192.562 92.9168 194 92.9168C195.437 92.9168 196.604 91.7502 196.604 90.3127C196.604 88.8752 195.437 87.7085 194 87.7085Z" fill-rule="evenodd"  fill="#007AFF" >
</path>
<g filter="url(#filter_697_4929)">
<path  transform="translate(219, 101.25)"   fill="url(#linear_fill_697_4929_0)"  d="M0 25Q0 24.3863 0.0301136 23.7733Q0.0602272 23.1603 0.120382 22.5496Q0.180536 21.9388 0.270587 21.3317Q0.360638 20.7247 0.480368 20.1227Q0.600098 19.5208 0.749219 18.9255Q0.898339 18.3302 1.07649 17.7429Q1.25464 17.1556 1.4614 16.5778Q1.66815 15.9999 1.90301 15.4329Q2.13787 14.8659 2.40027 14.3111Q2.66266 13.7563 2.95197 13.2151Q3.24127 12.6738 3.55678 12.1474Q3.8723 11.621 4.21326 11.1107Q4.55422 10.6005 4.91981 10.1075Q5.2854 9.61458 5.67474 9.14017Q6.06408 8.66576 6.47622 8.21103Q6.88837 7.75629 7.32233 7.32233Q7.75629 6.88837 8.21103 6.47622Q8.66576 6.06408 9.14017 5.67474Q9.61458 5.2854 10.1075 4.91981Q10.6005 4.55422 11.1107 4.21326Q11.621 3.8723 12.1474 3.55678Q12.6738 3.24127 13.2151 2.95197Q13.7563 2.66266 14.3111 2.40027Q14.8659 2.13787 15.4329 1.90301Q15.9999 1.66815 16.5778 1.4614Q17.1556 1.25464 17.7429 1.07649Q18.3302 0.898339 18.9255 0.749219Q19.5208 0.600098 20.1227 0.480368Q20.7247 0.360638 21.3317 0.270587Q21.9388 0.180536 22.5496 0.120382Q23.1603 0.0602272 23.7733 0.0301136Q24.3863 0 25 0Q25.6137 0 26.2267 0.0301136Q26.8397 0.0602272 27.4504 0.120382Q28.0612 0.180536 28.6683 0.270587Q29.2753 0.360638 29.8773 0.480368Q30.4792 0.600098 31.0745 0.749219Q31.6698 0.898339 32.2571 1.07649Q32.8444 1.25464 33.4222 1.4614Q34.0001 1.66815 34.5671 1.90301Q35.1341 2.13787 35.6889 2.40027Q36.2437 2.66266 36.7849 2.95197Q37.3262 3.24127 37.8526 3.55678Q38.379 3.8723 38.8892 4.21326Q39.3995 4.55422 39.8925 4.91981Q40.3854 5.2854 40.8598 5.67474Q41.3342 6.06408 41.789 6.47622Q42.2437 6.88837 42.6777 7.32233Q43.1116 7.75629 43.5238 8.21103Q43.9359 8.66576 44.3253 9.14017Q44.7146 9.61458 45.0802 10.1075Q45.4458 10.6005 45.7867 11.1107Q46.1277 11.621 46.4432 12.1474Q46.7587 12.6738 47.048 13.2151Q47.3373 13.7563 47.5997 14.3111Q47.8621 14.8659 48.097 15.4329Q48.3318 15.9999 48.5386 16.5778Q48.7453 17.1556 48.9235 17.7429Q49.1017 18.3302 49.2508 18.9255Q49.3999 19.5208 49.5196 20.1227Q49.6394 20.7247 49.7294 21.3317Q49.8195 21.9388 49.8796 22.5496Q49.9398 23.1603 49.9699 23.7733Q50 24.3863 50 25Q50 25.6137 49.9699 26.2267Q49.9398 26.8397 49.8796 27.4504Q49.8195 28.0612 49.7294 28.6683Q49.6394 29.2753 49.5196 29.8773Q49.3999 30.4792 49.2508 31.0745Q49.1017 31.6698 48.9235 32.2571Q48.7453 32.8444 48.5386 33.4222Q48.3318 34.0001 48.097 34.5671Q47.8621 35.1341 47.5997 35.6889Q47.3373 36.2437 47.048 36.7849Q46.7587 37.3262 46.4432 37.8526Q46.1277 38.379 45.7867 38.8892Q45.4458 39.3995 45.0802 39.8925Q44.7146 40.3854 44.3253 40.8598Q43.9359 41.3342 43.5238 41.789Q43.1116 42.2437 42.6777 42.6777Q42.2437 43.1116 41.789 43.5238Q41.3342 43.9359 40.8598 44.3253Q40.3854 44.7146 39.8925 45.0802Q39.3995 45.4458 38.8893 45.7867Q38.379 46.1277 37.8526 46.4432Q37.3262 46.7587 36.7849 47.048Q36.2437 47.3373 35.6889 47.5997Q35.1341 47.8621 34.5671 48.097Q34.0001 48.3318 33.4222 48.5386Q32.8444 48.7453 32.2571 48.9235Q31.6698 49.1017 31.0745 49.2508Q30.4792 49.3999 29.8773 49.5196Q29.2753 49.6394 28.6683 49.7294Q28.0612 49.8195 27.4504 49.8796Q26.8397 49.9398 26.2267 49.9699Q25.6137 50 25 50Q24.3863 50 23.7733 49.9699Q23.1603 49.9398 22.5496 49.8796Q21.9388 49.8195 21.3317 49.7294Q20.7247 49.6394 20.1227 49.5196Q19.5208 49.3999 18.9255 49.2508Q18.3302 49.1017 17.7429 48.9235Q17.1556 48.7453 16.5778 48.5386Q15.9999 48.3318 15.4329 48.097Q14.8659 47.8621 14.3111 47.5997Q13.7563 47.3373 13.2151 47.048Q12.6738 46.7587 12.1474 46.4432Q11.621 46.1277 11.1107 45.7867Q10.6005 45.4458 10.1075 45.0802Q9.61458 44.7146 9.14017 44.3253Q8.66576 43.9359 8.21103 43.5238Q7.75629 43.1116 7.32233 42.6777Q6.88837 42.2437 6.47622 41.789Q6.06408 41.3342 5.67474 40.8598Q5.2854 40.3854 4.91981 39.8925Q4.55422 39.3995 4.21326 38.8893Q3.8723 38.379 3.55678 37.8526Q3.24127 37.3262 2.95197 36.7849Q2.66266 36.2437 2.40027 35.6889Q2.13787 35.1341 1.90301 34.5671Q1.66815 34.0001 1.4614 33.4222Q1.25464 32.8444 1.07649 32.2571Q0.898339 31.6698 0.749219 31.0745Q0.600098 30.4792 0.480368 29.8773Q0.360638 29.2753 0.270587 28.6683Q0.180536 28.0612 0.120382 27.4504Q0.0602272 26.8397 0.0301136 26.2267Q0 25.6137 0 25Z">
</path>
<path d="M249 131.25C251.071 131.25 252.75 132.929 252.75 135C252.75 137.071 251.071 138.75 249 138.75C246.929 138.75 245.25 137.071 245.25 135C245.25 132.929 246.929 131.25 249 131.25ZM236.5 126.25C239.261 126.25 241.5 128.489 241.5 131.25C241.5 134.011 239.261 136.25 236.5 136.25C233.739 136.25 231.5 134.011 231.5 131.25C231.5 128.489 233.739 126.25 236.5 126.25ZM247.125 113.75C250.922 113.75 254 116.828 254 120.625C254 124.422 250.922 127.5 247.125 127.5C243.328 127.5 240.25 124.422 240.25 120.625C240.25 116.828 243.328 113.75 247.125 113.75Z"   fill="#FFFFFF" >
</path>
</g>
<g filter="url(#filter_697_4937)">
<path  transform="translate(216, 7.25)"   fill="url(#linear_fill_697_4937_0)"  d="M0 25Q0 24.3863 0.0301136 23.7733Q0.0602272 23.1603 0.120382 22.5496Q0.180536 21.9388 0.270587 21.3317Q0.360638 20.7247 0.480368 20.1227Q0.600098 19.5208 0.749219 18.9255Q0.898339 18.3302 1.07649 17.7429Q1.25464 17.1556 1.4614 16.5778Q1.66815 15.9999 1.90301 15.4329Q2.13787 14.8659 2.40027 14.3111Q2.66266 13.7563 2.95197 13.2151Q3.24127 12.6738 3.55678 12.1474Q3.8723 11.621 4.21326 11.1107Q4.55422 10.6005 4.91981 10.1075Q5.2854 9.61458 5.67474 9.14017Q6.06408 8.66576 6.47622 8.21103Q6.88837 7.75629 7.32233 7.32233Q7.75629 6.88837 8.21103 6.47622Q8.66576 6.06408 9.14017 5.67474Q9.61458 5.2854 10.1075 4.91981Q10.6005 4.55422 11.1107 4.21326Q11.621 3.8723 12.1474 3.55678Q12.6738 3.24127 13.2151 2.95197Q13.7563 2.66266 14.3111 2.40027Q14.8659 2.13787 15.4329 1.90301Q15.9999 1.66815 16.5778 1.4614Q17.1556 1.25464 17.7429 1.07649Q18.3302 0.898339 18.9255 0.749219Q19.5208 0.600098 20.1227 0.480368Q20.7247 0.360638 21.3317 0.270587Q21.9388 0.180536 22.5496 0.120382Q23.1603 0.0602272 23.7733 0.0301136Q24.3863 0 25 0Q25.6137 0 26.2267 0.0301136Q26.8397 0.0602272 27.4504 0.120382Q28.0612 0.180536 28.6683 0.270587Q29.2753 0.360638 29.8773 0.480368Q30.4792 0.600098 31.0745 0.749219Q31.6698 0.898339 32.2571 1.07649Q32.8444 1.25464 33.4222 1.4614Q34.0001 1.66815 34.5671 1.90301Q35.1341 2.13787 35.6889 2.40027Q36.2437 2.66266 36.7849 2.95197Q37.3262 3.24127 37.8526 3.55678Q38.379 3.8723 38.8892 4.21326Q39.3995 4.55422 39.8925 4.91981Q40.3854 5.2854 40.8598 5.67474Q41.3342 6.06408 41.789 6.47622Q42.2437 6.88837 42.6777 7.32233Q43.1116 7.75629 43.5238 8.21103Q43.9359 8.66576 44.3253 9.14017Q44.7146 9.61458 45.0802 10.1075Q45.4458 10.6005 45.7867 11.1107Q46.1277 11.621 46.4432 12.1474Q46.7587 12.6738 47.048 13.2151Q47.3373 13.7563 47.5997 14.3111Q47.8621 14.8659 48.097 15.4329Q48.3318 15.9999 48.5386 16.5778Q48.7453 17.1556 48.9235 17.7429Q49.1017 18.3302 49.2508 18.9255Q49.3999 19.5208 49.5196 20.1227Q49.6394 20.7247 49.7294 21.3317Q49.8195 21.9388 49.8796 22.5496Q49.9398 23.1603 49.9699 23.7733Q50 24.3863 50 25Q50 25.6137 49.9699 26.2267Q49.9398 26.8397 49.8796 27.4504Q49.8195 28.0612 49.7294 28.6683Q49.6394 29.2753 49.5196 29.8773Q49.3999 30.4792 49.2508 31.0745Q49.1017 31.6698 48.9235 32.2571Q48.7453 32.8444 48.5386 33.4222Q48.3318 34.0001 48.097 34.5671Q47.8621 35.1341 47.5997 35.6889Q47.3373 36.2437 47.048 36.7849Q46.7587 37.3262 46.4432 37.8526Q46.1277 38.379 45.7867 38.8892Q45.4458 39.3995 45.0802 39.8925Q44.7146 40.3854 44.3253 40.8598Q43.9359 41.3342 43.5238 41.789Q43.1116 42.2437 42.6777 42.6777Q42.2437 43.1116 41.789 43.5238Q41.3342 43.9359 40.8598 44.3253Q40.3854 44.7146 39.8925 45.0802Q39.3995 45.4458 38.8893 45.7867Q38.379 46.1277 37.8526 46.4432Q37.3262 46.7587 36.7849 47.048Q36.2437 47.3373 35.6889 47.5997Q35.1341 47.8621 34.5671 48.097Q34.0001 48.3318 33.4222 48.5386Q32.8444 48.7453 32.2571 48.9235Q31.6698 49.1017 31.0745 49.2508Q30.4792 49.3999 29.8773 49.5196Q29.2753 49.6394 28.6683 49.7294Q28.0612 49.8195 27.4504 49.8796Q26.8397 49.9398 26.2267 49.9699Q25.6137 50 25 50Q24.3863 50 23.7733 49.9699Q23.1603 49.9398 22.5496 49.8796Q21.9388 49.8195 21.3317 49.7294Q20.7247 49.6394 20.1227 49.5196Q19.5208 49.3999 18.9255 49.2508Q18.3302 49.1017 17.7429 48.9235Q17.1556 48.7453 16.5778 48.5386Q15.9999 48.3318 15.4329 48.097Q14.8659 47.8621 14.3111 47.5997Q13.7563 47.3373 13.2151 47.048Q12.6738 46.7587 12.1474 46.4432Q11.621 46.1277 11.1107 45.7867Q10.6005 45.4458 10.1075 45.0802Q9.61458 44.7146 9.14017 44.3253Q8.66576 43.9359 8.21103 43.5238Q7.75629 43.1116 7.32233 42.6777Q6.88837 42.2437 6.47622 41.789Q6.06408 41.3342 5.67474 40.8598Q5.2854 40.3854 4.91981 39.8925Q4.55422 39.3995 4.21326 38.8893Q3.8723 38.379 3.55678 37.8526Q3.24127 37.3262 2.95197 36.7849Q2.66266 36.2437 2.40027 35.6889Q2.13787 35.1341 1.90301 34.5671Q1.66815 34.0001 1.4614 33.4222Q1.25464 32.8444 1.07649 32.2571Q0.898339 31.6698 0.749219 31.0745Q0.600098 30.4792 0.480368 29.8773Q0.360638 29.2753 0.270587 28.6683Q0.180536 28.0612 0.120382 27.4504Q0.0602272 26.8397 0.0301136 26.2267Q0 25.6137 0 25Z">
</path>
<rect  x="226" y="21" width="30" height="22.5" rx="3.75"    fill="#90CFFC" >
</rect>
<path   fill="rgba(255, 255, 255, 1)"  d="M250 20.375M250 20.375Q253.301 20.375 254.235 20.8538Q255.501 21.4986 256.147 22.7664Q256.625 23.6992 256.625 27L256.625 37.5Q256.625 40.8008 256.146 41.7351Q255.501 43.0014 254.234 43.6469Q253.301 44.125 250 44.125L232 44.125Q228.699 44.125 227.765 43.6462Q226.499 43.0014 225.853 41.7336Q225.375 40.8008 225.375 37.5L225.375 27Q225.375 23.6992 225.854 22.7649Q226.499 21.4986 227.766 20.8531Q228.699 20.375 232 20.375L250 20.375ZM250 21.625L232 21.625Q229.001 21.625 228.334 21.9669Q227.428 22.4281 226.966 23.3351Q226.625 24.0008 226.625 27L226.625 37.5Q226.625 40.4992 226.967 41.1664Q227.428 42.0719 228.335 42.5338Q229.001 42.875 232 42.875L250 42.875Q252.999 42.875 253.666 42.5331Q254.572 42.0719 255.034 41.1649Q255.375 40.4992 255.375 37.5L255.375 27Q255.375 24.0008 255.033 23.3336Q254.572 22.4281 253.665 21.9662Q252.999 21.625 250 21.625Z">
</path>
<rect  x="234.75" y="39.75" width="12.5" height="1.25" rx="0.625"    fill="#FFFFFF" >
</rect>
</g>
<g filter="url(#filter_697_4941)">
<path  transform="translate(114, 1.25)"   fill="url(#linear_fill_697_4941_0)"  d="M0 25Q0 24.3863 0.0301136 23.7733Q0.0602272 23.1603 0.120382 22.5496Q0.180536 21.9388 0.270587 21.3317Q0.360638 20.7247 0.480368 20.1227Q0.600098 19.5208 0.749219 18.9255Q0.898339 18.3302 1.07649 17.7429Q1.25464 17.1556 1.4614 16.5778Q1.66815 15.9999 1.90301 15.4329Q2.13787 14.8659 2.40027 14.3111Q2.66266 13.7563 2.95197 13.2151Q3.24127 12.6738 3.55678 12.1474Q3.8723 11.621 4.21326 11.1107Q4.55422 10.6005 4.91981 10.1075Q5.2854 9.61458 5.67474 9.14017Q6.06408 8.66576 6.47622 8.21103Q6.88837 7.75629 7.32233 7.32233Q7.75629 6.88837 8.21103 6.47622Q8.66576 6.06408 9.14017 5.67474Q9.61458 5.2854 10.1075 4.91981Q10.6005 4.55422 11.1107 4.21326Q11.621 3.8723 12.1474 3.55678Q12.6738 3.24127 13.2151 2.95197Q13.7563 2.66266 14.3111 2.40027Q14.8659 2.13787 15.4329 1.90301Q15.9999 1.66815 16.5778 1.4614Q17.1556 1.25464 17.7429 1.07649Q18.3302 0.898339 18.9255 0.749219Q19.5208 0.600098 20.1227 0.480368Q20.7247 0.360638 21.3317 0.270587Q21.9388 0.180536 22.5496 0.120382Q23.1603 0.0602272 23.7733 0.0301136Q24.3863 0 25 0Q25.6137 0 26.2267 0.0301136Q26.8397 0.0602272 27.4504 0.120382Q28.0612 0.180536 28.6683 0.270587Q29.2753 0.360638 29.8773 0.480368Q30.4792 0.600098 31.0745 0.749219Q31.6698 0.898339 32.2571 1.07649Q32.8444 1.25464 33.4222 1.4614Q34.0001 1.66815 34.5671 1.90301Q35.1341 2.13787 35.6889 2.40027Q36.2437 2.66266 36.7849 2.95197Q37.3262 3.24127 37.8526 3.55678Q38.379 3.8723 38.8892 4.21326Q39.3995 4.55422 39.8925 4.91981Q40.3854 5.2854 40.8598 5.67474Q41.3342 6.06408 41.789 6.47622Q42.2437 6.88837 42.6777 7.32233Q43.1116 7.75629 43.5238 8.21103Q43.9359 8.66576 44.3253 9.14017Q44.7146 9.61458 45.0802 10.1075Q45.4458 10.6005 45.7867 11.1107Q46.1277 11.621 46.4432 12.1474Q46.7587 12.6738 47.048 13.2151Q47.3373 13.7563 47.5997 14.3111Q47.8621 14.8659 48.097 15.4329Q48.3318 15.9999 48.5386 16.5778Q48.7453 17.1556 48.9235 17.7429Q49.1017 18.3302 49.2508 18.9255Q49.3999 19.5208 49.5196 20.1227Q49.6394 20.7247 49.7294 21.3317Q49.8195 21.9388 49.8796 22.5496Q49.9398 23.1603 49.9699 23.7733Q50 24.3863 50 25Q50 25.6137 49.9699 26.2267Q49.9398 26.8397 49.8796 27.4504Q49.8195 28.0612 49.7294 28.6683Q49.6394 29.2753 49.5196 29.8773Q49.3999 30.4792 49.2508 31.0745Q49.1017 31.6698 48.9235 32.2571Q48.7453 32.8444 48.5386 33.4222Q48.3318 34.0001 48.097 34.5671Q47.8621 35.1341 47.5997 35.6889Q47.3373 36.2437 47.048 36.7849Q46.7587 37.3262 46.4432 37.8526Q46.1277 38.379 45.7867 38.8892Q45.4458 39.3995 45.0802 39.8925Q44.7146 40.3854 44.3253 40.8598Q43.9359 41.3342 43.5238 41.789Q43.1116 42.2437 42.6777 42.6777Q42.2437 43.1116 41.789 43.5238Q41.3342 43.9359 40.8598 44.3253Q40.3854 44.7146 39.8925 45.0802Q39.3995 45.4458 38.8893 45.7867Q38.379 46.1277 37.8526 46.4432Q37.3262 46.7587 36.7849 47.048Q36.2437 47.3373 35.6889 47.5997Q35.1341 47.8621 34.5671 48.097Q34.0001 48.3318 33.4222 48.5386Q32.8444 48.7453 32.2571 48.9235Q31.6698 49.1017 31.0745 49.2508Q30.4792 49.3999 29.8773 49.5196Q29.2753 49.6394 28.6683 49.7294Q28.0612 49.8195 27.4504 49.8796Q26.8397 49.9398 26.2267 49.9699Q25.6137 50 25 50Q24.3863 50 23.7733 49.9699Q23.1603 49.9398 22.5496 49.8796Q21.9388 49.8195 21.3317 49.7294Q20.7247 49.6394 20.1227 49.5196Q19.5208 49.3999 18.9255 49.2508Q18.3302 49.1017 17.7429 48.9235Q17.1556 48.7453 16.5778 48.5386Q15.9999 48.3318 15.4329 48.097Q14.8659 47.8621 14.3111 47.5997Q13.7563 47.3373 13.2151 47.048Q12.6738 46.7587 12.1474 46.4432Q11.621 46.1277 11.1107 45.7867Q10.6005 45.4458 10.1075 45.0802Q9.61458 44.7146 9.14017 44.3253Q8.66576 43.9359 8.21103 43.5238Q7.75629 43.1116 7.32233 42.6777Q6.88837 42.2437 6.47622 41.789Q6.06408 41.3342 5.67474 40.8598Q5.2854 40.3854 4.91981 39.8925Q4.55422 39.3995 4.21326 38.8893Q3.8723 38.379 3.55678 37.8526Q3.24127 37.3262 2.95197 36.7849Q2.66266 36.2437 2.40027 35.6889Q2.13787 35.1341 1.90301 34.5671Q1.66815 34.0001 1.4614 33.4222Q1.25464 32.8444 1.07649 32.2571Q0.898339 31.6698 0.749219 31.0745Q0.600098 30.4792 0.480368 29.8773Q0.360638 29.2753 0.270587 28.6683Q0.180536 28.0612 0.120382 27.4504Q0.0602272 26.8397 0.0301136 26.2267Q0 25.6137 0 25Z">
</path>
<rect  x="130.25" y="11.25" width="17.5" height="30" rx="3.75"    fill="#90CFFC" >
</rect>
<path   fill="rgba(255, 255, 255, 1)"  d="M141.75 10.625M141.75 10.625Q143.613 10.625 144.264 10.6783Q145.325 10.7654 145.985 11.1038Q147.251 11.7486 147.897 13.0164Q148.235 13.6753 148.322 14.7364Q148.375 15.3869 148.375 17.25L148.375 35.25Q148.375 37.1131 148.322 37.7636Q148.235 38.8247 147.896 39.4851Q147.251 40.7514 145.984 41.3969Q145.325 41.7347 144.264 41.8217Q143.613 41.875 141.75 41.875L136.25 41.875Q134.387 41.875 133.736 41.8217Q132.675 41.7347 132.015 41.3962Q130.749 40.7514 130.103 39.4836Q129.765 38.8247 129.678 37.7636Q129.625 37.1131 129.625 35.25L129.625 17.25Q129.625 15.3869 129.678 14.7364Q129.765 13.6753 130.104 13.0149Q130.749 11.7486 132.016 11.1031Q132.675 10.7654 133.736 10.6783Q134.387 10.625 136.25 10.625L141.75 10.625ZM141.75 11.875L136.25 11.875Q134.438 11.875 133.839 11.9242Q133.025 11.9909 132.584 12.2169Q131.678 12.6781 131.216 13.5851Q130.991 14.0247 130.924 14.8386Q130.875 15.4381 130.875 17.25L130.875 35.25Q130.875 37.0619 130.924 37.6614Q130.991 38.4753 131.217 38.9164Q131.678 39.8219 132.585 40.2838Q133.025 40.5091 133.839 40.5758Q134.438 40.625 136.25 40.625L141.75 40.625Q143.562 40.625 144.161 40.5758Q144.975 40.5091 145.416 40.2831Q146.322 39.8219 146.784 38.9149Q147.009 38.4753 147.076 37.6614Q147.125 37.0619 147.125 35.25L147.125 17.25Q147.125 15.4381 147.076 14.8386Q147.009 14.0247 146.783 13.5836Q146.322 12.6781 145.415 12.2162Q144.975 11.9909 144.161 11.9242Q143.562 11.875 141.75 11.875Z">
</path>
<rect  x="135.25" y="37.5" width="7.5" height="1.25" rx="0.625"    fill="#FFFFFF" >
</rect>
</g>
<g filter="url(#filter_697_4933)">
<path  transform="translate(114, 95.25)"   fill="url(#linear_fill_697_4933_0)"  d="M0 25Q0 24.3863 0.0301136 23.7733Q0.0602272 23.1603 0.120382 22.5496Q0.180536 21.9388 0.270587 21.3317Q0.360638 20.7247 0.480368 20.1227Q0.600098 19.5208 0.749219 18.9255Q0.898339 18.3302 1.07649 17.7429Q1.25464 17.1556 1.4614 16.5778Q1.66815 15.9999 1.90301 15.4329Q2.13787 14.8659 2.40027 14.3111Q2.66266 13.7563 2.95197 13.2151Q3.24127 12.6738 3.55678 12.1474Q3.8723 11.621 4.21326 11.1107Q4.55422 10.6005 4.91981 10.1075Q5.2854 9.61458 5.67474 9.14017Q6.06408 8.66576 6.47622 8.21103Q6.88837 7.75629 7.32233 7.32233Q7.75629 6.88837 8.21103 6.47622Q8.66576 6.06408 9.14017 5.67474Q9.61458 5.2854 10.1075 4.91981Q10.6005 4.55422 11.1107 4.21326Q11.621 3.8723 12.1474 3.55678Q12.6738 3.24127 13.2151 2.95197Q13.7563 2.66266 14.3111 2.40027Q14.8659 2.13787 15.4329 1.90301Q15.9999 1.66815 16.5778 1.4614Q17.1556 1.25464 17.7429 1.07649Q18.3302 0.898339 18.9255 0.749219Q19.5208 0.600098 20.1227 0.480368Q20.7247 0.360638 21.3317 0.270587Q21.9388 0.180536 22.5496 0.120382Q23.1603 0.0602272 23.7733 0.0301136Q24.3863 0 25 0Q25.6137 0 26.2267 0.0301136Q26.8397 0.0602272 27.4504 0.120382Q28.0612 0.180536 28.6683 0.270587Q29.2753 0.360638 29.8773 0.480368Q30.4792 0.600098 31.0745 0.749219Q31.6698 0.898339 32.2571 1.07649Q32.8444 1.25464 33.4222 1.4614Q34.0001 1.66815 34.5671 1.90301Q35.1341 2.13787 35.6889 2.40027Q36.2437 2.66266 36.7849 2.95197Q37.3262 3.24127 37.8526 3.55678Q38.379 3.8723 38.8892 4.21326Q39.3995 4.55422 39.8925 4.91981Q40.3854 5.2854 40.8598 5.67474Q41.3342 6.06408 41.789 6.47622Q42.2437 6.88837 42.6777 7.32233Q43.1116 7.75629 43.5238 8.21103Q43.9359 8.66576 44.3253 9.14017Q44.7146 9.61458 45.0802 10.1075Q45.4458 10.6005 45.7867 11.1107Q46.1277 11.621 46.4432 12.1474Q46.7587 12.6738 47.048 13.2151Q47.3373 13.7563 47.5997 14.3111Q47.8621 14.8659 48.097 15.4329Q48.3318 15.9999 48.5386 16.5778Q48.7453 17.1556 48.9235 17.7429Q49.1017 18.3302 49.2508 18.9255Q49.3999 19.5208 49.5196 20.1227Q49.6394 20.7247 49.7294 21.3317Q49.8195 21.9388 49.8796 22.5496Q49.9398 23.1603 49.9699 23.7733Q50 24.3863 50 25Q50 25.6137 49.9699 26.2267Q49.9398 26.8397 49.8796 27.4504Q49.8195 28.0612 49.7294 28.6683Q49.6394 29.2753 49.5196 29.8773Q49.3999 30.4792 49.2508 31.0745Q49.1017 31.6698 48.9235 32.2571Q48.7453 32.8444 48.5386 33.4222Q48.3318 34.0001 48.097 34.5671Q47.8621 35.1341 47.5997 35.6889Q47.3373 36.2437 47.048 36.7849Q46.7587 37.3262 46.4432 37.8526Q46.1277 38.379 45.7867 38.8892Q45.4458 39.3995 45.0802 39.8925Q44.7146 40.3854 44.3253 40.8598Q43.9359 41.3342 43.5238 41.789Q43.1116 42.2437 42.6777 42.6777Q42.2437 43.1116 41.789 43.5238Q41.3342 43.9359 40.8598 44.3253Q40.3854 44.7146 39.8925 45.0802Q39.3995 45.4458 38.8893 45.7867Q38.379 46.1277 37.8526 46.4432Q37.3262 46.7587 36.7849 47.048Q36.2437 47.3373 35.6889 47.5997Q35.1341 47.8621 34.5671 48.097Q34.0001 48.3318 33.4222 48.5386Q32.8444 48.7453 32.2571 48.9235Q31.6698 49.1017 31.0745 49.2508Q30.4792 49.3999 29.8773 49.5196Q29.2753 49.6394 28.6683 49.7294Q28.0612 49.8195 27.4504 49.8796Q26.8397 49.9398 26.2267 49.9699Q25.6137 50 25 50Q24.3863 50 23.7733 49.9699Q23.1603 49.9398 22.5496 49.8796Q21.9388 49.8195 21.3317 49.7294Q20.7247 49.6394 20.1227 49.5196Q19.5208 49.3999 18.9255 49.2508Q18.3302 49.1017 17.7429 48.9235Q17.1556 48.7453 16.5778 48.5386Q15.9999 48.3318 15.4329 48.097Q14.8659 47.8621 14.3111 47.5997Q13.7563 47.3373 13.2151 47.048Q12.6738 46.7587 12.1474 46.4432Q11.621 46.1277 11.1107 45.7867Q10.6005 45.4458 10.1075 45.0802Q9.61458 44.7146 9.14017 44.3253Q8.66576 43.9359 8.21103 43.5238Q7.75629 43.1116 7.32233 42.6777Q6.88837 42.2437 6.47622 41.789Q6.06408 41.3342 5.67474 40.8598Q5.2854 40.3854 4.91981 39.8925Q4.55422 39.3995 4.21326 38.8893Q3.8723 38.379 3.55678 37.8526Q3.24127 37.3262 2.95197 36.7849Q2.66266 36.2437 2.40027 35.6889Q2.13787 35.1341 1.90301 34.5671Q1.66815 34.0001 1.4614 33.4222Q1.25464 32.8444 1.07649 32.2571Q0.898339 31.6698 0.749219 31.0745Q0.600098 30.4792 0.480368 29.8773Q0.360638 29.2753 0.270587 28.6683Q0.180536 28.0612 0.120382 27.4504Q0.0602272 26.8397 0.0301136 26.2267Q0 25.6137 0 25Z">
</path>
<path     fill="#90CFFC"  d="M124.662 116.327C124.662 114.227 124.662 113.177 125.072 112.367Q125.206 112.104 125.379 111.865Q125.553 111.626 125.762 111.417Q125.971 111.208 126.21 111.035Q126.449 110.861 126.712 110.727C127.512 110.327 128.562 110.327 130.662 110.327L147.342 110.323C149.442 110.323 150.492 110.323 151.292 110.727Q151.555 110.861 151.794 111.035Q152.033 111.208 152.242 111.417Q152.451 111.626 152.624 111.865Q152.798 112.104 152.932 112.367C153.338 113.177 153.338 114.227 153.338 116.327L153.338 128.927L139 128.927L124.662 128.927L124.662 116.327Z">
</path>
<path fill-rule="evenodd"  fill="rgba(255, 255, 255, 1)"  d="M125.912 127.677L125.912 116.327Q125.912 114.541 125.959 113.965Q126.016 113.27 126.187 112.932Q126.555 112.21 127.279 111.841Q127.604 111.679 128.299 111.623Q128.874 111.577 130.662 111.577L147.342 111.573Q149.129 111.573 149.703 111.619Q150.396 111.675 150.728 111.843Q151.449 112.21 151.818 112.934Q151.985 113.268 152.042 113.965Q152.088 114.54 152.088 116.327L152.088 127.677L125.912 127.677ZM125.912 128.927L124.662 128.927L124.662 116.327C124.662 114.227 124.662 113.177 125.072 112.367Q125.206 112.104 125.379 111.865Q125.553 111.626 125.762 111.417Q125.971 111.208 126.21 111.035Q126.449 110.861 126.712 110.727C127.512 110.327 128.562 110.327 130.662 110.327L147.342 110.323C149.442 110.323 150.492 110.323 151.292 110.727Q151.555 110.861 151.794 111.035Q152.033 111.208 152.242 111.417Q152.451 111.626 152.624 111.865Q152.798 112.104 152.932 112.367C153.338 113.177 153.338 114.227 153.338 116.327L153.338 128.927L125.912 128.927Z">
</path>
<rect  x="122.75" y="128.92724609375" width="32.5" height="1.25" rx="0.5"    fill="#FFFFFF" >
</rect>
</g>
<defs>
<linearGradient id="linear_fill_697_4929_0" x1="0" y1="14.597999999999999" x2="46.6965" y2="33.052" gradientUnits="userSpaceOnUse">
<stop offset="0" stop-color="#338FFF"  />
<stop offset="0.4312" stop-color="#597DFC"  />
<stop offset="1" stop-color="#9B80ED"  />
</linearGradient>
<filter id="filter_697_4929" x="206.5" y="100" width="75" height="75" filterUnits="userSpaceOnUse" color-interpolation-filters="sRGB">
<feFlood flood-opacity="0" result="feFloodId_697_4929"/>
<feColorMatrix in="SourceAlpha" type="matrix" values="0 0 0 0 0 0 0 0 0 0 0 0 0 0 0 0 0 0 127 0" result="hardAlpha_697_4929"/>
<feOffset dx="0" dy="11.25"/>
<feGaussianBlur stdDeviation="6.25"/>
<feComposite in2="hardAlpha_697_4929" operator="out"/>
<feColorMatrix type="matrix" values="0 0 0 0 0 0 0 0 0 0 0 0 0 0 0 0 0 0 0.06 0"/>
<feBlend mode="normal" in2="feFloodId_697_4929" result="dropShadow_1_697_4929"/>
<feBlend mode="normal" in="SourceGraphic" in2="dropShadow_1_697_4929" result="shape_697_4929"/>
</filter>
<linearGradient id="linear_fill_697_4937_0" x1="0" y1="25" x2="41.922" y2="42.9885" gradientUnits="userSpaceOnUse">
<stop offset="0" stop-color="#12A0FF"  />
<stop offset="1" stop-color="#0790FF"  />
</linearGradient>
<filter id="filter_697_4937" x="203.5" y="6" width="75" height="75" filterUnits="userSpaceOnUse" color-interpolation-filters="sRGB">
<feFlood flood-opacity="0" result="feFloodId_697_4937"/>
<feColorMatrix in="SourceAlpha" type="matrix" values="0 0 0 0 0 0 0 0 0 0 0 0 0 0 0 0 0 0 127 0" result="hardAlpha_697_4937"/>
<feOffset dx="0" dy="11.25"/>
<feGaussianBlur stdDeviation="6.25"/>
<feComposite in2="hardAlpha_697_4937" operator="out"/>
<feColorMatrix type="matrix" values="0 0 0 0 0 0 0 0 0 0 0 0 0 0 0 0 0 0 0.06 0"/>
<feBlend mode="normal" in2="feFloodId_697_4937" result="dropShadow_1_697_4937"/>
<feBlend mode="normal" in="SourceGraphic" in2="dropShadow_1_697_4937" result="shape_697_4937"/>
</filter>
<linearGradient id="linear_fill_697_4941_0" x1="8.4175" y1="6.468" x2="41.922" y2="42.9885" gradientUnits="userSpaceOnUse">
<stop offset="0" stop-color="#12A0FF"  />
<stop offset="1" stop-color="#0790FF"  />
</linearGradient>
<filter id="filter_697_4941" x="101.5" y="0" width="75" height="75" filterUnits="userSpaceOnUse" color-interpolation-filters="sRGB">
<feFlood flood-opacity="0" result="feFloodId_697_4941"/>
<feColorMatrix in="SourceAlpha" type="matrix" values="0 0 0 0 0 0 0 0 0 0 0 0 0 0 0 0 0 0 127 0" result="hardAlpha_697_4941"/>
<feOffset dx="0" dy="11.25"/>
<feGaussianBlur stdDeviation="6.25"/>
<feComposite in2="hardAlpha_697_4941" operator="out"/>
<feColorMatrix type="matrix" values="0 0 0 0 0 0 0 0 0 0 0 0 0 0 0 0 0 0 0.06 0"/>
<feBlend mode="normal" in2="feFloodId_697_4941" result="dropShadow_1_697_4941"/>
<feBlend mode="normal" in="SourceGraphic" in2="dropShadow_1_697_4941" result="shape_697_4941"/>
</filter>
<linearGradient id="linear_fill_697_4933_0" x1="0" y1="25" x2="41.922" y2="42.9885" gradientUnits="userSpaceOnUse">
<stop offset="0" stop-color="#12A0FF"  />
<stop offset="1" stop-color="#0790FF"  />
</linearGradient>
<filter id="filter_697_4933" x="101.5" y="94" width="75" height="75" filterUnits="userSpaceOnUse" color-interpolation-filters="sRGB">
<feFlood flood-opacity="0" result="feFloodId_697_4933"/>
<feColorMatrix in="SourceAlpha" type="matrix" values="0 0 0 0 0 0 0 0 0 0 0 0 0 0 0 0 0 0 127 0" result="hardAlpha_697_4933"/>
<feOffset dx="0" dy="11.25"/>
<feGaussianBlur stdDeviation="6.25"/>
<feComposite in2="hardAlpha_697_4933" operator="out"/>
<feColorMatrix type="matrix" values="0 0 0 0 0 0 0 0 0 0 0 0 0 0 0 0 0 0 0.06 0"/>
<feBlend mode="normal" in2="feFloodId_697_4933" result="dropShadow_1_697_4933"/>
<feBlend mode="normal" in="SourceGraphic" in2="dropShadow_1_697_4933" result="shape_697_4933"/>
</filter>
</defs>
</svg>
