<svg xmlns="http://www.w3.org/2000/svg" xmlns:xlink="http://www.w3.org/1999/xlink" width="44" height="44" viewBox="0 0 44 44" fill="none">
<path     fill="#F2502C"  d="M9.5 3L27 3L27.5 3.5L27.5 8L32.25 12.5L37 12.5L37.5 13L37.5 38.5C37.5 40.1569 36.1569 41.5 34.5 41.5L9.5 41.5C7.84315 41.5 6.5 40.1569 6.5 38.5L6.5 6C6.5 4.34315 7.84315 3 9.5 3Z">
</path>
<path     fill="#FFFFFF"  d="M20 34L20 22C20 21.4477 19.5523 21 19 21L17.5 21C16.9477 21 16.5 21.4477 16.5 22L16.5 34L20 34Z">
</path>
<path     fill="#FFFFFF"  d="M16.5 25L24.2822 22.7111C24.7077 22.586 25 22.1954 25 21.7518L25 19.8365C25 19.1689 24.3583 18.6887 23.7178 18.8771L17.2178 20.7889C16.7923 20.914 16.5 21.3046 16.5 21.7482L16.5 25Z">
</path>
<path     fill="#F79675"  d="M27.2031 3L27 3L27 3C27.1601 3.16007 27.25 3.37718 27.25 3.60355L27.25 9.75C27.25 11.4069 28.5931 12.75 30.25 12.75L36.8964 12.75C37.1228 12.75 37.3399 12.8399 37.5 13L37.5 13L37.5 12.8603C37.5 12.3111 37.2742 11.7861 36.8755 11.4084L28.5785 3.54809C28.2071 3.19615 27.7148 3 27.2031 3Z">
</path>
<path d="M20 34C20 36.2091 18.7614 38 15 38C11.2386 38 10 36.2091 10 34C10 31.7909 11.2386 30 15 30C18.7614 30 20 31.7909 20 34Z"   fill="#FFFFFF" >
</path>
</svg>
