<svg xmlns="http://www.w3.org/2000/svg" xmlns:xlink="http://www.w3.org/1999/xlink" width="26" height="26" viewBox="0 0 26 26" fill="none">
<path d="M22 8C22 11.3137 19.3137 14 16 14C12.6863 14 10 11.3137 10 8C10 4.68629 12.6863 2 16 2C19.3137 2 22 4.68629 22 8ZM20 8C20 5.79086 18.2091 4 16 4C13.7909 4 12 5.79086 12 8C12 10.2091 13.7909 12 16 12C18.2091 12 20 10.2091 20 8ZM12 18.5C12 20.9853 9.98528 23 7.5 23C5.01472 23 3 20.9853 3 18.5C3 16.0147 5.01472 14 7.5 14C9.98528 14 12 16.0147 12 18.5ZM10 18.5C10 17.1193 8.88071 16 7.5 16C6.11929 16 5 17.1193 5 18.5C5 19.8807 6.11929 21 7.5 21C8.88071 21 10 19.8807 10 18.5ZM18.5 25C20.433 25 22 23.433 22 21.5C22 19.567 20.433 18 18.5 18C16.567 18 15 19.567 15 21.5C15 23.433 16.567 25 18.5 25ZM18.5 20C19.3284 20 20 20.6716 20 21.5C20 22.3284 19.3284 23 18.5 23C17.6716 23 17 22.3284 17 21.5C17 20.6716 17.6716 20 18.5 20Z" fill-rule="evenodd"  fill="#3C3C43" fill-opacity="0.3">
</path>
</svg>
