<svg xmlns="http://www.w3.org/2000/svg" xmlns:xlink="http://www.w3.org/1999/xlink" width="26" height="26" viewBox="0 0 26 26" fill="none">
<path d="M4.70182 16.5411L4.70182 9.45611C4.70182 9.07153 4.79932 8.71403 4.99432 8.37819C5.18932 8.04236 5.44932 7.77694 5.78516 7.58194L11.9168 4.04486L11.9168 4.03944C12.2527 3.84986 12.6156 3.75236 13.0002 3.75236C13.3847 3.75236 13.7477 3.84986 14.0835 4.03944L20.2152 7.58194C20.551 7.77694 20.811 8.04236 21.006 8.37819C21.201 8.71403 21.2985 9.07153 21.2985 9.45611L21.2985 16.5411C21.2985 16.9257 21.201 17.2886 21.006 17.6244C20.811 17.9603 20.551 18.2203 20.2152 18.4153L14.0835 21.9578C13.7477 22.1528 13.3847 22.2449 13.0002 22.2449C12.6156 22.2449 12.2527 22.1528 11.9168 21.9578L5.78516 18.4153C5.44932 18.2203 5.18932 17.9603 4.99432 17.6244C4.79932 17.2886 4.70182 16.9257 4.70182 16.5411ZM11.9439 15.497C11.6189 15.3616 11.3318 15.1666 11.0827 14.9175C10.8335 14.6683 10.6385 14.3812 10.5031 14.0562C10.3622 13.7204 10.2918 13.3683 10.2918 13C10.2918 12.6316 10.3622 12.2795 10.5031 11.9437C10.6385 11.6187 10.8335 11.3316 11.0827 11.0825C11.3318 10.8333 11.6189 10.6383 11.9439 10.5029C12.2797 10.362 12.6318 10.2916 13.0002 10.2916C13.3685 10.2916 13.7206 10.362 14.0564 10.5029C14.3814 10.6383 14.6685 10.8333 14.9177 11.0825C15.1668 11.3316 15.3618 11.6187 15.4972 11.9437C15.6381 12.2795 15.7085 12.6316 15.7085 13C15.7085 13.3683 15.6381 13.7204 15.4972 14.0562C15.3618 14.3812 15.1668 14.6683 14.9177 14.9175C14.6685 15.1666 14.3814 15.3616 14.0564 15.497C13.7206 15.6379 13.3685 15.7083 13.0002 15.7083C12.6318 15.7083 12.2797 15.6379 11.9439 15.497ZM10.8335 23.8319L4.70182 20.2894C4.03016 19.9049 3.50474 19.3794 3.12016 18.7078C2.73016 18.0361 2.53516 17.3157 2.53516 16.5411L2.53516 9.45611C2.53516 8.68694 2.73016 7.96111 3.12016 7.28944C3.50474 6.62319 4.03016 6.09236 4.70182 5.70778L10.8335 2.16528C11.5052 1.78069 12.2256 1.58569 13.0002 1.58569C13.7747 1.58569 14.4952 1.78069 15.1668 2.16528L21.2985 5.70778C21.9702 6.09778 22.4956 6.62319 22.8802 7.28944C23.2702 7.96111 23.4652 8.68694 23.4652 9.45611L23.4652 16.5411C23.4652 17.3157 23.2702 18.0361 22.8802 18.7078C22.4956 19.3794 21.9702 19.9049 21.2985 20.2894L15.1668 23.8374C14.4952 24.2219 13.7747 24.4169 13.0002 24.4169C12.2256 24.4169 11.5052 24.2219 10.8335 23.8319ZM17.4906 11.1041C17.7452 11.7054 17.8752 12.3391 17.8752 13C17.8752 13.6608 17.7452 14.2945 17.4906 14.8958C17.2468 15.4808 16.9002 16.0008 16.4506 16.4504C16.001 16.9 15.481 17.2466 14.896 17.4904C14.2947 17.745 13.661 17.875 13.0002 17.875C12.3393 17.875 11.7056 17.745 11.1043 17.4904C10.5193 17.2466 9.99932 16.9 9.54974 16.4504C9.10016 16.0008 8.75349 15.4808 8.50974 14.8958C8.25516 14.2945 8.12516 13.6608 8.12516 13C8.12516 12.3391 8.25516 11.7054 8.50974 11.1041C8.75349 10.5191 9.10016 9.99913 9.54974 9.54955C9.99932 9.09996 10.5193 8.7533 11.1043 8.50955C11.7056 8.25496 12.3393 8.12496 13.0002 8.12496C13.661 8.12496 14.2947 8.25496 14.896 8.50955C15.481 8.7533 16.001 9.09996 16.4506 9.54955C16.9002 9.99913 17.2468 10.5191 17.4906 11.1041Z" fill-rule="evenodd"  fill="#3C3C43" fill-opacity="0.3">
</path>
</svg>
