<svg xmlns="http://www.w3.org/2000/svg" xmlns:xlink="http://www.w3.org/1999/xlink" width="28" height="28" viewBox="0 0 28 28" fill="none">
<path d="M11.0833 6.41667L11.0833 8.75C11.0833 8.79083 11.0833 8.82583 11.0891 8.86667C11.095 8.90167 11.1008 8.9425 11.1066 8.9775C11.1125 9.0125 11.1241 9.05333 11.1358 9.08833C11.1475 9.12333 11.1591 9.15833 11.1708 9.19917C11.1883 9.23417 11.2058 9.26917 11.2233 9.29833C11.2408 9.33333 11.2583 9.36833 11.2816 9.3975C11.2991 9.4325 11.3225 9.46167 11.3458 9.49083C11.375 9.52 11.3983 9.54917 11.4275 9.5725C11.4508 9.60167 11.48 9.625 11.5091 9.65417C11.5383 9.6775 11.5675 9.70083 11.6025 9.71833C11.6316 9.74167 11.6666 9.75917 11.7016 9.77667C11.7308 9.79417 11.7658 9.81167 11.8008 9.82917C11.8416 9.84083 11.8766 9.8525 11.9116 9.86417C11.9466 9.87583 11.9875 9.8875 12.0225 9.89333C12.0575 9.89917 12.0983 9.905 12.1333 9.91083C12.1741 9.91667 12.2091 9.91667 12.25 9.91667C12.2908 9.91667 12.3258 9.91667 12.3666 9.91083C12.4016 9.905 12.4425 9.89917 12.4775 9.89333C12.5125 9.8875 12.5533 9.87583 12.5883 9.86417C12.6233 9.8525 12.6583 9.84083 12.6991 9.82917C12.7341 9.81167 12.7691 9.79417 12.7983 9.77667C12.8333 9.75917 12.8683 9.74167 12.8975 9.71833C12.9325 9.70083 12.9616 9.6775 12.9908 9.65417C13.02 9.625 13.0491 9.60167 13.0725 9.5725C13.1016 9.54917 13.125 9.52 13.1541 9.49083C13.1775 9.46167 13.2008 9.4325 13.2183 9.3975C13.2416 9.36833 13.2591 9.33333 13.2766 9.29833C13.2941 9.26917 13.3116 9.23417 13.3291 9.19917C13.3408 9.15833 13.3525 9.12333 13.3641 9.08833C13.3758 9.05333 13.3875 9.0125 13.3933 8.9775C13.3991 8.9425 13.405 8.90167 13.4108 8.86667C13.4166 8.82583 13.4166 8.79083 13.4166 8.75L13.4166 6.41667C13.4166 6.37583 13.4166 6.34083 13.4108 6.3C13.405 6.265 13.3991 6.22417 13.3933 6.18917C13.3875 6.15417 13.3758 6.11333 13.3641 6.07833C13.3525 6.04333 13.3408 6.00833 13.3291 5.9675C13.3116 5.9325 13.2941 5.8975 13.2766 5.86833C13.2591 5.83333 13.2416 5.79833 13.2183 5.76917C13.2008 5.73417 13.1775 5.705 13.1541 5.67583C13.125 5.64667 13.1016 5.6175 13.0725 5.59417C13.0491 5.565 13.02 5.54167 12.9908 5.5125C12.9616 5.48917 12.9325 5.46583 12.8975 5.44833C12.8683 5.425 12.8333 5.4075 12.7983 5.39C12.7691 5.3725 12.7341 5.355 12.6991 5.3375C12.6583 5.32583 12.6233 5.31417 12.5883 5.3025C12.5533 5.29083 12.5125 5.27917 12.4775 5.27333C12.4425 5.2675 12.4016 5.26167 12.3666 5.25583C12.3258 5.25 12.2908 5.25 12.25 5.25C12.2091 5.25 12.1741 5.25 12.1333 5.25583C12.0983 5.26167 12.0575 5.2675 12.0225 5.27333C11.9875 5.27917 11.9466 5.29083 11.9116 5.3025C11.8766 5.31417 11.8416 5.32583 11.8008 5.3375C11.7658 5.355 11.7308 5.3725 11.7016 5.39C11.6666 5.4075 11.6316 5.425 11.6025 5.44833C11.5675 5.46583 11.5383 5.48917 11.5091 5.5125C11.48 5.54167 11.4508 5.565 11.4275 5.59417C11.3983 5.6175 11.375 5.64667 11.3458 5.67583C11.3225 5.705 11.2991 5.73417 11.2816 5.76917C11.2583 5.79833 11.2408 5.83333 11.2233 5.86833C11.2058 5.8975 11.1883 5.9325 11.1708 5.9675C11.1591 6.00833 11.1475 6.04333 11.1358 6.07833C11.1241 6.11333 11.1125 6.15417 11.1066 6.18917C11.1008 6.22417 11.095 6.265 11.0891 6.3C11.0833 6.34083 11.0833 6.37583 11.0833 6.41667ZM18.0833 9.91667C18.0833 10.0742 18.0541 10.2258 17.99 10.3717C17.9316 10.5117 17.85 10.6342 17.7391 10.7392C17.6341 10.85 17.5116 10.9317 17.3716 10.99C17.2258 11.0542 17.0741 11.0833 16.9166 11.0833L11.0833 11.0833C10.9258 11.0833 10.7741 11.0542 10.6283 10.99C10.4883 10.9317 10.3658 10.85 10.2608 10.7392C10.15 10.6342 10.0683 10.5117 10.01 10.3717C9.94579 10.2258 9.91663 10.0742 9.91663 9.91667L9.91663 4.08333L18.0833 4.08333L18.0833 9.91667ZM24.7158 23.3975C24.9608 22.82 25.0833 22.2133 25.0833 21.5833L25.0833 6.41667C25.0833 5.78667 24.9608 5.18 24.7158 4.6025C24.4766 4.0425 24.1441 3.54667 23.7183 3.115C23.2866 2.68917 22.7908 2.35667 22.2308 2.1175C21.6533 1.8725 21.0466 1.75 20.4166 1.75L7.58329 1.75C6.95329 1.75 6.34663 1.8725 5.76913 2.1175C5.20913 2.35667 4.71329 2.68917 4.28163 3.115C3.85579 3.54667 3.52329 4.0425 3.28413 4.6025C3.03913 5.18 2.91663 5.78667 2.91663 6.41667L2.91663 21.5833C2.91663 22.2133 3.03913 22.82 3.28413 23.3975C3.52329 23.9575 3.85579 24.4533 4.28163 24.885C4.71329 25.3108 5.20913 25.6433 5.76913 25.8825C6.34663 26.1275 6.95329 26.25 7.58329 26.25L20.4166 26.25C21.0466 26.25 21.6533 26.1275 22.2308 25.8825C22.7908 25.6433 23.2866 25.3108 23.7183 24.885C24.1441 24.4533 24.4766 23.9575 24.7158 23.3975ZM22.75 6.41667L22.75 21.5833C22.75 21.8983 22.6916 22.2017 22.5691 22.4875C22.4466 22.7675 22.2833 23.0183 22.0675 23.2342C21.8516 23.45 21.6008 23.6133 21.3208 23.7358C21.035 23.8583 20.7316 23.9167 20.4166 23.9167L7.58329 23.9167C7.26829 23.9167 6.96496 23.8583 6.67913 23.7358C6.39913 23.6133 6.14829 23.45 5.93246 23.2342C5.71663 23.0183 5.55329 22.7675 5.43079 22.4875C5.30829 22.2017 5.24996 21.8983 5.24996 21.5833L5.24996 6.41667C5.24996 6.10167 5.30829 5.79833 5.43079 5.5125C5.55329 5.2325 5.71663 4.98167 5.93246 4.76583C6.14829 4.55 6.39913 4.38667 6.67913 4.26417C6.96496 4.14167 7.26829 4.08333 7.58329 4.08333L7.58329 9.91667C7.58329 10.3892 7.67663 10.8442 7.85746 11.2817C8.03829 11.6958 8.28329 12.0692 8.60996 12.39C8.93079 12.7167 9.30413 12.9617 9.71829 13.1425C10.1558 13.3233 10.6108 13.4167 11.0833 13.4167L16.9166 13.4167C17.3891 13.4167 17.8441 13.3233 18.2816 13.1425C18.6958 12.9617 19.0691 12.7167 19.39 12.39C19.7166 12.0692 19.9616 11.6958 20.1425 11.2817C20.3233 10.8442 20.4166 10.3892 20.4166 9.91667L20.4166 4.08333C20.7316 4.08333 21.035 4.14167 21.3208 4.26417C21.6008 4.38667 21.8516 4.55 22.0675 4.76583C22.2833 4.98167 22.4466 5.2325 22.5691 5.5125C22.6916 5.79833 22.75 6.10167 22.75 6.41667ZM19.2441 20.8833C19.2383 20.8483 19.2325 20.8075 19.2266 20.7725C19.2208 20.7375 19.2091 20.6967 19.1975 20.6617C19.1858 20.6267 19.1741 20.5917 19.1625 20.5508C19.145 20.5158 19.1275 20.4808 19.11 20.4517C19.0925 20.4167 19.075 20.3817 19.0516 20.3525C19.0341 20.3175 19.0108 20.2883 18.9875 20.2592C18.9583 20.23 18.935 20.2008 18.9058 20.1775C18.8825 20.1483 18.8533 20.125 18.8241 20.0958C18.795 20.0725 18.7658 20.0492 18.7308 20.0317C18.7016 20.0083 18.6666 19.9908 18.6316 19.9733C18.5966 19.9558 18.5675 19.9383 18.5325 19.9208C18.4916 19.9092 18.4566 19.8975 18.4216 19.8858C18.3866 19.8742 18.3458 19.8625 18.3108 19.8567C18.2758 19.8508 18.235 19.845 18.2 19.8392C18.1591 19.8333 18.1241 19.8333 18.0833 19.8333L9.91663 19.8333C9.87579 19.8333 9.84079 19.8333 9.79996 19.8392C9.76496 19.845 9.72413 19.8508 9.68913 19.8567C9.65413 19.8625 9.61329 19.8742 9.57829 19.8858C9.54329 19.8975 9.50829 19.9092 9.46746 19.9208C9.43246 19.9383 9.39746 19.9558 9.36829 19.9733C9.33329 19.9908 9.29829 20.0083 9.26913 20.0317C9.23413 20.0492 9.20496 20.0725 9.17579 20.0958C9.14663 20.125 9.11746 20.1483 9.09413 20.1775C9.06496 20.2008 9.04163 20.23 9.01246 20.2592C8.98913 20.2883 8.96579 20.3175 8.94829 20.3525C8.92496 20.3817 8.90746 20.4167 8.88996 20.4517C8.87246 20.4808 8.85496 20.5158 8.83746 20.5508C8.82579 20.5917 8.81413 20.6267 8.80246 20.6617C8.79079 20.6967 8.77913 20.7375 8.77329 20.7725C8.76746 20.8075 8.76163 20.8483 8.75579 20.8833C8.74996 20.9242 8.74996 20.9592 8.74996 21C8.74996 21.0408 8.74996 21.0758 8.75579 21.1167C8.76163 21.1517 8.76746 21.1925 8.77329 21.2275C8.77913 21.2625 8.79079 21.3033 8.80246 21.3383C8.81413 21.3733 8.82579 21.4083 8.83746 21.4492C8.85496 21.4842 8.87246 21.5192 8.88996 21.5483C8.90746 21.5833 8.92496 21.6183 8.94829 21.6475C8.96579 21.6825 8.98913 21.7117 9.01246 21.7408C9.04163 21.77 9.06496 21.7992 9.09413 21.8225C9.11746 21.8517 9.14663 21.875 9.17579 21.9042C9.20496 21.9275 9.23413 21.9508 9.26913 21.9683C9.29829 21.9917 9.33329 22.0092 9.36829 22.0267C9.39746 22.0442 9.43246 22.0617 9.46746 22.0792C9.50829 22.0908 9.54329 22.1025 9.57829 22.1142C9.61329 22.1258 9.65413 22.1375 9.68913 22.1433C9.72413 22.1492 9.76496 22.155 9.79996 22.1608C9.84079 22.1667 9.87579 22.1667 9.91663 22.1667L18.0833 22.1667C18.1241 22.1667 18.1591 22.1667 18.2 22.1608C18.235 22.155 18.2758 22.1492 18.3108 22.1433C18.3458 22.1375 18.3866 22.1258 18.4216 22.1142C18.4566 22.1025 18.4916 22.0908 18.5325 22.0792C18.5675 22.0617 18.5966 22.0442 18.6316 22.0267C18.6666 22.0092 18.7016 21.9917 18.7308 21.9683C18.7658 21.9508 18.795 21.9275 18.8241 21.9042C18.8533 21.875 18.8825 21.8517 18.9058 21.8225C18.935 21.7992 18.9583 21.77 18.9875 21.7408C19.0108 21.7117 19.0341 21.6825 19.0516 21.6475C19.075 21.6183 19.0925 21.5833 19.11 21.5483C19.1275 21.5192 19.145 21.4842 19.1625 21.4492C19.1741 21.4083 19.1858 21.3733 19.1975 21.3383C19.2091 21.3033 19.2208 21.2625 19.2266 21.2275C19.2325 21.1925 19.2383 21.1517 19.2441 21.1167C19.25 21.0758 19.25 21.0408 19.25 21C19.25 20.9592 19.25 20.9242 19.2441 20.8833Z" fill-rule="evenodd"  fill="#007AFF" >
</path>
</svg>
