<svg xmlns="http://www.w3.org/2000/svg" xmlns:xlink="http://www.w3.org/1999/xlink" width="28" height="28" viewBox="0 0 28 28" fill="none">
<path d="M5.01296 7.60968C4.16273 8.22601 3.37464 8.92349 2.64868 9.70215C2.45313 9.91078 2.33337 10.1913 2.33337 10.4998C2.33337 11.1442 2.85571 11.6665 3.50004 11.6665C3.83816 11.6665 4.14269 11.5227 4.35577 11.2928C5.61938 9.9376 7.06819 8.88921 8.70221 8.14764C10.3883 7.38244 12.1542 6.99984 14 6.99984C15.8459 6.99984 17.6118 7.38244 19.2979 8.14764C20.9319 8.8892 22.3807 9.93759 23.6443 11.2928C23.645 11.2936 23.6458 11.2945 23.6466 11.2953C23.8595 11.5236 24.1631 11.6665 24.5 11.6665C25.1444 11.6665 25.6667 11.1442 25.6667 10.4998C25.6667 10.1924 25.5478 9.91281 25.3535 9.70442C25.3528 9.70364 25.3521 9.70287 25.3514 9.70209C24.6254 8.92347 23.8373 8.226 22.9871 7.60968C22.126 6.98546 21.2177 6.45653 20.2622 6.02289C18.2697 5.11863 16.1823 4.6665 14 4.6665C11.8178 4.6665 9.73037 5.11863 7.7379 6.02289C6.7824 6.45653 5.87408 6.98546 5.01296 7.60968ZM17.3965 13.5231C18.4405 13.9676 19.366 14.5951 20.1728 15.4059L20.173 15.4061C20.3843 15.6184 20.6769 15.7498 21 15.7498C21.6444 15.7498 22.1667 15.2275 22.1667 14.5832C22.1667 14.262 22.037 13.9712 21.827 13.7602L21.826 13.7592C20.8052 12.7337 19.6333 11.9394 18.3103 11.3762C16.9378 10.792 15.501 10.4998 14 10.4998C12.499 10.4998 11.0623 10.792 9.68973 11.3762C8.36675 11.9394 7.19488 12.7337 6.17411 13.7592C6.17377 13.7595 6.17342 13.7599 6.17307 13.7602C5.96313 13.9712 5.83337 14.262 5.83337 14.5832C5.83337 15.2275 6.35571 15.7498 7.00004 15.7498C7.32323 15.7498 7.61573 15.6184 7.82701 15.4061C8.63393 14.5953 9.55945 13.9676 10.6036 13.5231C11.6842 13.0632 12.8164 12.8332 14 12.8332C15.1837 12.8332 16.3159 13.0632 17.3965 13.5231ZM16.1055 18.8771L16.1063 18.878C16.3162 19.0807 16.6019 19.2054 16.9167 19.2054C17.5611 19.2054 18.0834 18.6831 18.0834 18.0387C18.0834 17.7093 17.9468 17.4116 17.7271 17.1995C17.7267 17.1991 17.7263 17.1986 17.7258 17.1982C17.2378 16.7273 16.6782 16.3629 16.0467 16.105C15.3944 15.8386 14.7122 15.7054 14 15.7054C13.2879 15.7054 12.6056 15.8386 11.9534 16.105C11.322 16.3629 10.7623 16.7273 10.2744 17.1981C10.0539 17.4104 9.91671 17.7085 9.91671 18.0387C9.91671 18.6831 10.439 19.2054 11.0834 19.2054C11.3987 19.2054 11.6847 19.0803 11.8947 18.8771C12.1675 18.6139 12.4811 18.4099 12.8356 18.2651C13.2052 18.1142 13.5933 18.0387 14 18.0387C14.4068 18.0387 14.7949 18.1142 15.1644 18.2651C15.519 18.41 15.8327 18.6139 16.1055 18.8771ZM14 20.4165C13.195 20.4165 12.5417 21.0698 12.5417 21.8748C12.5417 22.6798 13.195 23.3332 14 23.3332C14.805 23.3332 15.4584 22.6798 15.4584 21.8748C15.4584 21.0698 14.805 20.4165 14 20.4165Z" fill-rule="evenodd"  fill="#007AFF" >
</path>
</svg>
