<svg xmlns="http://www.w3.org/2000/svg" xmlns:xlink="http://www.w3.org/1999/xlink" width="28" height="28" viewBox="0 0 28 28" fill="none">
<path d="M26.8333 20.4163L26.8333 10.208C26.8333 9.69467 26.7341 9.19884 26.5358 8.73217C26.3433 8.27717 26.075 7.87467 25.725 7.52467C25.375 7.17467 24.9725 6.90634 24.5175 6.71384C24.0508 6.51551 23.555 6.41634 23.0416 6.41634L21.77 6.41634C21.56 6.41634 21.3675 6.36384 21.1866 6.25884C21.0058 6.15384 20.8658 6.00801 20.7608 5.82717L20.1075 4.68384C19.6875 3.95467 19.1216 3.38301 18.3925 2.96301C17.6691 2.54301 16.8875 2.33301 16.0533 2.33301L11.9466 2.33301C11.1125 2.33301 10.3308 2.54301 9.60746 2.96301C8.87829 3.38301 8.31246 3.95467 7.89246 4.68384L7.23913 5.82717C7.13413 6.00801 6.99413 6.15384 6.81329 6.25884C6.63246 6.36384 6.43996 6.41634 6.22996 6.41634L4.95829 6.41634C4.44496 6.41634 3.94913 6.51551 3.48246 6.71384C3.02746 6.90634 2.62496 7.17467 2.27496 7.52467C1.92496 7.87467 1.65663 8.27717 1.46413 8.73217C1.26579 9.19884 1.16663 9.69467 1.16663 10.208L1.16663 20.4163C1.16663 21.0463 1.28913 21.653 1.53413 22.2305C1.77329 22.7905 2.10579 23.2863 2.53163 23.718C2.96329 24.1438 3.45913 24.4763 4.01913 24.7155C4.59663 24.9605 5.20329 25.083 5.83329 25.083L22.1666 25.083C22.7966 25.083 23.4033 24.9605 23.9808 24.7155C24.5408 24.4763 25.0366 24.1438 25.4683 23.718C25.8941 23.2863 26.2266 22.7905 26.4658 22.2305C26.7108 21.653 26.8333 21.0463 26.8333 20.4163ZM24.3833 9.63634C24.3133 9.46717 24.2083 9.30967 24.0741 9.17551C23.94 9.04134 23.7825 8.93634 23.6133 8.86634C23.4325 8.79051 23.24 8.74967 23.0416 8.74967L21.77 8.74967C21.14 8.74967 20.5566 8.59217 20.0083 8.27717C19.4658 7.96217 19.04 7.53051 18.7308 6.98217L18.0775 5.83884C17.8733 5.47717 17.5875 5.19134 17.2258 4.98134C16.8641 4.77134 16.4733 4.66634 16.0533 4.66634L11.9466 4.66634C11.5266 4.66634 11.1358 4.77134 10.7741 4.98134C10.4125 5.19134 10.1266 5.47717 9.92246 5.83884L9.26913 6.98217C8.95996 7.53051 8.53413 7.96217 7.99163 8.27717C7.44329 8.59217 6.85996 8.74967 6.22996 8.74967L4.95829 8.74967C4.75996 8.74967 4.56746 8.79051 4.38663 8.86634C4.21746 8.93634 4.05996 9.04134 3.92579 9.17551C3.79163 9.30967 3.68663 9.46717 3.61663 9.63634C3.54079 9.81717 3.49996 10.0097 3.49996 10.208L3.49996 20.4163C3.49996 20.7313 3.55829 21.0347 3.68079 21.3205C3.80329 21.6005 3.96663 21.8513 4.18246 22.0672C4.39829 22.283 4.64913 22.4463 4.92913 22.5688C5.21496 22.6913 5.51829 22.7497 5.83329 22.7497L22.1666 22.7497C22.4816 22.7497 22.785 22.6913 23.0708 22.5688C23.3508 22.4463 23.6016 22.283 23.8175 22.0672C24.0333 21.8513 24.1966 21.6005 24.3191 21.3205C24.4416 21.0347 24.5 20.7313 24.5 20.4163L24.5 10.208C24.5 10.0097 24.4591 9.81717 24.3833 9.63634ZM14 8.74967C13.2066 8.74967 12.4541 8.90134 11.7308 9.21051C11.0308 9.50217 10.4125 9.92217 9.87579 10.4588C9.33913 10.9955 8.91913 11.6138 8.62746 12.3138C8.31829 13.0372 8.16663 13.7897 8.16663 14.583C8.16663 15.3763 8.31829 16.1288 8.62746 16.8522C8.91913 17.5522 9.33913 18.1705 9.87579 18.7072C10.4125 19.2438 11.0308 19.6638 11.7308 19.9555C12.4541 20.2647 13.2066 20.4163 14 20.4163C14.7933 20.4163 15.5458 20.2647 16.2691 19.9555C16.9691 19.6638 17.5875 19.2438 18.1241 18.7072C18.6608 18.1705 19.0808 17.5522 19.3725 16.8522C19.6816 16.1288 19.8333 15.3763 19.8333 14.583C19.8333 13.7897 19.6816 13.0372 19.3725 12.3138C19.0808 11.6138 18.6608 10.9955 18.1241 10.4588C17.5875 9.92217 16.9691 9.50217 16.2691 9.21051C15.5458 8.90134 14.7933 8.74967 14 8.74967ZM11.5266 12.1097C11.2 12.4305 10.9491 12.8038 10.7741 13.218C10.5933 13.6555 10.5 14.1047 10.5 14.583C10.5 15.0613 10.5933 15.5105 10.7741 15.948C10.9491 16.3622 11.2 16.7355 11.5266 17.0563C11.8475 17.383 12.2208 17.6338 12.635 17.8088C13.0725 17.9897 13.5216 18.083 14 18.083C14.4783 18.083 14.9275 17.9897 15.365 17.8088C15.7791 17.6338 16.1525 17.383 16.4733 17.0563C16.8 16.7355 17.0508 16.3622 17.2258 15.948C17.4066 15.5105 17.5 15.0613 17.5 14.583C17.5 14.1047 17.4066 13.6555 17.2258 13.218C17.0508 12.8038 16.8 12.4305 16.4733 12.1097C16.1525 11.783 15.7791 11.5322 15.365 11.3572C14.9275 11.1763 14.4783 11.083 14 11.083C13.5216 11.083 13.0725 11.1763 12.635 11.3572C12.2208 11.5322 11.8475 11.783 11.5266 12.1097Z" fill-rule="evenodd"  fill="#007AFF" >
</path>
</svg>
