<svg xmlns="http://www.w3.org/2000/svg" xmlns:xlink="http://www.w3.org/1999/xlink" width="28" height="28" viewBox="0 0 28 28" fill="none">
<path d="M23.9167 11.6667C23.9167 10.4008 23.695 9.18167 23.2459 8.00333C22.7909 6.8075 22.1375 5.74583 21.2917 4.83C20.3992 3.86167 19.355 3.115 18.1534 2.59C16.8759 2.03 15.4934 1.75 14 1.75C12.5067 1.75 11.13 2.00667 9.87587 2.52C8.65671 3.02167 7.60671 3.73333 6.72004 4.66667C5.86254 5.57083 5.20337 6.6325 4.75421 7.84583C4.30504 9.03583 4.08337 10.3133 4.08337 11.6667C4.08337 13.125 4.35754 14.6183 4.91171 16.1525C5.37837 17.4533 6.03754 18.76 6.88921 20.09C7.58337 21.175 8.40004 22.2483 9.32754 23.3217C10.0334 24.1325 10.7859 24.92 11.585 25.6783C11.9059 25.9875 12.2792 26.2267 12.6992 26.3842C13.1017 26.5417 13.5217 26.6175 13.9592 26.6117C14.3909 26.6 14.8109 26.5125 15.2075 26.3433C15.6217 26.1683 15.9892 25.9175 16.3042 25.5908C17.0975 24.7508 17.85 23.8992 18.5559 23.0358C19.495 21.8867 20.3175 20.7608 21.0234 19.6642C22.9542 16.6658 23.9167 13.9942 23.9167 11.6667ZM19.5767 6.41083C18.9059 5.68167 18.1184 5.12167 17.2142 4.725C16.24 4.29917 15.1667 4.08333 14 4.08333C12.81 4.08333 11.7309 4.28167 10.7567 4.67833C9.85254 5.05167 9.07087 5.5825 8.41171 6.27667C7.77004 6.9475 7.28004 7.74667 6.93587 8.6625C6.59171 9.59 6.41671 10.5933 6.41671 11.6667C6.41671 12.8508 6.65004 14.0817 7.11087 15.365C7.51337 16.4967 8.09671 17.6517 8.85504 18.83C9.49087 19.8158 10.2317 20.8017 11.0892 21.7875C11.7484 22.5458 12.4484 23.2808 13.195 23.9867C13.3992 24.185 13.6384 24.2783 13.9184 24.2783C14.1984 24.2725 14.4317 24.1675 14.6242 23.9692C15.3709 23.1817 16.0767 22.3767 16.7475 21.5542C17.6342 20.475 18.4042 19.425 19.0575 18.4042C19.845 17.1792 20.4517 16.0242 20.8775 14.945C21.35 13.7375 21.5834 12.6467 21.5834 11.6667C21.5834 10.6867 21.4084 9.74167 21.0642 8.83167C20.7142 7.91583 20.2184 7.11083 19.5767 6.41083ZM14 6.41667C13.37 6.41667 12.7634 6.53917 12.1859 6.78417C11.6259 7.02333 11.13 7.35583 10.6984 7.78167C10.2725 8.21333 9.94004 8.70917 9.70087 9.26917C9.45587 9.84667 9.33337 10.4533 9.33337 11.0833C9.33337 11.7133 9.45587 12.32 9.70087 12.8975C9.94004 13.4575 10.2725 13.9533 10.6984 14.385C11.13 14.8108 11.6259 15.1433 12.1859 15.3825C12.7634 15.6275 13.37 15.75 14 15.75C14.63 15.75 15.2367 15.6275 15.8142 15.3825C16.3742 15.1433 16.87 14.8108 17.3017 14.385C17.7275 13.9533 18.06 13.4575 18.2992 12.8975C18.5442 12.32 18.6667 11.7133 18.6667 11.0833C18.6667 10.4533 18.5442 9.84667 18.2992 9.26917C18.06 8.70917 17.7275 8.21333 17.3017 7.78167C16.87 7.35583 16.3742 7.02333 15.8142 6.78417C15.2367 6.53917 14.63 6.41667 14 6.41667ZM12.3492 9.4325C12.1334 9.64833 11.97 9.89917 11.8475 10.1792C11.725 10.465 11.6667 10.7683 11.6667 11.0833C11.6667 11.3983 11.725 11.7017 11.8475 11.9875C11.97 12.2675 12.1334 12.5183 12.3492 12.7342C12.565 12.95 12.8159 13.1133 13.0959 13.2358C13.3817 13.3583 13.685 13.4167 14 13.4167C14.315 13.4167 14.6184 13.3583 14.9042 13.2358C15.1842 13.1133 15.435 12.95 15.6509 12.7342C15.8667 12.5183 16.03 12.2675 16.1525 11.9875C16.275 11.7017 16.3334 11.3983 16.3334 11.0833C16.3334 10.7683 16.275 10.465 16.1525 10.1792C16.03 9.89917 15.8667 9.64833 15.6509 9.4325C15.435 9.21667 15.1842 9.05333 14.9042 8.93083C14.6184 8.80833 14.315 8.75 14 8.75C13.685 8.75 13.3817 8.80833 13.0959 8.93083C12.8159 9.05333 12.565 9.21667 12.3492 9.4325Z" fill-rule="evenodd"  fill="#007AFF" >
</path>
</svg>
