<svg xmlns="http://www.w3.org/2000/svg" xmlns:xlink="http://www.w3.org/1999/xlink" width="28" height="28" viewBox="0 0 28 28" fill="none">
<path d="M14.9042 23.7358C15.1842 23.6133 15.435 23.45 15.6508 23.2342C15.7967 23.0883 15.9192 22.925 16.0183 22.75L11.9817 22.75C12.0808 22.925 12.2033 23.0883 12.3492 23.2342C12.565 23.45 12.8158 23.6133 13.0958 23.7358C13.3817 23.8583 13.685 23.9167 14 23.9167C14.315 23.9167 14.6183 23.8583 14.9042 23.7358ZM7 11.0833L7 20.4167L18.6667 20.4167L21 20.4167L21 11.0833C21 10.1558 20.825 9.26333 20.4692 8.40583C20.1133 7.54833 19.6058 6.79 18.9525 6.13083C18.2933 5.4775 17.535 4.97 16.6775 4.61417C15.82 4.25833 14.9275 4.08333 14 4.08333C13.0725 4.08333 12.18 4.25833 11.3225 4.61417C10.465 4.97 9.70667 5.4775 9.0475 6.13083C8.39417 6.79 7.88667 7.54833 7.53083 8.40583C7.175 9.26333 7 10.1558 7 11.0833ZM5.37833 7.51333C4.90583 8.65667 4.66667 9.84667 4.66667 11.0833L4.66667 20.4167L2.91667 20.4167C2.275 20.4167 1.75 20.9417 1.75 21.5833C1.75 22.225 2.275 22.75 2.91667 22.75L9.48057 22.75C9.53744 22.9696 9.61088 23.1855 9.70083 23.3975C9.94 23.9575 10.2725 24.4533 10.6983 24.885C11.13 25.3108 11.6258 25.6433 12.1858 25.8825C12.7633 26.1275 13.37 26.25 14 26.25C14.63 26.25 15.2367 26.1275 15.8142 25.8825C16.3742 25.6433 16.87 25.3108 17.3017 24.885C17.7275 24.4533 18.06 23.9575 18.2992 23.3975C18.3891 23.1855 18.4626 22.9696 18.5194 22.75L25.0833 22.75C25.725 22.75 26.25 22.225 26.25 21.5833C26.25 20.9417 25.725 20.4167 25.0833 20.4167L23.3333 20.4167L23.3333 11.0833C23.3333 9.84667 23.0942 8.65667 22.6217 7.51333C22.1492 6.37 21.4783 5.36083 20.5975 4.48583C19.7225 3.605 18.7133 2.93417 17.57 2.46167C16.4267 1.98917 15.2367 1.75 14 1.75C12.7633 1.75 11.5733 1.98917 10.43 2.46167C9.28667 2.93417 8.2775 3.605 7.4025 4.48583C6.52167 5.36083 5.85083 6.37 5.37833 7.51333Z" fill-rule="evenodd"  fill="#007AFF" >
</path>
</svg>
