<svg xmlns="http://www.w3.org/2000/svg" xmlns:xlink="http://www.w3.org/1999/xlink" width="44" height="44" viewBox="0 0 44 44" fill="none">
<path     fill="#8134ED"  d="M9.5 3L27 3L27.5 3.5L27.5 8L32.25 12.5L37 12.5L37.5 13L37.5 38.5C37.5 40.1569 36.1569 41.5 34.5 41.5L9.5 41.5C7.84315 41.5 6.5 40.1569 6.5 38.5L6.5 6C6.5 4.34315 7.84315 3 9.5 3Z">
</path>
<path     fill="#FFFFFF"  d="M27.5 37.5L19.3321 25.2481C18.9362 24.6543 18.0638 24.6543 17.6679 25.2481L10.5836 35.8746C10.1204 36.5694 10.6185 37.5 11.4534 37.5L27.5 37.5Z">
</path>
<path     fill="#B579F4"  d="M27.2031 3L27 3L27 3C27.1601 3.16007 27.25 3.37718 27.25 3.60355L27.25 9.75C27.25 11.4069 28.5931 12.75 30.25 12.75L36.8964 12.75C37.1228 12.75 37.3399 12.8399 37.5 13L37.5 13L37.5 12.8603C37.5 12.3111 37.2742 11.7861 36.8755 11.4084L28.5785 3.54809C28.2071 3.19615 27.7148 3 27.2031 3Z">
</path>
<path d="M29.9501 37.5006L29.5801 36.9456L25.4701 30.7806L27.1401 27.9556C27.5272 27.3006 28.473 27.3006 28.8601 27.9556L33.5701 35.9206C33.9819 36.6175 33.4796 37.5006 32.6701 37.5006L29.9501 37.5006Z" fill-rule="evenodd"  fill="#FFFFFF" >
</path>
<path d="M28.5 22.5C28.5 23.8807 27.3807 25 26 25C24.6193 25 23.5 23.8807 23.5 22.5C23.5 21.1193 24.6193 20 26 20C27.3807 20 28.5 21.1193 28.5 22.5Z"   fill="#FFFFFF" >
</path>
</svg>
