<svg xmlns="http://www.w3.org/2000/svg" xmlns:xlink="http://www.w3.org/1999/xlink" width="20" height="20" viewBox="0 0 20 20" fill="none">
<path d="M18.75 7.34879L18.75 4.58333C18.75 2.74167 17.2583 1.25 15.4167 1.25L4.58333 1.25C2.74167 1.25 1.25 2.74167 1.25 4.58333L1.25 11.25C1.25 13.0917 2.74167 14.5833 4.58333 14.5833L9.16337 14.5833C8.95421 14.1501 8.80546 13.6043 8.76262 12.9167L4.58333 12.9167C3.6625 12.9167 2.91667 12.1708 2.91667 11.25L2.91667 4.58333C2.91667 3.6625 3.6625 2.91667 4.58333 2.91667L15.4167 2.91667C16.3375 2.91667 17.0833 3.6625 17.0833 4.58333L17.0833 6.1985C17.8307 6.49179 18.369 6.9235 18.75 7.34879ZM11.6667 7.08333L5.41667 7.08333C4.95833 7.08333 4.58333 6.70833 4.58333 6.25C4.58333 5.79167 4.95833 5.41667 5.41667 5.41667L11.6667 5.41667C12.125 5.41667 12.5 5.79167 12.5 6.25C12.5 6.70833 12.125 7.08333 11.6667 7.08333ZM14.5833 7.5C12.2833 7.5 10.4167 9.36667 10.4167 11.6667C10.4167 12.8314 10.8954 13.885 11.6667 14.6414L11.6667 18.0125C11.6667 18.9833 12.725 19.5833 13.5583 19.0875L14.5833 18.4708L15.6083 19.0875C16.4458 19.5833 17.5 18.9833 17.5 18.0125L17.5 14.6414C18.2713 13.885 18.75 12.8314 18.75 11.6667C18.75 9.36667 16.8833 7.5 14.5833 7.5ZM7.91667 10.4167L5.41667 10.4167C4.95833 10.4167 4.58333 10.0417 4.58333 9.58333C4.58333 9.125 4.95833 8.75 5.41667 8.75L7.91667 8.75C8.375 8.75 8.75 9.125 8.75 9.58333C8.75 10.0417 8.375 10.4167 7.91667 10.4167ZM14.5833 14.1667C15.9625 14.1667 17.0833 13.0458 17.0833 11.6667C17.0833 10.2875 15.9625 9.16667 14.5833 9.16667C13.2042 9.16667 12.0833 10.2875 12.0833 11.6667C12.0833 13.0458 13.2042 14.1667 14.5833 14.1667ZM13.3333 17.2792L13.3333 15.6423C13.728 15.7664 14.1479 15.8333 14.5833 15.8333C15.0188 15.8333 15.4387 15.7664 15.8333 15.6423L15.8333 17.2792L15.2333 16.9167C14.8333 16.675 14.3333 16.675 13.9417 16.9125L13.3333 17.2792ZM14.3583 18.3417C14.3625 18.3417 14.3667 18.3417 14.3667 18.3458L14.3583 18.3417ZM14.8 18.3458L14.7917 18.35C14.7917 18.3458 14.7958 18.3458 14.8 18.3458Z" fill-rule="evenodd"  fill="#000000" >
</path>
</svg>
