<svg xmlns="http://www.w3.org/2000/svg" xmlns:xlink="http://www.w3.org/1999/xlink" width="20" height="20" viewBox="0 0 20 20" fill="none">
<path d="M7.91667 8.02917C7.91667 7.74583 7.975 7.48333 8.0875 7.23333C8.2 7 8.35417 6.79167 8.55417 6.60833C8.75417 6.42917 8.97917 6.2875 9.23333 6.19167C9.4875 6.09167 9.74167 6.04167 10 6.04167C10.2583 6.04167 10.5125 6.09167 10.7667 6.19167C11.0208 6.2875 11.2458 6.42917 11.4458 6.60833C11.6458 6.79167 11.8 7 11.9125 7.23333C12.025 7.48333 12.0833 7.74583 12.0833 8.02917C12.0833 8.30417 12.0375 8.55833 11.9417 8.79167C11.8542 9.0125 11.7333 9.20417 11.5708 9.375C11.4083 9.54583 11.2167 9.67917 10.9958 9.78333C10.7708 9.89167 10.525 9.95833 10.2625 9.9875C10.1167 10 9.97917 10.0375 9.84583 10.1C9.71667 10.1625 9.59583 10.2458 9.49583 10.3542C9.39583 10.4583 9.31667 10.5792 9.25833 10.7167C9.2 10.8542 9.17083 11 9.16667 11.1542L9.16667 11.875C9.16667 11.9042 9.16667 11.9292 9.17083 11.9583C9.175 11.9833 9.17917 12.0125 9.18333 12.0375C9.1875 12.0625 9.19583 12.0917 9.20417 12.1167C9.2125 12.1417 9.22083 12.1667 9.22917 12.1958C9.24167 12.2208 9.25417 12.2458 9.26667 12.2667C9.27917 12.2917 9.29167 12.3167 9.30833 12.3375C9.32083 12.3625 9.3375 12.3833 9.35417 12.4042C9.375 12.425 9.39167 12.4458 9.4125 12.4625C9.42917 12.4833 9.45 12.5 9.47083 12.5208C9.49167 12.5375 9.5125 12.5542 9.5375 12.5667C9.55833 12.5833 9.58333 12.5958 9.60833 12.6083C9.62917 12.6208 9.65417 12.6333 9.67917 12.6458C9.70833 12.6542 9.73333 12.6625 9.75833 12.6708C9.78333 12.6792 9.8125 12.6875 9.8375 12.6917C9.8625 12.6958 9.89167 12.7 9.91667 12.7042C9.94583 12.7083 9.97083 12.7083 10 12.7083C10.0292 12.7083 10.0542 12.7083 10.0833 12.7042C10.1083 12.7 10.1375 12.6958 10.1625 12.6917C10.1875 12.6875 10.2167 12.6792 10.2417 12.6708C10.2667 12.6625 10.2917 12.6542 10.3208 12.6458C10.3458 12.6333 10.3708 12.6208 10.3917 12.6083C10.4167 12.5958 10.4417 12.5833 10.4625 12.5667C10.4875 12.5542 10.5083 12.5375 10.5292 12.5208C10.55 12.5 10.5708 12.4833 10.5875 12.4625C10.6083 12.4458 10.625 12.425 10.6458 12.4042C10.6625 12.3833 10.6792 12.3625 10.6917 12.3375C10.7083 12.3167 10.7208 12.2917 10.7333 12.2667C10.7458 12.2458 10.7583 12.2208 10.7708 12.1958C10.7792 12.1667 10.7875 12.1417 10.7958 12.1167C10.8042 12.0917 10.8125 12.0625 10.8167 12.0375C10.8208 12.0125 10.825 11.9833 10.8292 11.9583C10.8333 11.9292 10.8333 11.9042 10.8333 11.875L10.8333 11.5833C11.1375 11.5208 11.4292 11.425 11.7083 11.2917C12.1167 11.1 12.4708 10.8458 12.7708 10.5292C13.0833 10.2 13.325 9.82917 13.4917 9.40833C13.6625 8.975 13.75 8.51667 13.75 8.02917C13.75 7.5 13.6417 7.00417 13.4208 6.53333C13.2167 6.09583 12.9333 5.70833 12.5667 5.375C12.2167 5.05833 11.8208 4.8125 11.375 4.6375C10.9292 4.4625 10.4708 4.375 10 4.375C9.52917 4.375 9.07083 4.4625 8.625 4.6375C8.17917 4.8125 7.78333 5.05833 7.43333 5.375C7.06667 5.70833 6.78333 6.09583 6.57917 6.53333C6.35833 7.00417 6.25 7.5 6.25 8.02917C6.25 8.05833 6.25 8.08333 6.25417 8.1125C6.25833 8.1375 6.2625 8.16667 6.26667 8.19167C6.27083 8.22083 6.27917 8.24583 6.2875 8.27083C6.29583 8.29583 6.30417 8.325 6.3125 8.35C6.325 8.375 6.3375 8.4 6.35 8.42083C6.3625 8.44583 6.375 8.47083 6.39167 8.49167C6.40417 8.51667 6.42083 8.5375 6.4375 8.55833C6.45833 8.57917 6.475 8.6 6.49583 8.62083C6.5125 8.6375 6.53333 8.65833 6.55417 8.675C6.575 8.69167 6.59583 8.70833 6.62083 8.72083C6.64167 8.7375 6.66667 8.75 6.69167 8.76667C6.7125 8.77917 6.7375 8.7875 6.7625 8.8C6.79167 8.80833 6.81667 8.82083 6.84167 8.82917C6.86667 8.83333 6.89583 8.84167 6.92083 8.84583C6.94583 8.85417 6.975 8.85833 7 8.85833C7.02917 8.8625 7.05417 8.8625 7.08333 8.8625C7.1125 8.8625 7.1375 8.8625 7.16667 8.85833C7.19167 8.85833 7.22083 8.85417 7.24583 8.84583C7.27083 8.84167 7.3 8.83333 7.325 8.82917C7.35 8.82083 7.375 8.80833 7.40417 8.8C7.42917 8.7875 7.45417 8.77917 7.475 8.76667C7.5 8.75 7.525 8.7375 7.54583 8.72083C7.57083 8.70833 7.59167 8.69167 7.6125 8.675C7.63333 8.65833 7.65417 8.6375 7.67083 8.62083C7.69167 8.6 7.70833 8.57917 7.72917 8.55833C7.74583 8.5375 7.7625 8.51667 7.775 8.49167C7.79167 8.47083 7.80417 8.44583 7.81667 8.42083C7.82917 8.4 7.84167 8.375 7.85417 8.35C7.8625 8.325 7.87083 8.29583 7.87917 8.27083C7.8875 8.24583 7.89583 8.22083 7.9 8.19167C7.90417 8.16667 7.90833 8.1375 7.9125 8.1125C7.91667 8.08333 7.91667 8.05833 7.91667 8.02917ZM3.8125 16.1875C4.62083 16.9958 5.54583 17.6208 6.59583 18.0625C7.67917 18.5208 8.8125 18.75 10 18.75C11.1875 18.75 12.3208 18.5208 13.4042 18.0625C14.4542 17.6208 15.3792 16.9958 16.1875 16.1875C16.9958 15.3792 17.6208 14.4542 18.0625 13.4042C18.5208 12.3208 18.75 11.1875 18.75 10C18.75 8.8125 18.5208 7.67917 18.0625 6.59583C17.6208 5.54583 16.9958 4.62083 16.1875 3.8125C15.3792 3.00417 14.4542 2.37917 13.4042 1.9375C12.3208 1.47917 11.1875 1.25 10 1.25C8.8125 1.25 7.67917 1.47917 6.59583 1.9375C5.54583 2.37917 4.62083 3.00417 3.8125 3.8125C3.00417 4.62083 2.37917 5.54583 1.9375 6.59583C1.47917 7.67917 1.25 8.8125 1.25 10C1.25 11.1875 1.47917 12.3208 1.9375 13.4042C2.37917 14.4542 3.00417 15.3792 3.8125 16.1875ZM7.24583 3.475C6.39583 3.83333 5.64583 4.3375 4.99167 4.99167C4.3375 5.64583 3.83333 6.39583 3.475 7.24583C3.10417 8.12083 2.91667 9.0375 2.91667 10C2.91667 10.9625 3.10417 11.8792 3.475 12.7542C3.83333 13.6042 4.3375 14.3542 4.99167 15.0083C5.64583 15.6625 6.39583 16.1667 7.24583 16.525C8.12083 16.8958 9.0375 17.0833 10 17.0833C10.9625 17.0833 11.8792 16.8958 12.7542 16.525C13.6042 16.1667 14.3542 15.6625 15.0083 15.0083C15.6625 14.3542 16.1667 13.6042 16.525 12.7542C16.8958 11.8792 17.0833 10.9625 17.0833 10C17.0833 9.0375 16.8958 8.12083 16.525 7.24583C16.1667 6.39583 15.6625 5.64583 15.0083 4.99167C14.3542 4.3375 13.6042 3.83333 12.7542 3.475C11.8792 3.10417 10.9625 2.91667 10 2.91667C9.0375 2.91667 8.12083 3.10417 7.24583 3.475ZM10 15.4167C10.575 15.4167 11.0417 14.95 11.0417 14.375C11.0417 13.8 10.575 13.3333 10 13.3333C9.425 13.3333 8.95833 13.8 8.95833 14.375C8.95833 14.95 9.425 15.4167 10 15.4167Z" fill-rule="evenodd"  fill="#000000" >
</path>
</svg>
