<svg xmlns="http://www.w3.org/2000/svg" xmlns:xlink="http://www.w3.org/1999/xlink" width="22" height="22" viewBox="0 0 22 22" fill="none">
<path d="M4.33251 5.16267C4.2028 5.00475 4.125 4.803 4.125 4.58317C4.125 4.07691 4.53764 3.6665 5.04666 3.6665C5.34396 3.6665 5.60837 3.80651 5.77691 4.02384L10.9991 9.58867L16.3314 3.90644L16.3365 3.91117C16.5009 3.75934 16.7212 3.6665 16.9633 3.6665C17.4723 3.6665 17.885 4.07691 17.885 4.58317C17.885 4.87333 17.7494 5.132 17.5379 5.29997L12.2562 10.9282L14.2553 13.0586C14.7082 12.8467 15.2142 12.7284 15.7481 12.7284C17.6767 12.7284 19.25 14.2919 19.25 16.2205C19.25 18.1546 17.6821 19.7084 15.7481 19.7084C13.8218 19.7084 12.2419 18.1468 12.2419 16.2205C12.2419 15.4857 12.468 14.8057 12.8543 14.2448L10.9991 12.2678L9.14311 14.2455C9.53076 14.8073 9.75805 15.4875 9.75805 16.2205C9.75805 18.1546 8.19019 19.7084 6.25612 19.7084C4.32981 19.7084 2.75 18.1468 2.75 16.2205C2.75 14.2841 4.31974 12.7284 6.25612 12.7284C6.78699 12.7284 7.29095 12.8469 7.74258 13.0589L9.74201 10.9282L4.40646 5.2426C4.3834 5.22045 4.3615 5.19712 4.34085 5.17269L4.33195 5.1632L4.33251 5.16267ZM6.25612 17.8751C7.17766 17.8751 7.92472 17.142 7.92472 16.2205C7.92472 15.3044 7.1722 14.5618 6.25612 14.5618C5.33226 14.5618 4.58333 15.2967 4.58333 16.2205C4.58333 17.1343 5.34232 17.8751 6.25612 17.8751ZM14.0753 16.2205C14.0753 17.1343 14.8343 17.8751 15.7481 17.8751C16.6696 17.8751 17.4167 17.142 17.4167 16.2205C17.4167 15.3044 16.6642 14.5618 15.7481 14.5618C14.8242 14.5618 14.0753 15.2967 14.0753 16.2205Z" fill-rule="evenodd"  fill="#000000" >
</path>
</svg>
