<svg xmlns="http://www.w3.org/2000/svg" xmlns:xlink="http://www.w3.org/1999/xlink" width="26" height="26" viewBox="0 0 26 26" fill="none">
<path d="M23.4832 22.8982C23.4562 22.9632 23.4237 23.0228 23.3857 23.0824C23.3424 23.142 23.2991 23.1962 23.2503 23.2503C23.1962 23.2991 23.142 23.3424 23.0824 23.3857C23.0228 23.4237 22.9632 23.4562 22.8982 23.4832C22.8332 23.5103 22.7628 23.532 22.6924 23.5428C22.622 23.5591 22.5516 23.5645 22.4812 23.5645C22.4107 23.5645 22.3403 23.5591 22.2699 23.5428C22.1995 23.532 22.1345 23.5103 22.0695 23.4832C22.0045 23.4562 21.9395 23.4237 21.8799 23.3857C21.8203 23.3424 21.7662 23.2991 21.7174 23.2503L23.2503 21.7174C23.2991 21.7662 23.3424 21.8203 23.3857 21.8799C23.4237 21.9395 23.4562 22.0045 23.4832 22.0695C23.5103 22.1345 23.532 22.1995 23.5428 22.2699C23.5591 22.3403 23.5645 22.4107 23.5645 22.4812C23.5645 22.5516 23.5591 22.622 23.5428 22.6924C23.532 22.7628 23.5103 22.8332 23.4832 22.8982ZM18.6841 10.5591C18.6841 11.6587 18.4728 12.7149 18.0449 13.7224C17.7749 14.3584 17.4326 14.9478 17.0181 15.4906L23.2449 21.7174L21.7174 23.2449L15.4906 17.0181C14.9478 17.4326 14.3584 17.7749 13.7224 18.0449C12.7149 18.4728 11.6587 18.6841 10.5591 18.6841C9.4595 18.6841 8.40325 18.4728 7.39575 18.0449C6.42617 17.6332 5.56492 17.0537 4.812 16.3062C4.0645 15.5532 3.48492 14.692 3.07325 13.7224C2.64533 12.7149 2.43408 11.6587 2.43408 10.5591C2.43408 9.4595 2.64533 8.40325 3.07325 7.39575C3.48492 6.42617 4.0645 5.56492 4.812 4.812C5.56492 4.0645 6.42617 3.48492 7.39575 3.07325C8.40325 2.64533 9.4595 2.43408 10.5591 2.43408C11.6587 2.43408 12.7149 2.64533 13.7224 3.07325C14.692 3.48492 15.5532 4.0645 16.3062 4.812C17.0537 5.56492 17.6332 6.42617 18.0449 7.39575C18.4728 8.40325 18.6841 9.4595 18.6841 10.5591ZM16.5174 10.5591C16.5174 11.3662 16.3603 12.1407 16.0516 12.8774C15.7482 13.5924 15.3203 14.2207 14.7732 14.7732C14.2207 15.3203 13.5924 15.7482 12.8774 16.0516C12.1407 16.3603 11.3662 16.5174 10.5591 16.5174C9.752 16.5174 8.97742 16.3603 8.24075 16.0516C7.52575 15.7482 6.89742 15.3203 6.34492 14.7732C5.79783 14.2207 5.36992 13.5924 5.06658 12.8774C4.75783 12.1407 4.60075 11.3662 4.60075 10.5591C4.60075 9.752 4.75783 8.97742 5.06658 8.24075C5.36992 7.52575 5.79783 6.89742 6.34492 6.34492C6.89742 5.79783 7.52575 5.36992 8.24075 5.06658C8.97742 4.75783 9.752 4.60075 10.5591 4.60075C11.3662 4.60075 12.1407 4.75783 12.8774 5.06658C13.5924 5.36992 14.2207 5.79783 14.7732 6.34492C15.3203 6.89742 15.7482 7.52575 16.0516 8.24075C16.3603 8.97742 16.5174 9.752 16.5174 10.5591Z" fill-rule="evenodd"  fill="#000000" >
</path>
</svg>
