<svg xmlns="http://www.w3.org/2000/svg" xmlns:xlink="http://www.w3.org/1999/xlink" width="26" height="26" viewBox="0 0 26 26" fill="none">
<path d="M2.23826 7.24049L5.35285 12.4351C5.5641 12.7817 5.55868 13.2097 5.35826 13.5563L2.23285 18.7509C0.575347 21.5134 3.50576 24.7417 6.41993 23.3605L22.0741 15.9288C24.5495 14.7534 24.5441 11.2272 22.0633 10.0517L6.41451 2.63632C3.51118 1.26049 0.586181 4.48341 2.23826 7.24049ZM7.67524 12.9891C7.67524 12.3933 8.16274 11.9058 8.75858 11.9058L15.2586 11.9058C15.8544 11.9058 16.3419 12.3933 16.3419 12.9891C16.3419 13.585 15.8544 14.0725 15.2586 14.0725L8.75858 14.0725C8.16274 14.0725 7.67524 13.585 7.67524 12.9891Z" fill-rule="evenodd"  fill="#007AFF" >
</path>
</svg>
