<svg xmlns="http://www.w3.org/2000/svg" xmlns:xlink="http://www.w3.org/1999/xlink" width="26" height="26" viewBox="0 0 26 26" fill="none">
<path d="M15.7082 12.9986C15.7082 13.3669 15.6378 13.719 15.497 14.0549C15.3616 14.3799 15.1666 14.6669 14.9174 14.9161C14.6682 15.1653 14.3812 15.3603 14.0562 15.4957C13.7203 15.6365 13.3682 15.7069 12.9999 15.7069C12.6316 15.7069 12.2795 15.6365 11.9437 15.4957C11.6187 15.3603 11.3316 15.1653 11.0824 14.9161C10.8332 14.6669 10.6382 14.3799 10.5028 14.0549C10.362 13.719 10.2916 13.3669 10.2916 12.9986C10.2916 12.6303 10.362 12.2782 10.5028 11.9424C10.6382 11.6228 10.8332 11.3357 11.0824 11.0865C11.3316 10.8319 11.6187 10.6424 11.9437 10.5015C12.2795 10.3607 12.6316 10.2903 12.9999 10.2903C13.3682 10.2903 13.7203 10.3607 14.0562 10.5015C14.3812 10.6424 14.6682 10.8319 14.9174 11.0865C15.1666 11.3357 15.3616 11.6228 15.497 11.9424C15.6378 12.2782 15.7082 12.6303 15.7082 12.9986ZM12.9999 1.58569C13.7745 1.58569 14.4949 1.78069 15.1666 2.16528L21.2982 5.70778C21.9699 6.09236 22.4953 6.62319 22.8799 7.28944C23.2699 7.96111 23.4649 8.68694 23.4649 9.45611L23.4649 16.5411C23.4649 17.3157 23.2699 18.0361 22.8799 18.7078C22.4953 19.3794 21.9699 19.9049 21.2982 20.2894L15.1666 23.8319C14.4949 24.2219 13.7745 24.4169 12.9999 24.4169C12.2253 24.4169 11.5049 24.2219 10.8332 23.8374L4.70158 20.2894C4.02991 19.9049 3.5045 19.3794 3.11991 18.7078C2.72991 18.0361 2.53491 17.3157 2.53491 16.5411L2.53491 9.45611C2.53491 8.68694 2.72991 7.96111 3.11991 7.28944C3.5045 6.62319 4.02991 6.09778 4.70158 5.70778L10.8332 2.16528C11.5049 1.78069 12.2253 1.58569 12.9999 1.58569Z" fill-rule="evenodd"  fill="#000000" >
</path>
</svg>
