<svg xmlns="http://www.w3.org/2000/svg" xmlns:xlink="http://www.w3.org/1999/xlink" width="97" height="30" viewBox="0 0 97 30" fill="none">
<g  clip-path="url(#clip-path-272_253)">
<path d="M9.04384 3.18166L7.89282 7.78573L29.5076 7.78573C31.6093 7.78573 33.4411 6.35537 33.9509 4.31643L34.0308 3.99685C34.2477 3.12963 33.5918 2.28955 32.6978 2.28955L10.1864 2.28955C9.646 2.28955 9.17491 2.65736 9.04384 3.18166Z"   fill="#000000" >
</path>
<path d="M5.38173 23.3345L4.23071 27.9386L9.12793 27.9386C11.2296 27.9386 13.0616 26.5082 13.5713 24.4693L13.6512 24.1497C13.868 23.2825 13.2121 22.4424 12.3182 22.4424L6.52432 22.4424C5.98389 22.4424 5.51281 22.8102 5.38173 23.3345Z"   fill="#000000" >
</path>
<path d="M7.21279 13.2581L6.06177 17.8621L17.8116 17.8621C18.7123 17.8621 19.4975 17.2491 19.7159 16.3753L20.1085 14.805C20.4182 13.5661 19.4812 12.366 18.2042 12.366L8.35537 12.366C7.81494 12.366 7.34386 12.7338 7.21279 13.2581Z"   fill="#007AFF" >
</path>
<path d="M15.906 20.8393L27.2557 13.204C27.6309 12.9516 27.4522 12.366 27 12.366L17.8526 12.366L15.906 20.8393Z"   fill="#0A84FF" >
</path>
</g>
<path d="M52.4391 7.63478L52.4391 13.2783L61.3513 13.2783L61.3513 16.913L52.4391 16.913L52.4391 26L48 26L48 4L62.8423 4L62.8423 7.63478L52.4391 7.63478ZM71.0429 26C68.5014 26 67.0951 24.6928 67.0951 24.6928C65.6888 23.3855 65.6888 20.9623 65.6888 20.9623L65.6888 4L69.8907 4L69.8907 20.7072C69.8907 21.7275 70.2804 22.158 70.2804 22.158C70.6701 22.5884 71.5512 22.5884 71.5512 22.5884L72.9744 22.5884L72.9744 26L71.0429 26ZM75.5837 9.42029L79.7517 9.42029L79.7517 26L75.5837 26L75.5837 9.42029ZM75.5159 4L79.7856 4L79.7856 7.15652L75.5159 7.15652L75.5159 4ZM92.6287 26L89.3755 20.771L86.4613 26L82.056 26L87.3423 17.4551L82.361 9.42029L86.7663 9.42029L89.6805 14.1391L92.2898 9.42029L96.695 9.42029L91.6459 17.3275L97 26L92.6287 26Z" fill-rule="evenodd"  fill="#000000" >
</path>
<defs>
<clipPath id="clip-path-272_253">
<path d="M19 0L34 0L34 15L34 30L19 30L4 30L4 15L4 0L19 0Z" fill="white"/>
</clipPath>
</defs>
</svg>
