<svg xmlns="http://www.w3.org/2000/svg" xmlns:xlink="http://www.w3.org/1999/xlink" width="20" height="20" viewBox="0 0 20 20" fill="none">
<path d="M7.79417 7.15679C7.59808 7.52443 7.50004 7.91658 7.50004 8.33325L7.50004 16.2499C7.50004 17.6306 8.61933 18.7499 10 18.7499L13.3334 18.7499C16.555 18.7499 19.1667 16.1383 19.1667 12.9166L19.1667 9.58325C19.1667 8.20254 18.0474 7.08325 16.6667 7.08325L14.4534 7.08325L15.3629 4.05162C15.8441 2.44759 14.643 0.833252 12.9683 0.833252L12.9167 0.833252C11.75 0.833252 10.8922 1.34796 10.3432 2.37737L7.79417 7.15679ZM9.16671 16.2499L9.16671 8.33325C9.16671 8.19438 9.19937 8.06363 9.26475 7.94108L11.8137 3.16168C12.0491 2.72051 12.4167 2.49992 12.9167 2.49992L12.9683 2.49992C13.5265 2.49992 13.9269 3.03803 13.7665 3.57271L12.5352 7.67713C12.3748 8.21179 12.7752 8.74992 13.3334 8.74992L16.6667 8.74992C17.127 8.74992 17.5 9.123 17.5 9.58325L17.5 12.9166C17.5 15.2178 15.6345 17.0833 13.3334 17.0833L10 17.0833C9.53979 17.0833 9.16671 16.7102 9.16671 16.2499ZM3.33337 7.08325L4.16671 7.08325C5.54742 7.08325 6.66671 8.20254 6.66671 9.58325L6.66671 16.2499C6.66671 17.6306 5.54742 18.7499 4.16671 18.7499C2.32576 18.7499 0.833374 17.2575 0.833374 15.4166L0.833374 9.58325C0.833374 8.20254 1.95266 7.08325 3.33337 7.08325ZM5.00004 9.58325C5.00004 9.123 4.62694 8.74992 4.16671 8.74992L3.33337 8.74992C2.87314 8.74992 2.50004 9.123 2.50004 9.58325L2.50004 15.4166C2.50004 16.337 3.24623 17.0833 4.16671 17.0833C4.62694 17.0833 5.00004 16.7102 5.00004 16.2499L5.00004 9.58325Z" fill-rule="evenodd"  fill="#000000" >
</path>
</svg>
