<svg xmlns="http://www.w3.org/2000/svg" xmlns:xlink="http://www.w3.org/1999/xlink" width="44" height="44" viewBox="0 0 44 44" fill="none">
<path     fill="#8134ED"  d="M9.5 3L27 3L27.5 3.5L27.5 8L32.25 12.5L37 12.5L37.5 13L37.5 38.5C37.5 40.1569 36.1569 41.5 34.5 41.5L9.5 41.5C7.84315 41.5 6.5 40.1569 6.5 38.5L6.5 6C6.5 4.34315 7.84315 3 9.5 3Z">
</path>
<path     fill="#FFFFFF"  d="M12.4979 37.1401L22.9893 31.1173C23.6588 30.7329 23.6588 29.7671 22.9893 29.3827L12.4979 23.3599C11.8312 22.9772 11 23.4584 11 24.2271L11 36.2729C11 37.0416 11.8312 37.5228 12.4979 37.1401Z">
</path>
<path     fill="#B579F4"  d="M27.2031 3L27 3L27 3C27.1601 3.16007 27.25 3.37718 27.25 3.60355L27.25 9.75C27.25 11.4069 28.5931 12.75 30.25 12.75L36.8964 12.75C37.1228 12.75 37.3399 12.8399 37.5 13L37.5 13L37.5 12.8603C37.5 12.3111 37.2742 11.7861 36.8755 11.4084L28.5785 3.54809C28.2071 3.19615 27.7148 3 27.2031 3Z">
</path>
</svg>
