<svg xmlns="http://www.w3.org/2000/svg" xmlns:xlink="http://www.w3.org/1999/xlink" width="44" height="44" viewBox="0 0 44 44" fill="none">
<path     fill="#7948EA" fill-opacity="0.1" d="M28 0C33.6 0 36.4 0 38.54 1.09Q39.2412 1.44729 39.8779 1.90988Q40.5146 2.37246 41.0711 2.92894Q41.6275 3.48543 42.0901 4.12211Q42.5527 4.75879 42.91 5.46C44 7.6 44 10.4 44 16L44 28C44 33.6 44 36.4 42.91 38.54Q42.5527 39.2412 42.0901 39.8779Q41.6275 40.5146 41.0711 41.0711Q40.5146 41.6275 39.8779 42.0901Q39.2412 42.5527 38.54 42.91C36.4 44 33.6 44 28 44L16 44C10.4 44 7.6 44 5.46 42.91Q4.75879 42.5527 4.12211 42.0901Q3.48543 41.6275 2.92894 41.0711Q2.37246 40.5146 1.90988 39.8779Q1.44729 39.2412 1.09 38.54C0 36.4 0 33.6 0 28L0 16C0 10.4 0 7.6 1.09 5.46Q1.44729 4.75879 1.90988 4.12211Q2.37246 3.48543 2.92894 2.92894Q3.48543 2.37246 4.12211 1.90988Q4.75879 1.44729 5.46 1.09C7.6 0 10.4 0 16 0L28 0Z">
</path>
<path d="M11.5 12.659C11.5 12.0189 12.0191 11.5 12.659 11.5L31.341 11.5C31.9811 11.5 32.5 12.0191 32.5 12.659L32.5 31.341C32.5 31.9811 31.9809 32.5 31.341 32.5L12.659 32.5C12.0189 32.5 11.5 31.9809 11.5 31.341L11.5 12.659ZM20.3922 17.817C20.3156 17.7659 20.2255 17.7386 20.1333 17.7386C19.8756 17.7386 19.6667 17.9476 19.6667 18.2053L19.6667 25.7947C19.6667 25.8869 19.694 25.9769 19.7451 26.0536C19.888 26.268 20.1778 26.326 20.3922 26.183L26.0843 22.3883C26.1355 22.3541 26.1795 22.3101 26.2136 22.2589C26.3567 22.0444 26.2987 21.7547 26.0843 21.6117L20.3922 17.817Z"   fill="#7948EA" >
</path>
</svg>
