<svg xmlns="http://www.w3.org/2000/svg" xmlns:xlink="http://www.w3.org/1999/xlink" width="20" height="20" viewBox="0 0 20 20" fill="none">
<path d="M1 10C1 5.0275 5.0275 1 10 1C14.9725 1 19 5.0275 19 10C19 14.9725 14.9725 19 10 19C5.0275 19 1 14.9725 1 10ZM10.783 16.813C10.5085 17.0695 10.2475 17.2 10 17.2C9.7525 17.2 9.4915 17.0695 9.217 16.813C8.875 16.4845 8.56 15.9985 8.2765 15.364C7.975 14.68 7.7365 13.888 7.5655 12.988C7.44112 12.3151 7.35967 11.6196 7.32281 10.8999L12.6772 10.8999C12.6403 11.6196 12.5589 12.3151 12.4345 12.988C12.2635 13.888 12.025 14.68 11.7235 15.364C11.44 15.9985 11.125 16.4845 10.783 16.813ZM12.6772 9.10023L7.32281 9.10023C7.35967 8.3805 7.44112 7.68493 7.5655 7.012C7.7365 6.112 7.975 5.32 8.2765 4.636C8.56 4.0015 8.875 3.5155 9.217 3.187C9.4915 2.9305 9.7525 2.8 10 2.8C10.2475 2.8 10.5085 2.9305 10.783 3.187C11.125 3.5155 11.44 4.0015 11.7235 4.636C12.025 5.32 12.2635 6.112 12.4345 7.012C12.5589 7.68493 12.6403 8.3805 12.6772 9.10023ZM14.4795 10.8999C14.4412 11.7325 14.349 12.5378 14.203 13.321C14.005 14.356 13.7305 15.283 13.3705 16.093C13.3153 16.2163 13.2587 16.336 13.2007 16.4518C15.3161 15.4009 16.8404 13.3405 17.1444 10.8999L14.4795 10.8999ZM17.1444 9.10023L14.4795 9.10023C14.4412 8.2675 14.349 7.46222 14.203 6.679C14.005 5.644 13.7305 4.717 13.3705 3.907C13.3153 3.78363 13.2587 3.66401 13.2007 3.54816C15.3161 4.59905 16.8405 6.65956 17.1444 9.10023ZM5.52047 9.10023C5.55882 8.2675 5.65098 7.46222 5.797 6.679C5.995 5.644 6.2695 4.717 6.6295 3.907C6.68467 3.78363 6.74128 3.66401 6.79928 3.54816C4.68392 4.59905 3.15956 6.65956 2.85562 9.10023L5.52047 9.10023ZM2.85562 10.8999C3.1596 13.3405 4.68394 15.4009 6.79928 16.4518C6.74128 16.336 6.68467 16.2163 6.6295 16.093C6.2695 15.283 5.995 14.356 5.797 13.321C5.65098 12.5378 5.55882 11.7325 5.52047 10.8999L2.85562 10.8999Z" fill-rule="evenodd"  fill="#000000" >
</path>
</svg>
