<svg xmlns="http://www.w3.org/2000/svg" xmlns:xlink="http://www.w3.org/1999/xlink" width="20" height="20" viewBox="0 0 20 20" fill="none">
<path d="M0.833374 15.0001L0.833374 5.00008C0.833374 4.54862 0.920924 4.11615 1.09602 3.70266C1.26486 3.30398 1.50294 2.95097 1.81027 2.64364C2.11759 2.33631 2.4706 2.09823 2.86929 1.9294C3.28278 1.7543 3.71525 1.66675 4.16671 1.66675L7.21254 1.66675C7.68782 1.66675 8.14228 1.76398 8.57592 1.95846C9.00983 2.15304 9.38503 2.42801 9.7015 2.78334L12.0411 5.41675L15 5.41675C15.4515 5.41675 15.884 5.5043 16.2975 5.6794C16.6962 5.84824 17.0492 6.08632 17.3565 6.39362C17.6638 6.70096 17.9019 7.05397 18.0707 7.45266C18.2458 7.86614 18.3334 8.29861 18.3334 8.75008L18.3334 8.85592C18.5504 9.0305 18.7447 9.23225 18.9168 9.46258C19.2252 9.87091 19.4252 10.3292 19.521 10.8292C19.6252 11.3542 19.6002 11.8792 19.446 12.3959L18.4085 15.9376C18.3043 16.2876 18.1502 16.6126 17.9418 16.9126C17.7377 17.2042 17.4918 17.4584 17.2043 17.6709C16.921 17.8834 16.6085 18.0459 16.271 18.1584C15.9293 18.2751 15.5752 18.3334 15.2085 18.3334L4.16671 18.3334C3.71525 18.3334 3.28277 18.2459 2.86929 18.0707C2.4706 17.9019 2.11759 17.6638 1.81027 17.3565C1.50294 17.0492 1.26486 16.6962 1.09602 16.2975C0.920923 15.884 0.833374 15.4515 0.833374 15.0001ZM2.50004 9.57783C2.70158 9.28554 2.93929 9.03312 3.221 8.81675C3.5085 8.59591 3.82517 8.42508 4.16683 8.30841C4.51683 8.18758 4.87933 8.12508 5.25017 8.12508L16.246 8.12508C16.3487 8.12508 16.4502 8.12941 16.5506 8.13816C16.5459 8.12628 16.541 8.11441 16.536 8.10258C16.4516 7.90322 16.3322 7.72641 16.178 7.57216C16.0237 7.41789 15.8469 7.29854 15.6475 7.21412C15.4418 7.12698 15.2259 7.08341 15 7.08341L11.6667 7.08341C11.6078 7.08341 11.5496 7.07725 11.4921 7.06491C11.4345 7.05258 11.3789 7.03436 11.3252 7.01025C11.2715 6.98611 11.221 6.95662 11.1735 6.92179C11.1261 6.88696 11.0828 6.84754 11.0437 6.80354L8.45691 3.89182C8.29858 3.71405 8.11093 3.57651 7.89396 3.47921C7.67721 3.38201 7.45007 3.33341 7.21254 3.33341L4.16671 3.33341C3.94082 3.33341 3.72498 3.37698 3.5192 3.46412C3.31984 3.54855 3.14304 3.66789 2.98877 3.82215C2.83451 3.97641 2.71517 4.15322 2.63075 4.35258C2.54361 4.55835 2.50004 4.77419 2.50004 5.00008L2.50004 6.25008L2.50004 9.57783ZM17.8877 11.1459C17.8377 10.8959 17.7377 10.6667 17.5835 10.4584C17.4252 10.2542 17.2377 10.0917 17.0085 9.97508C16.7752 9.85425 16.5168 9.79175 16.246 9.79175L5.25017 9.79175C5.06267 9.79175 4.8835 9.82091 4.7085 9.88341C4.53767 9.94175 4.3835 10.0251 4.23767 10.1376C4.09183 10.2459 3.971 10.3792 3.871 10.5292C3.76683 10.6834 3.69183 10.8501 3.64183 11.0292L2.69183 14.5709C2.62517 14.8292 2.61683 15.0876 2.671 15.3417C2.721 15.5876 2.82517 15.8126 2.97933 16.0167C3.1335 16.2167 3.32517 16.3751 3.55017 16.4876C3.7835 16.6084 4.0335 16.6667 4.30017 16.6667L15.2085 16.6667C15.3918 16.6667 15.5668 16.6376 15.7418 16.5792C15.9085 16.5209 16.0668 16.4417 16.2085 16.3334C16.3502 16.2292 16.4752 16.1001 16.5752 15.9584C16.6793 15.8084 16.7585 15.6459 16.8085 15.4709L17.846 11.9292C17.9252 11.6667 17.9377 11.4042 17.8877 11.1459Z" fill-rule="evenodd"  fill="#000000" >
</path>
</svg>
