<svg xmlns="http://www.w3.org/2000/svg" xmlns:xlink="http://www.w3.org/1999/xlink" width="44" height="44" viewBox="0 0 44 44" fill="none">
<path     fill="#969696"  d="M9.5 3L27 3L27.5 3.5L27.5 8L32.25 12.5L37 12.5L37.5 13L37.5 38.5C37.5 40.1569 36.1569 41.5 34.5 41.5L9.5 41.5C7.84315 41.5 6.5 40.1569 6.5 38.5L6.5 6C6.5 4.34315 7.84315 3 9.5 3Z">
</path>
<path     fill="#FFFFFF"  d="M21.5 26.75L21.5 24.25C21.5 23.9739 21.2761 23.75 21 23.75L18.5 23.75C18.2239 23.75 18 23.9739 18 24.25L18 26.75C18 27.0261 18.2239 27.25 18.5 27.25L21 27.25C21.2761 27.25 21.5 27.0261 21.5 26.75Z">
</path>
<path     fill="#FFFFFF"  d="M25.8964 22.8964L23.3536 20.3536C23.0386 20.0386 22.5 20.2617 22.5 20.7071L22.5 23.25C22.5 23.5261 22.7239 23.75 23 23.75L25.5429 23.75C25.9883 23.75 26.2114 23.2114 25.8964 22.8964Z">
</path>
<path     fill="#FFFFFF"  d="M26 30.25L26 27.75C26 27.4739 25.7761 27.25 25.5 27.25L23 27.25C22.7239 27.25 22.5 27.4739 22.5 27.75L22.5 30.25C22.5 30.5261 22.7239 30.75 23 30.75L25.5 30.75C25.7761 30.75 26 30.5261 26 30.25Z">
</path>
<path     fill="#FFFFFF"  d="M26 37.75L26 35.25C26 34.9739 25.7761 34.75 25.5 34.75L23 34.75C22.7239 34.75 22.5 34.9739 22.5 35.25L22.5 37.75C22.5 38.0261 22.7239 38.25 23 38.25L25.5 38.25C25.7761 38.25 26 38.0261 26 37.75Z">
</path>
<path     fill="#FFFFFF"  d="M21.5 34.25L21.5 31.75C21.5 31.4739 21.2761 31.25 21 31.25L18.5 31.25C18.2239 31.25 18 31.4739 18 31.75L18 34.25C18 34.5261 18.2239 34.75 18.5 34.75L21 34.75C21.2761 34.75 21.5 34.5261 21.5 34.25Z">
</path>
<path     fill="#B9B9B9"  d="M27.2031 3L27 3L27 3C27.1601 3.16007 27.25 3.37718 27.25 3.60355L27.25 9.75C27.25 11.4069 28.5931 12.75 30.25 12.75L36.8964 12.75C37.1228 12.75 37.3399 12.8399 37.5 13L37.5 13L37.5 12.8603C37.5 12.3111 37.2742 11.7861 36.8755 11.4084L28.5785 3.54809C28.2071 3.19615 27.7148 3 27.2031 3Z">
</path>
</svg>
