<svg xmlns="http://www.w3.org/2000/svg" xmlns:xlink="http://www.w3.org/1999/xlink" width="44" height="44" viewBox="0 0 44 44" fill="none">
<path     fill="#00BAAD" fill-opacity="0.1" d="M28 0C33.6 0 36.4 0 38.54 1.09Q39.2412 1.44729 39.8779 1.90988Q40.5146 2.37246 41.0711 2.92894Q41.6275 3.48543 42.0901 4.12211Q42.5527 4.75879 42.91 5.46C44 7.6 44 10.4 44 16L44 28C44 33.6 44 36.4 42.91 38.54Q42.5527 39.2412 42.0901 39.8779Q41.6275 40.5146 41.0711 41.0711Q40.5146 41.6275 39.8779 42.0901Q39.2412 42.5527 38.54 42.91C36.4 44 33.6 44 28 44L16 44C10.4 44 7.6 44 5.46 42.91Q4.75879 42.5527 4.12211 42.0901Q3.48543 41.6275 2.92894 41.0711Q2.37246 40.5146 1.90988 39.8779Q1.44729 39.2412 1.09 38.54C0 36.4 0 33.6 0 28L0 16C0 10.4 0 7.6 1.09 5.46Q1.44729 4.75879 1.90988 4.12211Q2.37246 3.48543 2.92894 2.92894Q3.48543 2.37246 4.12211 1.90988Q4.75879 1.44729 5.46 1.09C7.6 0 10.4 0 16 0L28 0Z">
</path>
<path d="M19.6667 10.3334L19.6667 12.6667L22 12.6667L22 10.3334L31.341 10.3334C31.9809 10.3334 32.5 10.8514 32.5 11.4905L32.5 32.5096C32.5 33.1355 31.9811 33.6667 31.341 33.6667L12.659 33.6667C12.0191 33.6667 11.5 33.1487 11.5 32.5096L11.5 11.4905C11.5 10.8646 12.0189 10.3334 12.659 10.3334L19.6667 10.3334ZM22 12.6667L22 15L24.3333 15L24.3333 12.6667L22 12.6667ZM19.6667 15L19.6667 17.3334L22 17.3334L22 15L19.6667 15ZM22 17.3334L22 19.6667L24.3333 19.6667L24.3333 17.3334L22 17.3334ZM19.6667 19.6667L19.6667 22L22 22L22 19.6667L19.6667 19.6667ZM22 22L22 24.3334L19.6667 24.3334L19.6667 27.8334L24.3333 27.8334L24.3333 22L22 22Z"   fill="#00BAAD" >
</path>
</svg>
