<svg xmlns="http://www.w3.org/2000/svg" xmlns:xlink="http://www.w3.org/1999/xlink" width="93" height="26" viewBox="0 0 93 26" fill="none">
<g  clip-path="url(#clip-path-573_3192)">
<path d="M10.3711 2.75766L9.37354 6.74785L28.1063 6.74785C29.9278 6.74785 31.5154 5.50821 31.9572 3.74113L32.0265 3.46416C32.2144 2.71256 31.646 1.9845 30.8712 1.9845L11.3613 1.9845C10.893 1.9845 10.4847 2.30326 10.3711 2.75766Z"   fill="#0E1116" >
</path>
<path d="M7.19726 20.2231L6.19971 24.2133L10.444 24.2133C12.2654 24.2133 13.8531 22.9737 14.2949 21.2066L14.3642 20.9296C14.552 20.178 13.9836 19.45 13.2089 19.45L8.1875 19.45C7.71913 19.45 7.31085 19.7687 7.19726 20.2231Z"   fill="#0E1116" >
</path>
<path d="M8.78417 11.4904L7.78662 15.4806L17.9698 15.4806C18.7504 15.4806 19.4309 14.9494 19.6202 14.192L19.9604 12.8311C20.2289 11.7574 19.4168 10.7173 18.31 10.7173L9.77441 10.7173C9.30604 10.7173 8.89777 11.0361 8.78417 11.4904Z"   fill="#007AFF" >
</path>
<path d="M16.3186 18.0608L26.155 11.4436C26.4802 11.2248 26.3253 10.7173 25.9334 10.7173L18.0056 10.7173L16.3186 18.0608Z"   fill="#0A84FF" >
</path>
</g>
<path   fill-rule="evenodd"  fill="#000000"  d="M48.4391 5.63478L48.4391 11.2783L57.3513 11.2783L57.3513 14.913L48.4391 14.913L48.4391 24L44 24L44 2L58.8423 2L58.8423 5.63478L48.4391 5.63478ZM67.0429 24C64.5014 24 63.0951 22.6928 63.0951 22.6928C61.6888 21.3855 61.6888 18.9623 61.6888 18.9623L61.6888 2L65.8907 2L65.8907 18.7072C65.8907 19.7275 66.2804 20.158 66.2804 20.158C66.6701 20.5884 67.5512 20.5884 67.5512 20.5884L68.9744 20.5884L68.9744 24L67.0429 24ZM71.5837 7.42029L75.7517 7.42029L75.7517 24L71.5837 24L71.5837 7.42029ZM71.5159 2L75.7856 2L75.7856 5.15652L71.5159 5.15652L71.5159 2ZM88.6287 24L85.3755 18.771L82.4613 24L78.056 24L83.3423 15.4551L78.361 7.42029L82.7663 7.42029L85.6805 12.1391L88.2898 7.42029L92.695 7.42029L87.6459 15.3275L93 24L88.6287 24Z">
</path>
<defs>
<clipPath id="clip-path-573_3192">
<path d="M19 0L32 0L32 13L32 26L19 26L6 26L6 13L6 0L19 0Z" fill="white"/>
</clipPath>
</defs>
</svg>
