<svg xmlns="http://www.w3.org/2000/svg" xmlns:xlink="http://www.w3.org/1999/xlink" width="20" height="20" viewBox="0 0 20 20" fill="none"><g opacity="1"  transform="translate(0 0)"><mask id="bg-mask-0" fill="white"><use transform="translate(0 0)" xlink:href="#path_0"></use></mask><g mask="url(#bg-mask-0)" ><path id="路径 1" fill-rule="evenodd" style="fill:#000000" opacity="1" d="M12.5 3.33329L12.5 6.66663L15.8333 6.66663L15.8333 16.6666L4.16667 16.6666L4.16667 3.33329L12.5 3.33329ZM3.33208 1.66663C2.87291 1.66663 2.5 2.03667 2.5 2.49313L2.5 17.5068C2.5 17.9539 2.87063 18.3333 3.32783 18.3333L16.6722 18.3333C17.1292 18.3333 17.5 17.9574 17.5 17.4937L17.4998 5.83329L13.3333 1.66663L3.33208 1.66663ZM12.5007 9.72246L8.43492 7.01192C8.38017 6.97541 8.31583 6.95593 8.25 6.95593C8.06592 6.95593 7.91667 7.10517 7.91667 7.28927L7.91667 12.7103C7.91667 12.7761 7.93617 12.8405 7.97267 12.8952C8.07475 13.0484 8.28175 13.0898 8.43492 12.9876L12.5007 10.2771C12.5372 10.2527 12.5687 10.2213 12.5931 10.1847C12.6952 10.0315 12.6538 9.82454 12.5007 9.72246Z"></path></g></g><defs><rect id="path_0" x="0" y="0" width="20" height="20" rx="0" ry="0"/></defs></svg>