<svg xmlns="http://www.w3.org/2000/svg" width="36" height="36" viewBox="0 0 36 36" fill="none">
<g filter="url(#filter_272_659)">
    <path d="M0 18Q0 17.5581 0.0216818 17.1168Q0.0433636 16.6754 0.0866749 16.2357Q0.129986 15.7959 0.194823 15.3589Q0.259659 14.9218 0.345865 14.4884Q0.43207 14.055 0.539437 13.6264Q0.646804 13.1977 0.775074 12.7749Q0.903343 12.352 1.05221 11.936Q1.20107 11.5199 1.37017 11.1117Q1.53927 10.7035 1.72819 10.304Q1.91712 9.90456 2.12542 9.51486Q2.33372 9.12516 2.56088 8.74615Q2.78805 8.36714 3.03355 7.99973Q3.27904 7.63233 3.54226 7.27741Q3.80549 6.92249 4.08581 6.58092Q4.36613 6.23935 4.66288 5.91194Q4.95962 5.58453 5.27208 5.27208Q5.58453 4.95962 5.91194 4.66288Q6.23935 4.36613 6.58092 4.08581Q6.92249 3.80549 7.27741 3.54226Q7.63233 3.27904 7.99973 3.03355Q8.36714 2.78805 8.74615 2.56088Q9.12516 2.33372 9.51486 2.12542Q9.90456 1.91712 10.304 1.72819Q10.7035 1.53927 11.1117 1.37017Q11.5199 1.20107 11.936 1.05221Q12.352 0.903343 12.7749 0.775074Q13.1977 0.646804 13.6264 0.539437Q14.055 0.43207 14.4884 0.345865Q14.9218 0.259659 15.3589 0.194823Q15.7959 0.129986 16.2357 0.0866749Q16.6754 0.0433636 17.1168 0.0216818Q17.5581 0 18 0Q18.4419 0 18.8832 0.0216818Q19.3246 0.0433636 19.7643 0.0866749Q20.2041 0.129986 20.6411 0.194823Q21.0782 0.259659 21.5116 0.345865Q21.945 0.43207 22.3736 0.539437Q22.8023 0.646804 23.2251 0.775074Q23.648 0.903343 24.064 1.05221Q24.4801 1.20107 24.8883 1.37017Q25.2965 1.53927 25.696 1.72819Q26.0954 1.91712 26.4851 2.12542Q26.8748 2.33372 27.2538 2.56088Q27.6329 2.78805 28.0003 3.03355Q28.3677 3.27904 28.7226 3.54226Q29.0775 3.80549 29.4191 4.08581Q29.7607 4.36613 30.0881 4.66288Q30.4155 4.95962 30.7279 5.27208Q31.0404 5.58453 31.3371 5.91194Q31.6339 6.23935 31.9142 6.58092Q32.1945 6.92249 32.4577 7.27741Q32.721 7.63233 32.9664 7.99973Q33.2119 8.36714 33.4391 8.74615Q33.6663 9.12516 33.8746 9.51486Q34.0829 9.90456 34.2718 10.304Q34.4607 10.7035 34.6298 11.1117Q34.7989 11.5199 34.9478 11.936Q35.0967 12.352 35.2249 12.7749Q35.3532 13.1977 35.4606 13.6264Q35.5679 14.055 35.6541 14.4884Q35.7403 14.9218 35.8052 15.3589Q35.87 15.7959 35.9133 16.2357Q35.9566 16.6754 35.9783 17.1168Q36 17.5581 36 18Q36 18.4419 35.9783 18.8832Q35.9566 19.3246 35.9133 19.7643Q35.87 20.2041 35.8052 20.6411Q35.7403 21.0782 35.6541 21.5116Q35.5679 21.945 35.4606 22.3736Q35.3532 22.8023 35.2249 23.2251Q35.0967 23.648 34.9478 24.064Q34.7989 24.4801 34.6298 24.8883Q34.4607 25.2965 34.2718 25.696Q34.0829 26.0954 33.8746 26.4851Q33.6663 26.8748 33.4391 27.2538Q33.2119 27.6329 32.9664 28.0003Q32.721 28.3677 32.4577 28.7226Q32.1945 29.0775 31.9142 29.4191Q31.6339 29.7607 31.3371 30.0881Q31.0404 30.4155 30.7279 30.7279Q30.4155 31.0404 30.0881 31.3371Q29.7607 31.6339 29.4191 31.9142Q29.0775 32.1945 28.7226 32.4577Q28.3677 32.721 28.0003 32.9664Q27.6329 33.2119 27.2538 33.4391Q26.8748 33.6663 26.4851 33.8746Q26.0954 34.0829 25.696 34.2718Q25.2965 34.4607 24.8883 34.6298Q24.4801 34.7989 24.064 34.9478Q23.648 35.0967 23.2251 35.2249Q22.8023 35.3532 22.3736 35.4606Q21.945 35.5679 21.5116 35.6541Q21.0782 35.7403 20.6411 35.8052Q20.2041 35.87 19.7643 35.9133Q19.3246 35.9566 18.8832 35.9783Q18.4419 36 18 36Q17.5581 36 17.1168 35.9783Q16.6754 35.9566 16.2357 35.9133Q15.7959 35.87 15.3589 35.8052Q14.9218 35.7403 14.4884 35.6541Q14.055 35.5679 13.6264 35.4606Q13.1977 35.3532 12.7749 35.2249Q12.352 35.0967 11.936 34.9478Q11.5199 34.7989 11.1117 34.6298Q10.7035 34.4607 10.304 34.2718Q9.90456 34.0829 9.51486 33.8746Q9.12516 33.6663 8.74615 33.4391Q8.36714 33.2119 7.99973 32.9664Q7.63233 32.721 7.27741 32.4577Q6.92249 32.1945 6.58092 31.9142Q6.23935 31.6339 5.91194 31.3371Q5.58453 31.0404 5.27208 30.7279Q4.95962 30.4155 4.66288 30.0881Q4.36613 29.7607 4.08581 29.4191Q3.80549 29.0775 3.54226 28.7226Q3.27904 28.3677 3.03355 28.0003Q2.78805 27.6329 2.56088 27.2538Q2.33372 26.8748 2.12542 26.4851Q1.91712 26.0954 1.72819 25.696Q1.53927 25.2965 1.37017 24.8883Q1.20107 24.4801 1.05221 24.064Q0.903343 23.648 0.775074 23.2251Q0.646804 22.8023 0.539437 22.3736Q0.43207 21.945 0.345865 21.5116Q0.259659 21.0782 0.194823 20.6411Q0.129986 20.2041 0.0866749 19.7643Q0.0433636 19.3246 0.0216818 18.8832Q0 18.4419 0 18Z" fill="#FFFFFF"
        fill-opacity="0.2"></path>
    <path d="M17 17L17 11L19 11L19 17L25 17L25 19L19 19L19 25L17 25L17 19L11 19L11 17L17 17Z"
        fill="#FFFFFF"></path>
</g>
<defs>
    <filter color-interpolation-filters="sRGB" filterUnits="userSpaceOnUse" height="36" id="filter_272_659" width="36" x="0"
        y="0">
        <feFlood flood-opacity="0" result="feFloodId_272_659" />
        <feGaussianBlur in="feFloodId_272_659" stdDeviation_bg="15" type="BackgroundImage" />
        <feComposite in2="SourceAlpha" operator="in" result="background_Blur_272_659" />
        <feBlend in="SourceGraphic" in2="background_Blur_272_659" mode="normal"
            result="shape_272_659" />
    </filter>
</defs>
</svg>
