<svg xmlns="http://www.w3.org/2000/svg" xmlns:xlink="http://www.w3.org/1999/xlink" width="36" height="36" viewBox="0 0 36 36" fill="none">
<g filter="url(#filter_573_3188)">
<path     fill="#FFFFFF" fill-opacity="0.2" d="M0 18Q0 17.5581 0.0216818 17.1168Q0.0433636 16.6754 0.0866749 16.2357Q0.129986 15.7959 0.194823 15.3589Q0.259659 14.9218 0.345865 14.4884Q0.43207 14.055 0.539437 13.6264Q0.646804 13.1977 0.775074 12.7749Q0.903343 12.352 1.05221 11.936Q1.20107 11.5199 1.37017 11.1117Q1.53927 10.7035 1.72819 10.304Q1.91712 9.90456 2.12542 9.51486Q2.33372 9.12516 2.56088 8.74615Q2.78805 8.36714 3.03355 7.99973Q3.27904 7.63233 3.54226 7.27741Q3.80549 6.92249 4.08581 6.58092Q4.36613 6.23935 4.66288 5.91194Q4.95962 5.58453 5.27208 5.27208Q5.58453 4.95962 5.91194 4.66288Q6.23935 4.36613 6.58092 4.08581Q6.92249 3.80549 7.27741 3.54226Q7.63233 3.27904 7.99973 3.03355Q8.36714 2.78805 8.74615 2.56088Q9.12516 2.33372 9.51486 2.12542Q9.90456 1.91712 10.304 1.72819Q10.7035 1.53927 11.1117 1.37017Q11.5199 1.20107 11.936 1.05221Q12.352 0.903343 12.7749 0.775074Q13.1977 0.646804 13.6264 0.539437Q14.055 0.43207 14.4884 0.345865Q14.9218 0.259659 15.3589 0.194823Q15.7959 0.129986 16.2357 0.0866749Q16.6754 0.0433636 17.1168 0.0216818Q17.5581 0 18 0Q18.4419 0 18.8832 0.0216818Q19.3246 0.0433636 19.7643 0.0866749Q20.2041 0.129986 20.6411 0.194823Q21.0782 0.259659 21.5116 0.345865Q21.945 0.43207 22.3736 0.539437Q22.8023 0.646804 23.2251 0.775074Q23.648 0.903343 24.064 1.05221Q24.4801 1.20107 24.8883 1.37017Q25.2965 1.53927 25.696 1.72819Q26.0954 1.91712 26.4851 2.12542Q26.8748 2.33372 27.2538 2.56088Q27.6329 2.78805 28.0003 3.03355Q28.3677 3.27904 28.7226 3.54226Q29.0775 3.80549 29.4191 4.08581Q29.7607 4.36613 30.0881 4.66288Q30.4155 4.95962 30.7279 5.27208Q31.0404 5.58453 31.3371 5.91194Q31.6339 6.23935 31.9142 6.58092Q32.1945 6.92249 32.4577 7.27741Q32.721 7.63233 32.9664 7.99973Q33.2119 8.36714 33.4391 8.74615Q33.6663 9.12516 33.8746 9.51486Q34.0829 9.90456 34.2718 10.304Q34.4607 10.7035 34.6298 11.1117Q34.7989 11.5199 34.9478 11.936Q35.0967 12.352 35.2249 12.7749Q35.3532 13.1977 35.4606 13.6264Q35.5679 14.055 35.6541 14.4884Q35.7403 14.9218 35.8052 15.3589Q35.87 15.7959 35.9133 16.2357Q35.9566 16.6754 35.9783 17.1168Q36 17.5581 36 18Q36 18.4419 35.9783 18.8832Q35.9566 19.3246 35.9133 19.7643Q35.87 20.2041 35.8052 20.6411Q35.7403 21.0782 35.6541 21.5116Q35.5679 21.945 35.4606 22.3736Q35.3532 22.8023 35.2249 23.2251Q35.0967 23.648 34.9478 24.064Q34.7989 24.4801 34.6298 24.8883Q34.4607 25.2965 34.2718 25.696Q34.0829 26.0954 33.8746 26.4851Q33.6663 26.8748 33.4391 27.2538Q33.2119 27.6329 32.9664 28.0003Q32.721 28.3677 32.4577 28.7226Q32.1945 29.0775 31.9142 29.4191Q31.6339 29.7607 31.3371 30.0881Q31.0404 30.4155 30.7279 30.7279Q30.4155 31.0404 30.0881 31.3371Q29.7607 31.6339 29.4191 31.9142Q29.0775 32.1945 28.7226 32.4577Q28.3677 32.721 28.0003 32.9664Q27.6329 33.2119 27.2538 33.4391Q26.8748 33.6663 26.4851 33.8746Q26.0954 34.0829 25.696 34.2718Q25.2965 34.4607 24.8883 34.6298Q24.4801 34.7989 24.064 34.9478Q23.648 35.0967 23.2251 35.2249Q22.8023 35.3532 22.3736 35.4606Q21.945 35.5679 21.5116 35.6541Q21.0782 35.7403 20.6411 35.8052Q20.2041 35.87 19.7643 35.9133Q19.3246 35.9566 18.8832 35.9783Q18.4419 36 18 36Q17.5581 36 17.1168 35.9783Q16.6754 35.9566 16.2357 35.9133Q15.7959 35.87 15.3589 35.8052Q14.9218 35.7403 14.4884 35.6541Q14.055 35.5679 13.6264 35.4606Q13.1977 35.3532 12.7749 35.2249Q12.352 35.0967 11.936 34.9478Q11.5199 34.7989 11.1117 34.6298Q10.7035 34.4607 10.304 34.2718Q9.90456 34.0829 9.51486 33.8746Q9.12516 33.6663 8.74615 33.4391Q8.36714 33.2119 7.99973 32.9664Q7.63233 32.721 7.27741 32.4577Q6.92249 32.1945 6.58092 31.9142Q6.23935 31.6339 5.91194 31.3371Q5.58453 31.0404 5.27208 30.7279Q4.95962 30.4155 4.66288 30.0881Q4.36613 29.7607 4.08581 29.4191Q3.80549 29.0775 3.54226 28.7226Q3.27904 28.3677 3.03355 28.0003Q2.78805 27.6329 2.56088 27.2538Q2.33372 26.8748 2.12542 26.4851Q1.91712 26.0954 1.72819 25.696Q1.53927 25.2965 1.37017 24.8883Q1.20107 24.4801 1.05221 24.064Q0.903343 23.648 0.775074 23.2251Q0.646804 22.8023 0.539437 22.3736Q0.43207 21.945 0.345865 21.5116Q0.259659 21.0782 0.194823 20.6411Q0.129986 20.2041 0.0866749 19.7643Q0.0433636 19.3246 0.0216818 18.8832Q0 18.4419 0 18Z">
</path>
<path d="M25.4625 18.2417C25.4542 18.2667 25.4458 18.2917 25.4375 18.3208C25.425 18.3458 25.4125 18.3708 25.4 18.3917C25.3875 18.4167 25.375 18.4417 25.3583 18.4625C25.3458 18.4875 25.3292 18.5083 25.3125 18.5292C25.2917 18.55 25.275 18.5708 25.2542 18.5875C25.2375 18.6083 25.2167 18.625 25.1958 18.6458C25.175 18.6625 25.1542 18.6792 25.1292 18.6917C25.1083 18.7083 25.0833 18.7208 25.0583 18.7333C25.0375 18.7458 25.0125 18.7583 24.9875 18.7708C24.9583 18.7792 24.9333 18.7875 24.9083 18.7958C24.8833 18.8042 24.8542 18.8125 24.8292 18.8167C24.8042 18.8208 24.775 18.825 24.75 18.8292C24.7208 18.8333 24.6958 18.8333 24.6667 18.8333L18.8333 18.8333L18.8333 24.6667C18.8333 24.6958 18.8333 24.7208 18.8292 24.75C18.825 24.775 18.8208 24.8042 18.8167 24.8292C18.8125 24.8542 18.8042 24.8833 18.7958 24.9083C18.7875 24.9333 18.7792 24.9583 18.7708 24.9875C18.7583 25.0125 18.7458 25.0375 18.7333 25.0583C18.7208 25.0833 18.7083 25.1083 18.6917 25.1292C18.6792 25.1542 18.6625 25.175 18.6458 25.1958C18.625 25.2167 18.6083 25.2375 18.5875 25.2542C18.5708 25.275 18.55 25.2917 18.5292 25.3125C18.5083 25.3292 18.4875 25.3458 18.4625 25.3583C18.4417 25.375 18.4167 25.3875 18.3917 25.4C18.3708 25.4125 18.3458 25.425 18.3208 25.4375C18.2917 25.4458 18.2667 25.4542 18.2417 25.4625C18.2167 25.4708 18.1875 25.4792 18.1625 25.4833C18.1375 25.4875 18.1083 25.4917 18.0833 25.4958C18.0542 25.5 18.0292 25.5 18 25.5C17.9708 25.5 17.9458 25.5 17.9167 25.4958C17.8917 25.4917 17.8625 25.4875 17.8375 25.4833C17.8125 25.4792 17.7833 25.4708 17.7583 25.4625C17.7333 25.4542 17.7083 25.4458 17.6792 25.4375C17.6542 25.425 17.6292 25.4125 17.6083 25.4C17.5833 25.3875 17.5583 25.375 17.5375 25.3583C17.5125 25.3458 17.4917 25.3292 17.4708 25.3125C17.45 25.2917 17.4292 25.275 17.4125 25.2542C17.3917 25.2375 17.375 25.2167 17.3542 25.1958C17.3375 25.175 17.3208 25.1542 17.3083 25.1292C17.2917 25.1083 17.2792 25.0833 17.2667 25.0583C17.2542 25.0375 17.2417 25.0125 17.2292 24.9875C17.2208 24.9583 17.2125 24.9333 17.2042 24.9083C17.1958 24.8833 17.1875 24.8542 17.1833 24.8292C17.1792 24.8042 17.175 24.775 17.1708 24.75C17.1667 24.7208 17.1667 24.6958 17.1667 24.6667L17.1667 18.8333L11.3333 18.8333C11.3042 18.8333 11.2792 18.8333 11.25 18.8292C11.225 18.825 11.1958 18.8208 11.1708 18.8167C11.1458 18.8125 11.1167 18.8042 11.0917 18.7958C11.0667 18.7875 11.0417 18.7792 11.0125 18.7708C10.9875 18.7583 10.9625 18.7458 10.9417 18.7333C10.9167 18.7208 10.8917 18.7083 10.8708 18.6917C10.8458 18.6792 10.825 18.6625 10.8042 18.6458C10.7833 18.625 10.7625 18.6083 10.7458 18.5875C10.725 18.5708 10.7083 18.55 10.6875 18.5292C10.6708 18.5083 10.6542 18.4875 10.6417 18.4625C10.625 18.4417 10.6125 18.4167 10.6 18.3917C10.5875 18.3708 10.575 18.3458 10.5625 18.3208C10.5542 18.2917 10.5458 18.2667 10.5375 18.2417C10.5292 18.2167 10.5208 18.1875 10.5167 18.1625C10.5125 18.1375 10.5083 18.1083 10.5042 18.0833C10.5 18.0542 10.5 18.0292 10.5 18C10.5 17.9708 10.5 17.9458 10.5042 17.9167C10.5083 17.8917 10.5125 17.8625 10.5167 17.8375C10.5208 17.8125 10.5292 17.7833 10.5375 17.7583C10.5458 17.7333 10.5542 17.7083 10.5625 17.6792C10.575 17.6542 10.5875 17.6292 10.6 17.6083C10.6125 17.5833 10.625 17.5583 10.6417 17.5375C10.6542 17.5125 10.6708 17.4917 10.6875 17.4708C10.7083 17.45 10.725 17.4292 10.7458 17.4125C10.7625 17.3917 10.7833 17.375 10.8042 17.3542C10.825 17.3375 10.8458 17.3208 10.8708 17.3083C10.8917 17.2917 10.9167 17.2792 10.9417 17.2667C10.9625 17.2542 10.9875 17.2417 11.0125 17.2292C11.0417 17.2208 11.0667 17.2125 11.0917 17.2042C11.1167 17.1958 11.1458 17.1875 11.1708 17.1833C11.1958 17.1792 11.225 17.175 11.25 17.1708C11.2792 17.1667 11.3042 17.1667 11.3333 17.1667L17.1667 17.1667L17.1667 11.3333C17.1667 11.3042 17.1667 11.2792 17.1708 11.25C17.175 11.225 17.1792 11.1958 17.1833 11.1708C17.1875 11.1458 17.1958 11.1167 17.2042 11.0917C17.2125 11.0667 17.2208 11.0417 17.2292 11.0125C17.2417 10.9875 17.2542 10.9625 17.2667 10.9417C17.2792 10.9167 17.2917 10.8917 17.3083 10.8708C17.3208 10.8458 17.3375 10.825 17.3542 10.8042C17.375 10.7833 17.3917 10.7625 17.4125 10.7458C17.4292 10.725 17.45 10.7083 17.4708 10.6875C17.4917 10.6708 17.5125 10.6542 17.5375 10.6417C17.5583 10.625 17.5833 10.6125 17.6083 10.6C17.6292 10.5875 17.6542 10.575 17.6792 10.5625C17.7083 10.5542 17.7333 10.5458 17.7583 10.5375C17.7833 10.5292 17.8125 10.5208 17.8375 10.5167C17.8625 10.5125 17.8917 10.5083 17.9167 10.5042C17.9458 10.5 17.9708 10.5 18 10.5C18.0292 10.5 18.0542 10.5 18.0833 10.5042C18.1083 10.5083 18.1375 10.5125 18.1625 10.5167C18.1875 10.5208 18.2167 10.5292 18.2417 10.5375C18.2667 10.5458 18.2917 10.5542 18.3208 10.5625C18.3458 10.575 18.3708 10.5875 18.3917 10.6C18.4167 10.6125 18.4417 10.625 18.4625 10.6417C18.4875 10.6542 18.5083 10.6708 18.5292 10.6875C18.55 10.7083 18.5708 10.725 18.5875 10.7458C18.6083 10.7625 18.625 10.7833 18.6458 10.8042C18.6625 10.825 18.6792 10.8458 18.6917 10.8708C18.7083 10.8917 18.7208 10.9167 18.7333 10.9417C18.7458 10.9625 18.7583 10.9875 18.7708 11.0125C18.7792 11.0417 18.7875 11.0667 18.7958 11.0917C18.8042 11.1167 18.8125 11.1458 18.8167 11.1708C18.8208 11.1958 18.825 11.225 18.8292 11.25C18.8333 11.2792 18.8333 11.3042 18.8333 11.3333L18.8333 17.1667L24.6667 17.1667C24.6958 17.1667 24.7208 17.1667 24.75 17.1708C24.775 17.175 24.8042 17.1792 24.8292 17.1833C24.8542 17.1875 24.8833 17.1958 24.9083 17.2042C24.9333 17.2125 24.9583 17.2208 24.9875 17.2292C25.0125 17.2417 25.0375 17.2542 25.0583 17.2667C25.0833 17.2792 25.1083 17.2917 25.1292 17.3083C25.1542 17.3208 25.175 17.3375 25.1958 17.3542C25.2167 17.375 25.2375 17.3917 25.2542 17.4125C25.275 17.4292 25.2917 17.45 25.3125 17.4708C25.3292 17.4917 25.3458 17.5125 25.3583 17.5375C25.375 17.5583 25.3875 17.5833 25.4 17.6083C25.4125 17.6292 25.425 17.6542 25.4375 17.6792C25.4458 17.7083 25.4542 17.7333 25.4625 17.7583C25.4708 17.7833 25.4792 17.8125 25.4833 17.8375C25.4875 17.8625 25.4917 17.8917 25.4958 17.9167C25.5 17.9458 25.5 17.9708 25.5 18C25.5 18.0292 25.5 18.0542 25.4958 18.0833C25.4917 18.1083 25.4875 18.1375 25.4833 18.1625C25.4792 18.1875 25.4708 18.2167 25.4625 18.2417Z"   fill="#FFFFFF" >
</path>
</g>
<defs>
<filter id="filter_573_3188" x="0" y="0" width="36" height="36" filterUnits="userSpaceOnUse" color-interpolation-filters="sRGB">
<feFlood flood-opacity="0" result="feFloodId_573_3188"/>
<feGaussianBlur in="feFloodId_573_3188" stdDeviation_bg="15" type="BackgroundImage" />
<feComposite in2="SourceAlpha" operator="in" result="background_Blur_573_3188"/>
<feBlend mode="normal" in="SourceGraphic" in2="background_Blur_573_3188" result="shape_573_3188"/>
</filter>
</defs>
</svg>
