<svg xmlns="http://www.w3.org/2000/svg" xmlns:xlink="http://www.w3.org/1999/xlink" width="36" height="36" viewBox="0 0 36 36" fill="none">
<g filter="url(#filter_573_3185)">
<path     fill="#FFFFFF" fill-opacity="0.2" d="M0 18Q0 17.5581 0.0216818 17.1168Q0.0433636 16.6754 0.0866749 16.2357Q0.129986 15.7959 0.194823 15.3589Q0.259659 14.9218 0.345865 14.4884Q0.43207 14.055 0.539437 13.6264Q0.646804 13.1977 0.775074 12.7749Q0.903343 12.352 1.05221 11.936Q1.20107 11.5199 1.37017 11.1117Q1.53927 10.7035 1.72819 10.304Q1.91712 9.90456 2.12542 9.51486Q2.33372 9.12516 2.56088 8.74615Q2.78805 8.36714 3.03355 7.99973Q3.27904 7.63233 3.54226 7.27741Q3.80549 6.92249 4.08581 6.58092Q4.36613 6.23935 4.66288 5.91194Q4.95962 5.58453 5.27208 5.27208Q5.58453 4.95962 5.91194 4.66288Q6.23935 4.36613 6.58092 4.08581Q6.92249 3.80549 7.27741 3.54226Q7.63233 3.27904 7.99973 3.03355Q8.36714 2.78805 8.74615 2.56088Q9.12516 2.33372 9.51486 2.12542Q9.90456 1.91712 10.304 1.72819Q10.7035 1.53927 11.1117 1.37017Q11.5199 1.20107 11.936 1.05221Q12.352 0.903343 12.7749 0.775074Q13.1977 0.646804 13.6264 0.539437Q14.055 0.43207 14.4884 0.345865Q14.9218 0.259659 15.3589 0.194823Q15.7959 0.129986 16.2357 0.0866749Q16.6754 0.0433636 17.1168 0.0216818Q17.5581 0 18 0Q18.4419 0 18.8832 0.0216818Q19.3246 0.0433636 19.7643 0.0866749Q20.2041 0.129986 20.6411 0.194823Q21.0782 0.259659 21.5116 0.345865Q21.945 0.43207 22.3736 0.539437Q22.8023 0.646804 23.2251 0.775074Q23.648 0.903343 24.064 1.05221Q24.4801 1.20107 24.8883 1.37017Q25.2965 1.53927 25.696 1.72819Q26.0954 1.91712 26.4851 2.12542Q26.8748 2.33372 27.2538 2.56088Q27.6329 2.78805 28.0003 3.03355Q28.3677 3.27904 28.7226 3.54226Q29.0775 3.80549 29.4191 4.08581Q29.7607 4.36613 30.0881 4.66288Q30.4155 4.95962 30.7279 5.27208Q31.0404 5.58453 31.3371 5.91194Q31.6339 6.23935 31.9142 6.58092Q32.1945 6.92249 32.4577 7.27741Q32.721 7.63233 32.9664 7.99973Q33.2119 8.36714 33.4391 8.74615Q33.6663 9.12516 33.8746 9.51486Q34.0829 9.90456 34.2718 10.304Q34.4607 10.7035 34.6298 11.1117Q34.7989 11.5199 34.9478 11.936Q35.0967 12.352 35.2249 12.7749Q35.3532 13.1977 35.4606 13.6264Q35.5679 14.055 35.6541 14.4884Q35.7403 14.9218 35.8052 15.3589Q35.87 15.7959 35.9133 16.2357Q35.9566 16.6754 35.9783 17.1168Q36 17.5581 36 18Q36 18.4419 35.9783 18.8832Q35.9566 19.3246 35.9133 19.7643Q35.87 20.2041 35.8052 20.6411Q35.7403 21.0782 35.6541 21.5116Q35.5679 21.945 35.4606 22.3736Q35.3532 22.8023 35.2249 23.2251Q35.0967 23.648 34.9478 24.064Q34.7989 24.4801 34.6298 24.8883Q34.4607 25.2965 34.2718 25.696Q34.0829 26.0954 33.8746 26.4851Q33.6663 26.8748 33.4391 27.2538Q33.2119 27.6329 32.9664 28.0003Q32.721 28.3677 32.4577 28.7226Q32.1945 29.0775 31.9142 29.4191Q31.6339 29.7607 31.3371 30.0881Q31.0404 30.4155 30.7279 30.7279Q30.4155 31.0404 30.0881 31.3371Q29.7607 31.6339 29.4191 31.9142Q29.0775 32.1945 28.7226 32.4577Q28.3677 32.721 28.0003 32.9664Q27.6329 33.2119 27.2538 33.4391Q26.8748 33.6663 26.4851 33.8746Q26.0954 34.0829 25.696 34.2718Q25.2965 34.4607 24.8883 34.6298Q24.4801 34.7989 24.064 34.9478Q23.648 35.0967 23.2251 35.2249Q22.8023 35.3532 22.3736 35.4606Q21.945 35.5679 21.5116 35.6541Q21.0782 35.7403 20.6411 35.8052Q20.2041 35.87 19.7643 35.9133Q19.3246 35.9566 18.8832 35.9783Q18.4419 36 18 36Q17.5581 36 17.1168 35.9783Q16.6754 35.9566 16.2357 35.9133Q15.7959 35.87 15.3589 35.8052Q14.9218 35.7403 14.4884 35.6541Q14.055 35.5679 13.6264 35.4606Q13.1977 35.3532 12.7749 35.2249Q12.352 35.0967 11.936 34.9478Q11.5199 34.7989 11.1117 34.6298Q10.7035 34.4607 10.304 34.2718Q9.90456 34.0829 9.51486 33.8746Q9.12516 33.6663 8.74615 33.4391Q8.36714 33.2119 7.99973 32.9664Q7.63233 32.721 7.27741 32.4577Q6.92249 32.1945 6.58092 31.9142Q6.23935 31.6339 5.91194 31.3371Q5.58453 31.0404 5.27208 30.7279Q4.95962 30.4155 4.66288 30.0881Q4.36613 29.7607 4.08581 29.4191Q3.80549 29.0775 3.54226 28.7226Q3.27904 28.3677 3.03355 28.0003Q2.78805 27.6329 2.56088 27.2538Q2.33372 26.8748 2.12542 26.4851Q1.91712 26.0954 1.72819 25.696Q1.53927 25.2965 1.37017 24.8883Q1.20107 24.4801 1.05221 24.064Q0.903343 23.648 0.775074 23.2251Q0.646804 22.8023 0.539437 22.3736Q0.43207 21.945 0.345865 21.5116Q0.259659 21.0782 0.194823 20.6411Q0.129986 20.2041 0.0866749 19.7643Q0.0433636 19.3246 0.0216818 18.8832Q0 18.4419 0 18Z">
</path>
<path d="M24.1463 18.8676L25.8026 19.0377C25.8022 19.0672 25.7959 19.0906 25.7926 19.1171C25.7862 19.1465 25.7799 19.17 25.7707 19.1963C25.7644 19.2257 25.7522 19.2491 25.743 19.2755C25.7337 19.3018 25.7215 19.3252 25.7094 19.3486C25.6972 19.372 25.6792 19.3953 25.667 19.4187C25.652 19.4391 25.6339 19.4623 25.6189 19.4828C25.6009 19.5061 25.5829 19.5234 25.562 19.5437C25.541 19.5641 25.5231 19.5814 25.4992 19.5988C25.4813 19.6161 25.4575 19.6335 25.4366 19.6479C25.4128 19.6593 25.389 19.6766 25.3652 19.688C25.3415 19.6994 25.3147 19.7138 25.291 19.7252L25.211 19.7504C25.1874 19.756 25.1607 19.7644 25.1371 19.7699C25.1075 19.7753 25.0809 19.7779 25.0544 19.7804C25.0278 19.7829 25.0013 19.7855 24.9718 19.785C24.9424 19.7846 24.9188 19.7842 24.8923 19.7808C24.8629 19.7804 24.8335 19.774 24.81 19.7678C24.7836 19.7644 24.7572 19.7551 24.7308 19.7459C24.7015 19.7396 24.678 19.7333 24.6546 19.7211C24.6282 19.7119 24.6019 19.6968 24.5785 19.6846C24.5552 19.6724 24.5318 19.6603 24.5085 19.6423C24.4881 19.6272 24.4648 19.6091 24.4444 19.5941C24.4211 19.5761 24.4037 19.5581 24.3834 19.5372C24.366 19.5192 24.3457 19.4983 24.3313 19.4774C24.311 19.4565 24.2966 19.4356 24.2793 19.4118C24.2679 19.3881 24.2506 19.3642 24.2392 19.3404L24.2049 19.2692C24.1936 19.2396 24.1822 19.2158 24.1766 19.1921C24.1712 19.1626 24.1628 19.1359 24.1572 19.1123C24.1518 19.0827 24.1493 19.0562 24.1467 19.0296L24.1467 19.0296C24.1442 19.003 24.1417 18.9765 24.1422 18.947C24.1426 18.9176 24.143 18.894 24.1463 18.8676ZM24.1463 18.8676C24.24 17.9585 24.1418 17.0788 23.8546 16.2198C23.5561 15.3312 23.0762 14.5488 22.4179 13.8696C21.8263 13.2593 21.147 12.792 20.3712 12.4646C19.6248 12.1495 18.8435 11.9841 18.0276 11.9684C17.2115 11.9587 16.4255 12.0997 15.6696 12.3914C14.9017 12.6876 14.2219 13.1203 13.6216 13.6921L15.0893 13.7456C15.1185 13.7467 15.1435 13.7476 15.1725 13.7528C15.1973 13.7579 15.2263 13.7631 15.2511 13.7682C15.2801 13.7734 15.3048 13.7826 15.3295 13.7919C15.3583 13.8013 15.383 13.8105 15.4077 13.8197L15.4813 13.8599C15.5016 13.8732 15.5262 13.8866 15.5464 13.904C15.5709 13.9174 15.5911 13.9348 15.6113 13.9522C15.6314 13.9738 15.6516 13.9912 15.6717 14.0128C15.6877 14.0301 15.7078 14.0517 15.7237 14.0731C15.7396 14.0945 15.7555 14.1159 15.7712 14.1415C15.783 14.1628 15.7987 14.1884 15.8103 14.2138C15.822 14.2351 15.8336 14.2606 15.841 14.2858C15.8524 14.3154 15.8598 14.3407 15.8672 14.366C15.8747 14.3913 15.8778 14.4206 15.881 14.4457C15.8885 14.471 15.8915 14.5003 15.8906 14.5253C15.8937 14.5546 15.8928 14.5796 15.8918 14.6087C15.8907 14.6379 15.8898 14.6628 15.8846 14.6918C15.8837 14.7168 15.8784 14.7458 15.8692 14.7705C15.8641 14.7953 15.8589 14.8243 15.8497 14.849C15.8404 14.8737 15.8312 14.8984 15.8176 14.9271C15.8084 14.9518 15.795 14.9763 15.7817 14.9966C15.7683 15.0212 15.7507 15.0456 15.7375 15.0659C15.7199 15.0903 15.7025 15.1105 15.6851 15.1307C15.6677 15.1509 15.6461 15.171 15.6289 15.1871C15.6073 15.2071 15.5859 15.223 15.5643 15.2431C15.5428 15.259 15.5214 15.2748 15.496 15.2864C15.4745 15.3023 15.4491 15.3139 15.4278 15.3256L15.3515 15.3604C15.3262 15.3678 15.301 15.3752 15.2715 15.3825C15.2462 15.3899 15.2209 15.3973 15.1916 15.4004C15.1665 15.4037 15.1372 15.4068 15.1121 15.41C15.0827 15.4131 15.0578 15.4122 15.0286 15.4111L12.4054 15.3155C12.1805 15.3073 11.9657 15.2536 11.7607 15.1586C11.5638 15.0681 11.3933 14.9409 11.2447 14.7854C11.1005 14.6258 10.9861 14.4466 10.9101 14.2437C10.8302 14.0323 10.7923 13.8141 10.8005 13.5892L10.8962 10.966C10.8972 10.9368 10.8981 10.9119 10.9034 10.8829C10.9084 10.858 10.9137 10.829 10.9187 10.8042C10.924 10.7752 10.9332 10.7505 10.9424 10.7258C10.9518 10.697 10.9611 10.6723 10.9703 10.6476C10.9837 10.6231 10.9971 10.5986 11.0105 10.5741C11.0238 10.5537 11.0372 10.5292 11.0546 10.509C11.068 10.4844 11.0854 10.4642 11.1028 10.444C11.1244 10.4239 11.1418 10.4037 11.1634 10.3837C11.1806 10.3676 11.2022 10.3476 11.2237 10.3317C11.2451 10.3158 11.2665 10.2999 11.2921 10.2841C11.3134 10.2724 11.339 10.2566 11.3644 10.2451C11.3857 10.2333 11.4111 10.2218 11.4364 10.2143C11.466 10.2029 11.4913 10.1955 11.5166 10.1881C11.5419 10.1807 11.5712 10.1776 11.5963 10.1743C11.6216 10.1669 11.6509 10.1638 11.6759 10.1647C11.7052 10.1616 11.7302 10.1625 11.7593 10.1636C11.7884 10.1646 11.8134 10.1655 11.8424 10.1708C11.8674 10.1717 11.8964 10.1769 11.9211 10.1861C11.9459 10.1912 11.9749 10.1964 11.9996 10.2057C12.0243 10.2149 12.049 10.2242 12.0776 10.2377C12.1023 10.247 12.1269 10.2604 12.1472 10.2736C12.1717 10.287 12.1961 10.3046 12.2165 10.3178C12.2409 10.3354 12.2611 10.3528 12.2813 10.3702C12.3015 10.3876 12.3216 10.4092 12.3376 10.4265C12.3577 10.4481 12.3736 10.4695 12.3936 10.4911C12.4095 10.5125 12.4254 10.5339 12.437 10.5594C12.4529 10.5808 12.4645 10.6062 12.4762 10.6275L12.5109 10.7038C12.5184 10.7291 12.5258 10.7544 12.533 10.7838C12.5405 10.8091 12.5479 10.8344 12.551 10.8637C12.5542 10.8888 12.5573 10.9181 12.5606 10.9433C12.5637 10.9726 12.5628 10.9976 12.5617 11.0267L12.5098 12.4496C13.2601 11.7438 14.1113 11.2083 15.0662 10.835C16.0266 10.4669 17.0195 10.2879 18.0535 10.301C19.0875 10.3201 20.0743 10.53 21.0228 10.9278C22.0034 11.3468 22.8664 11.9377 23.6146 12.7096C24.4469 13.5683 25.0532 14.5589 25.4334 15.6876C25.6137 16.2266 25.7376 16.7796 25.7995 17.3463C25.8615 17.9071 25.8645 18.4729 25.8056 19.0348L24.1463 18.8676ZM20.9334 22.1767C20.9622 22.1861 20.9869 22.1953 21.0116 22.2045C21.0362 22.2138 21.0651 22.2232 21.0899 22.2282C21.1147 22.2333 21.1437 22.2386 21.1686 22.2436C21.1977 22.2447 21.2226 22.2498 21.2517 22.2508L22.7209 22.3044C22.1207 22.876 21.441 23.3086 20.6733 23.6048C19.9173 23.8965 19.1313 24.0375 18.3153 24.0277C17.4993 24.0121 16.7181 23.8467 15.9716 23.5316C15.1958 23.2042 14.5165 22.7368 13.9249 22.1265C13.2956 21.4773 12.827 20.7304 12.5248 19.8859C12.234 19.0711 12.1175 18.2265 12.1781 17.3611L12.1752 17.3581C12.1786 17.3317 12.1761 17.3051 12.1794 17.2786C12.1769 17.2521 12.1744 17.2255 12.1689 17.196C12.1664 17.1694 12.1639 17.1428 12.1554 17.1162C12.147 17.0896 12.1445 17.063 12.1331 17.0392C12.1246 17.0126 12.1162 16.9859 12.1048 16.9622C12.0934 16.9384 12.0791 16.9117 12.0677 16.8879C12.0532 16.8671 12.0389 16.8403 12.0215 16.8224C12.0042 16.7986 11.9898 16.7777 11.9695 16.7568C11.9551 16.7359 11.9348 16.715 11.9115 16.6969C11.8941 16.679 11.8738 16.658 11.8534 16.643C11.8301 16.6249 11.8067 16.6128 11.7863 16.5977C11.7601 16.5826 11.7367 16.5704 11.7133 16.5583C11.6899 16.5461 11.6635 16.5369 11.6402 16.5247C11.6138 16.5155 11.5874 16.5062 11.558 16.4999C11.5346 16.4936 11.5052 16.4873 11.4817 16.481C11.4552 16.4777 11.4258 16.4772 11.3993 16.4738C11.3729 16.4705 11.3434 16.47 11.3168 16.4726C11.2903 16.4751 11.2608 16.4746 11.2372 16.4801C11.2106 16.4827 11.181 16.4881 11.1574 16.4936C11.1278 16.4991 11.1012 16.5075 11.0745 16.5159C11.0538 16.5244 11.0271 16.5329 11.0004 16.5472L10.9291 16.5814C10.9024 16.5958 10.8815 16.6102 10.8577 16.6275C10.8368 16.6419 10.8159 16.6622 10.795 16.6766L10.7352 16.7346C10.7202 16.755 10.6992 16.7753 10.6842 16.7957C10.6661 16.819 10.6511 16.8393 10.6359 16.8656C10.6238 16.889 10.6087 16.9094 10.5995 16.9358C10.5843 16.9621 10.5722 16.9855 10.5629 17.0118C10.5567 17.0353 10.5474 17.0617 10.5382 17.0881C10.5348 17.1145 10.5256 17.1409 10.5222 17.1674C10.5214 17.1735 10.5205 17.1798 10.5195 17.1862C10.5164 17.2073 10.5131 17.2294 10.515 17.2498C10.4389 18.3506 10.5874 19.4137 10.9573 20.4478C11.3384 21.5176 11.9307 22.4638 12.7282 23.2866C13.4764 24.0584 14.3394 24.6494 15.32 25.0684C16.2685 25.4662 17.2553 25.6761 18.2893 25.6951C19.3234 25.7083 20.3162 25.5293 21.2767 25.1612C22.2308 24.7882 23.0814 24.2532 23.8312 23.5483L23.7793 24.9697C23.7788 24.9843 23.7794 24.9978 23.7799 25.0114C23.7804 25.025 23.781 25.0386 23.7804 25.0531C23.7837 25.0783 23.7868 25.1076 23.7901 25.1327C23.7933 25.1578 23.8006 25.1873 23.808 25.2126C23.8154 25.2378 23.8228 25.2631 23.8301 25.2926C23.8417 25.3181 23.8533 25.3435 23.865 25.3648C23.8766 25.3902 23.8882 25.4156 23.9041 25.4371C23.9198 25.4626 23.9315 25.4839 23.9516 25.5055C23.9675 25.5269 23.9834 25.5483 24.0036 25.5658C24.0195 25.5872 24.0397 25.6046 24.0598 25.6262C24.08 25.6436 24.1044 25.6612 24.1247 25.6744C24.1491 25.692 24.1694 25.7052 24.194 25.7186L24.2676 25.7588L24.3416 25.7866C24.3663 25.7958 24.3952 25.8052 24.4199 25.8103C24.4489 25.8155 24.4738 25.8206 24.5028 25.8258C24.5276 25.8308 24.5568 25.8319 24.5817 25.8328L24.5818 25.8328L24.5818 25.8328C24.611 25.8339 24.6359 25.8348 24.6652 25.8317C24.6903 25.8285 24.7196 25.8253 24.7447 25.8221C24.774 25.819 24.7993 25.8116 24.8246 25.8042C24.8541 25.7969 24.8794 25.7895 24.9047 25.7821L24.9809 25.7473C25.0022 25.7356 25.0277 25.724 25.0491 25.7081C25.0745 25.6966 25.096 25.6806 25.1174 25.6647C25.139 25.6447 25.1604 25.6288 25.182 25.6087C25.1992 25.5927 25.2208 25.5726 25.2382 25.5524C25.2557 25.5322 25.2731 25.512 25.2906 25.4876C25.3039 25.4672 25.3214 25.4428 25.3349 25.4183C25.3481 25.398 25.3615 25.3734 25.3707 25.3488C25.3843 25.3201 25.3935 25.2954 25.4028 25.2707C25.412 25.246 25.4172 25.2171 25.4223 25.1922C25.4316 25.1675 25.4368 25.1385 25.4377 25.1136C25.4429 25.0846 25.4438 25.0596 25.4449 25.0304L25.5405 22.4072C25.5486 22.1865 25.5147 21.9726 25.4347 21.7654C25.3588 21.5583 25.2446 21.3748 25.092 21.215C24.9437 21.0512 24.769 20.9239 24.5681 20.8332C24.3672 20.7383 24.1564 20.6889 23.9357 20.6809L21.3124 20.5853C21.2833 20.5842 21.2583 20.5833 21.229 20.5864C21.204 20.5855 21.1747 20.5886 21.1494 20.596C21.1243 20.5992 21.095 20.6023 21.0697 20.6098C21.0444 20.6172 21.0191 20.6246 20.9895 20.636C20.9642 20.6434 20.9388 20.655 20.9175 20.6668C20.8921 20.6783 20.8665 20.6941 20.8452 20.7058C20.8196 20.7216 20.7982 20.7375 20.7768 20.7533C20.7554 20.7693 20.7338 20.7893 20.7165 20.8053C20.695 20.8254 20.6775 20.8456 20.656 20.8657C20.6385 20.8859 20.6211 20.9061 20.6077 20.9306C20.5903 20.9508 20.5769 20.9754 20.5637 20.9958L20.5234 21.0693C20.5142 21.094 20.505 21.1187 20.4956 21.1475C20.4863 21.1722 20.4771 21.1969 20.4719 21.2259C20.4668 21.2507 20.4616 21.2797 20.4565 21.3046C20.4512 21.3336 20.4504 21.3585 20.4493 21.3877C20.4484 21.4127 20.4473 21.4418 20.4506 21.4669C20.4537 21.4962 20.4569 21.5214 20.46 21.5507C20.4633 21.5758 20.4705 21.6053 20.478 21.6306L20.5002 21.7064L20.535 21.7827C20.5465 21.8082 20.5583 21.8294 20.574 21.855C20.5857 21.8763 20.6015 21.9019 20.6174 21.9233C20.6375 21.9449 20.6533 21.9663 20.6735 21.9837C20.6894 22.0052 20.7097 22.0226 20.7299 22.04C20.75 22.0616 20.7703 22.0748 20.7947 22.0924C20.8149 22.1098 20.8394 22.1232 20.8639 22.1366C20.8843 22.1498 20.9088 22.1633 20.9334 22.1767Z" fill-rule="evenodd"  fill="#FFFFFF" >
</path>
</g>
<defs>
<filter id="filter_573_3185" x="0" y="0" width="36" height="36" filterUnits="userSpaceOnUse" color-interpolation-filters="sRGB">
<feFlood flood-opacity="0" result="feFloodId_573_3185"/>
<feGaussianBlur in="feFloodId_573_3185" stdDeviation_bg="15" type="BackgroundImage" />
<feComposite in2="SourceAlpha" operator="in" result="background_Blur_573_3185"/>
<feBlend mode="normal" in="SourceGraphic" in2="background_Blur_573_3185" result="shape_573_3185"/>
</filter>
</defs>
</svg>
